/* XPM */
static char *_767177738aa43a7bfcf3fdd0f56b2c8[] = {
/* columns rows colors chars-per-pixel */
"64 64 243 2 ",
"   c #0A0503",
".  c #150D0A",
"X  c #160B06",
"o  c #1D130D",
"O  c #16110D",
"+  c #1C1511",
"@  c #1D1914",
"#  c #26150C",
"$  c #231B14",
"%  c #281D16",
"&  c #331E15",
"*  c #250E0A",
"=  c #29211B",
"-  c #382419",
";  c #2B2621",
":  c #382B24",
">  c #353530",
",  c #46291A",
"<  c #562B1C",
"1  c #56321F",
"2  c #452D23",
"3  c #473429",
"4  c #593827",
"5  c #57382E",
"6  c #653925",
"7  c #723B2D",
"8  c #3F403B",
"9  c #544439",
"0  c #79472D",
"q  c #684838",
"w  c #784A35",
"e  c #78533B",
"r  c #694730",
"t  c #50514D",
"y  c #795744",
"u  c #6D554D",
"i  c #6E6459",
"p  c #696A64",
"a  c #6F7270",
"s  c #5E655E",
"d  c #803E37",
"f  c #854C32",
"g  c #87563A",
"h  c #945C3B",
"j  c #85462E",
"k  c #97613E",
"l  c #865B42",
"z  c #955C44",
"x  c #93514A",
"c  c #AA5A4D",
"v  c #8B6348",
"b  c #946343",
"n  c #946A4D",
"m  c #9C6C4B",
"M  c #986647",
"N  c #8A6854",
"B  c #966B54",
"V  c #99745A",
"C  c #957757",
"Z  c #A66B48",
"A  c #A4734D",
"S  c #AC734D",
"D  c #AD754B",
"F  c #B4754B",
"G  c #B7794D",
"H  c #A96B54",
"J  c #A47553",
"K  c #AB7552",
"L  c #AB7A55",
"P  c #AB7C5A",
"I  c #A57658",
"U  c #B47B53",
"Y  c #BB7D53",
"T  c #BC7D5B",
"R  c #B57858",
"E  c #B66751",
"W  c #9D7A63",
"Q  c #947063",
"!  c #A97A65",
"~  c #B77C64",
"^  c #AC7B6E",
"/  c #C37D56",
"(  c #C8645A",
")  c #C67963",
"_  c #D07268",
"`  c #78847B",
"'  c #B4835C",
"]  c #BB835C",
"[  c #BE8356",
"{  c #AC815D",
"}  c #94846E",
"|  c #AB8467",
" . c #BD8A64",
".. c #B88767",
"X. c #BE916C",
"o. c #B98B74",
"O. c #BD9278",
"+. c #A88A76",
"@. c #C38355",
"#. c #C4845C",
"$. c #CC8B5D",
"%. c #C7875A",
"&. c #CF8E5E",
"*. c #C58564",
"=. c #C48C64",
"-. c #CC8D63",
";. c #C48C6B",
":. c #CC8D6A",
">. c #C88567",
",. c #D58B68",
"<. c #CB936B",
"1. c #C79269",
"2. c #D39265",
"3. c #D4956B",
"4. c #DA956B",
"5. c #D5996E",
"6. c #DB9B6D",
"7. c #D89467",
"8. c #C59472",
"9. c #CC9573",
"0. c #CB9A74",
"q. c #CC9C7A",
"w. c #C7957C",
"e. c #D49B74",
"r. c #DB9C74",
"t. c #D49D7A",
"y. c #D89876",
"u. c #D58975",
"i. c #E19B77",
"p. c #E19671",
"a. c #DDA275",
"s. c #D4A17B",
"d. c #DCA37C",
"f. c #DBA67B",
"g. c #E2A47C",
"h. c #E4A67A",
"j. c #888B84",
"k. c #969C99",
"l. c #93938C",
"z. c #B89A89",
"x. c #AD9587",
"c. c #9AA09E",
"v. c #B7A899",
"b. c #A9A297",
"n. c #9DA3A1",
"m. c #A1A6A3",
"M. c #A4AAA6",
"N. c #A7ADA9",
"B. c #A9AEAA",
"V. c #ACABA5",
"C. c #ADB1AC",
"Z. c #A7B1AD",
"A. c #B2B3AE",
"S. c #BBB4A8",
"D. c #AEB4B0",
"F. c #B4B6B1",
"G. c #B6B9B4",
"H. c #B9BBB6",
"J. c #BCBEB9",
"K. c #B7BCB8",
"L. c #B5ACA3",
"P. c #C99B85",
"I. c #D89D83",
"U. c #E49285",
"Y. c #CBA58A",
"T. c #D4A385",
"R. c #DCA583",
"E. c #DDAA85",
"W. c #DDAB8B",
"Q. c #D6A68B",
"!. c #CAA896",
"~. c #DCAC93",
"^. c #D8AB95",
"/. c #DCB398",
"(. c #D8B092",
"). c #E3A482",
"_. c #E3AA84",
"`. c #E4AD8C",
"'. c #EAAD8B",
"]. c #E8A887",
"[. c #E4B28D",
"{. c #EBB28D",
"}. c #E7B187",
"|. c #E8AB93",
" X c #E4B393",
".X c #ECB493",
"XX c #EDB996",
"oX c #E3B59B",
"OX c #EBB59B",
"+X c #ECBB9B",
"@X c #E5B89A",
"#X c #F2BC9C",
"$X c #F1B697",
"%X c #F1AC93",
"&X c #C3B6A8",
"*X c #D9B7A5",
"=X c #C3BDB4",
"-X c #EBBDA3",
";X c #E8BAA6",
":X c #F3BDA3",
">X c #F4B7A7",
",X c #F3B4AD",
"<X c #BEC1BC",
"1X c #F2C09E",
"2X c #EFC09D",
"3X c #C2C3BE",
"4X c #C9C4B9",
"5X c #D1C7B9",
"6X c #ECC3AC",
"7X c #ECC1A4",
"8X c #F3C3A4",
"9X c #F4C5AA",
"0X c #F5CAAD",
"qX c #F8C7AB",
"wX c #EDC7B1",
"eX c #F5CDB3",
"rX c #F6CAB6",
"tX c #F6D1B5",
"yX c #F8D1B6",
"uX c #F6D2BA",
"iX c #F8D4BB",
"pX c #F9D8BC",
"aX c #C4C6C1",
"sX c #CBCBC4",
"dX c #C7C8C2",
"fX c #D4CFC9",
"gX c #D2CCC6",
"hX c #D6D4CD",
"jX c #D9D4CE",
"kX c #D7D6D1",
"lX c #D8D7D2",
"zX c #DADBD5",
"xX c #DCDED9",
"cX c #D7D8D2",
"vX c #C8D1CF",
"bX c #F8D6C3",
"nX c #E7DAC9",
"mX c #DEE1DC",
"MX c #E0E2DE",
"NX c #FBE6D7",
"BX c #DFE4E0",
"VX c #E3E5E2",
"CX c #F2F4F3",
/* pixels */
"K.G.G.D.C.Z.M.s # X X X X # # & # # - 4 e l y B V N i u y y q 9 5 2 5 e v y n n n L L S S Z M f 0 4 & * o     . $ p k.k.k.c.n.n.",
"G.G.G.F.D.Z.l.3 # X o * * # - , 1 0 g h M M k M { | | W V N y y l q 5 e P ' P ' =.#.-.-.7.$.Y F Z h f - *       o 9 j.k.k.k.c.n.",
"K.G.G.F.D.N.j.3 X X X X X & 6 w b S U Y Y F G Z Z b h z v l g e g g v P ;.9.d.d.r.3.r.r.7.7.$./ Y F k 6 #       X % i k.k.k.c.c.",
"J.J.G.F.D.Z.l.:   . X X # 4 g M S [ -.-.-.2.&.%.&.$.Y U Y Y T T =.] =.d._._.)._.).r.g.i.4.7.2.%.@.Y F f - X     . = - a k.k.c.n.",
"J.J.H.F.D.C.l.:   X o o , w Z D U %.-.7.d.d.g.g.g.r.6.r.r.r.r.r.d._. X+X{._.{.{.]._.g.h.r.7.2.$.@.@.@.Z < # o   $ - # t l.k.c.c.",
"J.J.H.F.A.C.a $ X . $ 2 w M Y U [ $.7.6.g.'.{.{.{.XXXX+XXXXX+X+X@XXX-X-X8X+XXXXX.X{.}.h.i.4.2.$.%.%.%.D 0 , ; o o - # : j.k.k.n.",
"<XJ.H.G.F.C.p $ + % = q m K [ Y @.-.2.r.).{.XX1X1X#X#X8X8X9X8X8X8X0X8X8X8X8X1X#X#X{.XX'._.6.2.-.%.%.$.F Z r - = O O o - j.k.n.n.",
"<XJ.J.G.F.C.p $ $ % 3 v K U @.[ @.$.2.g.'..X+X8X8X8X0X0XeX0XeXeX0XeXeXeX0X0X9X8X8X1X#XXX'.i.4.2.&.2.&.G F h 3 = . O   @ a k.n.n.",
"3X<XJ.H.F.C.p o + ; 9 m K K $.@.@.$.2.r.{.XX8X8X8X9XeXeXeXeXeXeXeX8XeXeXeXeXeXtX0X0X8XXX{.h.6.2.7.7.&.Y G G r % . o X O p k.n.n.",
"3X3XJ.H.G.C.s o @ : q A S U $.@.$.$.2.g..X+X8X8X8XeXeXeXtXtX0X0X9X0X0X0XeXeX0XeXeXeX9X+X.X_.h.4.6.6.2./ Y Y b 3 % @ . + s k.n.n.",
"3X3X<XH.G.B.i $ % : q K K F $.%.$.-.4.g..XXX8X8X0XeXeXeXuXuXeXeXeXeXtXeXeXeXeXeXeX0X8X.XXX{.g.r.g.r.7.@.@.@.Z 4 = @ % @ > k.n.n.",
"aX3X<XJ.H.A.p + % : e K K G $.$.-.3.r.g.'.XX+X8X0XeXeXtXuXuXtXeXuXuXtXeXtXtXeX0XtXeX8XXX.X}.g.g.h.g.7.$.%.%.S r : % ; = > k.n.n.",
"aX3X3XJ.H.A.j.; % - e K U F %.-.-.7.r._.'.XX#X8XeX0X0X0X0XeXeXeX0XtX0XeXtXtXtXeXtX0X9X#X#X}.g.h._.g.6.$.-.@.S e 3 $ = + ; k.n.n.",
"aXaX3X<XJ.G.M.9 % - e U @.F @.$.@.2.).{.{.XX8X9X9X0X0X0XtXtXuXtXtXeXeXeX0X9X8X9X0X8X8XXX.X_._.h.h.g.r.2.2.@.G v 3 + . + > k.n.n.",
"dXaX3X3X<XJ.F.p % - e [ %.[ @.%.@.5.g.{..X+X8X8X8X0XtXtXeXtXtXeXtXtXeXeX0X9X0XeX0X8X#X#X{._._.h.g.g.6.7.7.@.G l : . . O t c.n.m.",
"dXdXaX3X3XJ.F.} ; % e @.%.@.@.@.@.2.d.'..X#X8X8X9XtXeXeXeXeXtXeXeXtXeX0X8X8X9X0X9X8X#X#X{._.a.g.h.g.r.7.7.$.G h % O . + p n.n.M.",
"sXdXaX3X3X<XH.j.; % e Y @.@.%.@.@.2.d.'.XX1X9X0XeXtXuXeXeXeXuXuXeXeXeX0X0X9X0X0X9X8X1X#X.X_.a.d._._.a.5.2.-.G k & . O = j.n.m.M.",
"sXsXdX3X3X3X<Xl.: $ e U @.%.-.$.$.6.d._..X+X8X0X0XeXuXtXuXuXuXuXeXtXeX0X9X0XeXtXeX0X8X8XXX_.f.6.a.h.d.r.2.$.G k - . O > k.n.m.M.",
"sXsXdXdXaX3X3Xj.: o e U @.&.7.6.a.h.R.[.[.@X8X0XeXeXuXuXiXiXuXiXuXiXeXeXuXuXuXuXeXeX8X0X@X`. Xr.r.g.d.r.2.$.F h - + O t k.n.m.M.",
"sXsXsXdX4X3X3Xl.> o e U %.6.h.h.h.'.R.W.W.@X6X0XeXtXuXuXbXbXeXuXuXuXuXuXuXuXbXuXeXeX6X6X@X XQ.q.;. .e.-.-.$.F k , = = t c.m.m.M.",
"hXsXsXsXdX3X3Xb.3 @ q U $.6.6.$.=.q.T.T.Q. XoX-X6X6X6XrXuXuX0XeXuXeXeXrXeXeXbXuXtX6X;X/.Y.w.+.v y q l K ] %.F b - @ ; t k.m.M.M.",
"fXfXsXsXsXdXdXv.3 $ q U D k M w e l W o.O.P.P.~.oXoXoX-X0X9X-X9XuXeX6X6X-X-X6X-X6X/.P.o.V y y q 9 2 - 4 e ' F b - + @ q ! m.M.M.",
"hXhXfXgXsXsXdXS.9 $ y m 1 - - # & - 3 5 9 u y N ! o.X.T.OX8XXX9XeX:X@X;XT.w.8...! N q 5 2 : 3 - 3 5 q 5 , g S m - $ + 4 Z c.M.M.",
"hXhXhXfXfXgXsX=Xt % y l 4 - - - - : - - - - - 3 q N B ~ R.`.)..X-X+XW.W.8.X.V q q 3 - : 2 3 q y e l v e 4 w K m - o % 6 M n.M.M.",
"hXhXhXfXfXgXgX4XQ = v m q r q y v V B y r 2 - , , 4 e b T <.3.`.OX_.t.8.P m g 6 , - 4 w n  .q.q.8. .U J l l A m - . & g | m.M.M.",
"jXhXhXhXfXfXgXsXx.- n P n n m I I I l r 2 - & < 1 4 6 6 f S -.|.OX_.<.Z f 0 6 < < < , - 3 5 e B ' =. .L P L P m 2 o 4 T P.M.M.M.",
"jXjXhXhXhXfXfXgXz.3 n L J n n w 4 - % * t a 2 u w 0 7 6 6 h 3.#X9XXX3.Z f 0 j j 0 i : t a & : - 6 w Z ]  .;. .Z 2 % h -.v.M.M.M.",
"jXjXjXhXhXhXfXgXv.5 n L J v 6 - # - u 2 y u q v.I j f h f h :.:XyX8Xr.#.U F G E ~ &Xu i u < a 5 & 1 0 Z ] 0.1.A 3 - Z -.L.M.M.M.",
"jXjXjXjXhXhXhXhX!.q J ' L k w 4 4 g V Q N W ^ w.9.;.T =.M Z :.XXyX9Xg.3.e.g.-.>./ w.x.w 7 u z.H w 6 h F [ 5.1.U 4 4 #.:.V.N.M.N.",
"jXjXjXjXjXjXhXhX/.m L 1. .Y Z g g K K H ~ 8.:.9.9.e.9. .Z F 2.XXyX9X).4.r.d. Xy.>.>...o.x.^ ~ H Z Z %.-.3.E.s.Y w z g.R.V.N.N.M.",
"jXjXjXjXjXjXhXhX@X] =.a.=.#.] U Z Z *.*.:.:.>./ #.:.;.S F @.,..X8X9X].7.4.r.R.5.#./ #.~ ~ *.;.:.-.<.5.a._.[.d.] k R h.OXL.N.N.N.",
"jXjXjXjXjXjXjXjX/.] =.a.<.<.e.<.-.T Y ] ] >.:.5.y.y.#.G / %.7..X$X8X'.7.4.p.).R.y.-.*.-.3.e.d.e.e.r.f._._.}.d.] S 5.p..XL.N.N.N.",
"jXjXjXjXjXjXjXjX*X<.=.h.g.e.R.f.R.d.a.E.W.].W.R.R.3.%./ / $.,.'.:X:X'.4.4.p.]. X`.).r.d.R.d.r.d.d._.[.XX[._.f.Y U R.7.W.B.N.N.M.",
"jXjXjXjXjXjXjXjX*Xe.@.a.g.d.`. X@XXXXX@X@X X X Xd.r.$./ %.%.-.'.:X:X%Xp.r.p.g.$X8XXX X'.+XXXXX.X[.+X7X#X.X_.r.Y ' ~.<.z.N.N.N.M.",
"jXjXjXjXjXjXjXjX!.#.U 2.5.e._.+X7X8X9X7X7X+XXX{.g.r.$.@.%.#.,.].:XqX$Xp.4.i.p.$X8X9X8X8X8X8X0X7X@X0X9X8XXX_.5.F  .W.R.b.B.N.N.M.",
"jXjXjXjXjXjXjXjX*XK m [ $.5._.XX8X8X0X8X9X8X.X{._.4.$.@./ #.3.|.:XqX$Xi.4.4.r.{.8X9XqX0X8X9X0XeX0X0X9X#X.X).3.S ..`.W.b.B.N.N.M.",
"jXjXjXjXjXjXjXjX*X*.m U -.5.d. X+X0X8X8X8X8X$X.X{.g.%.F R -.I.OXqXqX$X].y.,.4.'.8X8X0X0X0XyX0XiXtX0X8X{._.g.<.Z U t.O.V.C.N.N.M.",
"jXjXjXjXjXjXjXjX*X*.m S #.e.d.`.XX8X8X8X8X8X$X#X#X_.Y Z T y.`.:XtXqXOX].).3.-.'.8X9XeX0XeXpXiXbXpXeX#XXX'.d.-.M T 9.P.C.Z.Z.N.N.",
"jXjXjXjXkXkXjXjX*X=.K m ] <.t. X+X+X8X8X9XqX8X9X:Xd.S S *.I.OX>XuXrX>X'.i.4.*.).eXqXeXqXeXpXiXiXyXeX8X{._.5.=.M =.R.!.C.C.B.N.N.",
"jXjXjXjXkXkXkXjXgX!.P M T =.e.`.+XXX8X9XqXqXtX8X%Xy.R T >.R.$X>XuXiXqX].i.r.3.r.#XyXiXyXeXiXpXpXiX9X#X_.d.-.#.h <.I.L.A.C.Z.N.N.",
"kXkXkXkXjXjXjXjXjXgXz.v K U <.E.`.XX:X9XeXeXrXOXi./ T ~ >.y.OXrXbXNXiX%Xi.4.y.y.].9XiXiXyXeXiXpXtX:XXX_.5.=.T z 0.v.A.A.C.C.N.N.",
"kXkXkXkXjXjXjXjXjXhXS.n J K ] 5.r.'.#X:XeX9X:X].).>.H R R >.OXrXbXbXbX.Xy.y.).y.'.$XqXiXiXtXeXeX8X$X.Xd.-.<.U n v.A.F.A.C.C.N.N.",
"kXkXkXkXjXjXjXjXjXjX=XB J U U %.3.)..X$X8X:X'.'.).) z z 0 z I.-X9XqX9XI.) T :.:.+X#X#XqXyXtXqX8XXXXX'.r.<.e.S W A.F.F.A.C.C.C.N.",
"lXcXkXkXkXjXjXkXkXjX4XB A ..K T -.).'.$X$X'.'.].y.) z w < < M y.R.].y.H 7 6 Z u.XX8XqXqXqX9X:X$X'.'.d.5.e.0.Z +.F.F.F.A.A.C.C.N.",
"lXlXlXkXkXkXkXkXkXjXsXV m  .T U *.). X$X.X'.`.9.o.~ I B N w y B H ~ ~ z x H >.I.'.OX9X8X:X#X#X%X].'.d.e.s.1.S x.G.G.F.F.A.C.C.N.",
"cXcXlXlXlXlXlXkXkXkXhX} m ..;.U =.R.'.XX@XW.w.;.! ^ ^ ^ ! V Q ! R ) P.^ o.P.^.~.I.|.+X:X:X$X$X{.'. XR.s.e.] A v.H.G.F.F.A.C.C.C.",
"cXcXcXcXcXcXlXcXcXkXjX+.v ' <.] =.d. X-XW.Q.o.~ ^ o.z.P.O.P.P.Q.~.^.*X!.!.^./.P.Q.I.~.@X9X:X.XXX{.'.E.s.0.] I A.H.G.G.F.F.A.A.C.",
"zXcXcXzXcXcXcXcXcXkXkXv.v J  .] Y r.|. XY.Y.O.! ! o.P.P.Y.~.;X;X,X;X;X;X*X^.^.P.P.P.Q.Q.~.:X.X{.'.d.E.s.1.U | H.H.H.G.F.F.A.A.C.",
"zXzXzXzXcXcXzXcXcXkXkXS.v J =.' A e.`.T.Y.Y.O.! ! o.P.^.oX-XrXrXrXrXrXwX;X*X^.P.P.w.Q./.Q.@XXX_.d.d.E.s.=.K +.J.J.H.H.G.F.F.A.C.",
"zXzXzXzXzXzXzXcXcXcXcX4Xn n  . .A e. Xt.Y.Y...| ;.9.`.|.OX>XqXrXrXrXuXrXrX6X^.Q.w.o.Y.^.(.^. Xr.e.E. Xe.] A b.<XJ.H.H.H.G.F.A.C.",
"zXzXzXzXzXzXzXzXcXcXcXhXW n  . .m t.~.T.;.P g f z c R ) u.p.%XqXrXrXrXqX9X9X@X].t. .X.T.Q.T. Xr.e.W. Xe.' J S.<XJ.J.H.H.G.F.A.A.",
"zXzXzXzXzXzXzXzXzXzXcXkXz.n  .8.J 9.@X~.T.;.S z 7 d x x x E ( ( _ _ u.u.u.u.) R H Z g A 8.Q.-Xt.<. X[.<.A | <X3X<XJ.J.H.G.F.F.A.",
"xXzXzXxXxXzXzXzXzXzXzXcX=Xn { 8.I 8.-X@X7X X5.F E E _ u.U.u._ ( _ _ _ ( ( ) c c T y.].T.8./.-Xt.0. XE.' A x.3X3X<X<XJ.J.H.G.F.A.",
"xXxXxXxXxXzXzXzXzXzXzXzXjX+.m ;.P X.oXW..X`.d.*.E E _ _ U.,X,X,X,X,X,X,X|.U._ ) 3..X+X7X7X6X@X9.q. X0.A V S.aX3X3X<X<XJ.H.H.G.F.",
"xXxXxXxXxXxXxXxXzXzXzXzXzX&Xn ..X.I E.e.5.'._.:.:.>._ ,.U.,X>X,X,X,X,X|.U.p.u.3.`.+X8X9X@X@XW. .T.(.' A V H.aXaX3X3X<XJ.J.H.G.F.",
"xXxXxXxXxXxXxXxXxXxXxXzXzXcXx.n ' J ' -.e._._.:.<.9.t.I.).).|.OX>X>X%X'.).).].R.[.+X8X+X@X~.0.q.(.X.A S | J.aX3X3X3X3X<XJ.H.G.F.",
"xXxXxXxXxXxXxXxXxXxXxXxXxXzXL.v n P M #.e._.R.t.;.8.0.q.Q.Q.P.w.I.R.|. X~.Q.R.t.[.1X8XXX+XE.X.Q.0.L L ] ..J.aXaXaX3X3X<XJ.J.H.G.",
"xXxXxXxXxXxXxXxXxXxXxXxXxXzX&Xn v m b L 0.s.s.e.0.s.T.I.T.P.O.o.w.w.P.W.W.R.T.f. X8X2X XE. .q.0.' U ' 3.O.3XdXaXaXaX3X<X<XJ.H.G.",
"mXxXxXmXxXmXmXxXxXxXxXxXxXzX&Xm b v v A 0.0.;.e.0.W./.~.Q.P.w.O.w.P.^.oX@XW.R.`. XXX XW.0. .1.' L ' e.e.P.3X3XdXaXaX3X3X<X<XJ.H.",
"mXmXmXmXmXmXmXmXmXxXxXxXxXxX5XJ m M g M  .q.;.8.q.Q.oX/././.^.^./.~.;X;XoX X X X X X Xs.;.X. .J ' e.d.e.Y.aXm.aXaXaXaX3X<X<XJ.H.",
"MXMXMXmXmXmXmXmXxXxXxXxXzXjXnX| A L M l P 0.8.8.0.Q. XoXoXoX;X;X;X;X6X-X@X X~.oX XE.W.q. .' J =.s._.E.e.Y.cX` m.3XaXaXaX3X<XJ.J.",
"VXVXVXMXMXMXBXmXmXxXxXzX=X&XnX| L U U v v  .8.9.s.T. X;X;X;X;X;X;X;X6X;X-X@X X XW.W.f.8.' J <.f.[.[._.e.Y.VXj.s k.<XaXaX3X<X<XJ.",
"BXMXVXBXVXBXBXmXmXxXhXv.} v.fX| ' ] ] U v I 8.0.t.R.`.;X;X6X6X6X6XwXwX6XOX X X XT.E.0.' L <._. X@X XE.t.(.CXZ.s s j.G.aXaXaX<X<X",
"BXBXBXBXBXBXBXmXxXsXb.} C S.zX....=. .] S n ..8.q.0.W.;X-X6X6XwXwXrXeX-X@X~.@X Xq.q.' I e._. X+X+X@XW.R.*XCXvXa t t a n.<XaX3X<X"
};
