/* XPM */
static char *a304358882104c5d80199eaf92b2e607[] = {
/* columns rows colors chars-per-pixel */
"64 64 248 2 ",
"   c #0D0403",
".  c #070202",
"X  c #120504",
"o  c #150906",
"O  c #1B0C0A",
"+  c #1A0805",
"@  c #1E110D",
"#  c #121116",
"$  c #230C0A",
"%  c #260A07",
"&  c #23120D",
"*  c #2A120E",
"=  c #281814",
"-  c #341C19",
";  c #371915",
":  c #35120B",
">  c #2A241C",
",  c #33221C",
"<  c #3A271A",
"1  c #352910",
"2  c #342A24",
"3  c #3B2C25",
"4  c #382825",
"5  c #3B3329",
"6  c #322F2D",
"7  c #191E2F",
"8  c #461C16",
"9  c #40140F",
"0  c #45231B",
"q  c #54241D",
"w  c #463916",
"e  c #472B25",
"r  c #572A25",
"t  c #43342D",
"y  c #49372C",
"u  c #56352B",
"i  c #4B3B33",
"p  c #463934",
"a  c #583934",
"s  c #673C35",
"d  c #773A35",
"f  c #68302A",
"g  c #5D241E",
"h  c #3B4637",
"j  c #57491B",
"k  c #62511E",
"l  c #4C423B",
"z  c #54443C",
"x  c #58473A",
"c  c #574B2D",
"v  c #685624",
"b  c #6A443B",
"n  c #774438",
"m  c #6E572B",
"M  c #796728",
"N  c #7B6438",
"B  c #2B344E",
"V  c #4B3D40",
"C  c #3B4A6A",
"Z  c #34405C",
"A  c #4C4543",
"S  c #5B4C44",
"D  c #554A45",
"F  c #495A49",
"G  c #5C534A",
"H  c #5A5455",
"J  c #544D55",
"K  c #684C43",
"L  c #774B45",
"P  c #645549",
"I  c #7A5449",
"U  c #685C55",
"Y  c #755955",
"T  c #566956",
"R  c #546956",
"E  c #746759",
"W  c #706A50",
"Q  c #4B5772",
"!  c #5D7561",
"~  c #53607C",
"^  c #6A6767",
"/  c #766A68",
"(  c #687A68",
")  c #787678",
"_  c #6F6B74",
"`  c #625A64",
"'  c #85493D",
"]  c #914E3E",
"[  c #856D2B",
"{  c #89742C",
"}  c #937C33",
"|  c #8A7632",
" . c #854D46",
".. c #85564B",
"X. c #95594A",
"o. c #875953",
"O. c #975D56",
"+. c #8D4E4C",
"@. c #A35C52",
"#. c #8B6659",
"$. c #976658",
"%. c #887850",
"&. c #A66959",
"*. c #B46B5B",
"=. c #B0715B",
"-. c #9C6966",
";. c #9B7262",
":. c #877470",
">. c #A66B65",
",. c #A97465",
"<. c #B87B67",
"1. c #BB7B73",
"2. c #AF726D",
"3. c #A65D64",
"4. c #C27C66",
"5. c #C37B75",
"6. c #833F40",
"7. c #7B937D",
"8. c #6F8673",
"9. c #9B862E",
"0. c #9B8537",
"q. c #A58C35",
"w. c #AB9438",
"e. c #B59D3C",
"r. c #B59B38",
"t. c #A48B2E",
"y. c #BBA23B",
"u. c #B8A13B",
"i. c #C0A63F",
"p. c #968649",
"a. c #B59D42",
"s. c #A69146",
"d. c #968C74",
"f. c #BA826C",
"g. c #BA8677",
"h. c #B28A73",
"j. c #B9A143",
"k. c #C8856B",
"l. c #C78777",
"z. c #D58D76",
"x. c #CB957B",
"c. c #D3937B",
"v. c #D79477",
"b. c #D48C6F",
"n. c #E59C7C",
"m. c #576A93",
"M. c #787987",
"N. c #6C7690",
"B. c #657CA8",
"V. c #727FA8",
"C. c #485A82",
"Z. c #877C85",
"A. c #CE7E81",
"S. c #7D9188",
"D. c #6C82AB",
"F. c #7984AA",
"G. c #6C86B5",
"H. c #758BBA",
"J. c #7691BE",
"K. c #7D9CCD",
"L. c #7794C4",
"P. c #7E9DD0",
"I. c #888798",
"U. c #89928B",
"Y. c #B58A87",
"T. c #9795A6",
"R. c #8C96B8",
"E. c #9699B8",
"W. c #8793AA",
"Q. c #9BA2BA",
"!. c #A9ACBB",
"~. c #AEB2BE",
"^. c #B2B4BD",
"/. c #B3B9BE",
"(. c #B3A9B9",
"). c #989F9D",
"_. c #C88984",
"`. c #D68987",
"'. c #CA9586",
"]. c #D89786",
"[. c #DA9794",
"{. c #CE9391",
"}. c #E69C89",
"|. c #E59B95",
" X c #D9A48D",
".X c #E8A489",
"XX c #F3A98D",
"oX c #E4A393",
"OX c #EBAB95",
"+X c #EBA798",
"@X c #F3AC99",
"#X c #FAB59C",
"$X c #F6B399",
"%X c #EAB198",
"&X c #F3ABA4",
"*X c #FDBCA4",
"=X c #FCBCAB",
"-X c #F6B6A6",
";X c #F8BBB4",
":X c #EBACA8",
">X c #DC9DA2",
",X c #FDC2AB",
"<X c #FBC6A8",
"1X c #FDC4B4",
"2X c #FECBBC",
"3X c #FDC8B8",
"4X c #FED1B7",
"5X c #8B9AC5",
"6X c #8D9DCB",
"7X c #8595C5",
"8X c #949DC8",
"9X c #909FD0",
"0X c #93A1CE",
"qX c #9CA3C7",
"wX c #95A3D2",
"eX c #9CACDC",
"rX c #98A8D7",
"tX c #8EA2CF",
"yX c #AAACC1",
"uX c #A5A9C7",
"iX c #ADB2CA",
"pX c #ADB1C3",
"aX c #B3B6C4",
"sX c #B5BAC4",
"dX c #B2B5C9",
"fX c #B6BAC9",
"gX c #B8BBC8",
"hX c #A3ACD7",
"jX c #A8B1DB",
"kX c #9CAEE1",
"lX c #97AEE0",
"zX c #9CB1E3",
"xX c #A4ADE2",
"cX c #A4B3E4",
"vX c #AAB6E9",
"bX c #ACBBEC",
"nX c #A8B6E6",
"mX c #B0BDEE",
"MX c #B2BEF1",
"NX c #AEBEF0",
"BX c #A19FC2",
"VX c #AEC2F2",
"CX c #B2C2F3",
"ZX c #B0C0EF",
"AX c #FDCCC2",
"SX c #FDC5C4",
"DX c #FED3C9",
"FX c #FFD9D2",
/* pixels */
"xXxXvXbXMXCXbXbXnXzXzXcXbXbXVXCXCXCXCXCXCXCXCXCXCXmXbXbXvXcXcXnXbXZXCXCXCXMXMXmXmXmXCXmXbXbXbXbXbXbXnXnXnXnXcXjXhXhXhXhXwXqXqXqX",
"xXxXvXbXMXMXbXbXcXkXkXcXbXbXVXVXCXCXCXCXCXCXbXcXmXbXcXcXhXrXrXrXjXnXMXmXmXmXbXbXbXmXCXCXCXCXZXbXbXbXbXbXbXbXbXbXbXnXnXnXcXjXhXhX",
"xXxXvXbXMXMXbXvXcXeXkXzXnXbXVXCXCXCXCXCXMXMXjXE.hXuXW.wXwXE.E.E.qXqXhXqXqXhXhXcXnXbXmXCXCXZXbXnXnXbXbXZXZXZXCXCXMXMXmXmXbXbXbXbX",
"xXxXvXbXMXMXbXbXcXeXkXzXnXbXVXCXCXCXCXCXmXhXE.Z.uXE.) ) M.U.Z.I.I.M.M.I.BXE.8XrXrXcXbXVXbXbXcXeXeXkXnXbXZXCXCXCXCXCXCXCXCXMXmXmX",
"xXcXvXbXMXMXbXbXcXkXkXcXbXbXCXCXCXCXCXCXhXF._ _ T._ D U U E U / U D D ) I.I.W.E.E.E.hXbXbXnXrX9X6XwXkXnXbXCXCXCXCXCXCXCXCXbXbXbX",
"cXvXbXmXMXMXbXbXnXcXcXnXbXbXCXCXCXCXMXnXR.J A D / U P P S l S G S p i P / / / :.U.) ^ Q.cXeX9X7XR.7XwXcXbXCXCXCXCXCXCXCXbXnXcXkX",
"cXnXvXbXmXmXbXbXnXnXnXbXbXVXCXVXCXCXbXqXM.2 2 l U :.E U U U U P D z x E :.U D S x G z J I.wX5XF.V.H.6XeXbXCXCXCXCXCXCXCXvXeXwXwX",
"cXcXnXvXvXvXvXvXnXnXnXbXNXCXCXCXMXcXqXI.J 2 t S U U E U E / :./ U P S K E D t t t i l z H W.R.F.F.H.6XeXbXCXCXCXCXCXCXMXnXeX6X5X",
"jXjXjXxXxXxXcXcXcXcXnXbXbXVXCXNXrXM.^ H D S G S S D P x i i i P K U U S P U t 5 t , 3 y p ^ R.F.F.H.9XeXbXCXCXCXCXCXCXNXcXrX7XH.",
"iXiXhXhXhXhXhXhXjXjXcXbXbXCXbXhXI.U p p p t l 3 , , 4 t 3 3 - - i P S z U P U 5 5 > = 2 2 l M.F.R.5XwXeXbXCXCXCXCXCXCXbXcXwX7XF.",
"iXiXuXuXqXqXuXiXiXjXjXnXbXmXhXI.^ i 2 4 2 = = - & o @ @ 2 , & & , 3 y i S P P S t , = > = 2 ^ ) S.R.wXeXbXCXCXCXCXCXCXbXcXwX7XH.",
"dXdXiXuXuXuXuXiXiXiXjXcXvXmXI.5 p l 5 t 3 - & O O X X .   @ @ O = o & - 4 3 t i z t , 2 2 2 A U / _ I.qXjXbXmXZXCXCXCXMXcXrX6X7X",
"fXdXiXuXuXuXiXiXdXiXjXjXjXE.^ 5 A 5 5 z y 3 , O X X     X & O = O X X o O @ @ = , y t y = @ 2 z G p A Z.E.wXhXhXcXvXvXvXxXrXwX9X",
"gXfXiXuXuXuXiXdXdXdXiXQ.I.) H D A 3 y y y - , & + o o O = = = = o   X X X X X o = 4 D 5 = @ > y S D p U M.W.R.8X8XrXrXhXrXwX6X6X",
"gXfXdXiXuXiXiXdXdXiXE.U./ ^ ^ U G p t t y x a e , ; - - 4 = & $ o X o O o       & - i i 2 6 2 5 t l p p H _ N.N.F.R.R.8X8X8XR.R.",
"gXgXdXiXiXiXiXdXdX!.T._ / U U p t i P I o.#.;.;.#.o.I L I b u e ; ; - ; + o $ $ $ O < i = & 5 2 > > 2 p D H H ` _ M.I.I.T.T.T.T.",
"gXgXfXiXiXiXiXdXaX!.I.M.Z./ G p 3 K $.<.x.]. X%X%X X'.g.g.2.$.....b b s e - * * $ + * 3 2 & 2 p 2 > 2 D P D l S P W %.d.d.d.d.U.",
"gXgXfXiXiXiXdXdXfXQ.E.U.:.U z l y o.c..X.X$X<X<X,X,X=X-X;X-XoX X].].l.l.2.$. .s u 8 ; = t 2 2 D D 2 = p E P i x m [ 0.q.s.s.s.s.",
"fXgXfXdXdXdXdXdXfX!.I./ U G P x #.g.OX$X#X4X4X4X4X1X4X3XDXDX2X3X=X=X-X-X$X.Xv.z.=.X.n r e y 3 l A p 5 S E P x b [ 0.w.r.e.e.e.r.",
"gXgXfXfXfXfXfXfXfXQ.U P P P P #.f. X$X$X<X4X4X4X4X4X4X2XDXDXDXAX3X1X1X,X#X$XXX.Xz.=.&.' s a i p l D D z x x S W p.q.r.a.a.e.y.e.",
"gXgXfXfXfXfXfXgXfX) P y S K K h.]..X$X#X<X<X<X,X,X1X2XAXFXFXFXFXDXAX2X1X*X$X$XXX.Xb.k.&...b S i G G U G 5 t x %.s.a.e.e.w.w.r.e.",
"fXfXfXfXfXfXgXgXaX^ x e y K I x..XXX$X$X$X<X*X,X,X=X1XAXDXFXDXDXFXDXDX2X,X#X#XXX.Xn.v.k.$.I x P S U D G t 3 x W s.a.e.w.9.9.t.r.",
"fXfXfXsXsXfXfXfX~.U i t y y #.x..X.X$X$X$X#X*X=X=X1X1XAXSXAXFXFXFXAXAX3X=X#X$XXX.Xn.n.b.<.o.K a K z z t A i x W s.a.w.9.} } } t.",
"aXaXaXaXsXsXsXsX!.U i i e u $.x.}..X.XXX$X$X@X$X$X-X=X1X;X;X2X2XAXAX2X=X=X#X@XXX.Xn.n.v.<.$.b i y i z t G z P W s.e.w.} M M [ 9.",
"^.~.pXpXaX/./.sX!.D 5 3 , u $.c..X.XOX$X<X1X1X-X@X-X-X;X;X;XAXAX;X;X=X=X=X#X$XXX.Xn.n.b.<.&.b e - 3 i i i i S %.a.e.w.} M M M } ",
"~.~.~.~.^././.sX!.V 4 , & u $.x..XOX$X-X*X1X2X2X2X3X1X3X2XAXAXAXDXAX2X3X1X*X#XXXn.n.v.k.4.=.b e * = 3 i t 5 z p.a.e.t.{ M k v [ ",
"~.yXyXyX~.^./.sX!.V , @ & e $.x.oX%X-X,X,X3X2X2X2X2X1X;X3X2XAXAXAXAX2X3X1X*X#X@X.Xn.v.k.4.&.I e * O = i y 4 z s.e.e.t.{ v j j v ",
"yX!.!.yX~.^././.!.A = o O e ,. X%X-X=X-X-X;X;X=X;X1X1X&X=X1X3X2XAXAXAX3X=X-X$X@X.Xn.v.b.k.<...e - X O t D 4 y s.y.r.t.{ k w 1 w ",
"yX!.!.yX~.^.^.^.~.A & O o u h. X X].'.'.'._.].oX+X&X-XoX@X-X-X-X-X;X;X:X%X+XoXoXOX}.v.b.k.<. .e * X o - t 3 e s.y.e.t.[ k 1 = 1 ",
"uXuXuXuX!.~.^.^.~.p O X @ K g.g.h.,.;.o.I b ..-.g.].}.}.}.].[.]._.2.>.-.>.>.,.2.x.].c.k.z.<...; O X   o , 4 u w.y.e.t.[ k 1 1 w ",
"!.uXuXuXyX^.^.^.!.V @ X & #.h.$.$. .n q 8 r r d O.1.].}.].l.l.&.+.n r r f L $.>.$.,.k.k.c.l.X.; O X     @ = c r.u.e.t.[ k w j k ",
"!.uXuXuXyX~.^.^.!.J > O - ;.,.L L $.$.$.+.f q r f &.}.@X+X`.&.X. .d n  .>.g.1.,.&.&.,.k.c.c.=.e O X     O & v r.y.r.t.[ k j k M ",
"!.qXqXuXuXyX^.^.^.) 4 o 4 ,.$.s b s e ; 4 u r 8 8 n +X1X1X+X&.X.' ' d d L O.&.,.&.$.&.k.c.c.<.b & X X   + * c r.y.r.t.[ v k M { ",
"!.qXqXqXuXyX^.^.^.T.A & y h.;.u 0 $ O   X :.Y f 8  .-X2X=X}.`.&.' d r + O O 8 q ' X.&.f.v.c.k.o.e X o o + ; 0 w.y.r.t.[ v v M 9.",
"Q.E.8XqXQ.uX~.~.yX!._ = K g.&.r : b -.o.;.>X>Xg.l.l.3XAX=X}.+Xc._.-.-.L V Y -. .n ' &.k.c.b.f.o.u & O O $ 0 < w.y.u.t.{ M M [ 9.",
"qX8X8X8XqXuXuXyXyXuX_ , Y g.f.,.,.&.1.l.'.l.'.].].].2XDX-X}.@X$X-X:X`.{.:X;X:X Xc.c.c.z.b.k.<.$.a & O $ 8 s 0 w.y.y.w.9.{ { } q.",
"wX0X0X8XqXqXuXuXuXuX^ , #.x..X%Xz.k.X.] @.c.oXOX].oX1X2X-X}.@X*X*X=X-Xl.*.*.*.k.v.$X$Xn.v.k.<.$.a * * *  .n c q.e.y.r.t.9.9.t.w.",
"rXwXwXwXwXwXqXqXhXuX_ , #.].%X<X,X-XOXoX@X@X@X@XOX$X1X2X-X}.@X*X*X=X=X=X=X-X-X-X#X@X.Xn.v.k.<.$.u ; 8 g &.X.N 9.r.y.y.r.w.w.r.u.",
"eXrXrXrXrXrXrXrXrXhXZ.e #.x.OX*X,X4X4X,X*X#X.X].OX$X,XAX&X}.}..XOX=X1X,X=X*X*X=X*X#XXXn.v.k.=.$.u 0 f ] *.=.M } q.r.y.y.y.y.y.y.",
"zXzXeXkXkXzXeXeXeXeXT.K #.x.OX<X<X4X4X1X-X.X*.<.oXOX-X2X&X}.z.|.}.4.+X1X;X=X,X*X*X#XXXn.b.<.=.$.u n *.z.].2.k [ 9.w.y.i.i.y.y.y.",
"lXzXzXzXzXzXzXzXkXzX(.2.#.l..X$X#X*X*X@X}.4.>.OX}.oX-X;X+X}.+X-X@X`.@.].-X=X=X*X#X#XXXn.b.=.&...s =.k.z.].$.y v [ } q.r.r.r.r.w.",
"eXlXzXzXzXzXzXzXzXcX(.'.#.f.x..X.XXXXX}.b.&.&.'.f.].@X=X+X].+X+X].1.X.@.z.XX#X#X$XXX.Xv.k.=.$.L b 5.c.c.c.#.6 z P W %.0.0.q.0.} ",
"rXrXrXeXeXzXzXzXcXcX(.,.I ;.<.k.b.v.v.b.*.@.+.L s +.5.].5.>.@.O.O.>.g.d @.z.}.XXXX.Xn.b.<.&.&.L L l..X].b.:.C Q ` ^ E %.%.%.%.W ",
"tXtXwXrXrXeXeXkXkXxXuXY.I #.o.&.*.4.4.4.*.<.+.: + $ r d f 9 : ;  ._.{.>.f @.k.b.v.v.b.k.<.&.$.K ..c.c.].].N.m.m.m.m.N.M.) ) _ ^ ",
"5X5XtXtXwXwXrXrXeXzXjXY.Y #.b n +.@.&.*.5.1.O.0 X .   % : r a I >._.{._. .f &.<.4.4.4.<.<.&.X.L $.z.]..XY.B.B.B.B.B.B.B.B.B.B.m.",
"5X5X5X5X6X0XwXwXrXeXcXuXY #.s r n ] X.*.1.2.o.s = o   ; s s s L -.2.Y.Y.1.f d &.=.=.=.<.<.=.X...l.oXOX'.M.D.H.H.H.H.G.G.G.G.D.B.",
"7X5X5X5X5X5X6XtXwXrXhXjX) #.o.f n ' &.,.o.L u r e 8 q O.>.O.+.-.-.o.o.I -.-.f +.=.=.<.k.f.&.X.$.l.f.,.Z.V.H.L.K.K.K.K.L.L.L.L.L.",
"5X5X5X5X5X5X5X5X6XwXeXcXI.#.&...X.&.2.n ; ; 8 r 8 g f d 6.6.d d d L  .r r I >.=.<.<.f.k.<.$...u - - ` N.D.H.K.7XK.K.K.K.K.K.K.K.",
"5X6X6X6X5X5X5X5X6XwXeXcXT.#.<.,.$.<.<.s * + O % ; s $.O.$.,.$. .r % ; 9 9 n l.c.k.k.k.<.,.$.I =   5 ^ N.B.H.K.7XK.K.K.P.K.K.K.K.",
"0XwX0X9X9X6X6X6X9XwXeXcXW.#.1.2.,.l.'.g. .s s +.O.>.Y.g.g.Y.'._.2.3.3.>.+.l.OXoXz.l.<.,.&.$.b & 5 W ^ N.B.H.K.K.K.K.K.K.K.K.K.K.",
"wXwXwXwXwX0X0X0X0XwXeXcXE.E $.,.,.f.].oXoXl.*.5._.[.>X[.|.>X:X|.`.`.].&X&X.XoX].l.<.<.&.$.o.u N | W _ N.B.H.K.K.K.K.K.P.K.K.K.K.",
"wXwXwXwXwXwX0XwXwXrXeXcXhX_ Y ;.;.,.'.OX@X].<.1.2.5._.`.`.A.`.`.`.`.+X=X*X@X.Xc.f.<.,.$.I K N q.0.%.) N.D.H.K.K.K.K.K.P.K.K.K.K.",
"wXwXwXwXwXwXwXwXwXrXeXcXjX_ i I o.o.2.oX@XoXl.l.5.l.5.l.5.l.`.[.].oX=X=X@X}.l.<.,.,.X...b b s.w.0.%.) N.D.L.K.K.K.P.P.P.K.K.K.K.",
"wXwXwXwXwXwXwXwXwXrXhXcXW.R 2 u b b X.x.+X}.].l.l.`.`.{.[.[.[.[.oX@X-X$X.Xz.<.&.$.I b K b N q.9.} %.) N.D.L.K.K.K.K.P.P.K.K.K.K.",
"wXwXwXwXwXwXwXwXwXrXeXR.8.R 6 , e u ..g.OXoX].].oX&X-X;X;X;X-X&X+X@X-X+X].1.$. ...b e u K | } | M W _ N.D.L.K.K.K.K.K.K.K.K.K.L.",
"wXwXwXwXwXwXwXwXwXwXW.8.! R l = , e b ,.].@XoXoX+X-X;XSXSXSX&X&X&X-X@XoXk.&.X.n b a ; e N } { [ M W ^ N.D.L.K.K.K.K.K.K.K.L.L.H.",
"wXwXwXwXwXwXwX0XQ.S.8.8.! R h 3 - < a o.x.oX+XoX@X-X;XSXSXSX;X&X&X=X+Xl.O.X...I a ; ; N 0.0.} [ N W ^ N.D.L.K.K.K.K.K.K.L.L.G.B.",
"wXwXwXwX0XqXW.U.S.! ! ! R F h y x ; < y #.'.oX+XoX+X:X:X:X;X:X&X-X+X_.$.s b L s < ; s p.q.q.0.} | W _ N.D.L.K.7XK.K.K.L.H.D.B.m.",
"qXR.W.W.U.S.U.7.! F F R R F h y b e & $ - K ;.g.1.l.l.1.`.{._.[._.>.K e e e e ; ; u K s.j.j.a.w.0.%.) N.D.J.K.K.K.L.H.G.B.m.m.C ",
"U.U.7.7.7.7.7.8.( R F F R F h t b u ; + + = e b o.O.&.O.O.O.o.o.K y * * - ; < 8 8 s x %.j.u.u.w.0.p.d.M.D.J.K.K.L.H.D.B.m.C.C Z ",
"U.U.U.S.U.7.7.7.( ! F F R F h 3 n u 0 % + o O & - e s a e - 4 - = o $ ; ; 8 8 8 r n y G p.w.w.0.0.%.7.F.D.J.L.J.G.B.m.m.Q Z B 7 ",
"U.U.7.7.7.8.8.( ( ( ! F F F h > b u 0 : + + + o X   X X O X X o O * * ; 0 8 9 0 n b > h ( p.} { N E ) N.D.G.H.D.B.m.~ C B 7 7 # ",
"U.S.8.7.8.T ( ( T ! ( T R F 6 > a u 0 : % + + $ + X X   O O O - - ; ; ; 0 8 0 s n u > 6 T W | M m U _ m.B.B.B.m.m.Q C B 7 # # # ",
"7.8.7.U.( ! ( ( ( ( ( ! R F h > y u 8 : % + + + $ $ $ + $ $ * ; ; : 8 r q q s n n 0 = 2 F ! W W x H Q ~ m.m.m.C.Q Z B 7 # # # # "
};
