/* XPM */
static char *f5c013df7e414e95a8d8a56a96c38647[] = {
/* columns rows colors chars-per-pixel */
"64 64 252 2 ",
"   c #19161A",
".  c #110D11",
"X  c #1C1C25",
"o  c #1E1E28",
"O  c #171A23",
"+  c #211F27",
"@  c #162530",
"#  c #22222C",
"$  c #252526",
"%  c #252632",
"&  c #2A2A35",
"*  c #2D2D3B",
"=  c #272937",
"-  c #312E39",
";  c #29343B",
":  c #32323C",
">  c #343331",
",  c #3E282C",
"<  c #0A3C52",
"1  c #2B3745",
"2  c #343442",
"3  c #383A46",
"4  c #2F374C",
"5  c #053F64",
"6  c #4A3E42",
"7  c #0F4A59",
"8  c #364859",
"9  c #2D4856",
"0  c #084A68",
"q  c #0B536C",
"w  c #1C566B",
"e  c #0A5975",
"r  c #155A77",
"t  c #0F4D6D",
"y  c #275868",
"u  c #265D79",
"i  c #37526C",
"p  c #09617A",
"a  c #15637B",
"s  c #26657A",
"d  c #386673",
"f  c #46454B",
"g  c #594A4A",
"h  c #525154",
"j  c #68534E",
"k  c #695756",
"l  c #765A56",
"z  c #6B504C",
"x  c #796259",
"c  c #6D635E",
"v  c #555A67",
"b  c #4F6A71",
"n  c #6C6767",
"m  c #7B6B6B",
"M  c #766765",
"N  c #757274",
"B  c #705E60",
"V  c #4C3739",
"C  c #864C3A",
"Z  c #835D56",
"A  c #8D5A4A",
"S  c #83635C",
"D  c #8A665B",
"F  c #97695A",
"G  c #956652",
"H  c #A56B5B",
"J  c #AF715E",
"K  c #8C6C63",
"L  c #876966",
"P  c #956C64",
"I  c #8B746B",
"U  c #93746B",
"Y  c #9A7468",
"T  c #887876",
"R  c #987A73",
"E  c #846D76",
"W  c #A8786A",
"Q  c #B57968",
"!  c #AC7D72",
"~  c #A67A74",
"^  c #B67E73",
"/  c #A96D64",
"(  c #C37E6F",
")  c #9B847A",
"_  c #8F8C7F",
"`  c #B6826D",
"'  c #AD8274",
"]  c #A88579",
"[  c #B38375",
"{  c #BB8475",
"}  c #B3847A",
"|  c #BC8B7C",
" . c #B88979",
".. c #B18875",
"X. c #C58A76",
"o. c #C48C7B",
"O. c #CB8E7B",
"+. c #C68875",
"@. c #D28E7C",
"#. c #CD927D",
"$. c #C4917C",
"%. c #D2937D",
"&. c #D29877",
"*. c #C6886E",
"=. c #E09F7F",
"-. c #145E84",
";. c #1C6985",
":. c #1C6C8A",
">. c #156785",
",. c #1B738D",
"<. c #1B6F91",
"1. c #1C7A9C",
"2. c #1A7596",
"3. c #0C6F89",
"4. c #266987",
"5. c #24728D",
"6. c #2B738D",
"7. c #36748B",
"8. c #237492",
"9. c #237699",
"0. c #247A9B",
"q. c #2A7896",
"w. c #377795",
"e. c #2E6D8F",
"r. c #1B7CA3",
"t. c #177DA5",
"y. c #237DA3",
"u. c #2A7DA4",
"i. c #467589",
"p. c #4D7A8D",
"a. c #737882",
"s. c #927D85",
"d. c #1A819B",
"f. c #31829B",
"g. c #1C84AB",
"h. c #1C83A4",
"j. c #1E89B3",
"k. c #1B94B4",
"l. c #2383AB",
"z. c #2B84AA",
"x. c #2589AC",
"c. c #2B8BAD",
"v. c #2884A6",
"b. c #3687AA",
"n. c #248CB4",
"m. c #2A8AB5",
"M. c #388EB3",
"N. c #2493BC",
"B. c #2992BB",
"V. c #2694B7",
"C. c #3C93B4",
"Z. c #2B93AD",
"A. c #4B8299",
"S. c #738D91",
"D. c #4291B3",
"F. c #4D93AE",
"G. c #7199AD",
"H. c #7BA6BB",
"J. c #69A1AB",
"K. c #2697C4",
"L. c #2F91C3",
"P. c #529EC3",
"I. c #59A7C6",
"U. c #5FB2CC",
"Y. c #63B4CE",
"T. c #898689",
"R. c #978A88",
"E. c #969699",
"W. c #928D92",
"Q. c #BC8D81",
"!. c #B58A81",
"~. c #A99386",
"^. c #BB9487",
"/. c #A39898",
"(. c #AD8A86",
"). c #9EA3A7",
"_. c #A9A6A9",
"`. c #B5ADA9",
"'. c #B7B5B7",
"]. c #B7B0B3",
"[. c #A49C9D",
"{. c #CC9483",
"}. c #C99686",
"|. c #D39582",
" X c #D59A84",
".X c #DA9B85",
"XX c #D49B8B",
"oX c #DB9D8B",
"OX c #D69789",
"+X c #D69D93",
"@X c #CB9288",
"#X c #E19C88",
"$X c #E69D98",
"%X c #DDA28C",
"&X c #DBA489",
"*X c #C8A298",
"=X c #DDA392",
"-X c #D9A598",
";X c #E3A38C",
":X c #E7A68C",
">X c #E3A592",
",X c #E5A994",
"<X c #EAAB94",
"1X c #E4AB9A",
"2X c #EBAE9A",
"3X c #E8A597",
"4X c #EDB19C",
"5X c #E7B195",
"6X c #F1B39C",
"7X c #F0AD95",
"8X c #D0B4AE",
"9X c #EDB2A2",
"0X c #EEB8A7",
"qX c #F2B5A3",
"wX c #F6BAA9",
"eX c #EFB3A6",
"rX c #D3C6BE",
"tX c #FCC1AE",
"yX c #8EB3C8",
"uX c #B3BBC3",
"iX c #C8BCC4",
"pX c #BAC5CC",
"aX c #C8C9CA",
"sX c #CCD5DA",
"dX c #D5D6DA",
"fX c #D4CCCE",
"gX c #E7DBD8",
"hX c #EAD6CD",
"jX c #EAE3DB",
"kX c #F2E6DE",
"lX c #D7DCE2",
"zX c #CEDFE6",
"xX c #E3DCE2",
"cX c #DAE5EA",
"vX c #DEEAF3",
"bX c #E4EBED",
"nX c #EBEBED",
"mX c #E7E7E6",
"MX c #F3ECE8",
"NX c #F6F4ED",
"BX c #E6EBF4",
"VX c #EAF6F8",
"CX c #F3F3F3",
"ZX c #FDFCF6",
"AX c #F9F6FA",
"SX c #F6FAFA",
"DX c white",
"FX c #FEFFFF",
"GX c #FDFEFE",
"HX c #FEFEFE",
"JX c #F6F4F6",
"KX c #EFF1F0",
/* pixels */
"DXDXDXDXDXDXDXDXDXDXDXDXDXDXDXDXDXDXDXDXDXDXDXDXDXDXDXDXDXDXDXDXDXDXDXDXDXDXDXDXDXDXDXDXDXDXDXDXDXDXDXDXDXDXDXDXDXDXDXDXDXDXDXDX",
"DXDXDXDXDXDXDXDXDXDXDXDXDXDXDXDXDXDXDXDXDXDXDXDXDXDXDXDXDXDXDXDXDXDXDXDXDXDXDXDXDXDXDXDXDXDXDXDXDXDXDXDXDXDXDXDXDXDXDXDXDXDXDXDX",
"DXDXDXDXDXDXDXDXDXDXDXDXDXDXDXDXDXDXDXDXDXDXDXDXDXDXDXDXDXDXDXDXDXDXDXDXDXDXDXDXDXDXDXDXDXDXDXDXDXDXDXDXDXDXDXDXDXDXDXDXDXDXDXDX",
"DXDXDXDXDXDXDXDXDXDXDXDXDXDXDXDXDXDXDXDXDXDXDXDXDXDXDXDXDXDXDXDXDXDXDXDXDXDXDXDXDXDXDXDXDXDXDXDXDXDXDXDXDXDXDXDXDXDXDXDXDXDXDXDX",
"DXDXDXDXDXDXDXDXDXDXDXDXDXDXDXDXDXDXDXDXDXDXDXDXDXDXDXDXDXDXDXDXDXDXDXDXDXDXDXDXDXDXDXDXDXDXDXDXDXDXDXDXDXDXDXDXDXDXDXDXDXDXDXDX",
"DXDXDXDXDXDXDXDXDXDXDXDXDXDXDXDXDXDXDXDXDXDXDXDXDXDXDXDXDXDXDXDXDXDXDXDXDXDXDXDXDXDXDXDXDXDXDXDXDXDXDXDXDXDXDXDXDXDXDXDXDXDXDXDX",
"DXDXDXDXDXDXDXDXDXDXDXDXDXDXDXDXDXDXDXDXDXDXDXDXDXDXDXDXDXDXDXDXDXDXDXDXDXDXDXDXDXDXDXDXDXDXDXDXDXDXDXDXDXDXDXDXDXDXDXDXDXDXDXDX",
"DXDXDXDXDXDXDXDXDXDXDXDXDXDXDXDXDXDXDXDXDXDXDXDXDXDXDXDXDXDXDXDXZXCXKXnXKXJXZXDXDXDXDXDXDXDXDXDXDXDXDXDXDXDXDXDXDXDXDXDXDXDXDXDX",
"ZXZXGXGXGXGXSXGXGXGXDXDXDXDXGXGXGXGXSXSXSXSXGXSXSXZXSXZXZXmXaX`._./.R.T T R.[.aXjXNXGXGXGXGXDXGXGXDXDXDXDXDXDXDXDXDXDXDXDXDXDXDX",
"GXGXZXZXZXZXZXZXZXZXZXZXZXZXZXZXZXZXZXZXZXZXZXNXZXNXmX].E m m M M B g j j g k n n R.`.MXDXJXGXGXGXDXDXDXDXDXDXDXDXDXDXDXDXDXDXDX",
"AXAXGXZXZXZXZXDXDXDXZXZXZXZXZXZXZXZXZXZXZXZXNXZXMX`.k k m m k k k k k j g g g k n n M N ].CXDXDXDXDXDXDXDXDXDXDXDXDXDXDXDXDXDXDX",
"pXpXpXpXsXzXcXcXcXcXvXBXBXBXVXVXVXVXVXVXSXZXZXfXn g j M l k k k M j j j j j k k k c c c c W.KXJXGXGXDXDXDXDXDXDXDXDXDXDXDXDXDXDX",
"H.G.G.G.G.G.H.H.H.H.H.H.yXyXyXyXyXyXyXyXuXuX_.f h k l j j k c j l M l j l j l x k k l x k k _.gXmXmXbXbXbXbXnXnXKXGXDXDXDXDXDXDX",
"p.s s 4.4.4.4.4.e.e.6.6.6.7.w.7.7.7.7.i.p.a.h k n M l S K K I x l K P l l l l S S l x x l g c W.W.T.W.E.E.E.).)._.KXDXDXDXDXDXDX",
"w.s ;.;.;.:.:.:.5.5.,.,.5.5.6.6.e.4.4.d b f g l M L Y ! ! W ! ~ P Y Y D D D D P U P Y P K z j m /._.'.uXpXpXaXaXaXJXDXDXDXDXDXDX",
"w.s ;.;.;.;.;.:.:.8.2.8.6.6.6.6.e.7.7.b v f j S K ~ ^ ^ +.o.o.{.o.o.| ^ ! W ! ! [ | | ' ' U l M R.].aXsXdXsXlXsXlXSXDXDXDXDXDXDX",
"A.4.;.;.;.:.:.:.8.9.9.8.6.6.8.9.q.7.d b f g l D W ^ *.+.O.#.%.|..XoXXX|.O.O.{.{.{.o.o.X.[ ! Y L s.[.rXfXdXsXsXsXlXSXDXDXDXDXDXDX",
"F.6.,.,.,.,.2.1.1.1.<.5.5.5.9.0.q.7.b 8 g j K Y ^ ^ +.O.%.|. X.XoX%XoXoXoXoXoXoX X#.o.o.X. .~ R E R.8XaXaXsXdXsXlXSXDXDXDXDXDXDX",
"F.6.8.2.1.1.d.v.h.h.9.q.6.0.1.r.q.7.b 3 z P Y ' o.O.#.%.|..XoX%X;X>X;X;X#XoX.X.XoXoX|.o.o.o.} R I T W.8XfXdXdXsXlXSXDXDXDXDXDXDX",
"F.6.q.0.0.y.v.v.l.y.9.5.f.b.y.y.w.i.8 g l ! [  .X.O.%.|..XoX%X>X,X<X<X<X;X;X;X;X#XoX XO.X.o. .} U M m /.8XfXdXlXlXSXDXDXDXDXDXDX",
"F.q.0.u.u.u.z.z.z.z.9.e a 3.<.b.A.b h l P ^ { { X.#.|..XoX%X>X,X2X2X2X2X<X,X;X;XoXoX X%.#.O.o.[ Y x l m /.fXdXlXcXZXDXDXDXDXDXDX",
"I.b.v.v.z.z.z.z.m.M.v.5.8.1.,.a d v M z } +.X.o.O.%. XoX;X,X<X2X6XqX9X9X4X2X1X,X=X%XoX X%.O.O.{ W S l M T _.xXdXcXZXDXDXDXDXDXDX",
"I.b.v.x.c.m.n.n.n.B.1.>.,.d.0.4.b k g L !.{ o.O.|.|..X%X,X2X4X6XqXwXwXwX0X0X9X1X1X=X%X.X%.O.$.X.! K l L m R.aXlXcXGXDXDXDXDXDXDX",
"I.b.c.x.n.n.N.K.K.K.B.h.3.t.3.s v j j I !.X.O.O..X.X.X;X<X2X4XqXwXwXwXwXwXwX9X1X1X,X;XoX|.#.o.| [ K j L m T _.cXmXDXDXDXDXDXDXDX",
"I.b.b.m.m.n.B.K.K.K.N.c.Z.N.Z.i.v M l R | O.@.@..X X.X;X<X<X<X2XwXqX9XqXqXqX4X<X<X,X;X%X X{.o.Q.' K l M M M W.dXmXDXDXDXDXDXDXDX",
"P.b.b.c.m.m.B.L.L.L.y.-.;.y.b.A.n N L ) Q.{.@.%.%.|..X;X>X>X;X,X9X2X9X2X1X1X,XoX%X%X;X%XXXXX}.Q.' U L L T m E.gXmXZXDXDXDXDXDXDX",
"I.b.c.c.m.m.B.L.L.L.l.5.e.9.e.b N N I ) } o.%.|.O.%.%.#X;X>X>X,X9X9XqX9X1X,X>XoX%X%X;X>X%XXX}.Q.' R T L I T `.mXmXDXDXDXDXDXDXDX",
"U.C.c.n.n.V.B.B.K.K.V.,.8.u.w.p.N n T R ' X.|.#.+.#..X#X>X<X>X2X4X9XqX9X2X4X2X>X>X;X%X%XoXXX}.Q.} ] ) ) I E '.jXnXDXDXDXDXDXDXDX",
"Y.C.c.V.V.N.N.K.K.K.k.d.3.2.8.G.T T T U ' | #.+.O. X.X;X<X2X<XqX9X9XqXqXqXqX4X,X,X,X X>X%XXX}.Q.} ] (.) ) m _.jXMXDXDXDXDXDXDXDX",
"U.C.c.V.B.N.K.K.K.K.K.Z.Z.k.v.G.W.T.) I ' | o.#.|. X;X:X<X2X6XwXwXqXwXwXwXqX6X4X<X,X;X%X%X}.XX| [ ] ] ) R.T E.gXNXDXDXDXDXDXDXDX",
"I.b.v.c.m.B.B.K.K.K.m.-.9.g.Z.J.T.T.R.I ' | { X. X>X<X<X<X2X6XqXwX9XqXqXqXqXqXqX4X%XO.O. XXX}.| [ ] ~.R ) R./.gXCXDXDXDXDXDXDXDX",
"Y.C.v.Z.c.n.B.B.B.B.u.-.;.:.r i.S._ ) U ' [ / F / [ {.,X2X>X<X<X4X<X7X<X6X6X4X5X&X$.[ o.o.{.$.| } ] *X~.) } *XgXNXDXDXDXDXDXDXDX",
"Y.D.z.Z.c.x.B.B.B.B.c.>.;.q.e.d S.) ) U } / W ^ Y D G G Q +.oX.X.X:X;X;XX.Q G F Y ' | }.{ o.o.| [ ] ^.~. .| -XgXCXGXDXDXDXDXDXDX",
"Y.D.b.c.c.x.V.B.B.N.x.3.3.2.<.7.a.I R R } G Q / W Z Z P F H ( @.;X&Xo.W F Y P Z (.~ ! | ^ { {.| [ } ^. .*X}.-XhXZXDXDXDXDXDXDXDX",
"U.D.b.c.c.x.V.V.N.N.B.M.c.h.d.e.b s.R U  .H F A [ Y R (.^ ^ H .X<X:X X{. .! Q.~ (.~ H / Q O.{.| [ !.} | 9XXX8XgXZXDXDXDXDXDXDXDX",
"I.b.b.c.z.x.n.V.N.N.z.-.0.d.x.b.i.a.T K !.| { X.o.}.*X*X+XOX/ |.<X;X&.&X&X{.{.XX-XXX{.O.O.%XXX| [ } ' OXwXXX8XMXJXDXDXDXDXDXDXDX",
"I.D.b.v.z.x.m.n.N.B.u.r a >.p >.4.b m U | o.O.#. XXX*X+X-X|.Q |.2X;X&.=.;X#X.X#X>X%X X%..XoX X| [ ~ ' 3XwX+X8XMXAXDXDXDXDXDXDXDX",
"U.C.v.v.x.x.n.n.n.B.z.>.a ;.>.>.r y n U ' X.|.|.|. X%X>XoX@.Q .X2X%X%..X:X<X<X:X:X;X.X;X;X.X#.[ ' ' }.3X2X*XhXnXJXDXDXDXDXDXDXDX",
"U.M.v.l.x.x.l.x.n.n.h.3.p ;.a >.u 9 M U W X..X.X%X;X#X#X#X@.( oX>X>XoX X;X,X<X<X7X7X<X<X;X%.o.[ ' ] }.$X$X-XjXmXSXDXDXDXDXDXDXDX",
"I.D.v.l.x.g.j.j.n.n.j.V.l.9.>.a r y M M K o.@.=X,X7X<X<X|.Q +.XX,XoX{.O.oX2XqX,XwXwXwX<X.X%.o.[ ! ] ! OX$X-XjXKXGXDXDXDXDXDXDXDX",
"P.M.u.l.l.g.g.j.j.n.x.<.q.u.v.1.<.4.N M K { O.>X5X6X<X>X%.+.O.=X9X1X%XXX{.oX,XqXqXwXwX4X&X%.o.{ ! Y | $X$X8XmXbXZXDXDXDXDXDXDXDX",
"P.C.u.y.l.h.g.g.j.x.f.7 r r e p 3.<.N E L W X.;X<X5X4X;X+.+.|.1XwX9XoXoXXX=XoX>XqXtXwX<X.X#.o.{ ! ' 4X3X-XrXnXbXJXDXDXDXDXDXDXDX",
"I.D.u.y.l.h.g.g.g.l.f.r s ;.e p q 0 8 E L ~ ` #X:X5X%X XJ J X.XX1X+X|.#.^ >X4X X,X4X4X;X%.O.o.{ ! Q %X1X*XMXcXbXJXDXDXDXDXDXDXDX",
"I.D.0.y.y.h.h.g.g.g.t.e >.r e a w w 9 v E U ` @.#X&X%X%.*.H C H { / J X.>X>X2X1XoX,X,X;X%.O.o.{ !  .-X*XkXmXbXbXAXDXDXDXDXDXDXDX",
"I.D.0.0.y.r.h.g.g.l.g.r.<.>.e e 7 w w 9 N R { O.oX>X;X%.#.O.O.X./ X.2X>X>X%X1X>X>X>X,X%X%.#.o.[ W ' 8XkXmXBXBXbXSXDXDXDXDXDXDXDX",
"P.b.9.0.0.1.h.h.h.l.r.3.:.9.0.0.;.r q 7 b U { $.oX>X|.+.#.|.=X1X1XXX,X,X>X1X,X,X1X>X;X%X%.#.o.^ W ~.MXmXBXBXBXbXVXDXDXDXDXDXDXDX",
"I.b.9.0.1.1.1.t.t.r.0.q e e e 3.1.9.q.a d I { {.&X;X%.O.%. XoX1X=X=X2X>X>X=X XoX%XoX;X%X%.%.o.! Y `.bXvXvXBXBXbXVXGXDXDXDXDXDXDX",
"F.M.y.y.y.r.r.t.t.t.0.q r r q r 0 w r p s N ^ O.=X&X X*.Q ^ ^ @X+X-XOX|.O.+.*.*.%.;X;X;X%.#.[ Y R rXbXcXcXBXBXbXSXDXDXDXDXDXDXDX",
"F.b.0.y.y.r.r.t.t.t.2.q p a q e q t w 7 a b ~ o.%X;X.X` A A G H / / / / / / +.,X,X;X<X;X X$.` F S T lXcXcXBXBXbXSXDXDXDXDXDXDXDX",
"F.b.0.0.0.1.r.r.t.t.1.,.>.e e q q 0 r 0 ;.d I ...X#X X#.*.+.|.OX+X+X>XoXoX X;X6X2X4X,X&X X#.! D z   N cXvXBXBXbXSXDXDXDXDXDXDXDX",
"F.b.8.9.2.2.1.1.r.r.1.>.2.9.8.;.r 0 t 0 a y n ] %.#X.X.X*.O.oX3X3X+X>XoXoXoX,X<X<X4X>X|.#.| F D x $ + pXcXBXBXbXSXDXDXDXDXDXDXDX",
"F.f.8.<.<.<.2.1.2.1.<.5 e 0 t r 4.4.4.r >.a d I { #X|..X.X.XoXoXoXoXoX>X>X<X<X<X<X,XXX#.{.W A U ) n   h BXBXBXbXSXDXDXDXDXDXDXDX",
"F.f.5.:.:.:.:.<.<.<.>.t r t 0 0 5 0 7 7 r >.y N ~ @XO..X;X;X;X>X>X3X,X<X<X<X<X:X:X&X}.{.` A D R R.8Xf & pXvXBXbXZXDXDXDXDXDXDXDX",
"F.f.5.:.:.:.>.>.>.3.r t t t q r t 7 7 @ r r s h I } O..X.X.X#X;X:X<X2X<X<X<X<X;X&X X}.| G G Y ) ~.dXN # f cXBXbXAXDXDXDXDXDXDXDX",
"A.w.4.;.;.:.:.:.:.<.:.;.r e 0 0 0 0 7 < u s 7 ; , K { #. X.X#X:X<X<X<X<X<X<X<X%X X$.' G A Y ' ) `.dXN X % T.KXbXAXDXDXDXDXDXDXDX",
"A.w.4.;.;.;.>.>.;.:.>.q e r r r r e 9 9 8 1 = +   V Y }.}.%X<X2X2X1X4X4X2X<X>XXX .P S Z / !  .~.fXdXv O % 3 aXKXCXZXGXDXGXDXZXZX",
"A.7.:.>.>.>.>.>.>.>.w < 7 7 7 y y y 4 4 4 = o X . g z ~ }.XX=X1X1X-X-X-X=X=X}.! F S x F [ [ !.8XnXuX- # & * h dXCXZXGXDXDXDXDXZX",
"p.7.4.4.4.u u u u y 8 9 8 1 1 9 1 1 1 * * # $   . k g l Y ' }.}.Q. .^.^.Q. .~ D D D F ' | ^.(.gXmXE.X X # & 3 v _.bXGXDXDXDXDXDX",
"p.d i i i 8 8 8 4 3 1 2 2 2 2 2 : - - & & # X   > n 6 z l Z D D D D K K K D S K U F W Q.^.^.fXnXlXv # o # & 2 3 f a.fXAXGXDXDXDX",
"8 4 4 4 4 4 2 : : - * * * * 2 2 * * & % # +     h T.g j z l S S S L S S S K K K Y ! [ | ^.8XMXnXuX& # o # % : 2 3 f v ).KXGXGXDX",
"4 4 1 ; ; ; ; ; & % = = = = = = = = % # + X     N _.E g z x S S S S l Z K K U ~ } | ^.^.rXZXAXbXE.# + X # % : : 3 6 3 f n '.CXZX",
"2 : 2 2 1 1 * * * = % % % % % & & * % # X O O   T.].8Xl j l S S L K K L P Y ~ Q.}.}.^.rXZXNXnXbXv # o X o % * * : 3 3 6 f f n '.",
": : 2 2 2 2 2 2 * * % % % # # & - - # # X O X . E.iXfXiXm L U P Y Y ~ Y ~ ! | @X}.*XhXZXNXCXKX'.+ # o X o # * * * 2 2 3 3 f f f ",
": : 2 : : * * * & & % & % # # * : & # # X O X . _.aXlXxXfXT R P W [ ' ! ^ [ | *X8XMXZXZXJXKXKXa.& # o o o # & : * : 2 3 3 3 3 f "
};
