/* XPM */
static char *_148c7fac91642d8901f8a2fe7d77c73[] = {
/* columns rows colors chars-per-pixel */
"64 64 243 2 ",
"   c #030303",
".  c #070D0A",
"X  c #090C0B",
"o  c #060807",
"O  c #151C1C",
"+  c #1A1E1C",
"@  c #141915",
"#  c #13140F",
"$  c #1B211E",
"%  c #322A1A",
"&  c #1D1F20",
"*  c #1C2322",
"=  c #1B2325",
"-  c #222524",
";  c #252A2B",
":  c #2A2C2C",
">  c #262927",
",  c #382B28",
"<  c #33322B",
"1  c #2D2E30",
"2  c #2E3132",
"3  c #2D3439",
"4  c #333434",
"5  c #3B3B3C",
"6  c #373838",
"7  c #291E14",
"8  c #453618",
"9  c #483A3C",
"0  c #4B312A",
"q  c #6E3333",
"w  c #781F24",
"e  c #524935",
"r  c #68563A",
"t  c #66573A",
"y  c #704A30",
"u  c #6F6539",
"i  c #3D3D42",
"p  c #363941",
"a  c #413F43",
"s  c #683E43",
"d  c #3B4A44",
"f  c #3E794F",
"g  c #3C754E",
"h  c #434344",
"j  c #494748",
"k  c #58474A",
"l  c #565748",
"z  c #4E4D54",
"x  c #594D54",
"c  c #545354",
"v  c #555559",
"b  c #5B5C5C",
"n  c #595758",
"m  c #4E514F",
"M  c #67585B",
"N  c #6A504C",
"B  c #47754B",
"V  c #54694E",
"C  c #716C4E",
"Z  c #5E5E62",
"A  c #645D69",
"S  c #7A5E62",
"D  c #5F6161",
"F  c #5D6075",
"G  c #646364",
"H  c #6B6B6C",
"J  c #67666A",
"K  c #787765",
"L  c #6C6A73",
"P  c #787678",
"I  c #736B6E",
"U  c #883130",
"Y  c #B1283B",
"T  c #DB0201",
"R  c #D60606",
"E  c #E30101",
"W  c #EC0101",
"Q  c #EB0E0E",
"!  c #F20101",
"~  c #F10E07",
"^  c #EE1710",
"/  c #EE2406",
"(  c #D70A2E",
")  c #E30832",
"_  c #D93130",
"`  c #E92625",
"'  c #EB3635",
"]  c #DF211F",
"[  c #8A7137",
"{  c #8B5C2A",
"}  c #ED5414",
"|  c #AB305E",
" . c #EE304D",
".. c #905756",
"X. c #8A7553",
"o. c #847B7C",
"O. c #917274",
"+. c #AD6E6F",
"@. c #A65656",
"#. c #D94B4B",
"$. c #D85654",
"%. c #DB504E",
"&. c #EF484F",
"*. c #D76866",
"=. c #D57473",
"-. c #E87170",
";. c #EA625F",
":. c #758F6F",
">. c #5A885F",
",. c #B69834",
"<. c #D1B139",
"1. c #8F8657",
"2. c #AC9053",
"3. c #908B70",
"4. c #AC936C",
"5. c #B9AC71",
"6. c #9FA36A",
"7. c #D6B553",
"8. c #E8BA50",
"9. c #D28274",
"0. c #C8B173",
"q. c #D59F4D",
"w. c #EFD46F",
"e. c #4F25AF",
"r. c #575195",
"t. c #7B7B85",
"y. c #737490",
"u. c #6648BA",
"i. c #7A6DA6",
"p. c #3601CC",
"a. c #3303C7",
"s. c #4D23CA",
"d. c #5126C6",
"f. c #5329CA",
"g. c #5D39C5",
"h. c #5930D0",
"j. c #4415CA",
"k. c #7457CC",
"l. c #6E50C9",
"z. c #7E64CA",
"x. c #847C86",
"c. c #967480",
"v. c #AA7881",
"b. c #9176BB",
"n. c #816DBC",
"m. c #865FAC",
"M. c #8976C3",
"N. c #7D8183",
"B. c #848484",
"V. c #8A888A",
"C. c #938A8B",
"Z. c #9B9C85",
"A. c #8A8A96",
"S. c #959595",
"D. c #9D9D9D",
"F. c #9A9498",
"G. c #918F93",
"H. c #A29A99",
"J. c #A4938B",
"K. c #9AA48B",
"L. c #A5A39A",
"P. c #AFA88F",
"I. c #9691AA",
"U. c #A39DA3",
"Y. c #A59DBB",
"T. c #A2A2A2",
"R. c #ACACAC",
"E. c #AAA5A7",
"W. c #B6ACAA",
"Q. c #B6B5AB",
"!. c #B3ADB5",
"~. c #B3B3B3",
"^. c #BCB4B4",
"/. c #BCBCBC",
"(. c #BBB5B9",
"). c #ABA9B3",
"_. c #D79B97",
"`. c #CF8F8E",
"'. c #E99795",
"]. c #C7B985",
"[. c #CEAD9B",
"{. c #EBA49F",
"}. c #D8A8A5",
"|. c #C3BCBC",
" X c #C4BABA",
".X c #DABAB8",
"XX c #C6B2AA",
"oX c #EBB0AE",
"OX c #BFC0BF",
"+X c #D6C791",
"@X c #CBC6BB",
"#X c #CECABC",
"$X c #C7C4B9",
"%X c #D3C4B3",
"&X c #D2C5BA",
"*X c #D3CCBD",
"=X c #D4C9B4",
"-X c #D0C8AD",
";X c #E2C7B1",
":X c #E3D596",
">X c #B5B3C2",
",X c #BBB7C1",
"<X c #AFA7C9",
"1X c #A28EC9",
"2X c #CBBFC1",
"3X c #C5BFC2",
"4X c #C0C0C0",
"5X c #CEC5C5",
"6X c #CDC2C4",
"7X c #CECAC4",
"8X c #CEC8C8",
"9X c #CCC6C8",
"0X c #D1C5C7",
"qX c #D1C5C7",
"wX c #D0C4C6",
"eX c #D1CDC4",
"rX c #D2C6C8",
"tX c #D1CBCB",
"yX c #D9C7C5",
"uX c #D3D1C4",
"iX c #D4D3CB",
"pX c #DAD7CC",
"aX c #D6D3D3",
"sX c #D9D4D5",
"dX c #DBD7D8",
"fX c #DEDADB",
"gX c #DCDAD5",
"hX c #D4CFD3",
"jX c #E4DCDC",
"kX c #E9CCC7",
"lX c #E1E0DF",
"zX c #E3DFE0",
"xX c #E5E3E3",
"cX c #E9E6E6",
"vX c #E9E6EA",
"bX c #EDEBEB",
"nX c #F1EFED",
"mX c #F2EBE3",
"MX c #F2F1EF",
"NX c #F5F4F2",
"BX c #F8F6F4",
"VX c #F4EFF0",
"CX c #D1CAE2",
/* pixels */
"|.|.|.2X2X2X2X2X2X2X2X2X2X2X6X6X2X2X6X6X6X6X6X6X6X6X6X6X6X6X6X6X6X6X6X6X6X6X6X6X6X6X6X6X6X6X6X6X6X6X2X2X2X2X2X2X2X2X2X2X2X2X2X2X",
"|.2X2X2X2X2X2X2X2X2X2X2X6X6X6X6X2X2X2X6X6X6X6X6X6X6X6X6X6X6X6X6X6X6X6X6X6X6X6X6X6X6X6X6X6X6X6X6X6X6X2X2X2X|.!.6X2X2X2X2X2X2X2X6X",
"2X2X2X2X2X2X2X2X6X6X6X6X6X6X6X6X6X6X6X6X6X6X6X6XwXwXwXwXwXwX6X6X6X6X6X6X6X6X6X6X6X6X6X6X6X6X6X6X6X6X6X6X6XE.t.F. X2X6X6X2X6X6X6X",
"2X2X2X2X2X2X6X2X6X2X2X6X6X6X6X6X6X6X6X6X6X6X5X6X5X4X6X6X5XwX6X0X6X6X6X6X6X6X6X6X6X6X6X6X6X6X6X6X6X6X6X6X6X2XU.E.A.F.6X6X6X6X6X6X",
"2X6X2X6X6X6X6X6X6X6X6X6X6X6X6X6X6X6X6X6XwX5X4XE.P b D b H E.6X0X5X5X6X6X6X6X6X6X6X6X6X6X6X6XwX6X6X6X6X6X6X6X!.A.z ^.6X6X6X6X6X6X",
"6X2X2X6X6X6X6X6X6X6X6X6X6X6X6X6X6X6XwX0X4XS.H K K 3.K K M G b P ~.5X0X0X6X6X6X6X6X6X6X6X6X6XwXwX6X6X6X6X6X(.G.x. X6X6X6X6X6X6X6X",
"6X6X6X6X6X6X|.D.V.B.P B.S.E.6X6X5X0XwX6XG.P Z.K.K.K.Z.K.Z.K.3.b D R.0X0X0X0X0X0X0X0X0X0X6X0X0XwX5X6X0X5X(.F.F. X6X6X6X6X6X6X6X6X",
"2X6X6X6X6X5XV.> + + + O @ ; B.5X5X0X5XR.V.V.A.V.P N.N.V.V.S.D.D.P J |.0X0X0X0X0X0X0X0X0X0X0X0XwX6XU.V.).F.C. XwX6X6X6X6X6X6X6X6X",
"6X6X6X6X6X6XH * + + + O @ * h 5X0X0X|.G.t.L L J b b n b G H L P B.B.T.5X0X0X0X0XrX0X0X0X0XrXrX6XW.L x.).I !.5XwX6X6X6X6X6X6X6X6X",
"6X6X6X6X6X6XH * + + + O O : ; ^.0X0X/.N.N.H G Z c x s c n n n A D L S.5XrXrX0X0XrX0X0X0XrXrX6XU.C.F.V.I U.6X6X5X6X6X6X6X6X6X6X6X",
"6X6X6X6X6X5XF.- + O + ; 6 ; 2 H.0X0X^.V.N.J G c k U w N b b b A G G R.tXrXrXtXrXrXrX0X0XrX XU.x.F.E.B.(.0X0X6X0X6X6XwX0X6X6X6X6X",
"6X6X6X6X6X5X6Xh 2 3 p 5 ; : 5 F.5X5X/.A.P J G c h q 0 x n n Z G J G ~.tXrXrXrXtX8XrX0X5XXXO.J J t.o.(.0X0X0X6X6X6X0X0X5X5X0X6X0X",
"6X6X6X6X6X5X5Xh ; ; = * = 2 i D.8X8X6XS.L J Z n m n n c m n b G H t.4XtXrXtXtXtX8X8X8XW.+.O.N x v ^.0X0X0X0X0X0X0X0X0X5X5X0X0X0X",
"6X6X6X6X0X5X5Xj O O O * * 2 h L.8X8X5XD.N.J A n n n n c c n b D M V.8X8X8X8X8X8X8XtXW.v.O.O...0 I 0X0XrX0X0X0X0X0X0X0X0X0X0X0X0X",
"6X6XwX5X5X5X5Xh * * * - : 6 h R.tX8X^.B.5 a j j m c c H c b G m h j ^.8X8X8X8X8X5XW.v.O.O...q S 6XtX5X5X5X5X0X0X5X0X0X0X0X0X0X0X",
"5X5X5X5X8X8X5X4 * * * ; 2 5 h  XtXtXS.t.6 q @.@.@.N 9 L J v c 5 4 5 V.tXtXtXtX5XU.o.c.O.+.U y  XtX8X5X5X5X5X0X0X8X5X0X0X0X0X0X0X",
"6X5X5X5X8X8XR.- * ; ; : 6 h c tXtX6Xc , _  .&.&.&. .Y : : : : : : 4 M tXtXtX9XA.y.F S ..U y |.tX8X8X8X8X5X5X5X5X5X8X5X5X5X0X0X0X",
"5X5X5X5X8X8XV.* ; ; : 4 5 z P tXtX6Xm w ( ( ( ( ( ) ) , - - - > 1 4 M tXtXrXU.y.y.x.@.U q ^.tXtX8X8X8X8X8X8X5X5X5X8X8X5X5X5X0X0X",
"5X5X5X5X8X8XG - : : 4 5 j h R.tXtX8XG 0 Y ( ) ) ) ( U > - > : 2 5 h o.tXtXU.y.y.t.....q |.tXtX8X8X8X8X8X8X8X8X8X5X8X8X8X8X8X8XrX",
"5X5X8X8X8X8Xi ; 1 2 4 5 z c tXtXtXtXF.4 2 < , , , : : : : 4 4 4 j G ^.tX6XA.A.t.A N y F.tXtXtXtX8X8X8X8X8X8X8X8X8X8X8X8X8X8X8X8X",
"8X8X8X8X8X|.: ; 1 2 4 h 5 C.tXtXtXtX6XV.4 > : : : > > > > - $ - n ~.tX5XU.Y.I.L z A x.tXtXtXtXtXtX8X8X8X8X8X8X8X8X8X8X8X8X8X8X8X",
"8X8X8X8X8X^.; : 2 2 4 h : |.tXtXtXtXtXtX6Xb X o o . . . o o o - 5 P R.).>X!.t.A A.~.tXtXtXtXtXtXtXtX8X8X8X8X8X8X8X8X8X8X8X8X8X8X",
"8X8X8X8XtX|.2 2 4 4 5 i 5 tXtXtXtXtX XB.2                     o O a A P U.x.L F.(.tXtXtXtXtXtXtXtXtXtXtX8X8X8X8X8X8X8X8X8X8X8X8X",
"8X8X8XtXtXtXc 5 5 5 5 1 6 tXtXtX8XZ.N 9 $ . # 7 % % , 0 y y e % - - i v L z t.A G.|.tXtXtXtXtXtXtXtXtXtXtXtX8X8X8X8XtX8X8X8X8X8X",
"8X8XtXtXtXtXF.h j j j ; - E.tX^.O.r r t < [ X.X.X.O.3.J.P.0.7.7.[ 2 # - 5 A L n x x o.H.W.^. X^.R.E.tXtXtXtXtXtX8XtXtXtXtXtXtX8X",
"tXtXtXtXtXtXtXP c c n 5 : j J l t r r r [ ].Q.W.W.W.^.|.7XtX%X;Xw.,.0 o O 6 m x x M N M M M M M M M tXtXtXtX8XtXtXtXtXtXtXtXtXtX",
"tXtXtXtXtXtXtX8XC.I G b 5 4 6 2 e r r C 0.Z.$X$X$X$X7XtX}..X%.=.;X8.<.e o + 5 j k k k x x x x x x k W.tXtXtXtXtXtXtXtXtXtXtXtXtX",
"tXtXtXtXtXtXtXtXtX3XD.P H c 5 2 < 1.X.C 1.5.XX7X8XeXiX_.`.&X}._.;X9.q.<.7   & h x.o.M k 9 9 9 9 k x H.tXtXtXtXtXtXtX8XtXtXtXtXtX",
"tXtXtXtXtXtXtXtXtXtXhX6X~.D.V.J < 2.5.5.5.5.].-X8XtXiX$.yX%.%..X=.kX$.w.[ X X 4 P tX6X^.W.E.E.R.~. XtXtXtXtXtXtXtXtXwX.X}.`.`.tX",
"tXtXtXtXtXtXtXhXaXaXaXaXaXaXaXH t +XZ.:.1.C 1.].=XeXyX#.iX_._.=.*.jX%.pX8.%   & c T.aXaXhXtXaXiXiXtXtXtXtX.X}._.=.%._ ] R T R wX",
"aXaXsXaXsXsXaXsXsXsXsXsXsXsXtX6 2.=X$X:.B t r 1.+X7XeX%._.*.*.#.*..X$.gX:X,.# X 4 H sXsXsXaX#XhXyX}.'.;.&.` Q W W E E E T T R _.",
"sXsXdXdXdXdXdXdXdXdXdXdXdXdXR.u ].uX7X$X>.V t r 1.P.7X_.$.wX&X&X}.$._.gXpX7.8   & h 6XdXdXsX_.' ` ^ ~ ! W ! ! W W W E E E T T =.",
"dXdXdXdXdXdXdXdXfXfXfXfXjXfXB.2.-XeX7X7XQ.B t t 5 j H.7X`.=.}.}.9._.pXpXpX:X[   # 4 F.jXfXfXoXQ ! ~ / / ! ! ! ! W W E E E T T #.",
"jXjXjXzXzXzXzXxXxXxXxXxXxXxXM 0.*XeX7X#X#XK.V e p e N W.7XtXuXiXiXpXiXpXpX*Xq.7 o O G lXxXxXkX^ ! } } } ~ W ! ! W W W E E E T ] ",
"xXxXxXxXxXcXxXxXxXxXxXcXcXxXt +X#X#X#X#X#X#X:.l p 5 i C $XeXiXiXiXiXiXpXpXiX0.8   . 4 8XcXcXjX' ! / } } / ! ! ! ! W W E E E E R ",
"cXcXcXcXcXvXcXcXcXcXcXvXvXfXt -X7X#X#X#X@X#X$XK e e t r 6.eXiXiXiXiXiXpXpXiX+Xy     * F.vXvXcX&.! ~ ! ! ! ! ! ! ! ! W W W E E T ",
"vXvXvXvXbXvXvXvXvXvXvXvXvXtXu #X7X#X#X#X#X#X#XQ.l t t r C -XeXiXiXpXiXpXuXiX-X[ o   @ n vXvXvX-.! ! ! ! ! ! ! ! ! ! W W W W E E ",
"vXvXvXbXbXbXbXbXbXbXbXbXbX4X1.#X#X#X#X#X#X#X#X#XL.N t r C 5.L.7XeXuXuXuXuXuX#X2.#   . 2 R.bXbX{.W ! ! ! ! ! ! ! ! W W W W W E ` ",
"bXbXbXbXbXbXbXbXnXnXMXMXnX/.2.eX#X#X#X#X#X#X@X@X#XK.V r X.6.h L.eXuXuXuXuXuX@X2.7     $ n fXnXkX` ! ! ! ! ! ! ! ! ^ ' ;.'..XjXnX",
"nXbXbXnXnXMXMXMXMXMXMXMXMX~.2.eXeX#X#X#X#X*X#X#X#X$X:.B 6.0.p v |.eXuXuXuXeX#X5.% X   @ : T.MXjX&.! ! ! ~ ' -.{.kXnXMXMXMXMXnXnX",
"MXMXnXnXMXMXNXNXMXMXMXMXNX~.4.eXeX*X*X*X*X#X#X@X#X#X=X:.:.0.6.h I #XeXuXuXeX=X5.8 .   # $ m lXmX'.-.{.kXmXVXNXMXNXMXMXMXMXMXMXMX",
"MX<Xz.k.k.k.k.k.k.k.k.k.k.u.u.l.l.l.l.u.1XI.&X@X&X%X&XXXC C 3.K h V.*X*XuX*X#X5.e -   . @ - V.nXmXMXMXNXMXMXMXMXMXMXMXMXNXMXMXMX",
"MX<Xg.g.j.p.p.p.p.p.p.p.p.p.p.p.p.p.p.a.I.y.%X&X&X&X=X&XP.1.p p i 5 H.*X*X*X%X0.r c   . @ + 4 (.mXNXNXMXMXNXNXMXNXNXNXNXNXMXMXMX",
"NXaX>X>X>X>X>X>X>X>X>X>X>X>X>X>X>X>X>X>X>XR.%X%X%X%X%X%X%X3.p h l e V  X*X*X%X0.C R.o . @ @ $ j ^.NXNXNXMXNXNXNXNXNXNXNXNXNXNXNX",
"NXaX/.*.#.`.~.R.R.R.~.R.~.~.R.R.R.~.R.~./.W.%X%X%X%X%X%X%XXXK C B B t X.*X*X%X0.X.cXm . @ + + - j dXNXNXNXNXNXNXNXNXNXNXNXNXNXNX",
"NXaXXX&.;.#./.E.R.E.R.~.R.R.T.R.R.R.R.E.~.W.%X%X%X%X%X%X%X%XXXK B f f B Z.*X@X0.3.NX$X# @ + + + > H aXNXNXNXNXNXNXNXNXNXNXNXNXNX",
"NXaX|.`.| m.M.M.M.M.M.M.M.M.M.M.M.M.M.M.M.n.b.b.b.b.b.b.b.b.b.i.r.r.g f B L.&X].Q.NXNXJ @ @ + $ - n j dXNXNXNXNXNXNXNXNXNXNXNXNX",
"NXaX,XY.l.s.d.f.p.p.p.p.p.p.p.p.p.p.p.p.p.p.p.p.p.p.p.p.p.p.p.k.).r.d B B >.Q.].pXBXNXcXn + + - - l 2 m dXNXNXNXNXNXNXNXNXNXNXNX",
"NXaX/.<Xg.g.g.g.s.s.s.s.s.s.s.s.s.s.s.s.s.s.s.s.s.s.s.s.s.s.s.u.i.r.6 d g f >.Q.NXBXBXBXMXL.6 - : l 2 4 P NXNXNXNXNXNXNXNXNXNXNX",
"NXaX/.,X!.>X>X>X>X>X>X>X>X>X>X>X>X>X>X>X>X>X>X>X>X>X>X>X>X>X>X>X>X!.C d B f >.gXBXBXBXBXBXNX6XG 6 n 4 4 G cXNXNXNXNXNXNXNXNXNXNX",
"NXaX(././.$XXX=.`. X4X/.,X4X,X/.OX4XOX4X4X4X4X4X4X4XOX$X4X/.4X4X4X/.4.N d d D.NXNXNXBXNXNXNXNXcX|.o.G G ~.MXNXNXNXNXNXNXNXNXNXNX",
"NXxXaXiX/./._ ' ' *.4XT.T.S.S.G.S.T.D.S.T.S.D.S.D.S.T.D.D.S.D.D././.2.4.h K jXNXNXNXNXNXNXNXNXNXNXNXxXvXNXNXNXNXNXNXNXNXNXNXNXNX",
"NXNXMXxX/.W.^ {.' _ /.~.R.T.R.R.~.~.~.R.~.R.R.R.R.R.~.R.~.R.~.T././.@.9.C.aXvXvXvXvXvXvXvXvXvXvXbXNXNXNXNXNXNXNXNXNXNXNXNXNXNXNX",
"MXNXbXhX/.|.#.` _ +.|.4X4X4X4X4X4X4X4X4X4X4X4X4X4X4X4X4X4X4X4X4X4X/.e.e.f.h.h.h.h.h.h.h.h.h.k.I.<XNXNXNXNXNXNXNXNXNXNXNXNXNXNXNX",
"MXnXCXM./.4X^.`.W./.4X4X4XOX4X4X4X4X4X4X4X4X4X4X4X4X4X4X4X4X4X4X4X/.e.d.d.d.d.d.d.d.d.d.d.d.u.i.Y.NXNXNXNXNXNXNXNXNXNXNXNXNXNXNX",
"bXbXCXn./.4X4X4X4X4X4X4X4X4X4X4X4X4X4X4X4X4X4X4X4X4X4X4X4X4X4X4XOX/.U.,X,X,X,X,X,X,X,X,X,X,X,X!.4XbXMXMXNXNXNXNXNXNXNXNXNXNXNXNX",
"bXbXzX/./.4X4X4X4X4X4X4X4X4X/.(.(.(.(.(.(.(.(.(.(.(.4X4X4X4X4X4X$X/.V.L.L.R.R.R.T.T.T.T.T.E.E.~.|.xXcXbXbXMXMXNXNXMXMXMXMXNXNXNX",
"nXbXxX/./.4X4X4X4X4X4X4X4X4X~.(.(.~.~.R.~.R.R.~.(.T.OX4X4X4X4X4XOX/.S.~.~.(.~.~.~.~.~.~.~.(.~.(.4XcXcXbXbXbXMXNXNXnXnXMXMXMXNXNX",
"NXMXxX/./.4X/.4X4X4X4X4X4X4X~.4X4XE.S.V.D.S.B.~.OXT.OXOX4X4X4X4X4X/.T.4X4X4X4X4X4X4X4X4X4X4X4X(.4XnXnXMXMXNXNXNXNXNXNXNXNXNXNXNX",
"NXMXxX/./.OXOX4X4X4X4X4X4X4X~.T.T.T.T.T.T.T.T.T.T.T.OXOX4X4X4X4XOX/.T.(.~.~.~.~.~.~.~.4X4X4X4X(.9XNXNXNXNXNXNXNXNXNXNXNXNXNXNXNX",
"NXMXxX/./.4X4X4X4X4X4X4X4XOX4X4X4X4X4X4X4X4X4X4X4X4X4X4X4X4X4X4XOX/.T.~.4X~.R.R.E.4X~.4X4X4X4X(.9XNXNXNXNXNXNXNXNXNXNXNXNXNXNXNX",
"NXNXxX~.T.T.T.T.T.D.D.S.B.B.P S.D.S.T.T.T.T.D.~././././.R.T.T.T.T.T.~.~.R.T.T.T.T.R.T.4X4X4X4X(.9XNXNXNXNXNXNXNXNXNXNXNXNXNXNXNX",
"NXNXxX/.4X4X4X4X4X(.R.T.T.T.T.T.E.~.4XOXOX$X/.cXBXBXBXBX4X~.~.~.~.~.~.~.~.~.~.~.~.~.~.~.~.~.~.R.4XNXNXNXNXNXNXNXNXNXNXNXNXNXNXNX",
"NXNXlXR.~.~.~.~.~.~.~.~.~.~.~.~.~.~.~.~.R.R.~.cXBXBXBXBXnXbXbXbXbXbXbXbXbXbXbXbXbXvXbXvXbXbXvXvXnXNXNXNXNXNXNXNXNXNXNXNXNXNXNXNX"
};
