/* XPM */
static char *f0185b74b4c64741b0055690446d79a9[] = {
/* columns rows colors chars-per-pixel */
"64 64 252 2 ",
"   c #070B08",
".  c #0C1509",
"X  c #0E1615",
"o  c #151918",
"O  c #12140B",
"+  c #251D17",
"@  c #2F1B0E",
"#  c #192217",
"$  c #282719",
"%  c #362517",
"&  c #2F351A",
"*  c #131E24",
"=  c #172326",
"-  c #1E2C33",
";  c #252928",
":  c #2A3229",
">  c #373A27",
",  c #232C31",
"<  c #293637",
"1  c #363938",
"2  c #3A2A2A",
"3  c #5A0101",
"4  c #4B1B0F",
"5  c #6C0203",
"6  c #670304",
"7  c #740203",
"8  c #7B0203",
"9  c #710709",
"0  c #751912",
"q  c #472816",
"w  c #562A19",
"e  c #593219",
"r  c #462A10",
"t  c #64271A",
"y  c #79231A",
"u  c #6F371D",
"i  c #492B28",
"p  c #473926",
"a  c #583428",
"s  c #453933",
"d  c #593A34",
"f  c #5C2827",
"g  c #762A26",
"h  c #693A28",
"j  c #7A3A28",
"k  c #663934",
"l  c #783B39",
"z  c #682728",
"x  c #4E1E22",
"c  c #2F4325",
"v  c #384629",
"b  c #394A33",
"n  c #464937",
"m  c #5A4436",
"M  c #505037",
"N  c #784427",
"B  c #694436",
"V  c #725138",
"C  c #313F44",
"Z  c #3A4544",
"A  c #4B544B",
"S  c #795744",
"D  c #6D544A",
"F  c #707258",
"G  c #5F6C6D",
"H  c #6C716F",
"J  c #5B6148",
"K  c #840202",
"L  c #8C0203",
"P  c #880A08",
"I  c #930203",
"U  c #9B0203",
"Y  c #98090A",
"T  c #97110D",
"R  c #871816",
"E  c #971816",
"W  c #8E0F10",
"Q  c #A30203",
"!  c #AB0203",
"~  c #AB0309",
"^  c #A90908",
"/  c #B40203",
"(  c #BB0203",
")  c #B40B05",
"_  c #BC0C05",
"`  c #B5040A",
"'  c #BC040A",
"]  c #BC0A09",
"[  c #B40B0B",
"{  c #AB1708",
"}  c #B4120A",
"|  c #BA1B0C",
" . c #B81607",
".. c #A81715",
"X. c #B61714",
"o. c #B40B13",
"O. c #85251C",
"+. c #98251D",
"@. c #893819",
"#. c #BC240B",
"$. c #B7280C",
"%. c #BB2813",
"&. c #B73315",
"*. c #AF2B10",
"=. c #882A25",
"-. c #972A27",
";. c #88362A",
":. c #98362A",
">. c #853B33",
",. c #973C33",
"<. c #AB312B",
"1. c #A01D24",
"2. c #C40204",
"3. c #CB0204",
"4. c #C30B04",
"5. c #C4030A",
"6. c #CB020A",
"7. c #C60A09",
"8. c #D20204",
"9. c #D1030A",
"0. c #C3170A",
"q. c #C50411",
"w. c #C41913",
"e. c #C22A0D",
"r. c #C32615",
"t. c #C43916",
"y. c #C83711",
"u. c #C23924",
"i. c #B94918",
"p. c #B7571A",
"a. c #AE4C18",
"s. c #BA641B",
"d. c #B7771E",
"f. c #874829",
"g. c #95482C",
"h. c #98562E",
"j. c #964834",
"k. c #9A5936",
"l. c #884D37",
"z. c #AC512E",
"x. c #BA6826",
"c. c #A6643B",
"v. c #B57129",
"b. c #9B6037",
"n. c #C24B1C",
"m. c #C74617",
"M. c #C6571B",
"N. c #D25B1A",
"B. c #CB4A16",
"V. c #D9791B",
"C. c #CB6C1C",
"Z. c #E17A1D",
"A. c #C94A27",
"S. c #C75725",
"D. c #D75A2B",
"F. c #D34C2E",
"G. c #C66826",
"H. c #D76627",
"J. c #C77727",
"K. c #D97727",
"L. c #C76536",
"P. c #DA6937",
"I. c #C97535",
"U. c #D87735",
"Y. c #E37928",
"T. c #E27A37",
"R. c #E06A37",
"E. c #925648",
"W. c #A45A53",
"Q. c #B05C4C",
"!. c #8C6B56",
"~. c #AD6B4A",
"^. c #8E7A6A",
"/. c #AE736F",
"(. c #E37C47",
"). c #D67048",
"_. c #7E8672",
"`. c #DA8C1F",
"'. c #F8B919",
"]. c #EEAB1B",
"[. c #CB8527",
"{. c #D78927",
"}. c #D88737",
"|. c #DB9436",
" X c #D28C2F",
".X c #E68825",
"XX c #E7982B",
"oX c #E68839",
"OX c #E79638",
"+X c #F09637",
"@X c #DCA82D",
"#X c #E8A82B",
"$X c #F5A925",
"%X c #F7B827",
"&X c #E8A637",
"*X c #F2A937",
"=X c #E8B434",
"-X c #F7B834",
";X c #EDB62C",
":X c #E3821E",
">X c #F9C515",
",X c #F3CB0B",
"<X c #FAC422",
"1X c #F9C13A",
"2X c #8A8864",
"3X c #958976",
"4X c #94967B",
"5X c #8E8A71",
"6X c #AE847F",
"7X c #D99144",
"8X c #EA9A41",
"9X c #E88749",
"0X c #F7A945",
"qX c #F0AE44",
"wX c #7B918A",
"eX c #989687",
"rX c #8F9894",
"tX c #A49388",
"yX c #A99993",
"uX c #95A297",
"iX c #A3A299",
"pX c #A5AB8D",
"aX c #929EA2",
"sX c #9BA3A5",
"dX c #99A7AB",
"fX c #9AB8B9",
"gX c #93ACB1",
"hX c #A7AAA8",
"jX c #A3ABB3",
"kX c #ABADB5",
"lX c #A4ACBB",
"zX c #ACB3BB",
"xX c #A8B7BB",
"cX c #B3B5BD",
"vX c #B6B9BA",
"bX c #AFB1A8",
"nX c #C4A6A7",
"mX c #BCC3BE",
"MX c #ADBAC1",
"NX c #A9B7C1",
"BX c #B3BDC3",
"VX c #BBBEC4",
"CX c #BBBFC8",
"ZX c #9EC3C4",
"AX c #A5C8C7",
"SX c #BAC2C5",
"DX c #BDC4C9",
"FX c #B9C4C6",
"GX c #C3CACD",
"HX c #C3C7C9",
"JX c #C7CDD1",
"KX c #C9D1CF",
/* pixels */
"7 9 6 3 3 3 6 6 6 6 5 5 7 8 8 K K L I I L L L L I I I U U U Q Q Q Q Q ! ~ ~ ~ ~ Q Q U I L L I I I U U U Q Q U U U I I I L L K K ",
"7 7 5 3 3 6 6 5 5 5 5 5 7 7 K K L I U U I I I I I U U U U Q Q ~ Q Q Q ! ! ! ! ! Q Q U I I I U U U U Q Q ! Q U U U U U U I I L L ",
"7 7 7 5 6 5 5 7 7 7 7 7 8 K L L I U U U U Q Q Q Q Q Q U Q Q Q ~ Q ! ! ! ! / ! ! ! Q Q U Q ~ Q Q Q ! ! / / ! Q Q Q Q Q Q Q U I I ",
"7 7 7 5 5 5 7 7 8 8 K K L I U U I U U U U Q Q ! ! ! Q Q Q Q ! ~ ! ! ! / / / / / / ! Q Q ~ ~ ! ! / / / ( / / Q Q Q ! ! ! ! Q U U ",
"7 8 8 7 7 7 8 K K L L I I U Q Q U U U U Q ! ! / / ! ! ! ! ! ! / / / / / / ( / / / / / / / / / / ( ( ( ( ( ( / / / / ( / / ! ! Q ",
"7 7 8 7 7 7 K K L L I I U Q ! ! Q Q Q Q ! ! ! / / / / / / / / / / / ( ( ( ( ( ( ( / / / / / ( ( ( ( ( 2.2.( / ( ( ( ( ( ( / ! ! ",
"7 8 8 7 7 8 K K L I I U Q ! ! ! ! ! ! / / / / / / / / / / / / / ( ( ( ( ( ( ( ( ( ( ( / / / ( ( ( ( ( ( 2.( / / ( ( ( ( ( / ! ! ",
"7 8 8 7 7 8 K K L I U Q ! / / / / / / / / / / / / / / / ( ( ( ( ( ( ( ( ( ( ( ( ( ( ( ( / ! / ( ( ( ( ( ( ( / / / / ( ( ( / ! ! ",
"7 8 8 7 7 8 K K L I U Q / / ( ( ( ( ( ( ( / / ( ( ( ( ( ( ( ( ( ( ( ( ( ( ( ( 2.( 2.( / ! r.[ ( ( ( ( ( ( ( / / / / ( ( ( / ! ! ",
"K K K 8 7 8 K L I U Q ! / / ( ( / ( ( ( ( ( / ( ( ( ( ( ( ( 2.2.( ( 2.2.2.2.2.2.( 5.' ( [ D.%.' ( ( ( ( ( / / / / / / / / / Q Q ",
"K L L K 8 K L I U U U Q / ( 2.( ( ( 2.2.( ( ( ( 2.2.2.2.2.2.2.2.( ( 2.2.2.2.2.2.2.2.' ) &.+XB.` 2.( ( ( ( / / / / / / / / / ! Q ",
"K L L L K L I I U U Q Q ! ( ( / / 2.2.2.( ( ( 2.2.2.2.2.2.2.2.2.( ( 2.2.2.3.3.3.2.2.' ~ H.OXH.) 3.( ( ( ( / / ( ( ( / / / / / ! ",
"L L I I I I U U U U P +.-.-.-.:.<.../ / ( ( ( 2.2.2.2.2.3.2.2.2.2.2.2.2.2.2.2.2.2.( ( { oXi.U.$.2.( ( ( ( / / ( ( ( ( / ( ( ( / ",
"L I U I I U U U I T =.E.V S V V E.j...^ / ( 2.2.2.2.2.2.2.2.2.2.2.2.2.2.2.4._ _ _ ) ) $.T.%.R.n.) _ ) ) ) ) / ( ( ( ( ( ( ( ( / ",
"K I U U U U T +.;.l.V M M M D S V B j.1./ ( 2.2.2.2.2.2.2.2.2.2.2.2.2.2.7.y.Y..XK.K.R.T.m.[ A.OXK.K.Y.Y.Y.N._ / ( ( ( ( ( ( / / ",
"K L U U Q U :.W.S M b b n n m B m M l.<.( 2.( 2.2.2.2.2.3.2.2.2.2.2.2.2.5.| K.0XG.i.t.t. .)  .m.n.n.G.8XK.$.o.( ( ( ( ( ( ( / / ",
"8 K I U U E V M v : > > c c > p & v V :.5.3.2.2.2.2.2.3.3.3.3.3.3.3.3.3.2.( _ e.oXP.$.` q.5.5.q. .N.oXm.] ' ) ( ( ( ( ( ( ( ( / ",
"K K L I I O.B c & : > > c c v > v v m =.^ ] 5.6.6.3.3.3.6.6.6.6.3.3.3.3.2.2.5._ e.H.K.$.q.5.q.q.H.T.t.[ q.5.( ( ( 2.2.2.2.( ( ( ",
"L L L L P ;.p & & & & c v v n n A A J S z.A.w.6.6.6.6.6.6.3.6.6.2.3.4.4.3.4.4.3.5.r.U.$.[ ( 7.] oXD.' 5.( ( ( ( 2.2.3.3.3.2.( ( ",
"L L L L +.N & c > > b n M M A A A A A d z.u.] 6.6.6.6.6.3.3.3.3.5.6.3.3.6.3.3.8.5.t.P.} { t.#.' D.U.) 2.( ( 2.2.2.2.5.3.2.2.( / ",
"L L L L E h v b v 1 1 < : , , , , - , 2 1.( 2.2.3.3.6.6.3.8.8.3.4.{ w.3.8.8.8.8.4.P.p.$.(.oXoXF.*.}.#.2.2.( ( X.t. .q.3.3.3.2.( ",
"K L L L P y > : = o = = o * = = = = = ; -.[ ( 2.3.3.6.3.3.8.4._ y.L.u.3.8.8.8.8. .T.J.T.S.$.n.(.G.|.t._ 2.( ( } P.P.#._ 3.3.3.2.",
"K L L I I E i : Z = H aX< = - * < A A G W...' 2.2.3.3.3.8.7.r.A.0XP.4.8.3.6.9.7.t.+XU.t.) 5.] #.H.8XD._ 2.( ( ' *.{.XXS.%._ 2.( ",
"K L I I U W x 1 , 1 G DX< A G G gXAXgXaX^.1.( 2.2.3.3.6.7.t.I.|.OX%.3.3.3.8.8.4.D.P.$.] 2.5.2.3.{ i.P. .5.5.' 5.) i.*X[.(.&.] 2.",
"L I U U U -.i < o o Z rXxXfXAXAXAXAXgXgXeX,.` ( 3.3.8.8.%.7XJ.7XL.r.7.3.3.8.8.9.0.4.3.6.3.7.4._ 3.7.| 7.6.5.2.2._ A.J.}. XoX .5.",
"L I U U U E a ; * X o G AXZXZXAXAXAXgXdXiX<.` ( 3.6.3.0.G.XXx.I.).X.6.3.3.3.8.8.3.6.6.6.5.w.F.t.0.6.' 6.6.2.2.2.( %.}.[.d.&Xn.} ",
"I U Q Q Q ^ =.% o .   A NXAXAXAXAXAXgXrX/...2.2.3.7. .D.I.XX|.8X#.5.3.3.6.6.3.3.6.6.3.7.5.5.r.D.oXN. .7.2.2.3.2.( _ m.OX X@XI.S.",
"I U Q Q Q Y ;.B X o . Z AXZXZXfXfXfXrXwXW.o.2.2.2.5.%.oXG.#X7Xn.4.3.3.2.6.6.3.3.8.9.5.4.6.3.3.0.T.0XN. .2.2.5.2.2.5. .S.&X&XI.}.",
"I U U Y -.g 2 o     X Z fXAXAXAXZXfXgXwXE.1.] 2.3.5.t.0XI.}.I.A.6.3.2.2.2.2.8.6.4.e..XV.F.w.7.6. .N.-XoX} 5.2.2.3.2.) D.d.I.{.#X",
"I U Y -.k 2 ; o       1 xXAXZXZXfXgXwXwXs t ..( 8.3.t.0Xx.J.oX%.3.3.2.2.2.2.8.4.&..X<X%XD.| 7.6.4.#..X-XS.o.( 2.2.2.( e.&XJ.{.$X",
"I I =.k 1 , o X     > J wXgXAXZXfXfXaXwX# @ y ..3.0.n.*X[.#Xm.] 3.3.2.2.2.2._ $.$X>X'.V. .2.2.6.3.4.y.$X$XB.( 2.2.2.2.' J.&X#XXX",
"U W S s , = X   . > _.2XwXrXgXAXAXfXhXbXn + 4 -.] | S.{.#X X&.5.6.3.2.2.2.5.#..X>X>X%XM._ 7.2.6.6.4.0.V.'.Z._ 2.2.2.3.5.z. X;XJ.",
"Y =.s , = X   . M 4XuXhXfXgXlXxXMXFXDXKXhXA + t X.r.U.p.OXx.m.7.6.2.2.2.2.5.B.$X%XV.K.0XM._ ' 6.3.3.5.m.<X$X#.( 2.2.7.) U.x.}.i.",
"W l 2 , o     $ 4XpXbXxXxXxXNXMXFXFXGXKXKX_.# @ <.%.OXp.G.}.t.3.6.3.2.2.2.q.| N.H.#.r.Y.*XN.7.5.4.3.6.e.<X'.y.( 2.2.2.( P.}.x.C.",
"g d , * X   # F pXbXmXSXBXBXBXBXDXDXGXGXKXmXZ # =.*.OX{.x.+X#.3.6.3.2.2.2.2.7._ 4.5.4. .K.*XC.| 9.9.5.e.'.'.m.( 2.2.2.2.i.&Xs.#X",
"d 2 = o     n 4XbXvXBXBXBXSXSXSXDXDXGXGXKXKXH ; t +.}.-X{.XX$.4.6.3.2.2.( 2.8.3.3.6.3.6.| Y.%XZ.0.5.( y.'.'.m.( 2.2.2._ &.#XXX1X",
"; o X     O F uXzXBXBXBXBXSXSXSXDXDXGXJXJXKXhX: % ;.p.*X].{.F.4.6.3.2.2.' 2.3.3.3.8.6.6._  ..X<XK.e. .C.,X'.t.( 2.2.(  .L.J.%X{.",
"# X       $ 5XhXcXBXBXBXSXSXSXSXDXDXGXJXJXJXzXA + j L.x.=X[.T. .8.3.2.2.5.2.' o.r.7.7.6.5._ e..X-XV.m.XX,X].#.5.2.2.(  .}.G.|.p.",
"X .       n eXkXNXNXBXSXSXSXSXSXDXHXDXGXGXJXGXH $ e 7X[.J.G.OX$.3.8.3.2.2.( t.K.OXY.m.#._ 4.4.| XX<X'.>X>XZ._ 2.3.2.' &.*XS.v.|.",
"O       O J eXkXNXNXMXBXSXSXSXSXDXDXDXGXGXJXKXeX% q v.qXv.z.#Xn._ 3.8.3.' o.H.-XC.oX*X`.M.n.&.i.`.>X,X,X].m.( 2.3.5.%.M.qXp.XX*X",
"+ > .   & F uXlXNXMXMXBXBXBXBXSXSXSXDXDXHXGXJXhX% w f.G.-X[.&Xx.F._ 8.6.#.C.+Xn. . .N.XX%X%X>X<X,X,X>X>XXX&.) 5.2.| P.s.@X|.OXi.",
"p m O . n 2XsXlXNXNXMXBXBXBXBXCXDXDXDXDXHXGXJXbXr e @.a.{.=X=Xx.oXt.8.7.Z.$XH. .5.2. .%.V.XX].%X'.].`.XX%X:X0.5.( m.{.s.=XOXS.&.",
";.B . . M 5XsXlXlXNXMXBXBXBXBXCXDXDXDXDXDXHXGXvX% u @.z.L.x.8XI.&XK._ e.0XoX#.2.( 2.5.5._  .e.y.e.w.} $..X+X%.5. .{.J.U.J.s.H.X.",
"1.l X . F 4XsXjXlXxXMXBXBXBXBXCXDXCXSXSXDXDXGXvX% e @.@.7X}.x.I.}.XX&.{ F.r.' 5.( ( ( 5.3.3.3.4.2.6.5./ #.y.^ X.M.&Xx.x.d.OXm.) ",
"E k o O F 4XaXdXjXxXMXMXBXBXBXCXVXVXSXSXSXDXGXVX$ q j g.z.[.-XXXC.&XG.P. .7.5.) ( ( ( ( 2.3.6.5.5.5.2./ ( ( t.).[.&X[.;X-XS.o.' ",
"R k + @ 2XeXsXdXjXzXxXMXcXBXBXBXCXVXCXSXCXSXDXvX2 % e f.z.a. X=X=X&X X[.U.$.( ( / ' ' ( 2.3.2.2.' ( ( / ) $.oXI.&X=X=X@XM. .( ( ",
"R h + $ 2XeXsXdXjXjXzXxXcXMXMXBXBXCXVXVXVXHXmXbXD ; % w N N j.c.G.J.I.s.OXOX&.^ ` / / ( ( ( 2.( ' [ [ { n.OXJ.p.J.G.G.L.| 5.( / ",
"R h $ $ 2XeXsXdXjXjXzXzXzXcXBXBXcXBXVXVXVXHXvXyXl i + % p m d V 7X[.J.J.[.&X|.S.X.^ { { { {  .|  .X.&.G.*X&XJ.J. XOX9XA._ 3.( / ",
"P t $ $ 2XeXsXdXjXjXkXzXzXcXzXcXcXcXvXBXBXVXnXW.-.l p p m p s p h.J.XX&XXX{.G.G.[.XXoXL.9XoX9Xv.8X*X[.s.M.V.{.{.K.S.{ ] 6.3.( ( ",
"L O.% $ 2X4XsXsXjXjXkXkXzXzXzXcXcXcXvXvXBXVXnX,.<.k.V N V p 1 s h g.p.p.i.p.K.OX#X{.x.I.A.&.S.I.x.[.*X#XK.s.p.S.A.%._ 7.3.2./ ( ",
"L R x $ 2X4XaXsXdXhXjXkXkXkXkXzXcXcXvXcXcXvX/.E ..j.e q p n A 1 % j <.L.oXOXOXY.a.I.P.$.) ` ) $.(.I.p.G.oXoXU.A.{ ^ ( 2.2.( ( ( ",
"L R f % 2X4XuXaXsXsXjXjXkXkXkXkXzXcXzXzXxXbXW.T ^ +.a ; ; A H : $ w +.T { *.{  .D.9X*.^ ( ( ( ) &.(.u.{ { { { ^ / ` ( 2.( ( ( ( ",
"K P g % 2X4XrXuXuXuXsXsXhXhXhXhXhXkXhXhXbXyX<.Q Q ~ ;.2 ; 1 J $ $ % g ..` ` ' ( } } ` ' ( ( ( ( ) } ) ) / / ( ( / / / / ( / / ) ",
"8 K g w ^.3XeXrXeXuXuXiXiXhXhXhXhXhXhXhXbX/.T ! ! ! <.>.i D H n % % w ;.^ / ( / / ` ` / ( ( ( ( ( / ) ) ` / / / ` / ! / / / / / ",
"7 K P g !.5X4XeXeXeXeXyXyXiXiXiXiXiXiXyX6X,.~ ! ! ! ~ ..E.F n d a @ + q =...' ! / / ! / / ( ( ( ( ( ( ( ( / / ` ` / / / / ! ! ! ",
"7 K K y E.^.5X5X3X3X3XtXtXeXtXtXtXtXyXyXW.T ! ! Q ! / ^ E.d d k =.t @ @ z 1.( ! ~ ! ! / / / / ( ( ( ( ( / ! ! ! / ! ! / / / / ! ",
"7 K K 8 0 j.!.^.^.^.^.^.5X3X3X3X3X3X/.Q.^ Q U Q U Q U E B s l :.Y -.j j 4 O.^ ! ! ! ! ! / / ( ( ( ( ( ( / ! ! ! ! ! ! ! / ! ! ! ",
"7 8 K 8 8 O.l.V D !.E.E.E.!.!.!.D S E.=.+...Y I I Q Y =.p p ;.T U E g.f.t O.T Q ! Q Q Q ! ! / ( ( ( ( / / ! ! ! ! ! ! ! ! ! ! ! ",
"7 7 8 8 8 y t r @ k g =.=.,.j w @ r u j f.j.:.j.+.T R >.i a R U U I +.:.j u +.^ U U U Q ! ! ! / / / / / ! ! Q Q Q Q Q Q ! ! Q Q ",
"7 7 9 5 y ;.w r 4 4 t ;.:.Q.g 4 e u N f.f.g.j.E.E.j.j.!.k g W U Q Q Y +.k.f.:.T U U U Q Q Q ! ! ! ! ! ! ! ! Q Q Q Q Q Q Q Q Q Q ",
"7 7 5 9 >.f.N N h u u u j.,.y g j f.h.h.k.k.k.k.k.k.~.~.W.R U Q U Q Q T :.E.l.-.Y U U Q Q Q Q Q Q Q Q Q ! Q U I U U U U Q Q Q Q ",
"7 7 5 y j.f.f.f.f.f.f.f.g.j.O.y j f.h.k.k.c.c.c.c.c.c.c.z.+.U U I U Q Y +.>.a g W U U Q Q Q Q U U U U U Q U I I I I U U U U U U ",
"5 9 9 ;.k.h.h.h.k.h.h.h.h.k.,.0 ;.;.g.h.b.c.c.c.c.c.c.~.~.Q.E L L I I I P 0 k D R I I U U U U I I L K L I I L K L L I I I I I I ",
"6 9 9 ;.k.k.h.k.k.k.k.k.c.c.j.0 9 O.g.f.k.b.c.c.c.~.~.~.~.Q.W L L L L L L P z D y P L L I I I I L K 8 K L L K K K K L L L L L L "
};
