/* XPM */
static char *d6ff3551eda7495c9c997ff725dbb46c[] = {
/* columns rows colors chars-per-pixel */
"64 64 222 2 ",
"   c #3E0104",
".  c #3F0308",
"X  c #41050B",
"o  c #440A0D",
"O  c #4B0D0A",
"+  c #470707",
"@  c #570E0A",
"#  c #54140B",
"$  c #5A190D",
"%  c #430C14",
"&  c #4B0C13",
"*  c #490E18",
"=  c #580917",
"-  c #4C1315",
";  c #45141A",
":  c #4B151C",
">  c #4A181E",
",  c #451319",
"<  c #531919",
"1  c #4A100C",
"2  c #641A0E",
"3  c #780D1D",
"4  c #661611",
"5  c #660F18",
"6  c #6B290E",
"7  c #6A2717",
"8  c #762B14",
"9  c #7C3D1B",
"0  c #733417",
"q  c #4E1623",
"w  c #461922",
"e  c #4B1A24",
"r  c #4E1D29",
"t  c #511D29",
"y  c #551B24",
"u  c #7D0D22",
"i  c #791025",
"p  c #4E212A",
"a  c #53232D",
"s  c #5A242A",
"d  c #5C2C34",
"f  c #562832",
"g  c #5D3239",
"h  c #7D3E24",
"j  c #763A2A",
"k  c #632D33",
"l  c #62333A",
"z  c #6B363D",
"x  c #693639",
"c  c #743B39",
"v  c #682D28",
"b  c #7E422D",
"n  c #7C4137",
"m  c #653A41",
"M  c #6C3B42",
"N  c #713C44",
"B  c #6D454A",
"V  c #72444A",
"C  c #784648",
"Z  c #784D52",
"A  c #7B5459",
"S  c #7C565A",
"D  c #7D5B60",
"F  c #833F1E",
"G  c #99341E",
"H  c #960E2C",
"J  c #8A132D",
"K  c #92112D",
"L  c #A01438",
"P  c #833E24",
"I  c #843D2D",
"U  c #863D34",
"Y  c #8A3E36",
"T  c #873F38",
"R  c #9B3C27",
"E  c #A73A22",
"W  c #83421A",
"Q  c #88471D",
"!  c #89481E",
"~  c #854223",
"^  c #8C4B22",
"/  c #8A442C",
"(  c #8B4A29",
")  c #874525",
"_  c #934D27",
"`  c #945225",
"'  c #94562A",
"]  c #96592B",
"[  c #9B5B2C",
"{  c #995627",
"}  c #8A4133",
"|  c #854238",
" . c #894238",
".. c #874938",
"X. c #975834",
"o. c #924D36",
"O. c #AA4728",
"+. c #B44925",
"@. c #B9552B",
"#. c #A65739",
"$. c #B65D35",
"%. c #A05F2E",
"&. c #9E6039",
"*. c #A3653A",
"=. c #A8683D",
"-. c #B9633A",
";. c #834C4A",
":. c #8D5647",
">. c #935B4C",
",. c #955847",
"<. c #8C5453",
"1. c #83555A",
"2. c #83595D",
"3. c #885756",
"4. c #955C53",
"5. c #9A5D55",
"6. c #804D53",
"7. c #A45B47",
"8. c #9C624D",
"9. c #93604A",
"0. c #986457",
"q. c #8F615D",
"w. c #A56746",
"e. c #B56A45",
"r. c #B87649",
"t. c #A16355",
"y. c #A5695B",
"u. c #AD6A5C",
"i. c #A4675A",
"p. c #B77758",
"a. c #AF704E",
"s. c #865D61",
"d. c #915E61",
"f. c #8B6A6C",
"g. c #876366",
"h. c #936B6C",
"j. c #976966",
"k. c #96736B",
"l. c #9A736D",
"z. c #997063",
"x. c #8D6E71",
"c. c #8C7E77",
"v. c #8B7F79",
"b. c #8D7274",
"n. c #937474",
"m. c #947B75",
"M. c #9C7A74",
"N. c #957679",
"B. c #957C7D",
"V. c #9B7C7C",
"C. c #9B7575",
"Z. c #90706F",
"A. c #A56B63",
"S. c #A96C65",
"D. c #A66D6A",
"F. c #AD7163",
"G. c #AC726B",
"H. c #A3726B",
"J. c #B47663",
"K. c #B2766B",
"L. c #B77A66",
"P. c #AC7375",
"I. c #A57A79",
"U. c #B27675",
"Y. c #B57C74",
"T. c #B47A7C",
"R. c #B47A77",
"E. c #8D817D",
"W. c #94817D",
"Q. c #9A817E",
"!. c #968F7D",
"~. c #9A997D",
"^. c #A4817B",
"/. c #A9847D",
"(. c #BA8276",
"). c #BB847B",
"_. c #B6847F",
"`. c #9BA77D",
"'. c #9FB97F",
"]. c #A0B87F",
"[. c #90835F",
"{. c #957E80",
"}. c #9A7E81",
"|. c #A27F81",
" X c #B47C82",
".X c #8F8380",
"XX c #978385",
"oX c #958382",
"OX c #9D8381",
"+X c #9D8282",
"@X c #998285",
"#X c #9D8487",
"$X c #9B8283",
"%X c #938B81",
"&X c #988A83",
"*X c #959381",
"=X c #9A9982",
"-X c #A28282",
";X c #AE8582",
":X c #B38385",
">X c #BC8682",
",X c #B68B82",
"<X c #BB8B85",
"1X c #B48689",
"2X c #B5898A",
"3X c #BD8D8B",
"4X c #BA8689",
"5X c #BD9187",
"6X c #BE9189",
"7X c #9BAC80",
"8X c #9AA581",
"9X c #9DB581",
"0X c #9DBA81",
"qX c #A1BD81",
"wX c #A1B482",
"eX c #A3A780",
"rX c #C08E89",
"tX c #C2928C",
"yX c #C09187",
"uX c #C39492",
"iX c #9EC280",
"pX c #A2C382",
/* pixels */
"OXOXOXOXOXOXOXOXOXOXOXOXOXOXOXOX#X#X#X@X#X@X+X+X+X|.h.h.-X@X$XXX@XXXXX}.XXXXXX{.{.{.{.{.{.{.XX{.}.B.B.|.A.8.&.&.w.=.=.*.*.*.*.%.",
"OXOXOXOXOXOXOXOX+XOXOXOXOXOXOX+XOXOXOX$XXXXX$X-Xj.M z z V V.}.}.}.{.{.{.XXXXXXXX{.{.B.{.{.XXXX{.{.B.B.I.8.X.[ [ ] ] ] ] [ [ [ [ ",
"OX$X$XXX@X#X#X#X#X#XXX$XOXOX#X#XOXOX$XXXXXXX{.s.z z N N z s.}.{.B.B.B.{.{.XX{.XX{.B.B.}.{.{.$X{.{.B.B.V.,.[ [ [ { ] X.X.X.X.X.X.",
"XXXXXXXX@X#X#X#X#XXXXXXX$X$X@X@X$X@XXXXX@X+Xg.z z N 1.6.z N V.{.B.B.B.B.{.{.XX{.B.B.}.}.}.}.}.{.{.B.B.V.:.[ [ [ ] ' o...} Y Y Y ",
"XXXXXX#X#XXXXXXX#XXXXXXXXXXXXXXXXXXXXXXX@XC.z z 2.I.-X^.Z V x.{.{.{.B.B.{.B.N.n.b.x.f.f.g.N.}.{.{.{.B.V.:.[ [ [ ] ^ /  .} Y Y Y ",
"OXOXOXOX#X#X#X#X#X#XXXXXXXXXXXXXXX@X@X@XV.V x 2.}.}.$XeXh.C g.{.B.B.B.f.S m g f f a a p e B B.B.{.{.{.V.:.[ [ [ { ( } T Y Y Y Y ",
"OXOXOXOX#X#X#X#X#XXXXXXXXXXXXXXXXXXX@X+X1.z A V.oX%X*X~./.3.g.V.B.B.s.A 2.g f a a p r p p m B.B.{.B.}.B.:.[ [ %.{ ( U T Y Y Y  .",
"#X#X#X#X#X#X@XXX@XXXXXXXXXXXXXXXXXXX$XC.l N V.XX%X7X!.oX~.[.S V.}.N.A Z V d s s a a t t a f x.B.{.B.B.B.,.[ [ [ { ( } T Y Y Y Y ",
"#X#X#X#X#X#XXXXXXXXXXXXXXXXXXX{.{.XX@XZ z h.}.B.W.W.~.W.~.g.Z }.V.N.A Z 2.Z M k s s a a f a D B.B.B.B.B.,.[ ] { { ( } | T U U T ",
"#X#X#X#X#X@XXXXXXXXXXXXXXXXXXX{.{.XXN.M 1.}.{.XXXXW.`.`.~.h.Z B.B.N.2.V 2.1.V d a a t t r a g.B.B.N.B.B.,.] ] ] { ( } | T U U T ",
"XXXXXXXXXXXXXXXXXXXXXXXXXXXXoXoXXXW.S M N.B.{.{.{.%X=XB.8XM.A B.{.B.f.V m a r > % : q l B x.B.N.B.m.B.m.>.] ] ] { ( T T  .T T T ",
"XXXXXXXXXXXXXXXXXXXXXXXXXXXXoXoXXXV.N 1.}.{.{.{.{.XX{.B.oXC.2.W.{.B.N.g.A Z A M z 3.j.C.}.}.B.B.B.m.N.m.9.] ] [ { ( U T T T T Y ",
"XXXXXX{.B.B.XXXXXXXXXXXXXXXXXX{.XXf.M f.{.XX{.{.{.{.B.oX*XN.g.W.{.B.B.B.B.B.}.s.<.j.h.C.B.B.B.B.B.B.N.m.8.] ] ] { ) T T T T Y Y ",
"XXXXXX{.{.{.XX{.{.{.XXXXXXXXXX{.B.Z V N.XXoXW.{.{.B.B..X%X~.f.W.{.B.B.{.B.B.V.h.;.A.D.I.}.{.{.{.B.B.N.B.8.' ] { ' ( Y T T T Y Y ",
"XXXXXX{.{.{.{.{.{.XXXXXXXXXXXX}.x.M S B.B.E..XW.W.!.!.!.W.!.`.W.oXB.B.{.{.{.W.M.:.0.D.M.V.{.}.{.B.W.B.B.8.' ] ] ` ) Y  .T T Y Y ",
"XXoXXX{.{.{.{.oXoXXXXXXXXX$XQ.g.V B N.W.oX.X.X.X*X'.'.`.W.B.].=XoX{.B.B.{.}.XXV.<.4.S.l.B.}.B.B.{.B.B.B.8.' ] { ` ( Y } Y Y Y Y ",
"oXoXXX{.XX{.{.W.oXoXoXoXOXI.0.| z f.XX{.oX.X.X%X0XpX].!.B.B.=XqX%XoXE.B.XXXX{.B.3.>.S.l.m.Q.B.B.XXB.B.B.0.' { { ` ( } Y Y Y Y Y ",
"oXoXoXoXB.{.{.{.{.b.$X|.H.7.O.o.C V.XX{.oXoX%X9XpXpX8XW.oXB.%XpX=XoX.XoXoXXX{.B.j.4.A.l.m.V.$XXXXXB.W.B.0.' { { ` ( } Y Y Y Y Y ",
"XXoXoXoX.XXX{.B.B f 3.A.#.O.+.#.j.V.{.{.oX.X=XpXpXqX0X%XoXW.oX0X7X.X.XoXoXXXoXW.l.<.A.D.n.B.B.{.XXXXXXB.0.] { { ` ^ } Y Y Y Y Y ",
"XXoXoXoX.XoX$XB > > j #.+.@.$.y.V.W.B.{.oX.X%X0X9X*X0X9XoXW.oX9X9X.X.X.X.X.X.XW.l.<.0.D.n.B.B.{.{.W.XXB.j.X.{ { ` ^ / Y Y Y Y Y ",
"XXoXoXoXoXXXS > - - 8 +.@.-.p.I.W.oXXXoXoXoXoX*X%XoX=XpX7XoXoX0X0X.X.X.X.X.X.XB.H.<.4.A.2.Z x.B.XXXX{.B.j.X.[ [ ' _ / Y Y Y Y Y ",
"XXXXoXoXoXQ.d % O @ 8 @.$.e.I.W.oXoXoXoXoXXXoXoXoXoXoX8XiX8X%X0X9X.XE.v.E.E.N.g.V k ;.q.x e B B.{.B.B.B.z.X.{ { ' _ } Y | T Y Y ",
"oXXXoX.XXXH.v 1 $ 8 O.$.#.c V.W.oXoXoXoXoXoXoXoX%X%XoXoX7XiX9XiX7X.Xv.v.B.N.A d : - c c < : a x.B.{.{.B.z.X.{ { ] ` }  . .| Y Y ",
"oXoXoXW.I.,.R G R +.@.#.$ - x.W.oXoXoXoXoXoXoX*X0X0X*X%X*X0XiXiX*X.XE.B.N.Z a q , o s k - & > D {.{.B.V.k.X.[ { ] ` /  .| T T Y ",
"XXoXQ.H.7.O.E E +.@.$.7 X X V B.W.W.W.XXXXXX&X9X9X0XpX0X0XpXpXpX*X.XE.B.A p q q : & : z < O % B B.{.{.B.k.X.{ [ ] ^ / Y T U T T ",
"XXoXQ.7.O.E E O.@.-.P + X X a b.oXB.B.XXXX&XwXqX%X%XwXpXpXqXqXpX9X%XE.x.a ; > q : - : c s O % g {.{.XXB.k.X.` [ ' ^ I Y Y U U U ",
"oXW.V.7.+.+.E @.-./ + . X o , S {.oXW.XXoX7XpX=XXXoX#X*X=X!.W.`.].`.B.A ; , % > q - - k ;.x : A B.{.{.W.k.X.{ [ { ^ P U U U U U ",
"W.W.V.t.O.+.@.e.o.O o % % % % m {.oXoXoXoXwXwX@XXXXX$X@X$XXXB.W.].7XB.B % o % , q : - y ;.<.2.m.B.B.{.B.k.X.{ [ { ! P I U U U U ",
"oXW.$XH._ +.$.J.3.: % % , % % p N.W.oXoXoX&X@X}.B.n.f.f.f.f.n.B.$XW.n.l X X o % q q : < C <.k.m.B.W.W.W.M.o.{ [ { ^ ~ I U U U U ",
"oXW.XXM.,.#.y.V.V.m ; , ; , % , S $XoXoXXXB.x.A M d f f f f l Z n.B.g.q X . X % > : : < c 3.j.m.m.B.W.B.n.:.` ` ` ^ ~ I U U U U ",
"oXW.XXXXV.I.V.W.$Xf.p ; ; ; , % z V.XXoXB.Z f a t a a a a a s a g A d o     X % , : > c x :.q.m.m.m.W.W.n.:.` ` ` ^ P I U U U U ",
"XXXXoXXXoXoXoXoXXX$XZ w w ; ; % > f.{.B.B > w w q t a a a t a l Z l %       X % , > l j.c :.q.M.c.c.m.c.M.:.` ` ` _ P I U U U U ",
"XXXXB.XXoXoX.XoXoX#XB.m w w q ; % m }.g.w % ; f f t t q q q y j.1XI.y X X X X % , r h.l.C ;.3.k.c.c.c.m.m.:.^ ` ` _ F I I U U U ",
"W.W.XXXXoXoXoXoXoXoX$Xn.a w w w , > h.l % % C 1XT.V q q q q q 1.k :XC X   X o % ; A V.m.1.c Z Z.c.c.c.m.m.:.^ ` ` ` W P I I I I ",
"XXXXXXXX.XoXoXoXoXoX$XOXs.p w w ; % l a X < 1XP.k 1.y : * * * s 3.:XN X   X % ; B B.W.B.n.g.f.m.E.v.c.c.m.>.^ ` ` ` W 6 6 2 2 7 ",
"$X$XXX$XW.oXoXoXoXoXoXW.V.2.e w ; % o X . : :XP.x C = = = = = = y k : X   X % z N.B.W.W.W.v.c.c.E.E.v.c.m.>.^ ` ` ` ` ^ ^ ^ Q Q ",
"#X#X@XXXXXXXXXoXoXoXoXXX$XOXZ q , o .     X z j.<.y = u J J J i = % % X   X d N.B.W.oXE.W.oXE.W.E..X.XE.c.0.) ^ ` ` ` ^ ^ ^ ^ ^ ",
"$X$X$XXXXXXXXXoXoXoXXXXXXX+XI.A > %       . o % & = 3 H L L L L 5 & X . o M V.}.XXXXoXoXoXoXE.W.E.E..XE.c.j.b 9 ' ] ' ^ ^ W W Q ",
"OX$X$X$XXXXX{.W.oXoXXX$XXX$XOX}.A e o       o % & = u H H H H J = o X % B V.}.{.XXoXoXoXoXoXoXoXoX.X.XoXc.m.k.0.) ' ] ^ 0 6 6 6 ",
"OXOXOXOXXX{.{.{.XXXX$XOXOX$XOX$XV.M %       . o & = 3 u J 3 3 5 + X X a N.W.XXXXXXoXoXoXoXoXoXoXoXoXoXW.B.W.m.z.b ( [ &.W 6 6 6 ",
"^.^.OXOX$X$X$XXXXX$X$XOXOXOXOXOX-XV - X         X + @ 4 4 4 @ O       l Q.W.XXXXXXXXXXoXoXoXoXoXoXoXoX{.W.W.W.k.b h ] w.*.W 6 6 ",
"^.^.OXOXOXOXOXOX$XOXOXOX-X-XOXOX-XV & o         + # 2 7 7 7 7 7 # + X p V.XXoXoXXXXXXXXXXXoXoXoXoXXXXX{.{.W.W.k.b h ) *.a.*.0 6 ",
"^.^.OXOXOXOXOXQ.Q.OXQ.^.|.|.OXOX}.B % o + X O 7 j b h I | ..,.,.o.7 O - n.$XoXoXXXB.W.XXXXXXXXXX{.{.{.{.B.W.W.M...h b ' =.e.' 8 ",
"^.I.-XOX^.^.I.I.^.^.^.^.|.|.|.|.I.m % o o O h w.8.8.5.t.i.A.D.S.A.,.0 1 A Q.XXXXXXW.XXXXW.W.XXXX{.{.XX{.{.B.W.M.:.h 9 ! ` *.*.^ ",
"I.I.|.-X/././.^.^.^././.;X;X|.|.V.l % o O 7 w.a.F.G.P.P.U.T.T.T.U.F.t.7 k V.$XXXXXXXXXXXXX{.B.B.{.{.XX{.{.B.B.M.:.h F Q ^ &.=.*.",
";X;X;X;X;X;X;X;X/.;X;X;X;X;X;X-XC.a % o # X.a.J.R.T. X:X:X:X:X:X XU.J.:.s l.-X$X$XOXOX$X$X}.}.}.}.$XXXB.{.B.B.M.>.h P Q ^ ` { { ",
";X;X;X;X;X;X:X:X:X:X:X1X2X2X1X:Xj.> % O 0 a.p.Y.:X4X1X2X2X2X2X2X:XT.K.F.j 3.-X-X-X-X-X-X-X-XOXOXOXOXOXOX}.}.V.M.0.P F F ) _ ' ` ",
"3X3X3X3X3X3X3X3X3X3X3XtXuXtXuXuX6.- O # w.p.L.>X4X3X2X2X2X2X2X2X1X:XR.K.:.n 2X2X2X2X2X2X2X2X:X;X;X:X:X:X;X;X;X/.A.~ F W P ~ ) ) ",
"uXuXuXuXuXuXuXtXtXtXuXuXuXuXuXtXc - O j p.p.(.4X1X2X2X2X2X1X:X:X1X:XT.K.y.n tXuXuXuXuXuXuXuXuXuXuXuXuXuXuXuX3X6XY./ W W Q F F W ",
"uXuXuXuXtXtXuXtXuXuXuXtXuXuXuX3Xs - # X.p.L.>X2X2X2X2X2X1X X X X X:X XY.F.n _.uXtXuXuXuXuXuXuXuXuXuXuXuXuXuXtXtX(./ F W Q Q ) ) ",
"uXuXuXuXuXuXuXtXuXuXuXtXuXuXuXT.< O 2 a.p.Y.3X2X2X2X1X:X:X X X X X X XU.F.:.D.tXtXtXuXuXuXuXuXuXuXuXuXtXtXtXtXtX)...W W ! ^ ^ ^ ",
"uXuXuXuXuXuXuXtXtXtXtXtXuXuXuXD.< & 0 r.p.(.3X2X2X1X:X X X X X X X XT.U.J.,.4.tXtXtXtXuXuXtXtXtXuXuXuXtXtXtXtXtX)...W W ! ^ ^ ^ ",
"uXuXuXtXuXuXtXuXtXtXtXtXtXuXuX4.< O ( r.p.(.4X4X4X X X XT.P.P.U.P.P.P.P.S.,...tXtXtXtXuXuXtX6X6XtXtX3XrXtXtX3X3X>Xo.W W ! ! ! ! ",
"uXuXtXtXuXtXtXtXtXtXyXyXtXtXuX<.- O X.r.L.(.4X:XT. X X XU.U.U.U.P.P.P.P.S.8.| tXtX6XtXuXuXtX6X5X6X3X3X3XtX6X3X<X>X:.9 W Q Q Q ^ ",
"tXtXtXtXtXtXtXtXtXtXtXtXtXtXtX6.- @ *.r.L.(. XT.T. X X XT.U.U.U.P.P.P.G.S.8.| tX6X5XtXuXuX6X5X5X6X3X3X3X6X6X<X<X>X,.~ W W ! Q ^ ",
"rXyXtXtXtXtXtXtXtXtXtXtXtXtXtXC - # =.r.p.Y. XT.T. X XT.T.P.P.P.P.P.G.S.y.8.n yX6X5X6X3X3X5X5X5X6X3X3X3X5X6X<X<X>X8.~ W W ! W W ",
"(.<X<XrXtX3XtXtXtXtXtXtXtXtXtX6.- # e.r.L.U.T.U.T.T.T.R.T.P.P.P.P.G.S.S.i.8.n <X5X5X3X3X3X<X<X5X6X3X3X3X6X<X4X<X).t.P W Q Q W W ",
"K.>X<X>X<X3XrXtX5XtXtXtXtXtXuXd.- # e.r.J.U.U.U.U.U.U.U.U.P.G.G.G.G.S.S.i.,...<X5X5X6X3X<X<X<X,X,X<X,X,X,X<X<X>X).y.~ F W W W W ",
"K.>X>X>X<X<X<X<X5XtXtXyXtXtXuXl.: # e.r.J.K.U.U.U.K.K.G.G.G.G.G.G.S.S.u.t.o.4.>X5X5X5X<X<X<X,X,X<X,X,X,X,X4X>X>X).u.P F W W W W ",
"Y.>X<X<X3X3XyX6XtXtXtXtXuXuXuX:Xs # =.r.J.K.K.K.K.K.K.G.K.G.G.G.D.S.u.i.t.b G.<X5X,X<X<X<X,X,X,X<X<X<X<X<X>X>X).(.F.h F W W W W ",
"(.>X<X3XrXtXtXtXtXtXtXtXuXuXuX3Xk $ [ r.p.K.K.K.K.G.G.G.G.G.G.G.S.A.i.t.5...>XyX5X,X,X<X<X,X,X,X<X<X,X,X<X>X(.Y.i.o.9 9 W W W W ",
">X>X<X3X3X3XtXtXtXtXuXuXuXuXuXuX<.< _ r.p.F.G.G.F.F.F.F.F.F.F.S.u.y.t.t.,.4.>X<X,X,X,X<X,X,X,X,X<X<X<X<X>X>XY.A.j j 0 0 9 W W W ",
">X<X<X3X3XuXuXuXuXuXuXuXuXuXuXuXP.7 F e.a.u.F.F.F.F.F.F.F.u.u.u.u.y.5.5.:.Y.<X4X<X,X<X,X,X,X,X,X>X<X,X,X).(.(.A.j j 9 0 9 W W W ",
">X<XtXtXuXuXuXuXuXuXuXuXuXuXuXuXtXn 6 e.e.u.u.u.u.u.u.u.u.u.u.y.t.5.,.,.i.).<X,X,X,X,X,X,X,X:X,X).).,X,X(.(.(.K.:.j h 0 9 W W W "
};
