/* XPM */
static char *_acde10ef824433f9deacce242d2ccb8[] = {
/* columns rows colors chars-per-pixel */
"64 64 256 2 ",
"   c #060303",
".  c #0B0204",
"X  c #06020A",
"o  c #0C030B",
"O  c #0B0908",
"+  c #130206",
"@  c #13030C",
"#  c #1B020C",
"$  c #1A0406",
"%  c #0C0715",
"&  c #150413",
"*  c #1C0312",
"=  c #1C041A",
"-  c #150919",
";  c #171212",
":  c #22030C",
">  c #290408",
",  c #37060B",
"<  c #230213",
"1  c #2B0315",
"2  c #23031A",
"3  c #2A071A",
"4  c #370717",
"5  c #311512",
"6  c #160A25",
"7  c #171432",
"8  c #290725",
"9  c #390723",
"0  c #2F182B",
"q  c #37252E",
"w  c #46090C",
"e  c #56080C",
"r  c #48110C",
"t  c #480A16",
"y  c #570B17",
"u  c #451414",
"i  c #4A1415",
"p  c #4B161A",
"a  c #4C1A1B",
"s  c #471619",
"d  c #531C1D",
"f  c #571717",
"g  c #53140F",
"h  c #651819",
"j  c #6D1112",
"k  c #59211D",
"l  c #4E351F",
"z  c #64211E",
"x  c #75251A",
"c  c #450725",
"v  c #561C26",
"b  c #4E1429",
"n  c #761A38",
"m  c #721627",
"M  c #5D2122",
"N  c #572528",
"B  c #50302E",
"V  c #632322",
"C  c #6B2527",
"Z  c #772828",
"A  c #742B35",
"S  c #773237",
"D  c #6D3034",
"F  c #6A4830",
"G  c #1C2848",
"H  c #2C2E4C",
"J  c #313969",
"K  c #4D354B",
"L  c #6F374C",
"P  c #533761",
"I  c #385475",
"U  c #73534B",
"Y  c #555172",
"T  c #68576A",
"R  c #870E18",
"E  c #B40B1B",
"W  c #85241A",
"Q  c #940D26",
"!  c #B10D2A",
"~  c #882928",
"^  c #972929",
"/  c #893534",
"(  c #983637",
")  c #8F3030",
"_  c #A83837",
"`  c #AA3132",
"'  c #CC0B33",
"]  c #CD092E",
"[  c #D11C2E",
"{  c #92453A",
"}  c #A8493B",
"|  c #87663F",
" . c #C4463C",
".. c #8E394A",
"X. c #AD364A",
"o. c #BD1B4B",
"O. c #D91847",
"+. c #C82949",
"@. c #E41A43",
"#. c #8C4E4D",
"$. c #A94545",
"%. c #AF4C50",
"&. c #B27053",
"*. c #AE566A",
"=. c #B16F71",
"-. c #9A6860",
";. c #CD4E54",
":. c #C5655B",
">. c #C76F5C",
",. c #C85968",
"<. c #D65B68",
"1. c #CE556E",
"2. c #E6557D",
"3. c #EA557C",
"4. c #E65A7D",
"5. c #EA597E",
"6. c #E45975",
"7. c #E7596D",
"8. c #D86479",
"9. c #D06F6F",
"0. c #E7637C",
"q. c #E96475",
"w. c #BB8B69",
"e. c #B68959",
"r. c #D79578",
"t. c #C98D6D",
"y. c #DB8A74",
"u. c #596D97",
"i. c #896985",
"p. c #96738E",
"a. c #B06C8A",
"s. c #DB5D84",
"d. c #E75681",
"f. c #EA5681",
"g. c #EC5B82",
"h. c #E85B84",
"j. c #F15D83",
"k. c #F15D89",
"l. c #DC6D85",
"z. c #DA6A88",
"x. c #DD738B",
"c. c #DB788B",
"v. c #DB7895",
"b. c #CA738D",
"n. c #E56483",
"m. c #EB6383",
"M. c #E46B84",
"N. c #EA6B86",
"B. c #EC6B89",
"V. c #E56789",
"C. c #F16286",
"Z. c #F36489",
"A. c #F26B87",
"S. c #E47486",
"D. c #E4748C",
"F. c #EB748A",
"G. c #E57A8C",
"H. c #EB7A8E",
"J. c #EC7685",
"K. c #F1758D",
"L. c #F17A8E",
"P. c #E57B93",
"I. c #EC7C92",
"U. c #E67A97",
"Y. c #F27C92",
"T. c #F27692",
"R. c #F06792",
"E. c #E87DA8",
"W. c #728BB5",
"Q. c #608199",
"!. c #8795B0",
"~. c #A391A7",
"^. c #C58799",
"/. c #DA8498",
"(. c #D49896",
"). c #CA928A",
"_. c #E8818C",
"`. c #E58394",
"'. c #ED8293",
"]. c #EA839A",
"[. c #EB8B9C",
"{. c #E68799",
"}. c #F38294",
"|. c #F4859A",
" X c #EA8D90",
".X c #D4A599",
"XX c #ECA88F",
"oX c #C58AA4",
"OX c #CB97AC",
"+X c #CC97B3",
"@X c #D29CB6",
"#X c #D395A2",
"$X c #E989A5",
"%X c #F28CA7",
"&X c #E994A7",
"*X c #F498AA",
"=X c #EA9BBD",
"-X c #E69BB8",
";X c #F49DB4",
":X c #F59CB9",
">X c #EE8AB3",
",X c #D6A5AC",
"<X c #D3A4B4",
"1X c #D6ACB4",
"2X c #DAACB5",
"3X c #DBADBA",
"4X c #D8A6B7",
"5X c #DCB3B5",
"6X c #DCB2B9",
"7X c #DDBFBA",
"8X c #CEA0B0",
"9X c #EBB8A7",
"0X c #ECA6BB",
"qX c #F6A2B4",
"wX c #F9A3B5",
"eX c #F4A3BB",
"rX c #F9A3BB",
"tX c #F7AABB",
"yX c #E0B3B9",
"uX c #E3BBBB",
"iX c #E5BAB7",
"pX c #F5B1AE",
"aX c #E3C2BD",
"sX c #E9C8BA",
"dX c #F2C8B5",
"fX c #919CCA",
"gX c #ADADCE",
"hX c #EB9EC1",
"jX c #F39EC4",
"kX c #CFB5CD",
"lX c #EDA2C2",
"zX c #ECACC3",
"xX c #F2A4C3",
"cX c #F3ABC4",
"vX c #FAACC4",
"bX c #F6ABCB",
"nX c #F9ADCC",
"mX c #F8A5C4",
"MX c #ECB7CA",
"NX c #F4B3C5",
"BX c #FAB3CB",
"VX c #F3B9CC",
"CX c #F6B4CA",
"ZX c #F7B7D2",
"AX c #EFB5D4",
"SX c #D0BBE4",
"DX c #E4BDE1",
"FX c #EBC4C3",
"GX c #ECC9C4",
"HX c #E9C7C5",
"JX c #F1C8C6",
"KX c #EECACF",
"LX c #D6C4EA",
"PX c #E0C1E4",
"IX c #D3C2D3",
"UX c #B6C5D5",
/* pixels */
"Y.}.}.}.H.H.L.H.F.M.0.0.n.B.n.N.N.m.g.g.4.4.5.4.6.6.g.g.4.4.4.4.4.2.2.f.d.2.2.f.f.3.4.4.g.j.5.3.3.5.3.3.3.3.3.f.3.3.3.3.3.2.3.3.",
"Y.}.|.|.}.Y.Y.Y.K.F.N.B.B.B.n.B.B.m.g.m.A.Z.m.m.5.4.g.m.m.A.g.m.C.g.d.h.h.f.g.g.g.C.g.4.Z.Z.5.3.5.j.j.j.g.f.f.f.f.5.5.5.5.3.3.3.",
"H.L.}.}.H.H.L.L.F.M.n.B.B.N.n.4.4.4.m.m.m.5.4.4.4.4.4.4.g.m.g.4.C.C.f.f.d.2.f.g.C.C.4.4.g.j.3.3.3.3.f.3.f.2.f.k.3.3.5.3.3.5.3.3.",
"Y.Y.}.}.}.Y.L.Y.K.F.M.B.N.N.n.n.B.B.A.A.N.5.4.g.m.m.g.5.g.m.C.g.g.C.g.k.h.f.f.R.R.g.f.g.g.j.j.j.5.5.j.g.f.3.f.g.g.k.C.5.3.k.k.5.",
"F.H.H.H.Y.H.S.F.K.F.N.N.N.B.n.n.B.m.m.m.g.g.m.4.C.m.4.4.4.5.m.g.g.h.d.d.2.f.f.f.f.g.3.4.g.g.3.j.5.5.j.g.5.3.j.f.3.g.3.2.4.j.g.3.",
"H.H.H.}.I.H.Y.H.H.K.F.B.B.B.N.n.B.N.N.N.g.g.m.g.C.g.g.g.g.g.4.4.h.h.m.m.4.f.C.g.f.g.f.f.g.g.C.Z.g.g.5.3.5.5.5.5.5.j.g.5.4.2.d.h.",
"F.F.F.I.H.I.Y.H.F.F.F.B.B.N.n.n.N.m.m.g.m.m.5.5.g.g.g.g.g.g.g.f.f.g.g.g.2.2.f.f.f.f.f.f.f.f.g.C.j.4.3.g.j.5.3.j.j.j.j.j.C.g.f.h.",
"F.H.I.I.H.H.F.F.F.F.B.B.B.B.n.n.n.m.Z.N.m.m.m.m.g.g.m.C.C.C.g.4.4.g.g.g.4.2.2.f.f.f.f.3.2.f.4.g.j.4.5.5.j.j.3.5.5.5.j.C.Z.C.f.d.",
"F.H.Y.Y.I.H.F.F.F.F.B.B.B.B.n.N.n.m.N.m.g.g.Z.N.0.m.N.B.0.4.0.A.A.q.0.0.0.f.2.f.f.f.f.g.g.g.j.g.g.g.5.5.5.j.5.3.3.5.j.j.g.g.h.d.",
"F.Y.Y.Y.H.F.F.F.F.N.N.N.N.m.N.N.n.0.m.m.4.h.V.l.8.8.8.8.<.,.;.<.<.,.<.<.A.0.4.d.d.f.g.j.Z.g.4.3.4.4.3.3.4.4.4.g.f.g.j.C.g.3.d.d.",
"F.H.I.I.H.H.S.M.F.F.F.F.B.A.B.B.B.B.B.N.V.V.z.1.%.X.X.X.( ( ( X._ ( ( $.<.7.q.5.h.f.g.g.k.j.g.4.3.3.4.4.4.4.3.f.2.3.g.C.Z.C.k.g.",
"S.S.F.F.F.D.M.M.N.F.F.F.K.K.B.n.n.N.m.n.V.z.*.../ ~ ~ ~ ~ ) / ) ~ ~ ( ( _ ;.<.6.4.2.3.f.f.2.4.3.3.2.3.3.2.2.2.2.2.2.2.2.C.f.f.k.",
"I.Y.Y.Y.Y.I.H.L.K.Y.Y.H.K.T.T.B.B.B.N.B.V.b.#.S / / ^ ` _ ~ Z Z / / / ~ ) _ %.;.<.6.0.Z.g.g.4.4.4.4.f.h.f.g.g.g.g.f.f.f.g.g.d.g.",
"F.F.H.H.H.H.F.H.H.F.F.S.K.T.F.N.M.N.0.n.z.*.A Z Z ^ [ [ ` ( Z Z / Z Z Z Z ~ ) _ $.;.<.7.6.4.2.2.4.4.2.2.2.f.h.f.f.2.2.2.2.4.d.h.",
"Y.Y.Y.Y.Y.H.H.H.Y.K.F.F.I.Y.Y.Y.F.B.S.M.z.*.S Z Z ` E E E R C C V V V V V V C Z ^ _ _ %.;.6.g.5.5.4.f.h.h.k.f.2.2.2.g.C.4.4.f.k.",
"F.F.F.H.H.G.F.F.F.F.H.F.S.H.Y.Y.F.M.M.N.z.*.D A Z ` E E R e f d p a d d p p p f x ~ ^ _ _ ;.4.g.3.2.2.2.2.d.2.2.2.2.f.g.2.2.f.k.",
"H.I.}.}.I.I.I.H.Y.H.I.L.L.Y.L.Y.Y.F.B.U.b.=.D N f z j x h r u s a a a a a s 5 5 a V Z ~ ^ _ 6.0.4.4.4.4.4.4.f.f.f.h.h.h.d.m.V.s.",
"H.I.I.I.I.I.G.H.H.H.D.F.H.K.L.Y.L.F.F.D.a.#.N a a i r r i i s s u u u u u p 5 , , u M C ~ ^ ;.<.6.h.4.2.2.2.2.2.f.h.d.d.s.z.U.>X",
"G.I.'.'.'.'.G.I.}.}.H.F.H.H.Y.}.L.L.K.v.a.L N M v M a a p u u u i a a a u u s u , , 4 i Z W ` ;.3.d.4.g.m.g.g.h.s.V.E.>X:XmXnXcX",
"D.H.I.I.I.G.I.I.I.I.H.F.D.F.H.'.H.J.D.v.*.L N M M M M M d d d d f i u a a p u u 5 4 4 , h x ^ ;.3.f.4.4.n.s.s.z.$X>XjXjXmXnXZXVX",
"H.H.H.H.H.H.}.}.I.H.I.'.G.H.8.,.,.,.,.*...D V h f f f d k M M V V V k i r u u u s s 4 4 w h ^ ;.7.h.s.s.v.>X:XxXxXlXlXlXbXbXVXVX",
"Y.F.S.S.D.H.I.}.}.I.G.H.S.S.8.*.%.%.$......./ / S S D C C V z z z z V M d u w r u a s u w g Z ` 7.z.v.$X:XmXxXlX=X-X=XxXxXlXCXVX",
"I.H.H.F.S.G.I.I.'.}.I.D.D.H.G.G.c.l.a.L b v C D S S S S S S S A C C z V k d d a r i p d i u g W <.%XmXxX=XhXhXhX-XhXjXjXjXbXBXCX",
"I.I.I.I.D.I.I.I.}.}.Y.S.L.L.S.G.I.U.a.P 8 9 9 9 b b v v V D A A S A A C V V M M d d i p v v r j <.*XhXhX=X=X=X-X=XjXmXxXlXbXcX0X",
"D.I.I.I.D.D.H.H.}.'.I.I.F.M.S.S.I.U.a.Y 6 3 8 8 8 8 9 9 9 9 9 9 9 9 b b v v N N V M M M f g f x :.&XcXbXhX=X=X-XlXnXbXbXnXxX-X-X",
"I.I.I.I.I.I.I.I.}.'.'.H.H.D.G.H.'.{.OX!.7 3 8 8 8 8 8 8 8 8 8 8 2 2 3 3 1 1 1 4 s a v M v f j ~ c.qXbXxX0XlXlXxXZXnXnXBXbXlX0X0X",
"D.D.D.H.I.I.I.H.H.G.G.G.I.G.G.H.`.v.p.Y 7 - = 2 2 2 2 2 2 = = = & & * @ @ & & * < < 4 4 p f x $.[.&X=X-X0XcXbXnXbXnXnXmXxXlXlX0X",
"I.I.I.I.}.|.}.}.|.}.G.G.}.'.'.}.'.b.i.P P 0 & 2 * * * * * * * & @ @ : : 3 0 6 - 6 2 < 1 4 i ( 9.;X=XxX0XBXBXcXxXnXnXnXbXbXbXcXcX",
"D.G.I.I.I.I.G.G.'.G.S.S.D.G.G.G.P.a.T T 0 - * 2 < < * * * : < % # p #.=.kXgXH 6 = = 2 2 4 g $._.-XlXcXzX-X-XlXbXnXbXcXcXxXlX0X0X",
"I.I.I.}.|.|.}.}.|.'.S.G.G.H.'.'./.i.H q < < 1 < < < 2 * & 4 U T o w $.&XLXgXH - * * = 2 4 y :.*XBXZXZXBXzXcXnXBXvXnXnXbXcXcXxX0X",
"I.I.I.I.I.I.G.G.'.G.S.S.S.G._.'./.i.0 4 y m n n b 4 2 = & 3 L T ; : / (.UXu.7 - # * = < 1 e :.tXBXCXVXBXBXnXBXnXeXcXvXtXeXeXxXxX",
"}.}.}.I.D.D.D.G.'.'.G.H.G.'._._.U.a.v m ! +.+.o.X.n 9 2 & * b L N b -.7X!.H - & # * = 2 , e :.tXBXCXNXNXBXBXBXvXtXvXvXtXtXeXxXxX",
"P.P.P.G.D.S.S.S.G.D.D.H.G.'.I.G.{.v.X.+.@.@.O.O.O.o.n c * # : 5 N L U K - % & @ # # * < 1 g :.pXNXnXcXcXNXcXcXeXcXcXrXeX;X*X:X=X",
"I.P.D.P.I.I.G.G.G.I.I.'._.'.'.`.{.`.X.+.@.O.O.@.O.O.! m 4 * $ + o @ # < & % @ @ @ # * < , f :.wXcXbXcXcXcXBXvXcXvXvXmXrXeXqXeXxX",
"D.l.l.D.P.P.P.I.P.P.I.'._.`.`.`.`.P.+.' ] ' ' ' ' ' ! Q c < @ . O o @ @ & % o @ @ # # : , Z 8.;XcXZXBXBXvXvXvXvXvXmXrXrXrXrXvXnX",
"l.z.l.x.P.I.I.I.P.I.'.'._._.G.G.`.c.+.' ] ] ] E ! ] ! Q y 2 @ . . o % o o @ o o @ @ # : w /  XqXBXZXBXBXcXcXeXmXmXmXrXrXrXrXmXcX",
"l.l.D.G.I.I.I.].I.'.[.[.{.`.`.`.`.c.;.! ! E E E E E E Q y 2 & + . . o o @ @ @ @ @ @ # > Z 9.pXNXCXNXcX0X;XqXeXeXeXrXrXrXqXqXrXeX",
"D.D.G.I.I.].I.P.P.].].`.`.`.`.`.{.`.l.1.X.Q E E ! Q R j 4 2 & + . . o o o o @ @ @ $ , f =.&XtXNXNX0X=X;XqXeXrXqXeX:X:XqXqX:XeXeX",
"D.G.D.D.I.].P.D.'.P.`.`.`.[.[.[.{.`.^.a.L y y j y y w , < & @ $ o @ o o o o o @ @ $ w Z 9.(.tXwXqX;X;X:XrXrX:XqXqXqXqXqXqXeXeXeX",
"l.l.l.D.D.D.x.x.].].`.`.c.`.{.[.$X^.i.K 8 < $ $ * < : $ & & @ @ @ @ @ . . . . o . o > , p D =./.*X*X;X:XrXrXqXqX;XqXqXwX:XqXeX:X",
"z.D.l.G.I.P.G.I.].I.[.[.[.`.`.&XOXi.q 6 = & o @ @ # $ $ @ # & & & # @ +     . . . o @ # 1 1 t h %.l.;XtXrXeXqXwXwXwXqXqXqXrXrXmX",
"z.M.M.D.P.P.D.I.P.P.{.[.[.`./.oXi.K 6 - & @ $ : > , , > : # $ $ @ + . .         . o @ # 1 1 4 4 y / 8.*XrXqXqXqXqXwXwXqX;XqXrXrX",
"D.D.F.I.].I.D.D.P.].$X%X$X/.^.i.q 6 & @ $ > r k S / Z h f u , , , > $ .     O . o o o @ < 1 9 9 t y ) 9.*XwXwXtXwXwXwXqXwXwXrXrX",
"D.D.V.D.P.x.D.l.x.U.[.%X$XoXp.Y - - # $ > g { &.&.%.} / ~ Z C C h h a 5 + . . o o o o o * 2 9 9 9 t h ( _.*XqXqXqXqXqXqXtXwXrXrX",
"P.I.S.D.P.P.P.I.[.$X[.[.@XgXY 7 - $ > r { >.r.r.r.y.b.=.*.$.( ( ( ( { { D a > @ o X X o @ * 1 3 9 c p h ;.'.qXeXeXeXrXrXwXwXrXrX",
"D.G.M.x.x.x.l.x.].[.[.&XkX!.H - # > g / t.XXXX.X(.(.^.^.a.=.*.*.%.$.$.} } { k >     X X o @ # < 3 9 9 t ^ <.*X0XeX;X;X;X*X;X;X;X",
"P.D.l.l.D.D.D.D.{.[.&XMXgXY 6 = $ r $.y.9X9X9XyX2X8XOXOXoXoX^.b.b.b.9.:.&.&.&.F ; O X X o + @ # < < 9 9 h _ J.;X;X:X:XrXqXqX;X:X",
"c.x.l.l.l.l.8.l.`.`.0XIXu.G - 3 , x t.9X9XsXiX5X1X,XOXOXOXoXoXoXoXoX/.).>.>.&.&.F ; X X o + + @ # < 3 c t h ;.|.;X-X:X:X;X*X*X;X",
"U.c.l.l.x.D.D.P.{.eXIXfXH 6 * > x &.XXdXsXFXaXiX6X2X4X4X@X+X+X+X+X+X+XOX(.r.t.t.e.U ;   . + + @ # * 1 4 4 u ` 7.*X*X*X%X&X*X*X;X",
"U.P.P.x.z.x.U./.0XAXgXQ.7 8 > w } r.dXsXFXFXaXuX5X2X4X4X<X@X@X@X+X+X+X+X8X(.r.t.t.e.l O . . . + @ * < 1 4 9 x ;.|.*X%X%X$X*X*X*X",
"P.c.x.x.G.v./.-XAXPX!.I - 2 w W 9.9XsXGXJXFX7XiX6X5X2X4X<X@X4X4X<X<X@X<X<X,X.X).t.w.-.l O X   . @ # : 1 9 c y ^ q.|.$X%X$X&X%X%X",
"`.P.x.z.G.v.lXBXDXSXu.G = < h _ XXdXKXGXJXFXaXiX5X5X6X3X4X4X4X4X4X4X4X4X3X3X2X,X).t.w.| ; % X o @ $ $ < 9 c y R ;.G.$X%X&X&X&X$X",
"/.c.x.v.v.-XZXVXPXgXu.7 < , ^ :.pXGXKXGXFXFXaXuXiXyX6X3X2X2X2X2X2X,X2X2X3X3X3X2X.X).t.e.l ; X o . + @ * 2 1 w y X.0.|.%X&X&X&X&X",
"/.v.P.U.;XNXZXVXLXfXJ 6 > w } y.dXGXKXGXFXFXuXiXyXyX6X6X6X3X3X3X2X2X2X2X2X2X3X1X,X.Xr.w.U 5 o o . . + @ < 1 , w m X.S.|.%X$X&X$X",
"v.v.v.>XcXMXVXZXLX!.H 6 , j :.9XsXGXKXGXFXuXuXiXiXyX6X5X6X5X2X2X2X2X2X2X2X2X3X3X1X,X.Xt.&.F - %   . . o # : > , w j X.,.I.U.E.E.",
"P.U.&XnXcXMXZXZXgXu.7 = , W t.dXKXKXKXHXHXFXFXuXiXiX5X6XyXyXyX6XyXyX3X2XyX3X3X2X1X4X,X).w.#.6 % . .   . + $ : : , t m ( ,.S.E.>X",
"z./.cXMXMXMXMXAXfXI 6 2 e _ XXdXGXGXHXHXaXaXuXuXiX5X6X6X6X6X2X1X2X2X1X2X1X<X2X<X<X<X,X(.w.-.q - o . X . . $ $ # < 1 4 t h ~ *.z.",
"/.eXVXMXVXAXAXPXW.J - 1 h %.9XJXGXGXGXGXHXFXuXuXuXuXiXuX6X6X6X6X6X6X2X6X6X3X3X3X<X<X8X#X).=.B - o o o . . + $ # < < < 1 t b n ..",
"tXNXMXMXzXzXAXSXu.G * , ~ >.dXGXFXFXHXFXuXuXuXuXiXiX6X6X6X6X5X5X1X1X1X5X6X3X2X<X8X8XOXOX(.=.U 0 % o . . . . + $ : : < 1 1 1 4 t ",
"NXMXMXVXBXZXDXgXI 7 < , ` y.dXGXKXGXFXHXuXuXuXuXiXiXiX6X5X5X6X5X6X6X5X5X6X3X1X<X<X4X<X+X(.t.#.B & o       . . + $ # < : : < > , ",
"KXKXMXMXNXZXSXfXH = 4 e _  XdXFXFXaXuXuXiXiXuXuXiX5X5X5X5X1X1X1X1X1X1X1X1X<X1X<X<X@X+X+X#X).#.D * X       . . . @ # * < * * $ > ",
"VXVXVXCXVXZXSXW.0 4 t j  .XXGXGXHXHXFXuXuXuXuXiX5X5X5X5X5X5X6X6X6X6X6X6X3X1X<X<X8X<X@X+XOX).-.#.* O O   . . . . @ # * < * # $ : ",
"zXNX0X0XNXMXgXu.s h e j ;.9XGXsXaXaXiXiXuXiXiX5X5X5X5X5X5X1X2X3X3X1X1X1X1X<X<X<X8XOXOXOXOX^.=.#.5 % o . . . . + @ # * < < * # : ",
"zXcXcX0XNXkXW.Y h j e j ;.9XKXsXsXaXiXiXiXiXiX6X5X5X5X5X5X5X6X6X6X1X1X1X1X1X<X<X<XOXOX+XoX^.=.%.q % o . . + + @ # # * < < * # : "
};
