/* XPM */
static char *_96fc7013afe45d1bafa2998e85af810[] = {
/* columns rows colors chars-per-pixel */
"64 64 208 2 ",
"   c #0F0705",
".  c #0D0906",
"X  c #0E0E0D",
"o  c #130D0A",
"O  c #100907",
"+  c #15120E",
"@  c #18100E",
"#  c #161311",
"$  c #1A1512",
"%  c #1E1916",
"&  c #1D1B1A",
"*  c #15161A",
"=  c #0F0F0F",
"-  c #201816",
";  c #231D1A",
":  c #25211E",
">  c #28211F",
",  c #1D1E21",
"<  c #1E2226",
"1  c #242323",
"2  c #2A2522",
"3  c #2D2926",
"4  c #2E2B29",
"5  c #25262B",
"6  c #322D2A",
"7  c #312927",
"8  c #35312E",
"9  c #38312E",
"0  c #292C31",
"q  c #353332",
"w  c #3A3532",
"e  c #3E3935",
"r  c #39393A",
"t  c #512F27",
"y  c #52352D",
"u  c #433E3B",
"i  c #433B37",
"p  c #553A31",
"a  c #5D3C35",
"s  c #4A2F27",
"d  c #46423E",
"f  c #49413E",
"g  c #59453C",
"h  c #63433B",
"j  c #3B3C41",
"k  c #433E40",
"l  c #454444",
"z  c #4B4543",
"x  c #4D4945",
"c  c #4C4A4A",
"v  c #514A46",
"b  c #534D4B",
"n  c #5B4B43",
"m  c #55514E",
"M  c #5B524D",
"N  c #4A4E52",
"B  c #534E53",
"V  c #555352",
"C  c #5B5552",
"Z  c #5D5955",
"A  c #5C5A5A",
"S  c #55555A",
"D  c #684941",
"F  c #61544C",
"G  c #6B554C",
"H  c #645B56",
"J  c #635D5A",
"K  c #6B5D55",
"L  c #775B52",
"P  c #76554B",
"I  c #65625E",
"U  c #6A625E",
"Y  c #77645D",
"T  c #5B5F62",
"R  c #625D60",
"E  c #5C6063",
"W  c #656462",
"Q  c #6B6562",
"!  c #6D6965",
"~  c #6D6B6A",
"^  c #69676C",
"/  c #716A65",
"(  c #736D6A",
")  c #796B66",
"_  c #76716D",
"`  c #79716D",
"'  c #737067",
"]  c #747472",
"[  c #7B7572",
"{  c #7D7976",
"}  c #7C7B7B",
"|  c #777679",
" . c #6C6B70",
".. c #805F56",
"X. c #856459",
"o. c #896B61",
"O. c #827975",
"+. c #837D7B",
"@. c #827570",
"#. c #8F776D",
"$. c #85817D",
"%. c #89817F",
"&. c #9A8378",
"*. c #A0887E",
"=. c #7D7C81",
"-. c #807F80",
";. c #848383",
":. c #8C8683",
">. c #8D8986",
",. c #8C8B8B",
"<. c #85858B",
"1. c #938C8A",
"2. c #948A87",
"3. c #96918E",
"4. c #99918E",
"5. c #8E8D91",
"6. c #8D9197",
"7. c #949394",
"8. c #9B9593",
"9. c #9C9996",
"0. c #95949C",
"q. c #98979F",
"w. c #95999D",
"e. c #9B9B9D",
"r. c #A9938B",
"t. c #A09896",
"y. c #A39D9B",
"u. c #AB9C95",
"i. c #9FA09B",
"p. c #A5A29E",
"a. c #A9A19F",
"s. c #B1A39A",
"d. c #9699A0",
"f. c #9B9CA2",
"g. c #A19FA5",
"h. c #A59FA5",
"j. c #9DA1A4",
"k. c #A4A4A5",
"l. c #ACA5A3",
"z. c #A7A8A3",
"x. c #ACA9A6",
"c. c #A3A4A9",
"v. c #AAA6AA",
"b. c #ACACAC",
"n. c #AFAFAF",
"m. c #ADADAE",
"M. c #ABAAAA",
"N. c #A5A9AC",
"B. c #B0A8A6",
"V. c #B3ACAA",
"C. c #BAADA7",
"Z. c #AFB0AB",
"A. c #B2B1AD",
"S. c #B9B1AE",
"D. c #ACABB2",
"F. c #ACA6B0",
"G. c #B1ADB3",
"H. c #AEB1B5",
"J. c #B1B1B1",
"K. c #B4B2B2",
"L. c #BBB4B3",
"P. c #B4B4BB",
"I. c #BAB5BB",
"U. c #BCBABC",
"Y. c #B6B9B9",
"T. c #C3BBBA",
"R. c #CAC1BE",
"E. c #BCBCC3",
"W. c #BDB7C1",
"Q. c #C2BEC3",
"!. c #C8BFC1",
"~. c #BEC1C7",
"^. c #C4C1C6",
"/. c #CBC5C5",
"(. c #C5C4CC",
"). c #CAC5CB",
"_. c #CDC9CC",
"`. c #CAC9CB",
"'. c #D3CDCE",
"]. c #D0C7C4",
"[. c #CECCD3",
"{. c #D1CDD4",
"}. c #D4D1D4",
"|. c #D5D3DA",
" X c #DBD5DC",
".X c #DED9DC",
"XX c #D8D6D7",
"oX c #E1D8DC",
"OX c #DCDBE3",
"+X c #DFD6E1",
"@X c #E2DDE3",
"#X c #E6DDE6",
"$X c #DDE1E5",
"%X c #E5E1E6",
"&X c #E8E4E5",
"*X c #E3E4EA",
"=X c #EBE5EB",
"-X c #EDE9EE",
";X c #F1ECEF",
":X c #EDE7F0",
">X c #ECEBF2",
",X c #F2ECF3",
"<X c #F5EFF8",
"1X c #F3F1F5",
"2X c #F5F3FB",
"3X c #FAF5FB",
"4X c #FBF9FE",
"5X c #F9F2F5",
/* pixels */
"m.m.m.J.J.J.M.m.M.z.z.M.M.M.M.M.M.M.z.z.z.k.k.z.z.k.z.v.v.k.k.y.y.y.y.e.e.e.9.q.e.e.e.e.q.q.0.0.q.e.e.f.e.q.0.7.0.0.f.e.0.0.w.0.",
"m.m.m.J.m.m.J.J.m.M.m.m.m.M.M.z.z.z.z.z.z.z.z.v.M.z.v.v.k.k.k.g.y.y.g.e.e.e.e.k.e.e.e.f.f.f.0.0.f.e.e.f.e.f.f.0.0.0.f.f.0.7.0.0.",
"J.M.m.m.m.m.m.m.m.M.M.m.m.M.z.e.k.k.k.z.z.z.z.z.z.z.v.z.k.k.k.k.k.h.y.k.k.e.e.k.i.p.e.f.f.f.f.q.q.e.q.0.0.7.7.7.0.0.0.f.f.f.w.f.",
"m.m.m.M.M.M.M.M.m.M.M.z.M.M.M.z.v.k.m.m.z.v.c.v.M.M.v.z.z.z.z.z.z.z.k.g.f.f.g.e.q.e.f.f.c.g.f.f.q.0.0.0.0.0.7.0.0.0.7.0.7.0.0.f.",
"m.M.m.M.z.m.m.m.m.m.J.z.M.m.m.M.M.M.`.&X^.M.M.M.z.m.m.M.z.k.z.z.v.v.v.c.N.g.f.e.e.e.f.f.f.f.f.f.f.f.0.f.0.0.0.0.0.d.d.0.7.0.0.0.",
"m.M.M.M.z.M.m.m.M.M.M.m.m.v.m.b.M.M.J.'.%XE.D.M.M.M.M.z.v.v.z.h.k.k.h.g.f.f.f.f.k.g.f.e.f.f.f.f.q.f.e.f.0.0.0.0.7.7.7.7.7.0.0.0.",
"m.m.J.m.m.M.M.m.M.z.b.m.M.M.v.M.M.M.m.Y.^.(.^.D.v.M.M.x.M.v.v.v.k.c.k.g.f.f.f.c.k.g.f.f.f.f.f.f.f.f.f.f.f.f.0.0.7.0.7.6.7.d.d.w.",
"m.m.m.J.m.M.m.M.M.M.M.M.M.m.b.m.M.v.M.m.I.e.Q.}.P.D.M.M.D.b.v.v.v.c.v.g.f.f.f.f.f.k.g.f.f.f.f.f.f.q.e.f.f.f.f.f.0.0.d.7.7.0.d.w.",
"M.M.M.M.M.M.M.M.m.M.m.z.M.M.z.z.M.M.M.M.x.7.| q.I.(.(.P.G.b.v.v.c.v.v.h.c.f.f.f.f.f.f.f.f.f.f.f.f.f.f.e.f.f.f.g.0.0.0.7.7.w.0.0.",
"M.M.M.z.z.m.M.M.m.m.M.M.v.M.M.v.M.k.z.M.v.8.Q B R ^ v.).Q.I.I.G.b.v.v.v.c.c.c.c.g.f.d.g.c.f.f.f.f.f.f.f.e.f.f.f.f.f.f.0.0.f.7.7.",
"m.b.z.k.b.m.M.m.m.M.M.M.M.v.M.M.M.z.M.z.l.8.[ l k c S ^ ;.v._.}.[.U.G.D.c.g.c.c.g.f.f.f.f.f.f.f.f.f.g.g.f.q.f.f.f.f.d.f.0.0.0.f.",
"z.z.z.k.M.M.m.M.M.m.m.m.M.z.M.V.m.M.M.M.l.1.( u q j l B A ;.I..X-X#X X{.W.G.N.g.f.g.f.f.f.f.f.q.f.f.f.f.f.d.f.f.0.f.f.f.f.0.0.f.",
"M.z.x.x.x.M.m.M.m.m.J.m.M.M.z.V.m.M.M.M.a.+.C 9 3 6 r l B =.g.).=X3X3X5X=XXXE.F.N.h.g.f.f.f.c.f.f.f.f.f.f.0.f.f.f.0.q.q.f.0.0.f.",
"z.k.l.k.z.m.m.m.m.M.z.k.z.M.V.x.M.M.M.M.l.{ l 2 2 4 q l ^ ,.v. X-X<X3X3X3X2X#X[.U.D.v.g.g.f.g.f.f.f.0.f.f.q.0.q.d.f.0.q.0.q.0.0.",
"m.x.x.V.K.K.J.J.M.M.M.z.z.M.x.b.z.M.M.M.l.[ u 7 3 q z R -.g.Q.%X-X,X5X3X3X3X3X2X%X_.K.v.c.f.c.g.f.f.q.d.f.f.f.f.0.d.7.6.0.0.0.0.",
"m.x.x.v.M.J.m.M.M.m.m.M.M.M.b.x.z.M.z.z.l.[ u q q l ( ,.F._.oX=X-X,X,X3X3X3X3X3X3X=X`.G.v.k.g.c.f.f.f.f.f.d.f.0.f.f.0.f.f.f.q.7.",
"M.x.x.x.x.M.M.z.b.M.G.J.K.J.V.V.z.z.k.z.l.+.C x x J 7.G._.@X#X=X-X:X,X<X5X5X;X&X@X&X%X).V.k.f.g.f.f.f.c.f.f.f.f.f.f.0.f.0.0.g.7.",
"m.x.x.x.z.M.m.m.H.J.K.J.J.K.L.A.b.z.x.z.l.3.+.+.+.8.L.{.+X@X#X=X-X:X,X,X=XoX].T.S.S.T..X'.K.v.c.f.f.f.f.f.g.f.f.f.f.c.c.f.f.f.f.",
"M.V.V.l.z.x.x.M.M.M.D.b.V.V.A.x.V.V.b.x.x.y.t.y.x.T.'.XX X.X#X=X=X-X-X@X/.C.s.u.u.u.s.T.oX}.K.v.c.f.f.f.f.f.f.f.f.0.f.f.c.0.d.f.",
"J.V.V.l.l.z.z.z.b.m.m.V.b.V.V.z.b.b.b.A.V.V.V.U./.'.XX X.XoX@X%X=X=X@X].C.r.&.&.&.&.*.r.R.&X XU.c.g.f.f.f.f.f.f.f.0.f.0.0.0.0.0.",
"m.A.S.V.x.x.z.z.z.m.M.m.M.A.V.x.A.b.z.b.V.S.L./.XX.X.X.X+X@X.X@X%X.X/.l.4.&.#.L L ..o.#.r.'.:X#XI.F.c.f.f.f.f.0.0.0.0.0.7.0.0.0.",
"m.V.V.V.V.z.Z.x.z.z.z.M.x.b.x.z.A.A.A.b.V.V.V.^.XX.X.X.X X X X}.{.'.L.t.@.Y L D a h P X.#.L.#X,X@XE.N.f.f.f.f.f.0.f.0.0.0.0.q.0.",
"m.x.x.x.V.Z.b.z.z.z.z.x.x.x.l.l.k.z.Z.L.L.l.t.z.U.'..X.X X{.).Q.).!.V.4.Y G h y t t h P o.l.oX<X3X*XE.g.f.q.q.f.f.f.d.0.0.7.0.f.",
"m.x.x.V.V.b.b.b.Z.z.z.x.l.l.l.l.x.k.z.L.R.l.3.8.y.K._._.).).Q.I.K.V.B.4.O.G y s t y a D L h.+X<X4X2X XD.f.f.f.f.f.f.f.q.0.0.f.f.",
"m.x.x.x.V.b.b.b.b.z.x.x.z.z.B.x.z.k.k.V.p.:.+.$.1.9.y.k.z.V.K.z.y.t.t.2.@.Y g p p p a D G t. X,X4X4X*XD.f.f.f.d.0.f.f.f.q.f.f.f.",
"M.x.V.V.x.b.b.z.b.x.V.m.M.z.l.z.M.z.z.>.M J ( { :.>.>.;.;.3.9.1.:.+.[ / U K F g p y y g L l.@X2X3X3X>XQ.c.f.f.F.f.f.f.f.f.0.0.0.",
"m.V.V.x.x.x.z.z.k.k.x.m.v.l.l.l.k.k.p.W $ w W ( [ { { { ] { ;.$.[ ( ! K H F n g g s p n ) T.>X3X3X3X1X|.D.c.f.f.f.f.f.f.f.0.f.0.",
"m.V.V.V.V.z.x.x.z.l.p.x.V.V.V.l.l.l.y.W : e I ~ ! W J ! +.:.;.[ ! J J H M M F F g s f K y. X,X<X2X3X3XOXK.g.c.j.f.f.f.e.f.0.0.q.",
"A.V.V.V.V.b.x.x.x.l.l.V.V.z.x.V.k.p.y.$.i l J W I I C C ( 2.3.$.! C M M M F F F n i n +./.=X,X,X1X2X3X>XE.j.f.k.j.f.g.f.f.f.f.q.",
"b.V.x.V.V.b.x.x.V.V.l.v.V.V.k.x.L.V.l.8.( J J J J Z b b ` :.1.:.( C b M M M F F F M / a.}.=X=X=X-X>X3X3XOXN.j.j.N.f.g.f.f.f.f.e.",
"L.V.x.z.z.b.z.x.x.V.V.V.V.x.x.z.v.x.x.a.{ Z m m Z b w : v $.:.{ ! Z M M Z H K H U / :.K. X@XXX XOX>X1X2X>X~.k.f.f.j.g.f.f.w.w.f.",
"b.l.l.l.x.V.z.l.l.l.l.V.x.x.V.V.v.k.l.l.%.J b x x u : # $ 9 C J J J J H H H U / ` :.p.)..X X`._.@X>X>X1X1X|.H.N.j.c.c.f.f.f.6.d.",
"z.A.V.l.p.x.l.l.x.B.B.B.l.x.z.V.V.x.x.9.9.V.>.b u 8 3 ; + 2 x / Q U U Q / / ` [ $.9.K._..X{.).{.OX*X:X1X1X$XY.N.j.j.k.f.j.j.j.j.",
"z.x.V.l.a.l.l.l.B.V.l.B.l.V.b.v.z.V.U.y.z./.V.Q f w 6 e e f Z ` ( Q Q Q / ) [ O.:.x.Q.^.}.(.Q.).[.|.#X>X1X*X~.N.j.j.j.f.j.j.N.N.",
"x.l.l.a.l.l.y.y.l.l.l.x.x.z.x.x.v.K./.8.] 8.1.I z b m C Z J Q ( ( / / ( ( ` [ O.:.9.I.).).P.F.H.E.`.@X:X>X*XP.j.j.j.f.j.j.j.j.N.",
"l.B.l.l.l.l.l.l.B.V.V.v.x.x.V.x.V.'._.3.I x z f v M H I ! ! / ( ` ` ` [ ` ( ( [ :.9.k.U.I.c.f.c.P.[.@X>X>X*XE.N.j.N.N.j.N.N.k.j.",
"l.B.l.l.B.B.B.V.B.V.l.v.V.V.x.x.T..XK.:.( f 6 e v x x J ! ( ' ( ( ! ! ! Q Q ( O.:.p.G.G.k.<.<.0.P.[.OX*X>X$X~.N.k.k.j.j.j.j.k.N.",
"V.B.V.l.l.B.V.l.B.l.l.k.b.v.k.L..X'.7.[ ! I m m m v v J ( _ _ W W I I I U Q ` { >.9.v.G.7. .| q.E.{.OXOXOX|.Y.N.j.j.j.k.j.j.N.j.",
"V.B.B.B.V.l.l.l.l.l.l.k.z.x.v._..XV.{ J Z Q ` Z Z Z J ! _ ( ` ( ! W U W W / ` O.:.7.h.G.q.| ;.k.E.[. XOXOX`.D.j.j.j.f.j.N.j.j.j.",
"V.V.B.V.V.l.l.l.l.B.l.z.x.V.Q.@XT.,.Q M Z 3.y.>.` { :.1.$._ ! W Q Q Q W Q / ` O.:.>.y.z.7.~ ;.0.P.^.[.|.|.~.v.e.w.f.k.j.j.j.f.f.",
"V.V.V.V.B.l.B.l.l.V.B.'.%X;X;XXX8./ C C 8.x.l.l.p.y.y.y.8.:.` W I J Q W W / ( [ +.:.8.8.| W ;.7.D.E.(.`.(.P.N.j.f.j.f.j.j.j.f.w.",
"l.V.V.V.l.l.V.V.l.V.L.,X4X4X&XV.[ Z b %.x.x.x.x.x.l.x.y.y.t.$.( J C C J U / ( ` +.$.7.9.~ W ] 5.D.G.E.^.E.H.j.j.j.N.e.k.N.N.N.j.",
"V.V.V.V.V.V.B.B.V.B.y.'.-X1X`.>.J v J l.z.l.p.x.l.l.x.a.8.:.( H f d z v J ( ! ! ` { +.J c V ~ ;.5.v.P.U.U.b.N.j.j.j.N.j.j.j.f.j.",
"V.V.V.V.V.V.V.V.V.V.( V._.}.y.W b z ( V.V.x.l.z.l.k.p.>.C b v f e w z b H Q U J ( [ ( u w c I | ;.q.D.P.E.D.k.j.k.j.j.N.j.f.w.j.",
"B.B.B.V.V.x.l.l.l.V.2.f ( :.~ u u e ( V.z.V.x.x.V.7.I u e v e w 9 9 v m Z J U I ( I x 8 8 l Z ! } <.f.F.~.Y.v.k.j.j.j.j.j.w.e.w.",
"B.V.B.B.V.V.x.V.V.V.V.[ f u 6 1 : 6 +.l.x.l.p.p.9.! 6 4 l u 8 9 7 6 M C Z J I Q ! m 6 : 8 d m I ] ;.7.k.~.H.j.j.f.f.j.j.j.f.w.f.",
"V.V.V.V.V.V.S.V.V.V.l.L.l.Q ; + o $ f l.x.l.p.y.[ w ; : w e 6 2 : e C C J I Q ! J w % ; 8 e x Z W ~ } 6.P.P.N.j.j.j.f.f.f.f.w.d.",
"V.B.B.V.B.V.V.V.l.l.l.V.B.%.6 % $ $ - u >.p.9.{ u : % $ : 6 2 : 2 z b C J W ! I e $ + 2 7 8 l V V S l N <.H.N.j.j.j.j.f.f.w.w.w.",
"V.l.B.V.V.B.B.B.l.l.a.V.B.t.V : % % $ - z p.3.C 1 % $ $ $ ; % & 4 x v C I W W u $ . O - > 3 e z l r j r T N.j.j.f.j.j.f.f.w.e.w.",
"B.B.V.V.V.V.l.V.B.l.l.l.l.a.` 7 ; - $ $ > ( ( e % % $ $ $ + o % l x x C U Q m ;       o $ 2 w w q 1 5 0 j <.w.f.f.f.j.j.f.f.f.w.",
"B.l.B.V.l.V.l.l.l.l.B.V.V.B.y.J 2 ; % $ $ ; ; % # $ $ # $ + + w b x b H W W u $     . o + $ : 3 & & 1 0 0 ^ w.w.w.w.w.j.j.j.f.f.",
"B.B.V.S.l.V.B.B.l.a.B.V.l.B.V.y.f ; % $ $ $ $ $ + $ $ + # # % f z b C J I Z 2 o o O . o @ $ $ $ * , 5 r 0 E 0.j.j.f.j.j.e.j.f.f.",
"B.l.B.B.B.B.l.l.a.l.l.l.l.B.B.t.v ; % $ $ $ $ # + + $ + + $ 9 z f b Z J J l $ @ % @ o o o + + # & & 1 5 5 S w.j.j.j.f.j.j.f.f.j.",
"B.B.B.l.l.l.l.B.l.l.B.l.l.l.l.y.C ; ; $ $ $ $ # + + $ + + % e u u v C J M 9 o $ ; ; $ + O . o + & & , * , T j.N.j.j.j.j.N.f.j.j.",
"l.l.B.l.l.l.l.B.l.B.y.y.l.l.y.t.U 2 ; $ $ $ $ # + $ + + + $ q e u f M C v 3 o - : 8 4 u 4 # o o # * * * < =.f.j.f.f.N.N.j.j.f.e.",
"l.l.l.l.l.l.l.l.l.V.l.B.l.l.y.9.Q 3 ; % $ $ $ $ # $ + + + + 3 e i u v M b w o $ e ` [ ] c q + . X = * 5 N 7.j.j.j.e.f.f.j.j.j.f.",
"l.l.l.l.l.l.V.l.l.l.l.l.l.l.l.y.[ 6 % % $ $ $ $ # # $ + + + 3 e w w f x M d % o e +.9.M.<.A # . X # 5 S <.f.j.j.f.f.f.w.w.w.f.f.",
"B.V.l.l.l.l.a.y.y.a.l.l.l.y.l.y.3.C ; $ $ $ $ $ $ $ $ + + + 3 w 8 w i x Z I b ; + 3 b 7.;.l + X 1 5 ^ 7.f.f.j.j.f.f.j.j.f.f.e.e.",
"l.V.l.l.l.l.a.y.y.t.t.8.8.3.9.8.2.Q 7 - $ $ $ $ $ $ $ $ $ + : q 4 8 e v U 1.$.[ ! 8 & r r 4 1 q ] | q.k.k.f.j.j.f.j.j.w.f.f.j.f.",
"B.l.l.x.l.y.3.>.+.Q C b b b b z u 6 ; $ $ $ $ $ $ $ $ $ $ # $ ; : 3 w e ~ 9.9.z.9.7.7.-.;.;.] >.e.e.k.k.g.e.j.j.f.f.j.w.f.f.f.j.",
"B.l.l.p.8.$.Z f 8 3 ; ; ; ; ; ; ; ; % $ $ $ $ $ # $ $ $ $ + o o $ : e w $.>.y.z.p.k.J.J.z.b.z.z.k.e.e.z.k.f.j.f.j.e.f.w.f.f.j.w.",
"a.l.y.1.[ x 3 ; % % % % % % ; % - % % $ $ $ $ $ # # $ $ $ # + + # $ ; w ~ W ,.I 9.W ,.7.| ;.7.~ z.k.k.k.f.f.e.f.j.j.f.f.f.f.f.w.",
"a.l.l.8.Q e ; ; % % % % % % % % - $ $ $ $ $ $ $ $ # # # $ $ $ $ $ $ ; w ;.,.} I 7.{ } ;.] | ,.;.k.k.k.k.f.f.e.f.f.f.f.d.f.N.w.f.",
"l.a.a.9.+.b 2 ; % % % % % % % % $ $ $ $ $ $ $ $ $ $ $ $ $ $ $ $ $ ; +.1.9.z.z.i.x.p.k.v.M.z.M.e.z.k.j.k.c.0.e.f.j.N.j.f.f.j.f.f."
};
