/* XPM */
static char *b02b03d74c2d4283a75bc004d619d768[] = {
/* columns rows colors chars-per-pixel */
"64 64 256 2 ",
"   c #020203",
".  c #0B0806",
"X  c #160C07",
"o  c #1C1511",
"O  c #291706",
"+  c #321C06",
"@  c #271D16",
"#  c #39230C",
"$  c #2E241B",
"%  c #382716",
"&  c #352C24",
"*  c #372D26",
"=  c #3B332A",
"-  c #312F2F",
";  c #201E23",
":  c #4B2B0B",
">  c #532D09",
",  c #5A340C",
"<  c #432C14",
"1  c #4B2E12",
"2  c #482F19",
"3  c #4C351C",
"4  c #483319",
"5  c #533314",
"6  c #51361A",
"7  c #5B3C1C",
"8  c #593918",
"9  c #4E300D",
"0  c #65390B",
"q  c #653D15",
"w  c #4C3823",
"e  c #533D23",
"r  c #593E25",
"t  c #453C33",
"y  c #473E38",
"u  c #412E21",
"i  c #663C28",
"p  c #6A431C",
"a  c #674219",
"s  c #754818",
"d  c #784611",
"f  c #5B442B",
"g  c #594329",
"h  c #4B4339",
"j  c #5A4836",
"k  c #644423",
"l  c #6C4A25",
"z  c #62462A",
"x  c #64492C",
"c  c #6B4C2C",
"v  c #6A4522",
"b  c #734C23",
"n  c #774D26",
"m  c #7B542C",
"M  c #775229",
"N  c #634C32",
"B  c #674C35",
"V  c #6A553C",
"C  c #67523A",
"Z  c #775836",
"A  c #6D502C",
"S  c #5F401F",
"D  c #554C43",
"F  c #5A4E47",
"G  c #5E524B",
"H  c #595146",
"J  c #4F4641",
"K  c #61544D",
"L  c #695745",
"P  c #735E47",
"I  c #655A55",
"U  c #786348",
"Y  c #6D625C",
"T  c #766759",
"R  c #7F705D",
"E  c #6E6367",
"W  c #7B6D62",
"Q  c #756A65",
"!  c #7F7166",
"~  c #7A6E72",
"^  c #87541B",
"/  c #8D5419",
"(  c #84592C",
")  c #865828",
"_  c #835C34",
"`  c #885E35",
"'  c #93592A",
"]  c #99642B",
"[  c #8C6234",
"{  c #8B633B",
"}  c #87633A",
"|  c #936534",
" . c #946A3C",
".. c #9B6E3D",
"X. c #996935",
"o. c #966A37",
"O. c #A56B2C",
"+. c #A36E36",
"@. c #AA7339",
"#. c #B47939",
"$. c #A8702F",
"%. c #A6593D",
"&. c #945C44",
"*. c #8A6845",
"=. c #986D45",
"-. c #9D7244",
";. c #9A744B",
":. c #846C58",
">. c #87735A",
",. c #997755",
"<. c #946C53",
"1. c #A47443",
"2. c #AD7B45",
"3. c #A57A4B",
"4. c #AB7C4C",
"5. c #A67745",
"6. c #B37D44",
"7. c #B57A49",
"8. c #A77B55",
"9. c #AF6E50",
"0. c #84756A",
"q. c #877669",
"w. c #937C68",
"e. c #8C7D74",
"r. c #887A76",
"t. c #907F77",
"y. c #AC7B68",
"u. c #A05F49",
"i. c #B7803E",
"p. c #AD814C",
"a. c #BB8344",
"s. c #B4834C",
"d. c #BB854C",
"f. c #BA854B",
"g. c #AC8254",
"h. c #A98359",
"j. c #B28453",
"k. c #BC8A53",
"l. c #B6895A",
"z. c #BD925B",
"x. c #9A836A",
"c. c #8E817A",
"v. c #93847A",
"b. c #9B8B7D",
"n. c #958678",
"m. c #A88865",
"M. c #B78C64",
"N. c #BA9468",
"B. c #A38B77",
"V. c #A89378",
"C. c #B99776",
"Z. c #B58C75",
"A. c #BEA47F",
"S. c #C38A4C",
"D. c #CA924E",
"F. c #C28D53",
"G. c #C68C59",
"H. c #CB9354",
"J. c #C4935B",
"K. c #C9955A",
"L. c #D29B5C",
"P. c #D29653",
"I. c #CB9B64",
"U. c #C59867",
"Y. c #D39E63",
"T. c #C59C75",
"R. c #C38C6A",
"E. c #D8A56A",
"W. c #CAA479",
"Q. c #D6AB76",
"!. c #DCB37C",
"~. c #CCA36C",
"^. c #E2B57A",
"/. c #E2AD71",
"(. c #9C8D81",
"). c #948882",
"_. c #9D9186",
"`. c #8E8382",
"'. c #A19285",
"]. c #AA9B8D",
"[. c #A69789",
"{. c #AC9D92",
"}. c #A89C9A",
"|. c #B79D89",
" X c #B9A389",
".X c #B2A294",
"XX c #B6A699",
"oX c #BAAA9C",
"OX c #BBA895",
"+X c #ADA198",
"@X c #BDADA2",
"#X c #B7ABAA",
"$X c #BEB1AA",
"%X c #B3A7A6",
"&X c #CB9A87",
"*X c #C9A885",
"=X c #D3AB88",
"-X c #DAB68B",
";X c #DEBB8C",
":X c #D7B487",
">X c #C4AC96",
",X c #CAB399",
"<X c #DCBB93",
"1X c #DABE9B",
"2X c #D5B796",
"3X c #D3AD90",
"4X c #E3BB86",
"5X c #E1B793",
"6X c #C4B3A4",
"7X c #C9B6A5",
"8X c #C4B5AB",
"9X c #CDBBAB",
"0X c #CABAA8",
"qX c #D1BEAD",
"wX c #D8BEA3",
"eX c #CCBDB3",
"rX c #C7BBB5",
"tX c #C8B7AB",
"yX c #E0BBA3",
"uX c #DDC19B",
"iX c #E6C597",
"pX c #EDC68F",
"aX c #D4C2AC",
"sX c #DAC6AC",
"dX c #DDC5A8",
"fX c #CEC1BA",
"gX c #D4C3B5",
"hX c #D9C6B3",
"jX c #DBCAB5",
"kX c #D4C5BA",
"lX c #DBCABB",
"zX c #D7C7BD",
"xX c #CFC0AF",
"cX c #E4CBA4",
"vX c #E4C9A9",
"bX c #ECD3AA",
"nX c #E2CDB5",
"mX c #E3D2BC",
"MX c #E9D4B5",
"NX c #F3DCB9",
"BX c #F3D7AA",
"VX c #F3E0BE",
"CX c #DBCCC1",
"ZX c #D6C8C1",
"AX c #CFC4C3",
"SX c #E3D3C3",
"DX c #EBDAC3",
"FX c #E5D5C9",
"GX c #EBDCCB",
"HX c #E8D7C6",
"JX c #F1DEC7",
"KX c #EDDFD1",
"LX c #EFE0CD",
"PX c #F6E2C8",
"IX c #F7E7D5",
"UX c #EDE0D1",
/* pixels */
"H h h y = $ & * * = = - = I E E E E E E ~ +XrX9X0X7X6X0XqX0X7X7X0X0X0X0X0XqXgXqX0X7X7X6X6X6X6X0XgX9X0X6X6X7X0X9X9X9X6XoXXXXXXX.X",
"H H h y y & $ & * * * - & J Y E E E E ~ }.rX0X6X6X6X6X0X0X0X7X,X7X0XqXqX0XqXqX7X7X7X7X7X6X>X0XhXhXqX9X7X7X7X0XqXqX6XoXoXXXXXXXoX",
"H H D h h t $ $ * * * * & * K E Y E ~ }.eXeX0X7X7X0X0X0X0X7X>X X>X0XqX0X,X6X7X7X7X0X0X7X>XoX9XjXjXhXaX0X0X0XaXaX6XoX@X@X@X@X@X@X",
"H D D h h h = $ & * & & & $ y I Y r.@XfXgXgXgXlXlXlXmXhXaX,X*XN.8.Z.>X>X,X7X9XgXhXaX0X6XOX XoX0XmXmXmXjXjXjXgX7X@X@X@X@X@X@X8XtX",
"G F D D h y y * $ = * & & $ & F c.$XeXeX9XgXlXlXjXjXjXhXqX,XT.N.g.;.=.;.m.,XhXjXhXaXqX0X,X>X,X0XmXmXmXmXlXhX6X6X6X6X6X@X@X@X8XtX",
"K G F D D h y t & $ = & & $ & Q eXkX9XeXgXlXlXjXhXhXaX2X>X*X*XW.N.l. ._ ` ;.|.9XsXaXaXaXaXsXsXjXDXSXmXjX9X6X8X8X8X8X8X8X8X8XrXeX",
"K G F F F h h t = $ * * & = Q rXkXzXlXCXlXlXlXhXaXsX3X*X*X*X=X*XT.M.-.( ( _ *.m.,XwX2X,X,X2X>XhXDXSXjX>XV.0XzXgXrX8X$X8XrXrXeXeX",
"K G F D F D h t t & $ = t v.rXzXkXgXjXjXlXgXgXhXaX2X*XT.T.*X=X=XT.N.8.[ ( ( ` _ ,.>X2X2X2X1XuXmXDXmX,Xx.B.eXzXkXfXrX8X8XrXeXeXgX",
"K G F F D D D h t t * G [.fXkXkXxXqXaXgXhXjXaX2XT.h.N.T.T.=X<X=XT.M.g.-.` ( m m M ;.2XsXnXnXmXDXmX,XV. X0XkXkXfXeXtXrXrXeXgXgXgX",
"K G G F D D D D y h Q }.eXeXgXeX9XgXgXlXmXsX3XT.N.8.3.T.W.<X-X*XT.M.8.3. .( m m M A V.nXnXnXDXmX,XOX0XjXlXlXfXeXeXeXrXeXgXgXgXgX",
"I K K G F D D F I ).%XeXeXgXgXgXSXFXSXmXvX=XU.J.k.k.4.l.N.W.T.U.M.l.j.3.-.[  .( b p M  XsXDXnX9X7XaXgXzXzXgXeXrXrXeXeXfXgXgXgXgX",
"I K G G H D D Q }.$XrXeXeXzXSXGXGXSXjX1X!.I.L.J.F.F.k.j.j.M.M.U.l.l.l.g.3.-...[ b q b M m.aXaXjXlXgXzXzXgXgXeX8X8XeXkXzXzXzXgXgX",
"I K K G G H ! }.$XrXZXkXkXFXGXGXmXnX1X!.E.L.H.D.S.F.F.4.5.4.j.z.j.l.l.j.4.3... .( q b b A x.sXmXSXSXFXlXzXkXeX8X8XeXkXzXzXzXgXgX",
"K I K G G Q +XrXrXAXCXCXFXGXFXmXnXvX-XQ.E.L.D.S.a.a.a.@.+.1.4.j.j.j.j.j.4.3... .[ ` ( _ p c w.jXFXFXFXzXkXkXtX8X8XkXCXCXzXkXgXgX",
"K K K K Y }.8XfXkXkXCXGXGXFXSXSXnX-XQ.L.P.D.D.S.a.a.a.@.X.X.1.2.7.j.4.4.4.1.-. .|  .m v q b 7 :.0XzXzXzXzXeX8X$XtXzXCXlXzXzXgXgX",
"K K K I `.#XeXkXkXZXFXGXSXSXFXmXvX:XY.D.#.#.#.S.H.H.f.6.+.| 1.5.2.4.4.4.4.3. . .| [ b q v M 5 8 :.,XkXlXkXrX8X8XgXCXzXzXzXzXgXgX",
"K K I `.#XrXzXkXCXFXFXSXmXSXmXvX-X!.E.E.P.#.$.#.S.H.F.d.1...+.+.4.2.4.4.4.3.-.-...[ p q M a : 8 v *.>XzXkX8X$XeXZXZXlXlXlXzXgXgX",
"K Y ).$XAXZXZXCXFXSXSXSXSXmXdX-X~.E./.^./.L.D.#.O.#.S.d.5.+.X.1.4.4.j.p.p.4.1...[ n , p m p , p p l Z >XeX8X8XkXZXlXlXlXlXkXgXgX",
"Q _.$XAXZXzXCXSXSXSXSXmXjXdX<XW.I.Y.Q.^.^.^.E.a.] ] @.@.@.+.5.4.5.4.j.g.g.3.3.| [ ) ( _ ` m a v q q k *.V.oXtXZXCXlXlXlXjXgXgXgX",
"}.$XrXfXkXzXCXCXCXmXlXjXsXdX-X~.L.E.Q.^.^.^.^.H.O./ ] ' X.1.j.4.5.1.g.g.4.4.3...( ( _ _ { m p p , 7 a l Z w.eXCXCXlXlXlXzXgXzXzX",
"rXfXZXfXkXCXlXlXlXlXjXjXsX1X-XQ.Y.E.^.^.^.E./.E.a.+.O./ ] 4.j.8.3.3.l.g.8.3.-. .( ( p _ { m p v > q a k c A OXCXCXlXkXzXzXzXgXzX",
"ZXZXZXkXzXlXgXzXlXjXhXsXdXuX<XQ.E.Q.^.^.E.P./.E.L.d.a.+.@.z.M.l.3.-.l.M.g.3.-. .) s p =.=.m a l > 8 7 k l 8 N OXlXlXlXzXgXgXgXzX",
"kXkXkXZXCXzXgXgXhXhXhXnXdX2X<X:XE.E.E.Q./.L.E.L.K.d.F.s.g.U.T.U.l.-.h.M.g.;. .[ ) n m =.=.v v q : 8 k k a 8 7 z B.gXlXzXgXgXgXgX",
"rXrXkXlXzXgXzXSXDXnXsXdX1X<X;X:XE.E.H.E.^.Q.Y.J.H.d.k.z.-.l.W.T.N.8.h.N.h.-.) s ) ( n { ` l 7 k : 8 k k 7 8 r 8 r x.qXzXgXgXgXgX",
"eXeXzXgXgXCXFXKXJXnX1X<X<X<X;X:XQ.^.P.L.4X!.J.d.a.6.s.g. .} N.W.C.N.N.N.h.[ s s ) { m m Z l l g 1 8 a v k 5 7 7 7 c V.hXgXgXgXgX",
"eXeXzXSXFXGXUXGXDXnX1X-X<X;X;X!.^.^.E.L.!.4XK.6.@.2.5.h.} # *.N.*XT.W.T.h.m q s `  .m p A Z k 1 5 7 l c z 6 6 7 r l m.hXzXgXgXgX",
"gXlXFXKXFXFXFXFXjXdXuX-X-X<X;X!.Q.4X^.E.E.4XK.d.@.X...h.B X O f T.*XW.*Xh.n 0 s { ;.m , l Z 5 1 1 8 k z c 6 6 g z Z |.xXgXgXgXgX",
"CXlXCXSXCXlXCXlXmXdX2X:X-X;X;X!.E.4XpXQ.L.!.s.6.6.X.' h.3 o ; X x W.=X3XM.s q ( 8.m.b 8 A A 9 5 7 c k c x 2 6 e z >.OX9XgXzXzXgX",
"jXhXgXlXCXmXSXHXDXnX2X:X-X;X;X!.Q.4XpX4XK.E.d.+.@.X.) 8.2 ; ; . X :.3X3XN.b s -.m.m._ q A c 5 5 z A V z 6 < 6 e N :.[.6XgXgXgXgX",
"SXSXFXFXSXGXGXDXmXvX3X=X:X4X4X!.!.!.pXpXQ.K.H.@.O.X.) ;.e o ;     @ m.<XW. .[ l.N.m.*.a Z 7 1 6 x Z g 3 < 4 6 6 g B >.[.6XgXgXhX",
"GXFXFXSXGXLXGXDXDXvX:XQ.:X;X;X4X!.Q.pXpX4XI.6.#.] ] ) -.Z o -       j -X-XN.M.T.C.m.*.Z l 1 1 7 A r 2 6 3 3 6 6 V B.,XaXgXgXgXgX",
"SXCXSXGXUXLXGXLXnX2X*XQ.:X-X;X4X!.!.4XpXpX^.s.+.] ] ' m ;.$         u W.iXuX2XC.N.;.*.Z 5 : 1 c x : 4 z 7 3 e x >.OXqX9XqXgXgXgX",
"SXFXUXUXLXIXIXPXvX:X=X=X:X-X4X4X4X4XpXpXiXiX!.2.@.] ^ s } Z X     O z C.iXdX1XW.m.*.*.A 8 5 r Z 6 1 B C e 3 g f >.OX0XgXgXgXgXaX",
"FXUXUXUXIXIXPXnX3XW.W.Q.:X;XiXiX4X4XiXBXbXbXiXU.2.+.o.s a *.g X o % 4 C.iXcXcXW.h.,.} 7 5 8 k x 6 r Z C 1 6 g N P OXgXgXgXgXgXgX",
"KXKXIXIXIXPXnX1XW.W.W.W.=X-X<XiX<XiXiXBXNXBXbXiX~.p.| ) 0 a *.Z # + x C.cXMXbX:Xl.h.} k 5 7 Z z z V U z : 8 x B V .X9XeXeXgXgXgX",
"LXIXIXIXNXnXuXW.U.z.J.I.Q.-XiXiX;XiXiXBXVXNXMXcX:XM.-.` m , b m.,._ *.M.1XMXbX:XM.g.} l 7 z A z B U U z 1 7 A U U [.9XeXeXeXeXeX",
"IXIXIXDXMXuXW.M.z.J.J.K.K.~.;XiX;XuXbXbXNXPXNXbX1XW.l.3.[ b , { M.8.8.8.:XbXcXW.l.8._ k z A c g x P U f 1 z U P B w.6X9XeXeXeXeX",
"IXIXDXNXuXU.z.l.k.J.F.J.K.J.~.-XiXiXcXNXVXPXPXNXiX<XW.N.8.{ m m ;.-.| X.U.iX-XU.l.;.M l c z g g V U T N N V V g g P OX0X9X9XrX9X",
"IXLXNXdXW.U.z.k.s.k.F.J.F.F.z.~.;XiXcXNXNXPXPXNXcXuXW.N.h.,. .} [ ) s | I.-XW.U.g. .c x x 6 3 L >.x.w.T U U U V f U >X0X9XtXrX9X",
"DXDXMX1XW.I.U.z.s.6.a.d.F.F.k.k.Q.;XiXbXNXJXJXNXcXiX:XC.N.h.=.} ) s d ) p.~.~.N.;._ k z r 3 C T >.>.T L L L C N f :.>X8X8X8X8X8X",
"DXDXsX=XU.U.U.k.k.a.6.a.F.K.J.k.l.Q.iXbXNXPXNXbX<X:XW.N.N.g. .` n d d ) +.U.U.g.*.Z g 6 3 j j & X . . . o # w f N B.>X6X6X8X6X6X",
"GXDXMX=XT.U.J.k.7.@.+.@.6.G.I.K.j.N.<XbXNXPXPXbX:XN.N.j.g.g...( s s ) X.+.5.4.;.Z A 8 2 w j $ .         o + 3 e P ].@X6X6X6X6X6X",
"IXPXdXT.U.z.d.k.d.d.f.d.F.k.J.z.z.z.:XcXMXNXNXcX-XW.j.5.3...-.[ ) ) ) s ' | { } M g 4 2 e h X         . $ 4 f g q.oX@X@X6X6X@XoX",
"IXLX-XI.F.a.6.6.a.d.k.k.d.d.s.j.j.l.N.2XcXMXMXuXW.Q.T.p.o.)  .1.| ' ^ ) ' [ ( _ v 3 4 < w % X .     . O % f e L .XoXoXoX@XoXoXoX",
"IXNX:XU.F.d.d.d.F.J.K.I.K.J.k.s.j.g.l.*XuXMXvX<XW.N.T.N.....p.4.[ ) s ' | | [ _ a 6 < % % # @ O X X O % f f w :..XoXoXoXoXoXXXXX",
"JXvXW.I.J.k.a.a.d.F.J.K.J.J.k.s.+.o. .h.*XvXMXuX:XW.M.M.4.` ;.p.| ) ) | | |  .Z S 1 < + O < w w 4 w g N g 1 P [.XXoXXXXX.X.X.X.X",
"JX2XW.~.U.k.d.d.k.k.I.I.I.I.J.J.s...[ *.C.dXMXcX:XW.N.h.l. .=.8.` | X.X... .3.Z 7 < # O + # # % 3 r 6 < # e b.XXXXXX].{..X.X.X.X",
"nXT.I.I.U.k.k.k.d.d.F.k.z.z.k.s.5.| )  .h.*XvXvX2XW.W.l.l.h.,.m.` 1.7.2.1.-.3.M 6 % + O + # + + + + # # 4 x..XXX{.].[.+X{.{.{.{.",
"T.k.J.U.U.U.J.d.6.#.#.6.6.p.s.p.1...[ [ } ,.1XMXdX3X*XT.N.C.C.C.y.y.G.7.1.=.*.c 2 # O O # # # # # + # C x..X.X{.].].{.{.{.].].].",
"k.d.F.J.I.U.J.d.@.O.O.+.@.s.s.p.4...[ s a *. XMXdX2X3X3X*X*X*X*XC.R.G.9.1.=.*.B 2 O O + # % % < < g R ].{.+X.X{.[.].{.{.[.[.[.[.",
"6.a.6.a.S.U.I.G.a.$.] ] +.5.4.3.1. .( s s M m.vXyX=X=X2X2X,X,X>X*X8.9.9.u.<.&.B < O + # % 4 f C q.b.].].+X{.].'.'.'.[.[.'.'.'.'.",
"6.a.a.a.a.F.F.k.F.a.$.] / ] X.-.-. .[ ` m n ,.1XyX&Xy.&X2X2X,X,X*X8.9.9.%.&.` z < # < 2 3 q.'.'.'..X].].].'.(.b.(.'.[.'.(.(._._.",
"#.f.a.a.a.a.a.s.d.a.6.] / / ^ )  .[ [ =.` m _ A.vX5X3X&X3X3X>X>X X8.9.9.%.%.( i < 4 4 < j (.[.(.'.].'.[.b.b.n.n.(.(.(.b.b.b.(.b.",
"#.S.S.a.6.#.@.#.#.a.a.$./ / ^ ^ ( [ ` { m m b <.wXyX3X=X&X&X&X|.Z.<.u.u.&.&.P C f e 4 4 :.].].[.(.b.(.n.e.e.q.c.n.v.v.v.v.b.b.v.",
"6.F.G.S.i.#.$.$.$.$.#.+.O./ d d ) [ _ l v b A Z C.wXyX3X=X&XZ.y.y.y.&X*X XB.w.T j e e C q.'.(.(.].{.{.'._._.b.b.c.r.r.c.c.v.v.0.",
"D.K.H.S.i.@.$.$.O.+.@.6.+.] ^ d s ( n b b M Z *.,.2XwX2X3X&XZ.y.<.Z.>X>XOXB.q.T L L C L w.[.'.'.'.[._.b.(.(._._.(.(.).).v.v.e.W ",
"Y.L.H.S.6.6.a.@.+.O.+.6.6.+.' ^ d s b m m { _ { =.C.2X2X3X&XZ.y.<.>.w.x.x.w.q.T P L C j P b.'.'.b.'.(.v.b.v.).).).).).).v.c.0.! ",
"Y.K.H.F.S.d.F.a.@.+.+.@.6.@.X.) d d b n ` ` ` { *.,.C.*X*X|.Z.B.w.:.V e e w f g f j e e g T n.b.b.'.v.v.v.v.`.c.v.t.v.e.r.0.0.! ",
"L.H.S.S.F.J.F.a.6.@.@.2.6.2.1.X.^ d 0 q m m { { { <.*.<.,.B.x.>.V z e 3 1 < 3 3 w e e w 4 e :.n.b.(.c.e.e.e.t.t.r.q.q.q.0.! ! W ",
"E.L.H.F.G.J.J.F.d.6.2.2.5.2.5...| s 0 q q s ` ` { } Z Z Z V B r 1 1 6 g e < 6 3 4 e g w w f P e.(.(.e.q.r.r.r.t.0.q.q.0.! W W W ",
"L.L.D.S.F.J.F.J.d.a.2.2.4.4.3...| ) s 0 0 0 m n _ _ Z Z Z x f 1 1 5 6 e e 3 e g f f V C j C T e.v.v.q.q.q.q.r.r.0.0.0.! W R R W ",
"P.H.D.S.F.J.J.F.k.a.5.4.4.5.5.3...[ ) s s a 0 0 p n M l l k 8 > : 8 5 4 r g g N j f V P L L T q.v.e.q.q.q.0.r.r.! W W R R Q Q Q ",
"P.H.H.H.H.J.F.k.k.k.s.p.4.p.4.-. .{ { s ) a 0 0 0 , p , , , , > : , 5 4 f f x B V j j C C C T q.t.r.0.0.0.0.! r.W T T T T T Q T ",
"P.H.P.L.L.K.J.F.k.d.s.j.p.5.4.-.-.;.{ m ) n s 0 0 > , > , 0 q , > , 8 e N V V P U P L V V C T 0.r.r.0.W W R W 0.W T T Y Y Y Y Y "
};
