/* XPM */
static char *ed5c2d697fb84b5bb9d4c487d16ec571[] = {
/* columns rows colors chars-per-pixel */
"64 64 228 2 ",
"   c #161C18",
".  c #0D180E",
"X  c #152216",
"o  c #29231E",
"O  c #201E24",
"+  c #16232A",
"@  c #1A2432",
"#  c #2B2322",
"$  c #252428",
"%  c #342B2B",
"&  c #372B26",
"*  c #3C312A",
"=  c #272935",
"-  c #332C34",
";  c #3A2E35",
":  c #3A3537",
">  c #44352B",
",  c #463937",
"<  c #564639",
"1  c #4C4338",
"2  c #67543C",
"3  c #3E3D43",
"4  c #353946",
"5  c #443D42",
"6  c #3F414A",
"7  c #454144",
"8  c #4A4344",
"9  c #4C4849",
"0  c #514946",
"q  c #5C5145",
"w  c #494B56",
"e  c #575456",
"r  c #66564A",
"t  c #685A53",
"y  c #614D40",
"u  c #706557",
"i  c #5B5A62",
"p  c #66646A",
"a  c #746C66",
"s  c #7D756D",
"d  c #77747C",
"f  c #6E6E78",
"g  c #5F6774",
"h  c #896F53",
"j  c #857C78",
"k  c #8B7767",
"l  c #99876A",
"z  c #948577",
"x  c #8A857F",
"c  c #A38A6E",
"v  c #7C7E8C",
"b  c #7A7C85",
"n  c #7C7F90",
"m  c #817B85",
"M  c #7A808F",
"N  c #7C8393",
"B  c #7F899B",
"V  c #7A8597",
"C  c #8B868C",
"Z  c #86858A",
"A  c #958D87",
"S  c #9C9289",
"D  c #838593",
"F  c #8B8C96",
"G  c #858699",
"H  c #858A9B",
"J  c #8A8C9C",
"K  c #868895",
"L  c #918F9B",
"P  c #928D93",
"I  c #8D919D",
"U  c #8D9096",
"Y  c #949296",
"T  c #9B9694",
"R  c #94939C",
"E  c #9B9A9D",
"W  c #97979B",
"Q  c #A39C98",
"!  c #A89589",
"~  c #B2A496",
"^  c #8C8EA2",
"/  c #858CA2",
"(  c #928FA2",
")  c #8D92A4",
"_  c #8D93AB",
"`  c #8492A4",
"'  c #9394A5",
"]  c #9995A3",
"[  c #9599A5",
"{  c #9B9BA4",
"}  c #9495AA",
"|  c #9A95AA",
" . c #9699AC",
".. c #9A9BAC",
"X. c #959AB1",
"o. c #9B9DB2",
"O. c #9597B0",
"+. c #A19DA3",
"@. c #A399A7",
"#. c #9DA1AC",
"$. c #9BA1A5",
"%. c #9EA1B3",
"&. c #9DA5BA",
"*. c #9DA8BF",
"=. c #A4A2A4",
"-. c #A3A4AC",
";. c #A9A6AD",
":. c #A5A9AD",
">. c #ABABAC",
",. c #AAA6A5",
"<. c #B2ACA7",
"1. c #BCB2AC",
"2. c #A2A4B4",
"3. c #A5A9B3",
"4. c #ABACB4",
"5. c #A3A6B9",
"6. c #A4AABC",
"7. c #AAADBB",
"8. c #AAA6B4",
"9. c #B3ADB4",
"0. c #B3AEBB",
"q. c #AEB1B5",
"w. c #ADB1BC",
"e. c #ADB8BC",
"r. c #B4B3B4",
"t. c #BAB4B4",
"y. c #BCBAB5",
"u. c #B2B4BC",
"i. c #BCB6BA",
"p. c #B5BABC",
"a. c #BBBCBC",
"s. c #B7B8B3",
"d. c #C1BDBD",
"f. c #C0BAB7",
"g. c #C4AD93",
"h. c #BCC1BC",
"j. c #C2C1BC",
"k. c #CAC6BE",
"l. c #D8CCB3",
"z. c #E2D2B4",
"x. c #F2E0BA",
"c. c #9EACC1",
"v. c #A6ADC1",
"b. c #ABAEC1",
"n. c #A6B1C3",
"m. c #ACB3C4",
"M. c #AEB9C3",
"N. c #ADB5C9",
"B. c #ADBACA",
"V. c #A6B4C9",
"C. c #B2B5C5",
"Z. c #B5BBC5",
"A. c #BABCC4",
"S. c #B2B7C9",
"D. c #B4BBCB",
"F. c #B9BDCC",
"G. c #BAB7C3",
"H. c #B7BED1",
"J. c #B0B7C8",
"K. c #C2BEC1",
"L. c #B7C0C7",
"P. c #BCC2C5",
"I. c #B6C0CB",
"U. c #BBC2CA",
"Y. c #BECACC",
"T. c #B5C3D2",
"R. c #BBC4D2",
"E. c #BDCAD4",
"W. c #C3C4C4",
"Q. c #CAC5C4",
"!. c #CBCAC4",
"~. c #C2C5CC",
"^. c #C4CACD",
"/. c #CBCCCC",
"(. c #C8C8C8",
"). c #D1CECB",
"_. c #D0CDC4",
"`. c #CCD1CE",
"'. c #CFD1C5",
"]. c #D4D3CC",
"[. c #D9D7CC",
"{. c #C2C6D1",
"}. c #C4CBD2",
"|. c #CACDD4",
" X c #C2CDDB",
".X c #CCCFD9",
"XX c #C6D1D4",
"oX c #CDD2D4",
"OX c #CED3DA",
"+X c #C9D5D9",
"@X c #D2D5D4",
"#X c #D3D9D6",
"$X c #DBDBD4",
"%X c #D2D5DB",
"&X c #D5DBDB",
"*X c #DADDDC",
"=X c #D9D5D4",
"-X c #E1DDD9",
";X c #D6E0DE",
":X c #DCE2DC",
">X c #E4E2DD",
",X c #E3E1D6",
"<X c #F2F0CF",
"1X c #D3D6E1",
"2X c #D6DCE1",
"3X c #DADCE2",
"4X c #DEDDE8",
"5X c #CFD7E1",
"6X c #DEE3E3",
"7X c #DBE2E7",
"8X c #E4E5E3",
"9X c #E5E8E7",
"0X c #ECEAE5",
"qX c #E3E5EB",
"wX c #E5E9EB",
"eX c #EBECEB",
"rX c #E9E5E3",
"tX c #F1EDE8",
"yX c #EDF1EE",
"uX c #F3F3EE",
"iX c #F6F7E5",
"pX c #EAECF1",
"aX c #E7EAF0",
"sX c #F2EFF1",
"dX c #EEF2F3",
"fX c #F4F5F2",
"gX c #F5FAF4",
"hX c #F5F8F9",
/* pixels */
": 3 - : a >.!.y.j.].*X8X:X*X8XeX0X8X6X*XoX:X:X&X{.Z.n.n.n.V.V.V.V.N.N.N.N.m.m. .H H / } ' ' ..o.N.H.H.D.S.m.6.6.D.E.%X7XdXhXwX6X",
"r.>.>.j.$X8XeXyX8X8X&X*X*X@X@X&X#X#X&XXXXXXX^.+X5X}.H.D.D.R.D.N.N.S.S.S.S.m.m.m.m.5.5.S.R.R.D.M.L.D.E. X X X XE.T.T.U.I.U.L.L.Z.",
"Z.P.^.oX/.#X`./.(.P.a.Y.}.^.XX^./.P.Z.L.U.E.D.Z.U.{.I.D.D.S.S.C.S.m.S.S.S.S.N.N.N.D.D.R.E.R.E. XE.R.E.E.E. X X XE.I.D.E. XXX}.E.",
"m.m.m.m.Z.Y.P.%X2X7XOX^.L.p.e.Z.Y.}.Z.M.M.D.D.}.I.D.D.F.{.S.D.C.D.D.Z.Z.S.S.N.m.m.N.S.B.B.D.B.B.B.B.B.H.T.T.T.T.T.T.T.D.R.U.U.E.",
"F.Z.m.m.m.m.U.{.}.Y.L.Y.Y.U.Z.Z.S.S.C.C.S.S.S.S.D. X XS.S.S.S.S.S.S.S.S.S.S.N.N.m.m.m.m.m.m.N.N.N.N.S.D.S.D.D.D.D.D.S.N.N.S.D.D.",
".XOXU.C.C.m.m.m.Z.Y.U.Z.Z.I.Z.D.S.S.S.D.D.D.D.D.D.S.I.S.D.S.S.S.D.D.S.S.S.S.N.m.m.v.6.v.v.b.m.m.m.m.N.N.m.N.N.S.S.S.S.N.m.m.m.m.",
"P.U.U.F.C.C.m.m.m.m.Z.Z.Z.Z.Z.S.D.D.D.D.D.D.D.D.D.D.D.S.S.S.S.S.D.D.S.S.m.m.m.m.m.v.v.v.v.v.6.m.m.m.m.m.m.m.m.m.m.S.N.m.m.v.v.m.",
"Z.A.F.D.F.D.D.D.S.Z.D.S.S.S.S.S.D.D.D.D.D.D.D.I.I.I.D.D.D.D.D.D.S.S.S.S.m.N.m.m.m.6.5.6.m.v.6.b.m.m.m.m.m.m.v.6.n.m.N.N.m.v.6.v.",
"C.S.S.S.S.S.S.S.D.D.D.S.S.D.D.D.D.D.D.R.R.D.D.D.D.D.F.U.U.U.L.Z.Z.D.C.m.m.m.m.m.w.6.v.v.m.b.w.w.7.m.m.m.n.n.n.n.n.n.V.V.V.V.c.*.",
"D.D.D.S.S.D.D.D.D.D.D.S.S.D.D.D.D.D.D.R.R.D.D.D.D.D.U.U.U.U.L.Z.Z.D.Z.N.m.m.m.m.m.&.6.6.v.m.m.m.m.m.m.m.m.m.m.m.m.m.n.n.m.n.*.&.",
"S.D.D.S.S.D.D.D.D.D.D.D.D.D.D.D.H.D.D.F.D.I.F.D.D.H.U.U.U.L.L.Z.Z.Z.m.m.v.v.&.6.&.&.&.&.6.b.m.I.U.Y.Y.U.D.D.Z.Z.C.C.m.m.m.m.m.6.",
"D.F.F.D.D.D.D.D.I.I.I.I.T.D.D.D.H.D.F.F.F.I.F.F.F.F.I.I.U.L.L.Z.Z.C.C.m.6.5.o.o.o.o.%.6.b.D.D.{.+X+XOXOX1X1X1XOX.X2XOX}.L.D.Z.M.",
"Z.L.U.U.U.U.L.Z.L.L.D.D.I.I.I.D.F.F.F.F.F.A.A.A.F.F.F.D.D.D.D.D.S.C.C.b.7.5.%.o.o.o.%.5.C.}.|.#X@XoXOXOX%X&X#X|.|.%XXXXXY.U.Y.{.",
"Z.L.U.L.U.U.L.Z.L.L.L.L.I.I.I.D.F.F.F.F.F.Z.Z.A.Z.A.D.D.D.D.D.D.C.m.b.7.5.2.2.%.o.o.%.-.3.^.oX@XoX#X#X&X;X7X7X;X&X&X&X%XXXXXY.Y.",
"Z.L.U.U.U.U.L.L.L.L.U.U.U.I.U.U.H.F.F.F.F.Z.Z.7.w.A.D.D.S.S.S.m.7.7.5.2.%.o.o.o.o.o.o.2.5.F.|.OXoX@X#X@X#X#X;X6X;X*X&X*X&X&X#XoX",
"Z.L.U.U.U.Z.Z.Z.L.L.U.U.P.P.U.F.F.F.D.D.D.w.{ b d 3.Z.S.S.m.m.m.m.m.6.5.5.o.o... . .o.o.5.6.C.F.P.{.|.oX#X@X&X6X*X@X&X*X6X6X*X#X",
"Z.L.U.U.Z.L.L.L.U.U.L.U.U.U.U.U.F.Z.D.D.Z.T j e 9 g J C.m.m.n.v.v.v.6.6.5.2.o.o.....o.o.o.o.%.7.u.A.K.~.^.|.{.{.}.Y.Y.{.OXOXOX|.",
"Z.L.L.Z.U.U.U.U.U.U.U.U.U.U.U.U.F.F.F.A.=.a a 0 7 9 w F w.m.6.5.%.%.2.%.o.o...o.o.o.o.o.o.o.%.7.w.C.~.^.^.|.^.^.{.Y.U.{.}.{.U.U.",
"Z.Z.L.L.L.L.L.L.U.L.U.L.L.U.U.U.L.F.F.9.j u r 8 5 8 9 i { w.6.5.o.o.o.o.o.o.o. . .o.o.o.o.o.2.5.b.F.|././.|.^.~.^.{.^.|.|.}.}.~.",
"Z.D.D.L.L.Z.L.L.L.L.L.L.L.L.U.U.F.F.F.K.T k r 8 7 8 9 w b -.2.%.o.o.o......... . ...o.o.o.o.2.5.m.{.|.oX@X|.|.}.}.Y.(.`.@X#X#XoX",
"S.D.D.D.I.D.L.U.Z.Z.L.L.L.L.L.U.F.F.Z.F.A.<.A s u 8 8 9 p ..%.%.o.o. . . . .} }  .}  .....o.2.5.b.D.P.~.(.+XoXOX&X&X&X@X@X*X*X%X",
"S.D.D.D.D.D.L.L.L.L.L.Z.Z.Z.Z.Z.F.F.F.Z.Z.y._.[.Q r 0 9 e ..#.o.o... . .} } } }  .}  .....o.o.%.6.7.u.u.w.Z.A.F.~.{.{.P.P.~.~.P.",
"S.D.D.D.D.D.Z.Z.Z.L.U.U.U.Z.Z.Z.D.F.F.Z.Z.k.z.l r t 9 3 3 J .. ... .} } ' } } } } } }  .....o.2.A.U.~.P.P.~.}.|.~.^.~.F.Z.{.7XqX",
"S.S.D.D.D.D.Z.Z.D.D.D.Z.Z.Z.F.D.D.D.D.Z.W.l.k r q 9 7 : 3 v .. .....} ' ' }  .}  . .}  . . .o.2.4.4.4.4.4.4.u.Z.A.P.Y.}.OX+X|.+X",
"D.D.D.F.F.D.D.D.D.D.D.D.D.D.F.F.Z.Z.Z.a.-Xl.h r 0 7 7 5 3 D ' ......] ) ' } }  ....... . .%.o.F.|.3XqXqX4XqX3X1X|.~.Z.Z.~.~.Y.L.",
"D.D.D.F.F.D.D.D.S.S.D.D.D.D.S.S.Z.C.u.Q.tX<Xc r 8 8 7 3 3 D ' ' ' ] ] ' ' } }  .....o.o.o.o.2.o.7.6.b.m.S.A.^.|.&X%X|.8XpXhXhXhX",
"D.D.D.D.D.D.S.S.S.S.D.D.D.D.D.S.Z.Z.u.[.iX<Xl.r 1 5 5 : 3 v } ..} ' J } ^  . .}  .....o.o.o.o.5.%.%.6.6.7.m.m.m.w.7.#.2.7.w.C.w.",
"D.D.D.C.C.C.C.C.D.S.S.C.C.S.D.D.Z.u.W.uXiX<Xz.h 1 , : - 3 F ..| ' ' ' ' .. .) } }  .......o.o.6.Z.U.Z.p.u.m.w.m.7.7.m.m.6.5.5.v.",
"S.S.C.C.C.C.C.C.S.C.C.S.C.S.S.S.M.r.$XiXiX<X~ 2 > - - - e W ' | | ' ( ' ) ) J ' ] }  .......2.7.=X8XeXeXeX9X*XoX%X%XC.C.F.Y.Y.P.",
"C.C.C.C.C.C.C.C.S.C.C.C.C.C.C.C.n.s.z.x.z.l u , ; = - 5 d ' ' ] | ' G J H ' J ' ' } ......-.2.W.-X=X@X8X0XeX0XqXqXpX9XyXfXhXhXhX",
"C.S.S.C.S.C.C.C.C.C.C.C.C.C.7.7.b.1.g.c h 2 < : ; * ; 9 K I ] ' ' ' J H ) ' ) ^ ' ' } o.{ :.A./.0XtXtX0X0X0XtXfXfX*X/.$X0XfXhXfX",
"C.S.S.S.S.C.C.C.C.C.C.C.C.7.2.7.8.~ k h ~ S s : , > % p ' } ] J J G D H H H J ^ ' ' }  ...W.8X0XtXuX-XtXuXtXuXuX0XtX0X8XuXeX8XeX",
"C.C.S.C.C.C.C.C.b.b.7.7.3.2.-.2.2.,.z 2 j z < ; * % $ d ' ' ( F ' G G H J ^ ' ) J J )  .3./.!.'.,X>XrXrX!.!.0XtXeXsXgXgXgXgXgXfX",
"C.C.C.C.C.C.C.C.7.7.o...2.5.2.o...=.~ u < , > * % % $ f ' ' H b n J H J H J ] ) ' ^ ' ' 4./.$X[.0X0X0X).8X0X>XeXeXsXfXgXgXgXgXgX",
"m.m.b.b.b.m.m.m.2.o...o.%.o.o.o...{ Q z 2 , > * % #   w H H D D D H J ^ H H J J ' ] E y.-X>XrX>X$X>X>X).!.k.$XrX=XrXyXeXwXyXyXuX",
"7.2.-.3.7.7.7.b.2...o.o.........o.] W Q h > & & # $ X X + 4 g D n v G D J R ' ..2.8.!.'.[.@X].>X$X].@X/./.a.W.@X*X8X8X8X8XeXyXeX",
"2.2.7.4.4.4.7.7.5.2.2......... ...@.{ <.c 1 & o o o . .   $ $ = = @ + + @ = w 5.u.a.k.!.!.j.a.j.h.W.W.P.^.W.@X#X8X*XeXyX*X#XeXfX",
"2.7.7.4.4.q.4.3.2.2.2.............@.| ,.c > & o # # O : 7 - % $ $ = = 4 w 4 @ 4 =.k.[.$X>X*X&X/.P.u.u.:.w.u.P.~./.oX&X@XeX8X9XuX",
"2.2.3.4.4.4.4.4.2.2.%.............@.| Q ! < > & % % : f b d p f d F R @.@.3.R 6 Y j.!.j.W.(.W.a.A.A.Z.F.U.U.Z.A.~.q.P.P.#X*X3X|.",
"7.3.3.3.4.4.3.3.2.%.o.o.....| | ....} Y S y > & % ; p T T T +.E =.-.;.Y E W E ] W -.4.r.q.Z.u.A.P.A.A.A.A.Z.P.W.#X>X:X#X&X#X#X|.",
"-.3.4.3.-.-.#.#.#.......{ ] ' ' L I U T A < > # % , P 9.@.9.9.i.i.i.K.r.r.Q.a.;.-.3.-.>.u.4.3.p.=.:.4.q.4.u.P.A.p.P.W.@XoX~.C.Z.",
"2.#.-.....{ ....{ ..{ ] E W Y Y Z Z x A a q > # # e ,.1.Q Q <.f.t.t.y.Q.t.W.W.W.W.@X/./.!././.@X@X:X@X#XoX{.A.Z.Z.Z.F.Z.C.Z.F.Z.",
"2.2...o.........[ [ W ] W W W W L C j s u u t 0 % d Q 1.i.t.t.t.y.j.d.y.y.a.(.W.!.].].].$X].Q.].`.$X@XoX#X`.`.(.A.A.~.P.P.~.`.oX",
" ...........{ [ ' R W W W W Y Y L P j j j S ! a a W Y R R R { R Y T $.:.-.q.W.W.W.!.!.].(./.!.@X`.:X:X*X0X>X*X8X*X*X#X|.^.@X/.^.",
"..........[ [ [ { { ] W W Y P Y P C C C A S S a d b Z C Z D J I D v M V V J ) [ $.$.-.3.:.u.p.a.A.~.~.A.{.~.|.%X%X%X|.^./.oXoX^.",
"........} ....[ ....{ ] W F Y L D C C C T T P Y E E P Y Y Z F I D N N n n M M V B ` / ) ) H H )  .o.%.X.o.5.5.5.v.5.e.L.L.}.}.XX",
".... .} ) ' ........{ ] ' ' R L D D b C =.y.a.j.Q.s.i.t.9.;.4.;.-.{ [ _ I N N B V / _ _ / V ) /  .O. ._ )  .}  .^ N H ) [ &.&.6.",
" .....] ' } ......} ] ] R L L R J H D D K =.r.r.i.t.Q.Q.t.d.K.a.q.p.u.7.2.$.#...} ' ' ) ^ )  .%.o.o.} /  . . . .B V / V G O.X.O.",
"}  ...} }  .} ]  .} ] ] ' R I I J H D v v F F Y F R +.;.>.4.r.u.u.(.W.a.r.u.u.3.u.7.#.' ..w.G.Z.7.7.2...2.3.%.B V ` X.O.X.[ [ O.",
"} ..} ] ] ' } ' ] ' ' ' J J N N K D K F F J H } ) ) R Y W W { ..o.o.2.3.4.u.G.0.F.b.u.w.Z.|.{.{.A.A.~.^.~.Z.7.) B B J ) %.3.3.6.",
"} ..' } } ^ J J ' ' ^ H D H M N D F R W E ..{ [ ' J R -.-.2.3.2.2.2.5.2...-....... .%.....2.7.C.w.u.F.F.F.A.u.3. ._ ) ..Z.Y.XX{.",
"}  .} ' ) H V H ) ^ J N D D N N Y +.9.i.r.;.;.{ E { ;.;.] { -.{ { 3.-.#.3.Z.2.[ ' ' ....} ^ ' %.o...%.%.#.2.7.6.o. .' 4.P.{.|.{.",
"} } } ) ^ / H / ) ^ ) I I F [ -.>.,.d.Q.Q.a.j.Q.a.!._.[.].Q./.K.y.-.{ [ ..7.7.....6.7.w.w.C.3.2.] ..#.} #.3.7.7. .o.#.7.7.w.Z.A.",
"} } } ' } } ) / ) ) J ' { 4.W.@X_.d.y.y.<.j.!.].].].].[.-X-X$X[.$X$X/.A.7.w.u.2.2.7.u.p.Z.P.P.Z.u.7.%.3.2.2.7.7.2.2.3.3.7.3.7.7.",
"^ ^ ' } }  ... .) ) ' ..u.W._.[.$X!.f.!.j.i.f.,.9.i.Q.!.Q.=X=XQ.k.=X-X$X@X/.W.P.4.{ 7.2.2...3.F.{.A.Z.L.U.u.Z.Z.D.m.6.7.S.m.6.6.",
"} } } } }  .o.} ' ] #.a./.p.p.j.Q.Q.!.].].i.Q.i.,.r.G.G.r.+.9.Q.y.y.j.].$XW.W.u.~.*X$X$X#X&XP.P.p.u.u.u.{.|.2X2X%XOX&X}.{.Y.F.m.",
"} } } ' ' } } J I 2.A./.r.a.r.r.;.W./.@Xs.!._.].].].@Xt.=.4.9.G.G.;.!.y.!.W.=X].@XeX>X0X$XeXrXsXwXwXOXA.7.u.Z.{.|.%X@X&X7X2X1XOX",
"}  .} } ) ' ] ] -.w.p.u.$.q.4.=.{ { r.W.y.!.!.j.j.]._.!./.G.0.2.2.3.;.>.p.r.W.r.W./.Q.=X$X>X>X8X8X8X*XaXaXqX2X^.A.A.P.~.^.{.OX2X",
"/ H }  .) ] ' #.4.u.Z.w.-.4.{ F { { 4.;.W.).(./.).Q.Q.i.K.i.8.0.3.-.{ D ' G.3.4.G.0.a.a.`.0X:X>X`./.&XeXeX8XeXfXrX&X&XoX^.P.{.G.",
"_ ^ _ _ _ ) '  .] 2.w.w.Z.u.:.-.#.#.Y F -.3.7.;.r.d.9.).r.Q.i.K.u.~.A.-.~.G.7.{ 7.u.-.4.^.(.@X#X&X@X&X8XeXwX&XeXwXaX3X@X6X&X^.~.",
"_ ^ ) ) ) H ^ ' ' ] ..7.u.Z.A.q.u.W R I J D F F +.d.Q.=.>.i.>.+.;.4.9.A.-.:.$.p.P.W.q.q.q.a./.(.&X6X6XwX6X#X9XwX3XOX3X*XqXdXpXqX",
"_ ) H N D ) } } o.2.%.5.' [ 3.3.{ -.#.-.{ ' b -.W E ;.=.=.r.9.G.4.9.G.4.=.,.W h.W.h.a.p.-.q.u.~.A.W.3X&X#X@X9XqX2XqXpXqXqXwXdX3X",
"O._ V V [  . .^ ] ..' %.} I [ D { R R -.-...R ] 4.W Y C m W ;.9.=.3.-.A.A.p.p.a.~.u.W.h.a.{ w.3.w.P.^.oXA.W.6XqXaXqXwX3X6X6XpX2X",
"O.O.' ) ..' } ' H / ) H D D { F [ K f K ..H ' ....] b F W 4.+.4.-.v D ]  .' #.4.3.{ a.a.W.p.A.u.4.3.4.Z.A.Z.~.P./.@X&X#X#X;X&X7X"
};
