/* XPM */
static char *_ea2539680c349968626dff509a21c76[] = {
/* columns rows colors chars-per-pixel */
"64 64 198 2 ",
"   c #0E0506",
".  c #0E060A",
"X  c #0E090A",
"o  c #150506",
"O  c #100806",
"+  c #14060B",
"@  c #1B070B",
"#  c #140B0C",
"$  c #1C0A0C",
"%  c #0E0510",
"&  c #0F0812",
"*  c #100610",
"=  c #150D12",
"-  c #1D0D12",
";  c #151112",
":  c #1D1213",
">  c #1E1619",
",  c #1E1A1B",
"<  c #230E03",
"1  c #210B0E",
"2  c #2A0908",
"3  c #26120C",
"4  c #2A140C",
"5  c #2E1A0F",
"6  c #30150D",
"7  c #38150E",
"8  c #230E11",
"9  c #2D0E10",
"0  c #310D13",
"q  c #231314",
"w  c #291415",
"e  c #221A17",
"r  c #2D1913",
"t  c #241619",
"y  c #2B1619",
"u  c #251A1B",
"i  c #2C1B1C",
"p  c #341313",
"a  c #3A1513",
"s  c #321C15",
"d  c #3B1B14",
"f  c #33161C",
"g  c #3B1718",
"h  c #311C1C",
"j  c #3A1C1D",
"k  c #2B2117",
"l  c #2A211E",
"z  c #352117",
"x  c #3C2016",
"c  c #36221C",
"v  c #39241D",
"b  c #231721",
"n  c #251B22",
"m  c #2C1E22",
"M  c #271D28",
"N  c #291E29",
"B  c #331E21",
"V  c #391F24",
"C  c #262323",
"Z  c #2D2323",
"A  c #2C232B",
"S  c #2D292A",
"D  c #332424",
"F  c #3A2524",
"G  c #322926",
"H  c #3E2A23",
"J  c #34252A",
"K  c #3B2629",
"L  c #352B2B",
"P  c #3B2B2D",
"I  c #32302B",
"U  c #3A312E",
"Y  c #2F2430",
"T  c #312631",
"R  c #352C33",
"E  c #3B2D32",
"W  c #372D38",
"Q  c #3B2E39",
"!  c #353031",
"~  c #3D3232",
"^  c #3F3836",
"/  c #3C323B",
"(  c #3C3839",
")  c #431E1B",
"_  c #422317",
"`  c #40201D",
"'  c #432D1C",
"]  c #49291D",
"[  c #47361F",
"{  c #4E361F",
"}  c #412423",
"|  c #412D25",
" . c #4B2F23",
".. c #432E2B",
"X. c #453221",
"o. c #4B3423",
"O. c #4E3827",
"+. c #46322B",
"@. c #49352E",
"#. c #503425",
"$. c #51332A",
"%. c #432E33",
"&. c #412F3A",
"*. c #433434",
"=. c #4A3533",
"-. c #423936",
";. c #4D3933",
":. c #44353A",
">. c #4A353A",
",. c #453B3A",
"<. c #4A3E3D",
"1. c #4D3F3F",
"2. c #4B3D3D",
"3. c #503C35",
"4. c #503C3E",
"5. c #46403D",
"6. c #4A413E",
"7. c #4A403F",
"8. c #54403A",
"9. c #3F3441",
"0. c #413340",
"q. c #433641",
"w. c #493644",
"e. c #443A45",
"r. c #463C47",
"t. c #453B44",
"y. c #4C3D42",
"u. c #463D49",
"i. c #4A3D4A",
"p. c #523E42",
"a. c #523F4B",
"s. c #533F50",
"d. c #4E4141",
"f. c #4A4541",
"g. c #4D4342",
"h. c #4F4B47",
"j. c #4E4C47",
"k. c #4C424C",
"l. c #504241",
"z. c #504046",
"x. c #544746",
"c. c #534344",
"v. c #594446",
"b. c #514846",
"n. c #54454A",
"m. c #5B4649",
"M. c #564F4C",
"N. c #554B4A",
"B. c #584D4F",
"V. c #5B4C4D",
"C. c #57514E",
"Z. c #59504E",
"A. c #4D4351",
"S. c #534452",
"D. c #594550",
"F. c #5A4657",
"G. c #554B53",
"H. c #5C4D52",
"J. c #564B5A",
"K. c #5B4D5B",
"L. c #5B5556",
"P. c #5D5252",
"I. c #5D535B",
"U. c #5F5B5C",
"Y. c #5D5859",
"T. c #614C4E",
"R. c #624F53",
"E. c #614E5B",
"W. c #625454",
"Q. c #625857",
"!. c #6A5A56",
"~. c #64555A",
"^. c #68565B",
"/. c #655B5B",
"(. c #6B5C5C",
"). c #715B5E",
"_. c #69605E",
"`. c #5D5262",
"'. c #5F5963",
"]. c #665760",
"[. c #615664",
"{. c #665E63",
"}. c #645A63",
"|. c #6C5C61",
" X c #715D63",
".X c #755E69",
"XX c #666263",
"oX c #6D6463",
"OX c #6A606A",
"+X c #6D656E",
"@X c #6E6469",
"#X c #726365",
"$X c #716867",
"%X c #74646A",
"&X c #79676D",
"*X c #756B6A",
"=X c #786B6B",
"-X c #7A6670",
/* pixels */
":.2.2.,.,.,.,.2.1.1.2.2.7.,.L Y T T J W T N W n C A A m P m Z L Z D J D Z Z D D J ..V F j 0 0 3 s z 4 s v | X.X.$.` g | F v P i ",
"D.n.z.d.2.2.2.1.d.d.1.1.2.~ T T R W T 0.Y A Q n Z P J P P u G ! Z D L G D D Z G F K f 9 p 0 0 6 z s < 4 d  .o.#. .d } ..@.z =.K ",
"|.].~.B.x.l.d.2.,.5.1.2.~ A Y A Y A A W / W E N m E P P P i ! E L P ~ P J Z D D D J F y p 9 p v 5 4 z v d 7 _ ] d } | @.@.v | K ",
"+XOX{.U.L.M.h.f.7.,.,.~ G n b M n = & % M u.W T A / E G ~ P C , > u P P J Z Z Z Z D J h 9 4 v s 4 v X.o. .) a d } +.@.;.;.F v | ",
"+XOX{./.L.C.j.f.2.2.,.P G u M / A = . = = W e.R T / ~ *.:.> X   # : u L D u u Z i Z D i r z s 4 z ' o.o.O.o.p s j F v K +.H H F ",
"{.{.Q.L.C.N.c.l.1.1.2.*.G n A W A ; # . * n r.Q W :.>.1.i #   # = : i ,.-.D u i i i i i z z < 1 p x ' { O.v s v =.;.@.z s | v F ",
"P.L.P.Z.N.c.l.d.d.2.2.*.P A A N J u # * = > :.E E y.V.c.: =       $ -.*.L Z D m i i i h z 4 2 0 p 7 d ] x s | @.@.+.F r 4 z z s ",
"g.g.g.g.g.g.d.1.2.2.2.:.R A A M n n S R W N L K K p.W.2.u i > $ q G D i Z P P P P Z m v s 4 s p p a a a s | =.z s s s r s r c | ",
",.,.7.7.7.2.2.7.2.2.2.,.Q T A M A / S.G.S./ T E >.v.~.P.,.,.J i q q i Z P P P -.*.D E | s '  .] d a a s | v @.+.=.| H v v z | v ",
"-.,.,.,.-.2.2.2.2.2.2.,.:.q.9./ 9.i.I.[.K.S.:.>.>.v.H.^.(.W.2.G u w i Z G D h J *.,.d.=.H X.[ o.#.) p F ;.| s s r v v H K v v D ",
"-.-.,.,.,.2.2.,.,.2.,.-.,.k.k.u.i.S.J.I.K.s.:.>.>.>.4.R.(.(.~.1.P L D K *.=.>.p.V.~.W.+.v ' [ { o.a v | +.;.K F h v F F F F h h ",
"-.-.-.,.,.,.,.,.,.,.t.^ ~ k.S.A.A.S.J.K.I.K.w.%.P K v.^./.(.(.~.x.l.l.l.p.c.V.^.(./.(.;.s v ' #._ j H | | @.@.F h v F s H z c U ",
"-.-.-.,.,.,.,.,.,.,.,.E P i.J.F.A.S.S.J.J.J.D.K %.v.W.W.W.W./._.Q.H.V.R.R.Q.(.(.(.(.#XT.j p d x s @.s @.;.@.F K w v H c k k G G ",
"-.-.-.-.,.,.,.,.,.,.,.~ P q.J.I.J.i.A.S.S.S.k.&.&.n.H.H.V.P.Q./.Q.W.Q.!.(.).(.|.oXoXoX(.>.g p p s +.| z | @.| | H r h i y q l P ",
"-.-.*.-.-.-.,.,.,.,.,.U L q.J.`.I.S.e.r.k.A.u.Q Q w.n.V.V.V.W.Q.(.(.(.).).).#X#X$XoXoX|.V.} p v r @.3.s K H H | +.v y y F F D K ",
"~ ~ ~ *.*.-.,.-.-.-.-.U ! k.`.[.`.J.u.q.9.i.k.i.w.:.:.y.N.B.P.~.Q.Q.W.W.).#X%X%X=X$X*X%X(.=.h ..z ;.3.+.H K +.v v h y D K F ..h ",
"~ ~ ~ *.*.-.~ ^ ^ ,.^ L R i.K.[.[.K.F.D.i.w.i.S.S.N.b.N.V.B.N.N.V.T.~.(. X#X#X%X=X=X=X=X=XB.F @.z @.3.;.@.v | h y h h K ..@.v | ",
"P L U U U U ~ -.^ -.-.R L t.K.[.[.[.E.K.K.F.a.y.g.b.N.N.B.P.W.Q.!.!.(. X.X#X#X%X=X=X=X=X=X#Xp.+.r F ;.| H | H y y B D @.v ;.=.| ",
"L L L L P P E E ~ *.E P J :.J.`.[.[.~.E.E.H.H.M.M.V.V.V.~.Q.(.(.Q.!.(. X X#X$X=X*X=X$X*X=X=XQ.G y h h s | v F h y K K ;.8.| ;.@.",
"L L L L P P P P P P E J Z :.S.K.[.[.[.I.I.H.H.B.P.V.H.V.P.P.W.~.~.(.|. X.X&X%X=X=X*X$X$X=X&X#XN.@.F h w h y i h h y h v ;.;.F z ",
"G J L L L L L L P P L n m / k.I.'.[.I.K.H.V.B.V.P.V.P.W.W.P.P.W.W.W.(.|.#X=X=X$X$X$X$X$X*X=X$XW...K K q q $ $ q q D F v v h r | ",
"G G G L L J G I L L A - b / k.G.I.I.I.H.V.N.N.Z.P.W.W.W.W.W.P.P.~./.(.oXoXoX@X@X*X@X$X*X=X=X&X(.,.U e : q t 8 q ..@.@.K h w | | ",
"G D G Z G D G G G L u = b / e.k.G.G.G.V.N.N.N.B.V.W.W.~.W.W.V.P.W.~.^.|. X@X$X@X$X$X&X%X$X=X%XoXN.U $ u e D r | v 8 w r F =.K 4 ",
"J Z Z Z Z J G G L Z > ; u Q q.y.n.n.N.N.N.x.c.x.V.T.T.R.W.W.P.P.P.W.Q.(.oXoX@XoX$X*X-X&X&X$X=X$XP.~ $ q i v r +.h 8 y 3 h *.y 1 ",
"Z Z Z Z Z Z Z G G Z ; # > E :.y.z.n.n.v.v.v.c.x.m.T.T.W.W.W.W.W.W.W.~.Q.(._._.@X$X&X&X&X&X=X*X*X/.^ : q K h h =.h q w r z | h w ",
"G G Z Z Z Z Z Z Z n ; # > J :.y.n.v.v.m.v.v.x.x.N.R.R.W.P.W.~.~.~.~.~.~./.(._.oX@X$X$X*X*X*X*X=X].>.t w w h v H v r 3 3 s +.v h ",
"Z Z Z Z Z Z Z G Z u = = > J y.y.z.N.m.m.v.v.c.x.N.R.R.W.W.P.Q.Q.~.~.~./././.(._.oXoX@X$X*X*X=X=XoX:.u h F 8.@.r v | z z +.v r F ",
"Z Z Z Z Z Z Z Z Z u # # u *.2.d.c.N.v.v.v.v.v.N.B.V.W.W.V.W.Q.Q.Q.Q./././.(.(.(.).#X@X*X*X=X=X=X$XN.*.;.@.+.H r ..K v F F 1 3 H ",
"Z Z Z Z Z Z Z Z i > + # Z -.1.1.l.N.v.v.m.m.v.v.N.N.P.Q.W.W.Q.Q./././.(.(.(.(.(.).oX@X$X=X=X=X=X$XW.U H @.z s K F 3 1 r v r F | ",
"D Z l l Z Z Z i t : + - J :.2.1.l.x.v.v.v.c.c.c.c.B.W.~.~.W.~././.(.(.(.(.(.).(.(.#X$X$X=X=X=X*X*X/.-.+.+.@.F | B 1 1 1 h ..v r ",
"D D Z Z l i u y w q # : L *.2.d.l.v.v.v.v.c.l.y.l.N.Z.W.Q.Q.~./.(.(.(.(.).(.(.(.(.|.$X$X$X*X=X*X*X@XN.=.H =.H K h 8 1 w >.y 1 1 ",
"Z Z Z l u u u i w q - - J ,.1.l.c.c.c.c.l.d.l.l.d.c.V.P.Q.Q.Q.(.(.(.(.(.(.(.(.(.(. X$X$X$X#X&X*X*X=XW.*.| 3.@.h J h q ..K 8 @ @ ",
"Z i i y y y y y w q - q P ,.1.l.c.x.c.l.d.1.1.d.d.c.n.W.~.W.Q./.(.(.(.(.(.Q./.(.(.(.$X$X$X#X#X=X*X&X(.y.@.@.3.+.v i w w y h q 8 ",
"i i i h h y y w y - - u ~ 1.c.x.v.v.l.d.1.1.l.l.1.l.N.P.W.W.P.Q././.(.(.(././.(.(.(.$X*X$X#X#X$X@X#X(.x.@.| ;.;...8 1 8 8 w i u ",
"i h B B D B h w q # # J >.p.v.m.m.N.x.1.1.l.x.l.1.l.N.P.P.~.L.~.~.Q.(._.(././.(.(.#X$X$X@X@X#X#X XoX/.c...;.F ..h q q 1 $ q D e ",
"m D D B B B i w q : u E 2.v.m.T.T.m.v.p.c.c.c.d.d.l.B.P.W.W.P.~.Q.Q./.(.(.Q././.(.oXoXoXoX@X@XoX|.oX/.c.@.@.K h w 1 $ 8 $ w J i ",
"B B h h y h B B y q D *.2.v.m.T.T.V.v.c.v.v.x.l.l.x.V.W.W.W.P.~./././.(.W.P.Q././.oXoXoXoX@X@XoX|.|.Q.=...K q 1 1 w $ $ 1 q i q ",
"D D y y B B B B i t J *.4.c.V.V.V.T.m.v.v.v.v.c.l.N.V.W.W.R.V.P././.Q.~.V.P.Q.(.oX$X@X@X@X@XoX@XoX|.N.%...h 1 w 8 $ 1 $ $ $ q # ",
"F F D h i F B w q q D *.1.l.N.V.V.W.V.v.p.v.x.c.d.x.V.W.W.P.V.Z.W.~.W.N.N.V.Q.(. X$X$X@X$X%X%XoX_.W.>.D h w 1 1 8 8 1 @ $ o + + ",
"F K K K K F B y - q P >.7.c.N.N.V.W.V.v.c.c.l.l.l.c.B.P.H.H.H.N.V.H.n.l.B.P.~.(. X#X$X@X$X#X#X@X/.x.K 8 1 1 q 8 1 8 8 @ o o $ # ",
"K F K K K K D y : i P *.E ^ ,.2.c.N.N.v.l.c.l.l.l.l.n.V.V.N.V.x.d.1.1.x.V.P./.#X X%X@X@X#X|.|.|.B.K 8 q y 8 @ 1 y B m : # # o 8 ",
"K F K K F F h 8 = u m m m G ~ *.,.2.1.2.2.1.l.c.c.c.N.n.n.n.c.d.*.-.d.N.B.Q.(.oX#X%XoXoXoX|.|.~.>.y D ..K h q B K t : u u $ $ $ ",
"F F K K F B y - - u P >.p.n.n.z.^ L L Z ~ -.1.d.d.c.x.c.g.d.,.^ P -.d.N.P./._.oX#X$X@X(./.|./.g.B y w w 8 w J E q + o i B $ $ 1 ",
"F F F F B B y - - L >.p.v.V.H.P.N.~ L Z J G P P *.*.*.,.-.L Z n G P ~ ,.g.P.Q./.|.oXoX_.{./.n.L u D y 1 1 @ : Z # + $ D h 1 8 y ",
"F F F D h y 8 + : P >.p.c.n.H.P.P.7.Z G L D P *.*.*.*.-.-.P n e e G Z Z ~ 2.N.@X~.^././.Q.v.J b t q B y 8 @ @ w q i i B h D w w ",
"F D D B y 8 + + ; J *.2.z.N.B.P.L.g.Z L L *.1.x.B.B.N.c.d.d.^ Z u Z ! ^ d.G.L.L.,.y.P.Q.M.:.J n u 1 1 y y q @ o q q $ 1 8 8 1 1 ",
"F F B i w = X   = J *.1.c.v.V.R.R.b.G ! ,.l.x.N.B.N.N.N.c.7.L L ,.g.N.P.P.L.P.g.! ! B.N.g.^ A Z i q 1 @ $ i q # : w 8 y 1 8 1 8 ",
"K B B y : # # X = P *.p.v.v.m.R.R.g.~ ,.d.b.N.B.B.B.N.N.g.,.! ,.d.b.P.Q.(.(._.oXP.b.b.d.7.^ A Z L w 8 8 $ o - i q 8 8 w 1 8 8 q ",
"B B h q - # # # - P *.1.x.v.V.H.H.y.,.2.g.b.N.N.B.N.x.b.g.,.,.,.d.n.P.Q./.|.{.oXoXb.d.d.,.~ U L ,.L $ $ $ o o o w i 8 8 8 1 8 q ",
"h h y 8 - = = = q K *.1.g.b.P.R.V.2.,.2.g.b.N.N.N.N.x.c.,.,.,.y.g.n.H.Y./.(.|.XXXXN.,.,.^ ~ ~ L ! L $   O # o o $ y y 1 8 w 8 1 ",
"m y q 8 - = = - t K *.2.d.c.H.P.V.:.2.1.d.c.x.x.x.x.c.c.7.,.:.2.y.n.H.Y./.(.|.|./.b.7.~ U L L u P R u # O   o : 1 8 i q 1 1 8 1 ",
"u t q - - - - - y K %.>.l.c.B.P.H.y.2.1.d.l.c.d.d.d.z.g.2.2.-.:.y.n.H.Y.Q./.(.|.Y.M.b.,.P Z n n n R > l q + # 8 1 8 q h h 8 @ @ ",
"i q q q - - - q u K %.>.l.x.v.V.Z.l.2.1.d.1.1.7.1.y.g.d.2.,.-.2.g.n.B.P.Q./.|.|.Y.H.H.b.:.m u C C R u : u u $ 1 8 8 1 8 i B w 1 ",
"e q : : : : : : i P %.>.l.c.v.N.M.d.2.1.2.1.l.g.7.2.2.2.7.,.,.,.g.b.V.H.R./.(./.L.H.H.N.g.E A S S ! L u q y y 1 8 8 8 8 @ 8 h h ",
"> > : > : : : q i P *.>.1.4.x.N.b.,.,.2.2.2.1.g.g.7.d.d.7.,.,.7.b.N.M.H.H.Q./.Q.W.R.H.H.G.j.( ! ! L > : y w h q 1 $ 1 8 - @ 1 w ",
"q : : : : q : q u G ~ *.2.1.c.b.g.,.*.,.,.*.:.d.d.g.d.2.-.! ,.d.N.N.N.B.N.P.Q.Q.~.~.W.L.Y.b.:.~ L Z = # e $ 8 y w 8 1 @ $ q 1 @ ",
"- - - : q q q u n G P -.2.7.c.N.2.P ~ *.*.~ -.2.2.2.2.-.L L ,.d.b.N.N.M.Z.P.L.Q.~.^.(.~.Q.n.:.~ L u : Z u $ $ 1 q y q @ o o 1 8 ",
"# - - ; q q t u m D P *.>.p.c.x.*.P P P P ~ -.2.2.2.:.-.L U ,.2.g.b.b.Z.M.P.P.~.~.^./.(.^.E.i.~ L : B K y $ 8 $ 1 - w i : # @ $ ",
"# - : ; : q q y Z L K *.>.p.c.N.E J P P P ~ *.*.,.:.>.*.! R ^ ,.d.g.N.Z.P.Z.P.Q.~./.~.~.~.K.G./ G w q B w 1 1 1 $ + # > Z e $ @ ",
"= = - # : q q y B K P ..*.1.l.d.J G J J P *.~ -.~ ~ :.~ ~ ! ! -.,.g.N.Z.P.N.P.~.~.~.~.~.~.K.n./ u - 1 1 8 $ 1 $ @ $ o o $ q i 8 ",
"# # = ; : q q y m P E ~ *.2.l.~ G G G L P P P -.^ ~ ~ E E E ~ *.2.1.g.N.Z.N.Z.P.P.W.E.R.R.H.k.R - # 8 1 1 8 $ o o : $ $ $ $ w y ",
"* # # : : q w y n G P -.,.:.*.i Z D D J L P *.-.*.,.:.^ ~ *.:.-.,.,.7.g.b.N.M.P.Z.H.H.F.H.N.d.m # + $ $ $ @ $ = # # $ q @ 1 @ @ ",
"= # $ $ - q q u u Z P ~ E P m i m h B J P ~ *.*.*.*.,.,.*.:.,.-.,.,.7.f.g.N.M.B.H.Z.H.G.S.g.y.m # @ - # o # # + @ - + # - 1 @ @ ",
"= # $ : q e q u u m G L L B i u n i B J P U U *.-.*.,.,.*.,.,.,.,.,.d.d.c.N.N.n.G.M.G.G.S.y.2.Z : @ o : # + + #       + + + + + "
};
