/* XPM */
static char *_948586afca6428c9e77c6dbb65c50a4[] = {
/* columns rows colors chars-per-pixel */
"64 64 193 2 ",
"   c #010101",
".  c #080706",
"X  c #040409",
"o  c #07080D",
"O  c #0B0A0B",
"+  c #090905",
"@  c #110F0D",
"#  c #0B0D12",
"$  c #0C121E",
"%  c #141212",
"&  c #11151C",
"*  c #14181E",
"=  c #1C1A1A",
"-  c #1B1917",
";  c #11100D",
":  c #201D1E",
">  c #26211F",
",  c #0E1521",
"<  c #0F1824",
"1  c #0F1828",
"2  c #101722",
"3  c #121B25",
"4  c #1A1E25",
"5  c #151E29",
"6  c #181F29",
"7  c #16202C",
"8  c #1A232D",
"9  c #1C2631",
"0  c #1E2934",
"q  c #232122",
"w  c #22252C",
"e  c #2D2A2B",
"r  c #282729",
"t  c #332E2E",
"y  c #222730",
"u  c #232B34",
"i  c #2A2E34",
"p  c #252E39",
"a  c #282F38",
"s  c #2D3036",
"d  c #27303A",
"f  c #2C323C",
"g  c #323135",
"h  c #32353C",
"j  c #36393F",
"k  c #3C3A3D",
"l  c #3A3738",
"z  c #333031",
"x  c #403837",
"c  c #433D3D",
"v  c #45403F",
"b  c #2F3640",
"n  c #313740",
"m  c #353A43",
"M  c #3A3D44",
"N  c #3A3F49",
"B  c #413E43",
"V  c #3E4046",
"C  c #3D414A",
"Z  c #444245",
"A  c #4B4545",
"S  c #43444B",
"D  c #48464A",
"F  c #46484E",
"G  c #4C494D",
"H  c #544D4C",
"J  c #564C4A",
"K  c #58504F",
"L  c #464951",
"P  c #4C4D53",
"I  c #524E52",
"U  c #4F5057",
"Y  c #4D5159",
"T  c #545255",
"R  c #5B5454",
"E  c #53545A",
"W  c #5C5759",
"Q  c #5B595D",
"!  c #56585F",
"~  c #645957",
"^  c #635B5C",
"/  c #6A5E5C",
"(  c #625754",
")  c #6D615E",
"_  c #5C5C62",
"`  c #645E60",
"'  c #656165",
"]  c #6C6363",
"[  c #646469",
"{  c #6C696C",
"}  c #696569",
"|  c #716563",
" . c #746866",
".. c #746B6B",
"X. c #7B6E6C",
"o. c #786A67",
"O. c #7D716F",
"+. c #6C6C71",
"@. c #726E72",
"#. c #796F70",
"$. c #747175",
"%. c #7B7272",
"&. c #7A767A",
"*. c #7B797E",
"=. c #737479",
"-. c #80726F",
";. c #827573",
":. c #867875",
">. c #897A76",
",. c #857B7B",
"<. c #8B7D7A",
"1. c #8F817E",
"2. c #91817D",
"3. c #7B7B80",
"4. c #807F83",
"5. c #828184",
"6. c #8D8383",
"7. c #89878B",
"8. c #938583",
"9. c #9B8A86",
"0. c #948B8A",
"q. c #9C8D8A",
"w. c #978885",
"e. c #9E918E",
"r. c #97908F",
"t. c #948F91",
"y. c #959397",
"u. c #9C9393",
"i. c #9C999C",
"p. c #99969A",
"a. c #A08F89",
"s. c #A3928D",
"d. c #A39693",
"f. c #AC9A94",
"g. c #A49B9B",
"h. c #AC9E9A",
"j. c #A89793",
"k. c #ADA19D",
"l. c #B3A49D",
"z. c #ACA4A4",
"x. c #ADA9AC",
"c. c #A6A1A2",
"v. c #B3A6A2",
"b. c #B5ADAC",
"n. c #B9ABA6",
"m. c #BEB1AD",
"M. c #BBB3B3",
"N. c #BBB5B8",
"B. c #C3B4AB",
"V. c #C9B8AE",
"C. c #C2B6B2",
"Z. c #CBBDB6",
"A. c #C5BCBC",
"S. c #CABFBB",
"D. c #C3B9B6",
"F. c #CFC3BE",
"G. c #D0C3BD",
"H. c #C5BFC0",
"J. c #C7C1C1",
"K. c #CCC4C4",
"L. c #CEC7C8",
"P. c #D1C6C3",
"I. c #D3C9C6",
"U. c #D4CCCB",
"Y. c #D9CECC",
"T. c #DBD1CE",
"R. c #DCD3D2",
"E. c #E1D7D5",
"W. c #E1D7D5",
"Q. c #E2D8D7",
"!. c #E3D9D7",
"~. c #E3D9D9",
"^. c #E4DAD9",
"/. c #E5DBDA",
"(. c #E4D9D8",
"). c #E6DCDB",
"_. c #E7DDDB",
"`. c #E7DDDC",
"'. c #E5DDDC",
"]. c #E4DBDA",
"[. c #E8DEDD",
"{. c #E9DFDE",
"}. c #E8DFDE",
"|. c #E9DFDE",
" X c #EAE0DF",
".X c #EAE0DF",
"XX c #EBE1E0",
"oX c #ECE2E1",
"OX c #EDE3E2",
"+X c #EDE3E2",
"@X c #EFE8E7",
"#X c #F2ECEB",
"$X c #F0E8E7",
/* pixels */
"                  . = g.Y.n.R.Q.(.Q.Q.(.Q.W.Q././.Q./././././././././././././././././././././././././././.T.0.q . .             ",
"                  q z./.S.0.L.Q././././.Y.A.R././././././././././././././././././././.)././././././././././.R.g.e O             ",
"                t g.W./.b. .g.I.Q././.W.k.q.P.Q././././././././././././.)./././././.).).).'.{.'.'.'./.).)././.T.r.e .           ",
"              e g.~.).W.g.B R u.R././.P.X.%.D.R././././.).).).)./.)./.{.{.'.).).{.{.{.{.{.{.{.{.{.{.{.{.{./././.R.u.e .         ",
"            q 0.R././.R.,.r g { U./.Q.b.T G &.z.W./.'.'.{.{.{.{.{.{.{.{.{.{.{.{.{.{. X X{.{.{.{.{.{.{.{.{.'.{.'.'.Q.,.= .       ",
"          @ ..U.)././.R.&.w i T J./.R.y.M w i ^ L./.{.{.{.{.{.{.{.{.{.{.{.{.{.{. XXXOXOXXXOXOXOXOXOXOX{.{.{.{.{.{.{.Y.] @       ",
"          e t.R./././.R.&.w u F A./.L.=.i 8 u M b.{.{.{.{.{.{.{.XXXX XXXOXOXOXOXOXOXOXOXOXOXOXOXOXOXOX{.{.{.{.{.{.)./.S.A O     ",
"        % k @.N.~././.W.*.8 9 L L.).N.E 8 8 u j b. X{.'.{.'.'.'.{.{.{.OXOXOXOXOXOXOXOXOXOXOXOXOXOXOXOXXXXXXX X X X{././.z.r     ",
"      % Z D F i.R./.).R.$.8 8 ! R.~.c.m 4 7 y F J.OX)./././.Q.Q.).'.).{.OXOXOXOXOXOXOXOXOXOXOXOXOXOXOXOXOXOXOXOX X{.{.'.Q. .@ . ",
"    . G i.P h @.K./.).Y.Q 8 8 [ ~.R.7.y 5 7 i *.R./.R.I.Y.T.Y.T./.~.W./.OXOXOXOXOXOXXXXXOXOXOXOXOXOXOXOXOXOXOXOXOX X{.{.'.K.v O ",
"    q c.H.' i F z.W.).I.G 4 8 3.'.J._ 8 5 7 Y M.I.D.z.8.u.k.m.Z.I.I.Y.W.{. X{.{.).).Q.~.XXOXOXOXOXOXOXOXOXOXOXOXOXXXOX X{.).c.; ",
"  . T R.U.*.i i 7.R.).L.D 4 u p.'.x.M 3 4 f y.L.z.] X.` ] ..:.q.v.C.F.T.(.~./.R.R.R.I.T.).{.XXOXOXOXOXOXOXOXOXOXOXOXOXOXOX X/.H ",
"  - z.+X/.z.S 8 Q A.).L.S 4 h N.~.t.u 5 8 +.J.A.} h h U L P T ~ X.q.v.Z.P.I.I.I.S.K.m.S.P.I.R./.{.OXOXOXOX+XOXOXOXOXOXOXOXXX{.N.",
"  T '.OX XJ.[ 8 g p.W.K.M 4 S U.R.&.6 4 S x.U.g.V i a C f i M D G ~ :.s.l.e.v.m.d.v.e.d.d.n.M.K.R.{.OXOXOX@X+XOXOXOXOXOXOXXX X/.",
"O z.@XXX{.R.7.s 8 =.R.N.h 5 F R.J.E 3 u 5.U.L.*.f 8 9 d 9 8 y n m k D W  .H ,.6.] @.Q I ^ ,.1.g.D.I.T.W.{.OX+XOXOXOXOXOXOXOXOX{.",
"t '.OX X{.'.z.V 4 L b.y.y 5 N J.b.h 5 _ N.R.b.E 9 7 7 u 8 2 5 9 f f u S F w f h s h i u M ` ' ,.g.h.C.S.R./.OXOXOXOXOXOXOXOXOXXX",
",.@XOXOXOXOXJ.Q 4 4 S M 6 5 u =.+.6 u 7.U.I.6.s 4 2 5 9 5 , , 5 9 9 5 P _ 4 3 2 2 5 4 5 n P T ] %.%.w.j.m.K./.OXOX+XOXOXOXOXOXXX",
"A.+XOXOXOXOXR.@.8 2 2 2 5 8 8 9 8 2 f y.U.M.W 8 3 3 5 8 3 $ $ , 3 5 2 2 2 , , , , 2 2 2 8 i f M S I ] X.8.z.I.Q.OX+XOXOXOXOX X{.",
"M.~.OXOXOXOX~.5.y 5 5 5 5 8 8 8 8 5 f p.P.0.g 3 3 3 5 7 , $ $ $ , 2 < , < , , , , , 2 2 2 5 8 8 y f j T %.8.b.D.R.XX@X@X+XOX X X",
"_ i.U.{.OXOX'.7.f 8 8 7 7 9 8 8 8 8 i 4.z.T 4 2 3 5 5 2 , , < 2 , , , , , , , , , , < 2 2 2 2 4 4 5 8 j D } 1.0.A.R. X+XOXOXXX X",
"g V *.K.{.OX~.5.f 0 9 8 7 9 9 8 8 8 8 P E u 3 2 5 5 3 2 , 2 5 5 2 < , , , , , , 2 2 2 3 5 2 2 3 5 4 5 y i Z ` %.u.C.W.OXOXOXOXOX",
"h s M 5.K.R.N._ u 0 9 8 7 9 9 8 8 8 5 8 8 4 2 5 7 5 2 2 3 8 9 5 2 2 < 2 2 , 2 5 y 8 5 9 8 8 5 5 8 8 8 8 8 u j W %.d.K.).OXOXOXOX",
"_ g i g _ 7.=.h 9 9 8 7 8 9 8 8 8 7 5 8 8 5 5 8 8 5 5 8 0 f f 8 5 5 5 8 8 4 i a m N f f f f i i M f f u 8 8 y M Q %.v.T.{.OXOXOX",
"N.&.F u 8 w 8 8 9 9 8 5 7 7 7 5 5 5 5 8 8 8 9 d 9 8 y f N S S i 8 7 7 8 f h E L P Y E L S S S T ..^ G f 8 7 8 h D R ,.C./.OXOXOX",
"'.K.i.E u 8 8 8 9 9 7 5 3 3 2 2 3 2 3 5 7 8 i h n y h V T T P m 9 8 9 i h Q +._ L F _ E P S P X.6.<.' m 8 5 8 f M A ) k.T. XOXOX",
"@XXXR.x.[ i 9 9 9 9 5 3 2 2 2 2 2 2 2 5 8 y f j P E C T { } Q L a 8 a M L E [ ! f a N L P m Z %.w.q.%.M 8 8 u M D Z H <.C.W.OXOX",
"#X#X@X~.b._ 0 9 9 9 7 5 3 2 2 2 2 2 2 5 8 i M L Q ' } $.&.$.' T C a a C L C h y 8 5 5 y h f M %.w.w.] h 8 9 M Q ^ H A ) s.F. XOX",
"#X#X#X+XR.y.N 8 9 9 8 5 5 2 2 2 2 2 2 8 i N M M M P Q { $.&.{ T N f 9 u f i 4 , , , , 3 4 8 N ' #.] G a 9 u I ,.;.W A R 8.S.(.OX",
"#X#X#X#X@XJ.[ y 8 8 5 5 5 3 3 2 2 2 2 8 f C L L P T P G T _ Q S y 8 2 3 2 3 $ $ , 2 6 $ , 3 8 f M h a u u a P 6.w.| A A ..v.Y.XX",
"#X#X#X#X#X~.7.f 8 5 5 5 5 3 3 3 3 2 3 9 f m C F P S F L L N b i 5 , , $ $ $ $ < 5 u m $ $ , , 2 5 8 0 u p p N O.a.-.J A W e.F.{.",
"#X#X#X#X#XXXp.m 5 5 5 5 5 3 5 5 3 2 2 8 u a n M N C N N m a 8 3 , $ $ $ $ , , 2 9 9 5 , $ $ $ , < 5 9 0 u u f ^ w.:.~ R W <.S.'.",
"#X#X#X#X#X@Xc.C 7 7 5 5 5 3 2 3 5 5 5 7 9 u 8 8 6 8 8 8 5 2 , , $ $ $ $ , 5 2 , 5 9 7 5 < $ $ $ < 5 9 0 0 0 u Z :.2.;.] ~ X.m./.",
"#X#X#X#X#X@Xx.C 7 5 5 5 5 5 3 5 3 3 3 2 2 2 , , , , 2 2 , , , $ $ $ $ $ , , , < < 5 a a 2 , $ , 2 5 5 7 9 0 0 i I  .X.X.]  .s.S.",
"#X#X#X#X#X@Xx.C 7 7 7 7 7 7 7 7 7 3 < , , , , , , , , , , , , , , , , , , , , < 3 9 p 7 2 , , 2 3 5 5 7 9 0 0 i f k W X.o./ w.S.",
"#X#X#X#X#XXXz.C 5 7 7 7 7 7 7 7 7 5 , , $ $ , , , $ $ $ , , , 2 2 < , , , , , < 3 5 5 3 < , 2 2 5 5 7 8 9 0 p d a u h ~ / / 2.Z.",
"#X#X#X#X@XR.i.N 5 7 7 7 7 7 7 7 7 5 < , $ $ , , , , $ $ , , , , 2 5 3 , , < < 1 1 1 1 2 2 2 5 5 5 8 9 9 0 p a f f u i I ..;.q.n.",
"#X#X#X#XXXU.7.f 5 5 7 7 7 7 7 7 5 2 , $ $ $ , , , , , , , , , , , , 2 5 2 < 1 < < < < 3 5 7 9 9 9 9 9 u i f f f f h m T ;.:.f.P.",
"#X#X#X@X~.A.=.u 2 3 5 7 7 7 7 7 5 4 , $ $ $ , , , , , < 2 2 < , $ , , 2 5 2 , , , , 3 9 f j j j i y y y i f n m N f h ^ ;.-.s.G.",
"#X#X#X/.K.u.I 8 2 2 5 5 5 7 7 5 5 8 5 $ $ $ $ , , < 2 5 8 9 9 7 2 , , , 2 8 8 , , 8 C Q ..#.X. .R Z h i i j M M S F U @.<.;.w.Z.",
"#X#X$XW.M.%.g 3 2 < 2 3 5 5 7 5 5 9 5 $ $ $ , , , < 3 5 8 0 a f f i 8 2 , < 7 u S [ 7.0.q.q.9.w.2.X.I h f N S S S S S M H o.<.l.",
"@X#X@XR.b.' w 2 , , , 5 5 5 5 5 5 8 2 $ $ $ , , , , < 5 7 9 0 0 f m n a 8 5 y P @.0.g.h.h.f.j.s.q.:.I s f N F F G G M s c o.w.n.",
"K.@X XR.b._ w , , , , 5 5 3 3 2 5 9 2 $ $ $ $ $ , , , , 3 5 9 u f b f n C L _ ,.8.9.q.j.h.h.f.f.s.;.c w a C U I W ] D i A ,.h.n.",
"&.OX~.A.t.I 8 , , , , 3 3 2 2 < 5 9 2 , $ $ $ $ $ $ , , , < 5 9 f C F P D I &.<.8.s.s.q.q.q.s.j.<.H w 4 8 u m m G X.^ h h ^ q.v.",
"t ).Q.b.%.B 8 , , , , < 2 , , , 3 0 8 < $ $ $ $ $ $ , , , , 2 7 f L ' @.@...%.>.<.9.f.h.j.w.2.w. .g 4 , , 5 8 9 f ] %.D j R ,.h.",
"@ c.R.c.` j 8 2 < , , , , , , , 5 i i 7 , $ $ $ $ $ $ , , , 3 8 f E *.6.6.,.;.>.1.<.8.d.k.f.w.;.G 8 < , , 2 8 0 f ' 0.^ M Z ~ q.",
"+ H J.c.] k w 5 2 2 , , , , , , 5 i a 9 2 $ $ $ $ $ , , 2 7 8 9 f E %.0.u.q.w.<.8.9.9.w.s.h.w. .k 8 3 , , 2 9 a m { k.%.A G ~ 6.",
"  = 0.g. .Z u 7 2 2 , , < , , , 5 i f i 5 $ $ $ $ $ 2 8 0 a f f S ' 6.q.e.q.9.8.<.8.e.9.1.8.2.] g 8 7 < < 5 9 a h  .l.:.R W  .%.",
"  O v 0.^ k 9 7 2 2 , < 2 2 < , 5 a n f 8 , $ $ $ $ < 5 9 u f b h Z ^ ;.8.8.8.>.%.:.8.8.>.X.%.` j 8 7 3 3 5 9 f G 6.B.>.R W ..l ",
"  . - ] ] j 9 7 2 < , < 2 2 < < 5 i n n 8 , $ $ $ $ , 3 9 a b n n Z R ..:.,.O.| | ;.>.>.,.O.] T N u 5 5 5 7 y Z  .l.B.2./ ~ R @ ",
"    + e W M y 7 2 < < 2 2 2 < , 5 u f n y , $ $ $ $ $ 2 7 0 u u f m G ~  .X.X.] / |  .X...] W Z M f 9 0 u f Z  .f.Z.v.;.|  .r . ",
"      % g M i 8 5 , < 2 2 2 2 2 5 u n N i 4 $ $ $ $ $ , , 2 3 5 8 y g Z ~ ..;.;.| K c Z G Z B m h f i f M G ..s.B.Z.l.;./ x O . ",
"      X # w y 8 5 2 < 2 2 2 3 5 8 u f C f 8 < $ $ $ $ $ $ , , < 3 5 8 j H ] X.:.-.| J c k k j h h h h M I ..w.v.V.B.q.X.J - O . ",
"        X $ 8 8 5 2 < 2 2 3 5 7 0 a f n f 8 2 , $ $ $ $ $ $ , , , 2 4 y M R ..:.<.:.:.X.] R A Z c k Z H / <.j.n.B.l.2.~ > . .   ",
"          o & 4 3 2 2 2 2 3 5 8 0 d f n n 8 < , , $ $ , $ $ $ , , , , 4 y M ~ ;.2.w.9.9.w.<.;.O. ./ ~ | :.q.j.f.s.<.| t O       ",
"          X o $ 3 2 2 2 2 3 7 9 0 p f M C u 2 , , , , , $ $ $ $ $ , , , 3 w B ] :.w.q.s.s.s.s.s.s.s.a.f.f.<. .| ) | c @ .       ",
"            . o & 2 3 3 3 5 8 8 9 u n S C a 4 , , 2 2 2 , $ $ $ $ , , , , 3 8 h A ] -.<.<.w.q.s.f.f.s.w.( x x A J c % .         ",
"              X # $ 2 3 5 7 7 8 u f C L L b 8 5 3 5 7 5 2 , , , , , , , , , 3 4 w e c K ( ~ | X.:.~ x l e t c R J = . X         ",
"                . o & 2 5 5 7 9 f f h f m n 9 7 8 9 9 8 5 3 < , , , , , , , 2 2 3 2 4 w u i i i i 4 4 q g A ~ A - .             ",
"                  . o $ 4 5 8 y f m N m h n f 9 u u 0 0 9 8 5 5 2 2 2 2 < 2 5 5 5 2 2 2 4 4 4 4 4 5 4 i B ^ k O                 ",
"                  X X o & 8 a y i m C S C C N f f f f f a u 9 8 7 8 7 5 5 5 7 8 7 5 2 2 3 4 4 4 5 8 f L k : O .                 ",
"                      X X $ y 8 u n C N S L S m b n n b f a u 0 9 9 0 9 8 7 8 9 7 5 3 3 4 5 5 5 8 y g w O . X                   ",
"                          X # * u m M m C P P C m m M m b f a p u u a p 0 8 8 8 5 4 4 5 7 8 8 8 5 4 * o .                       ",
"                            X o * h S M M P E S N N M M m b f p u u a a p 9 8 5 4 5 7 8 8 9 9 8 * # o X .                       ",
"                                X O 4 h G E T L N M m h f f f f i y u u u 9 8 5 4 7 8 8 8 8 4 $ o X X                           "
};
