/* XPM */
static char *_d6bc47c2d4647939340d5ce175e015b[] = {
/* columns rows colors chars-per-pixel */
"64 64 248 2 ",
"   c #030303",
".  c #0A0304",
"X  c #030A07",
"o  c #04050A",
"O  c #0B050A",
"+  c #0C0B0B",
"@  c #070A07",
"#  c #140B03",
"$  c #160A06",
"%  c #19130A",
"&  c #140E11",
"*  c #091714",
"=  c #1A1817",
"-  c #090E10",
";  c #25180A",
":  c #341D08",
">  c #251914",
",  c #281108",
"<  c #1B221B",
"1  c #0E211A",
"2  c #2C2519",
"3  c #362915",
"4  c #3D2F13",
"5  c #1D1922",
"6  c #2A1D28",
"7  c #1A312C",
"8  c #282928",
"9  c #302B2A",
"0  c #383528",
"q  c #393436",
"w  c #2B2E31",
"e  c #43270A",
"r  c #462B15",
"t  c #463419",
"y  c #53361E",
"u  c #55330E",
"i  c #673A14",
"p  c #483924",
"a  c #463D3C",
"s  c #5A3220",
"d  c #522C12",
"f  c #324139",
"g  c #58431D",
"h  c #694919",
"j  c #4C422B",
"k  c #594827",
"l  c #514A36",
"z  c #664927",
"x  c #784C24",
"c  c #74592B",
"v  c #675939",
"b  c #745935",
"n  c #695231",
"m  c #77673C",
"M  c #70662E",
"N  c #3C3A41",
"B  c #453D47",
"V  c #39504A",
"C  c #3C6F58",
"Z  c #565558",
"A  c #504D4C",
"S  c #665B45",
"D  c #6E5F55",
"F  c #7C6746",
"G  c #746D4E",
"H  c #5E5964",
"J  c #656666",
"K  c #787879",
"L  c #71716F",
"P  c #586A65",
"I  c #8C5B35",
"U  c #866A37",
"Y  c #926C33",
"T  c #AC783B",
"R  c #8A6746",
"E  c #87784A",
"W  c #987D54",
"Q  c #956F48",
"!  c #A6754B",
"~  c #BA7848",
"^  c #A97854",
"/  c #B57A54",
"(  c #AC6D46",
")  c #88786C",
"_  c #B76F6F",
"`  c #885F48",
"'  c #C37D48",
"]  c #DA5769",
"[  c #C96873",
"{  c #E35568",
"}  c #578474",
"|  c #728A7E",
" . c #A9853A",
".. c #9D8446",
"X. c #998A59",
"o. c #8E8152",
"O. c #A88749",
"+. c #B9854C",
"@. c #A68A55",
"#. c #AB9559",
"$. c #B89156",
"%. c #938572",
"&. c #A6876C",
"*. c #B98E68",
"=. c #AA9666",
"-. c #B89869",
";. c #BA9775",
":. c #AD9575",
">. c #B8A566",
",. c #B8A573",
"<. c #B3A753",
"1. c #C88A59",
"2. c #D68E54",
"3. c #CB975A",
"4. c #D79557",
"5. c #CA914B",
"6. c #E49B5C",
"7. c #EB974F",
"8. c #CBA25B",
"9. c #D1AC50",
"0. c #EBAA5B",
"q. c #E8A857",
"w. c #F2A95C",
"e. c #ECB759",
"r. c #ECAF4F",
"t. c #CB9967",
"y. c #D99866",
"u. c #C49876",
"i. c #CF8F64",
"p. c #E49B63",
"a. c #C7AA69",
"s. c #D9A466",
"d. c #C7B46A",
"f. c #C4AD79",
"g. c #C9B777",
"h. c #D5BA79",
"j. c #D9B56D",
"k. c #E5AB63",
"l. c #EBA767",
"z. c #F2A562",
"x. c #F1A967",
"c. c #E6B566",
"v. c #E3AA74",
"b. c #EBB86D",
"n. c #F5CA59",
"m. c #EED45D",
"M. c #F4D455",
"N. c #F9D455",
"B. c #F4D45C",
"V. c #F9D35C",
"C. c #F2D858",
"Z. c #EBC65B",
"A. c #DBC57C",
"S. c #D9C46C",
"D. c #ECC76A",
"F. c #F9CD64",
"G. c #F3CE6C",
"H. c #F4CB64",
"J. c #EED363",
"K. c #EDD36A",
"L. c #EBD86E",
"P. c #F4D363",
"I. c #F9D262",
"U. c #F3D36B",
"Y. c #F7D569",
"T. c #E4CC7C",
"R. c #E9CB77",
"E. c #F4CC73",
"W. c #EDD373",
"Q. c #ECD37B",
"!. c #E8D67B",
"~. c #F3D474",
"^. c #F2D37A",
"/. c #F3D879",
"(. c #7D7F87",
"). c #857F8B",
"_. c #CF7E87",
"`. c #679588",
"'. c #5C9B86",
"]. c #868686",
"[. c #968D92",
"{. c #AA978D",
"}. c #B9A996",
"|. c #A39AA3",
" X c #A7A4A8",
".X c #B9B8BA",
"XX c #B1B0AF",
"oX c #8E9F9C",
"OX c #D48E95",
"+X c #CFB48F",
"@X c #D1B5AD",
"#X c #D8A9A3",
"$X c #AFC4BA",
"%X c #DBC584",
"&X c #D7C595",
"*X c #E4CB84",
"=X c #ECD186",
"-X c #D7C8B3",
";X c #E6CCB8",
":X c #E6D8BB",
">X c #E1C3AB",
",X c #BAB5C4",
"<X c #C3BCCD",
"1X c #E3BFC4",
"2X c #98DBC5",
"3X c #A6DECD",
"4X c #95EFD1",
"5X c #A4E7D2",
"6X c #CBCCCC",
"7X c #C4C3C7",
"8X c #DED8CB",
"9X c #C9C8D4",
"0X c #D7CADA",
"qX c #DAD9D8",
"wX c #D9CBC2",
"eX c #E9D7CB",
"rX c #E8D8D9",
"tX c #F4D5D3",
"yX c #E9E6D9",
"uX c #F5E8DA",
"iX c #F4EBD2",
"pX c #DBCDE3",
"aX c #D9CAE9",
"sX c #D9D3E4",
"dX c #E3DAE8",
"fX c #E5D4ED",
"gX c #ECECED",
"hX c #E7E6E7",
"jX c #F7EBE6",
"kX c #FBF4EC",
"lX c #FCFAEC",
"zX c #F8F3E6",
"xX c #EBE9F2",
"cX c #F6EBF4",
"vX c #F4F4F4",
"bX c #FCF4F4",
"nX c #F5FAF4",
"mX c #FCFBF5",
"MX c #F5F6F9",
"NX c #FCF7FB",
"BX c #F5FCFC",
"VX c #FDFDFD",
"CX c white",
"ZX c #FEFEFE",
"AX c #FEFDFE",
"SX c #FEFEFE",
"DX c #EDF6F3",
"FX c #DDE4E4",
/* pixels */
"CXCXCXCXCXCXCXCXCXCXCXCXCXCXCXCXCXCXCXCXCXCXCXCXCXCXCXCXCXCXCXCXCXCXCXCXCXCXCXCXCXCXCXCXCXCXCXCXCXCXCXCXCXCXCXCXCXCXCXCXCXCXCXCX",
"CXCXCXCXCXCXCXCXCXCXCXCXCXCXCXCXCXCXCXCXCXCXCXCXCXCXCXCXCXCXCXCXCXCXCXCXCXCXCXCXCXCXCXCXCXCXCXCXCXCXCXCXCXCXCXCXCXCXCXCXCXCXCXCX",
"CXCXCXCXCXCXCXCXCXCXCXCXCXCXCXCXCXCXCXCXVXVXVXCXCXCXCXCXCXCXCXCXCXCXCXVXCXCXCXCXCXCXCXCXCXCXCXCXCXCXCXCXCXCXCXCXCXCXCXCXCXCXCXCX",
"CXCXCXCXCXCXCXCXCXCXCXCXCXCXCXCXCXCXCXVXVXvXVXgXgXgXgXqX6X6X6XqXhXvXVXVXVXCXCXCXCXCXCXCXCXCXCXCXCXCXCXCXCXCXCXCXCXCXCXCXCXCXCXCX",
"CXCXCXCXCXCXCXCXCXCXCXCXCXCXCXCXCXCXCXVXhX XA 8 = = = + @ @ @ & = w J  XhXvXCXCXCXCXCXCXCXCXCXCXCXCXCXCXCXCXCXCXCXCXCXCXCXCXCXCX",
"CXCXCXCXCXCXCXCXCXCXCXCXVXVXVXNXnXvX.XZ = + $ 2 j v E @.>.>.-.@.W v p % = N ].qXvXMXNXCXCXCXCXCXCXCXCXCXCXCXCXCXCXCXCXCXCXCXCXCX",
"CXCXCXCXCXCXCXCXCXCXCXCXVXVXVXVX8XJ > k X.,.d.A.T.R.^.U.U.U.U.U.W.!.A.g.E j % 8 ].yXnXCXCXCXCXCXCXCXCXCXCXCXCXCXCXCXCXCXCXCXCXCX",
"CXCXCXCXCXCXCXCXCXCXCXVXVXBXnXXXt R h.Q.J.B.C.C.B.V.I.V.V.V.V.V.V.B.P.K.W.!.g.S % 0 $XVXVXCXCXCXCXCXCXCXCXCXCXCXCXCXCXCXCXCXCXCX",
"CXCXCXCXCXCXCXCXCXCXVXVXBXDXG F A.Q.U.B.N.N.B.V.V.I.I.I.I.I.I.I.V.V.I.P.P.M.B.!.}.p % K VXVXCXCXCXCXCXCXCXCXCXCXCXCXCXCXCXCXCXCX",
"CXCXCXCXCXCXCXCXCXCXCXNXhXD o.=XY.P.V.B.P.P.P.P.P.m.B.I.I.I.I.I.B.B.V.V.V.I.V.B.U.*XF + J vXCXCXCXCXCXCXCXCXCXCXCXCXCXCXCXCXCXCX",
"CXCXCXCXCXCXCXCXCXCXmXgXJ E Q.U.B.B.B.B.B.P.B.B.B.B.B.B.B.B.B.B.B.B.B.B.B.P.B.N.I.U.T.F $ L xXVXCXCXCXCXCXNXVXVXVXCXNXCXCXCXNXVX",
"CXCXCXCXCXCXCXCXCXVXmX%.v =XB.P.B.B.B.B.B.B.B.B.B.B.B.B.B.B.B.B.B.B.B.B.B.B.B.I.I.Y.K.!.E # ].MXCXCXCXCXCXCXCXVXVXBXVXVXVXVXCXCX",
"CXCXCXCXCXCXCXCXCXVX.X3 A.B.N.V.P.P.P.P.P.P.B.B.B.B.B.B.B.B.B.B.B.B.B.B.B.N.V.V.V.N.N.P.T.v %  XVXCXCXCXCXVXNXVXmXVXBXVXBXVXCXCX",
"CXCXCXCXCXCXCXCXVXgXq X.K.M.N.N.P.P.P.P.P.B.B.B.B.B.B.B.B.B.B.B.B.B.B.B.B.N.V.P.P.B.B.B.P.T.k 6 6XVXVXCXCXNXrX#XtXjXtXcXNXVXVXCX",
"CXCXCXCXCXCXCXCXVX[.0 A.m.P.P.M.B.B.B.B.B.B.B.B.B.B.B.B.B.B.B.B.B.B.B.B.B.U.T.g.g.A.^.P.V.Y.h.3 A gXVXCXCXNX@X[ [ OX_ #XNXCXVXCX",
"CXCXCXCXCXCXVXVXhX> X.L.m.P.Y.P.B.B.M.B.B.n.V.B.B.M.N.V.I.P.P.P.B.V.N.B.W.g.v S 2 % S g.K.B.^.=.# XXVXmXNXNXtX[ { { [ OXkXVXCXCX",
"CXCXCXCXCXNXVXBX[.3 =XJ.P.B.P.I.B.B.B.Y.^.Q.^.Q.W.U.I.N.V.V.B.B.N.V.V.J.d.%.rXcXhX|.8 ; ..~.~.Q.p q BXmXNXVXcXOX] ] _ eXlXmXNXCX",
"CXCXCXCXCXNXCXvX9 F /.P.B.C.B.P.B.Y.R.g.W v l S E f.=XY.P.B.N.N.N.I.P.W.X.0XfXaXaXxXdXJ % W Q.Y.X.& 6XmXVXVXNXtX_._ #XzXnXVXNXNX",
"CXCXCXCXCXCXVX6X# >.Y.B.B.B.J.K.R.>.n ; > B H Z 9 , v a.Q.Y.B.N.M.P.~.>.}.aXaXaXpXpXsXxXL , #.W.A., ].VXmXNXVXmXtX1XkXmXBXVXNXCX",
"CXCXCXCXCXVXVX].> *XM.N.B.Y.W.h.v % 9 [.pXdXsXdXsX[.9 = o.!.U.B.M.Y.R.m 0XaX,X[.[.,X0XsXxXq 3 %X!.t q vXVXNXVXBXbXNXVXVXBXVXVXBX",
"CXCXCXCXCXVXMXa j Q.M.M.I.^.+X4 < |.xXfXaX0X0XsXpXpX0XH % m T.J.M.L.d.) 9XZ * X   & Z 7XsX9X= G !.E & hXmXVXVXBXVXBXBXCXVXCXCXBX",
"CXCXCXCXCXVXMX> F ^.B.B.F.*Xt w 7XcXfXaXaXpX0X,X,X0X0X0X].% v Q.J.K.m {.A + X X X     N 9XdXJ > A.>.@ 9XmXvX0XcXcXVXVXCXCXCXCXCX",
"CXCXCXCXCXVXgX$ o.~.B.P.^.U > 7XcXfXaXaXaX|.B 5 5 8 N (.7XK > X.W.R.g J - X X         @ H sX<X$ =.+X#  XnXkX|.@X@XbXVXCXCXCXCXCX",
"CXCXCXCXCXVXhX% #.U.V.Y.h.: ].MXdXpXaX<XB - O O     o o V ,XZ ; +Xh.: = V 7 P V X X X   + XXcX9 F &X$ [.mXmXrX{.rXbXVXCXCXCXCXCX",
"CXCXCXCXCXCXyX; #.Y.V.H.@.p gXhX0XsXXX< - w < X     . O   8  X= m +X# 7 3X4X5XoXX X   o O J bXa z &X, [.nXnXVXbXNXVXBXCXCXCXCXCX",
"CXCXCXCXCXCXhX: $.U.B.Y.c {.cX0XpX9X$X} C 3X`.X .   . O . O H D ; :.# * `.5X2XV X   o o o 8 gXl z *Xe {.VXVXCXCXVXVXVXCXCXCXCXCX",
"CXCXCXCXCXCXjXy O.U.I.D.c 8XdXpXaXK 5X4X4X4X| @ .         . =  X@ L # O 1 P f w * X       + rXj b +Xd XXVXCXCXCXCXCXCXCXCXCXCXCX",
"CXCXCXCXCXVXzXn Y Y.B.R.U jXpXpX].* '.4X4X2X7 X .           O |.= Z O .   X + K A   o       @X4 ! a.u wXnXVXCXCXCXCXCXCXCXCXCXCX",
"CXCXCXCXCXVXkX) Y H.V.^.W kXsX9X6 o * } `.7 1 J = O       . . |.= H O .   O . & O   X o X @ %.r t.O.n jXmXVXCXCXCXCXCXCXCXCXCXCX",
"CXCXCXCXCXVXVX@XI e.V.U.@.zXxX[.O     X o X w .X<   .     . . [.> ) &             . . 5 L # t z v.Y &.NXCXVXCXCXCXCXCXCXCXCXCXCX",
"CXCXCXCXCXVXNXtXR 5.B.G.#.iXbXK o       . . @ 8 X         o . ) , {.2 .     X X       < Z % r ^ y.Y -XNXNXCXCXCXCXCXCXCXCXCXCXCX",
"CXCXCXCXCXCXNXbX&.T F.Y.a.@XbXA o                       o o > S s f.b $   .             # 3 x l.~ W zXVXCXCXCXCXCXCXCXCXCXCXCXCX",
"CXCXCXCXCXVXCXmX>X( q.F.b.W uXA .                   X * = . t e / v.*., .         .   # : i 1.6.! @XmXVXVXCXCXCXCXCXCXCXCXCXCXCX",
"CXCXCXCXCXVXVXmXzXu.+.e.b.$.:.) $ .                 X | | % : I w.x.v.z $ o   . . . % : i ' p.' ;.uXVXCXVXCXCXCXCXCXCXCXCXCXCXCX",
"CXCXCXCXCXNXVXBXlX:X/ 2.q.k.Y R : #                   f 9 : I v.w.z.0.8.y # # $ , , r i ~ 6.1.+.eXkXVXCXVXVXCXCXCXCXCXCXCXCXCXCX",
"CXCXCXCXCXVXVXnXnXzX#X~ 6.w.s.I y ; #               . $ : R v.x.w.x.w.r.s.F r e r s I 1.6.2./ @XlXmXNXCXmXVXCXCXCXCXCXCXCXCXCXCX",
"CXCXCXCXCXCXCXCXCXVXjXu.~ 7.z.2.( u : % & # . @ + # , k a.c.0.q.w.w.q.e.E.E.D.s.+.2.6.2.2.~ #XkXVXVXVXVXVXCXCXCXCXCXCXCXCXCXCXCX",
"CXCXCXCXCXCXCXCXCXVXVXuXu.' p.p.2.+.Q c y : e 4 k E a.T.~.P.e.e.e.e.n.F.I.V.V.D.k.p.6.' / #XzXVXVXVXCXCXCXCXCXCXCXCXCXCXCXCXCXCX",
"CXCXCXCXCXCXCXCXVXCXVXNXeXu.~ p.6.2.2.3.3.+.t.s.b.G.P.B.B.B.B.P.V.V.B.B.B.M.V.H.k.1.( ^ >XkXVXBXCXCXVXCXCXCXCXCXCXCXCXCXCXCXCXCX",
"CXCXCXCXCXCXCXCXCXVXVXkXkXtX;.! 1.4.6.4.4.6.6.z.q.r.N.V.B.B.B.C.C.m.B.m.P.G.G.c.T R &.eXbXVXBXVXVXVXmXmXVXCXCXCXCXCXCXCXCXCXCXCX",
"CXCXCXCXCXCXCXCXVXmXyX>X:XuXuX@XQ Y ( p.l.x.z.z.0.e.I.B.P.P.B.Z.Y.P.U.G.G.8.Y h R @XjXbXVXBXmXmXlXyX8XyXmXVXCXCXCXCXCXCXCXCXCXCX",
"CXCXCXCXCXVXVXCXnX@Xu.l.y.u.>XkXyX{.` x I ( 2.b.E.E.U.U.U.G.G.W.R.j.$.Y h g F }.jXVXNXCXCXVXbXeX;.t.y.;.@XmXCXCXCXCXCXCXCXCXCXCX",
"CXCXCXCXCXVXNXNXzX{.v.w.z.v.*.;XnXkXeX}.R z u x U ..O.O...Y U c k t t v %.@XuXkXmXnXVXCXCXmXiX*.s.x.q.v.=.kXCXCXCXCXCXCXCXCXCXCX",
"CXCXCXCXCXVXNXNXnX;Xi.w.w.q.v.;.mXVXnXmXmXyXXX) S k p p t 0 p S L }.8XvXNXNXVXVXVXVXVXBXVXkX+Xs.z.w.w.t.+XmXCXCXCXCXCXCXCXCXCXCX",
"CXCXCXCXCXCXNXNXVXzXu.k.w.r.k.! kXVXBXBXVXVXVXmXnXkXjXjXgXgXvXVXkXmXmXmXVXCXCXVXVXVXVXVXVXkX@.l.z.z.l.^ jXVXCXCXCXCXCXCXCXCXCXCX",
"CXCXCXCXCXmXVXCXDXnX-X*.k.r.k...zXlXnXmXVXVXVXVXVXmXmXmXVXVXVXVXVXVXVXVXVXmXmXmXmXVXVXNXVXzX^ l.w.0.8.:.nXVXCXCXCXCXCXCXCXCXCXCX",
"CXCXCXCXCXNXmXmXBXVXuXQ k.r.c.$.&XiXzXlXzXuXuXuXuXzXzXkXmXmXnXBXBXVXnXlXlXlXlXlXlXlXlXmXmX:XO.0.q.b.O.:XlXVXCXCXCXCXCXCXCXCXCXCX",
"CXCXCXCXCXNXmXmXBXNX:X! E.n.Z.R.<.>.,.=.#.=.-.#.@.@.=.:.+X-XzXkXuX@X+X;.-.=.=.,.-.=.,.+X+X#.S.H.n.E...-XnXVXCXCXCXCXCXCXCXCXCXCX",
"CXCXCXCXCXCXVXmXVXhXp A.K.M.Z.P.P.U.U.U.P.Y.P.I.H.D.k.k.3./ u.#X^ 1.y.l.k.c.G.E.U.~.Y.~.W.L.J.V.V.Y.T.4 FXBXCXCXCXCXCXCXCXCXCXCX",
"CXCXCXCXCXCXCXVXNX[.b W.J.C.B.P.V.V.N.N.N.V.V.n.n.e.0.w.l.v.( ^ y.x.z.z.w.e.e.F.V.V.V.B.B.B.B.C.M.B.W.m K BXCXCXCXCXCXCXCXCXCXCX",
"CXCXCXCXCXCXCXVXcXa #.U.P.B.P.F.P.B.B.B.P.U.U.H.D.c.l.z.l.p.~ ~ q.z.z.z.k.c.e.F.P.B.B.P.P.B.B.P.B.V.U.f.9 MXCXCXCXCXCXCXCXCXCXCX",
"CXCXCXCXCXCXVXVXxX; h.Y.B.Y.Y.V.P.B.M.P.D. . . .+.$.$.$.-.;.;X;X*.3.y.i.4.3.3.3.5.D.Y.P.B.B.B.B.B.V.Y.%X% qXVXVXCXCXCXCXCXCXCXCX",
"CXCXCXCXCXCXVXVXqX% +XP.B.P.P.B.P.B.M.P.G.j.8.T Y >XeXeXuXkXVXVXuX:X;X;X&XO.Y  .9.Z.P.B.B.B.B.B.V.N.B.*X; .XVXCXCXCXCXCXCXCXCXCX",
"CXCXCXCXCXNXVXVXdX% ,.Y.N.V.P.C.P.B.B.B.Y.G.U.K.d.F zXNXNXCXVXVXBXnXmXzX=.$.E.G.P.P.B.B.B.B.B.B.F.N.C.A.% .XVXVXCXCXCXCXCXCXCXCX",
"CXCXCXCXCXCXVXmXMX9 n R.P.V.P.C.B.B.B.B.P.B.M.B.W.M 8XNXVXmXmXmXCXmXmXuXU D.U.P.B.B.B.B.B.B.B.B.V.P.~.X.= hXVXCXCXCXCXCXCXCXCXCX",
"CXCXCXCXCXNXVXmXBX.X= X.W.I.B.M.B.B.B.B.C.P.P.n.W.c eXVXVXVXmXmXNXVXVXuXU D.P.P.B.B.B.B.B.B.B.B.N.~.f.; ].VXVXCXCXCXCXCXCXCXCXCX",
"CXCXCXCXCXCXCXVXVXVX7X2 =.T.Y.M.C.V.V.F.F.m.B.F.R.z jXVXVXCXCXCXNXVXBXzXb c.P.B.M.P.P.F.V.V.V.P.R.g.3 ].bXCXCXCXCXCXCXCXCXCXCXCX",
"CXCXCXCXCXCXCXCXCXVXVX X; E *X^.U.B.V.V.I.B.B.~.@.G nXCXCXCXCXCXVXCXVXmX%.O.G.B.M.M.V.M.M.C.J.W.,.3 L vXVXVXCXCXCXCXCXCXCXCXCXCX",
"CXCXCXCXCXCXCXCXCXCXVXvX].; j :.T.W.P.B.C.K.Q.h.k -XBXCXCXCXCXCXmXVXVXVXeXg h.~.B.V.M.B.J.!.g.F ; A hXBXBXCXCXCXCXCXCXCXCXCXCXCX",
"CXCXCXCXCXCXCXCXCXCXCXMXvX7Xa # 4 X.A.A.S.g.X.t XXnXVXCXCXCXCXCXmXVXVXVXmX}.p =.%XT.T.*X,.v % = ].gXBXVXVXCXCXCXCXCXCXCXCXCXCXCX",
"CXCXCXCXCXCXCXCXCXCXCXbXVXMXxX,XZ % % 2 0 A [.rXNXvXVXCXCXCXCXCXCXCXVXmXmXmXqXK q 0 2 2 % 8 ].qXVXVXVXNXCXCXCXCXCXCXCXCXCXCXCXCX",
"CXCXCXCXCXCXCXCXCXCXVXVXVXVXVXBXMXqX0XhXvXMXVXVXVXCXVXCXCXCXCXCXCXCXVXVXVXVXVXVXgXhX6X.XXXhXVXnXVXVXVXCXCXCXCXCXCXCXCXCXCXCXCXCX",
"CXCXCXCXCXCXCXCXCXCXCXCXCXCXVXVXCXCXCXCXCXCXCXCXCXCXCXCXCXCXCXCXCXCXCXCXCXCXCXCXVXCXCXVXVXCXCXCXCXCXCXCXCXCXCXCXCXCXCXCXCXCXCXCX",
"CXCXCXCXCXCXCXCXCXCXCXCXCXCXVXCXVXCXCXNXVXCXCXCXCXCXCXCXCXCXCXCXCXCXCXCXCXCXCXCXCXCXCXCXCXVXCXCXCXCXCXCXCXCXCXCXCXCXCXCXCXCXCXCX"
};
