/* XPM */
static char *_8ac022617944653ba3aee5f4de269ba[] = {
/* columns rows colors chars-per-pixel */
"64 64 238 2 ",
"   c #6D3E16",
".  c #723D18",
"X  c #6C4216",
"o  c #6C4419",
"O  c #744419",
"+  c #7C4B1D",
"@  c #76471A",
"#  c #7D531E",
"$  c #7B5823",
"%  c #7B4B20",
"&  c #804C1E",
"*  c #85561F",
"=  c #8B5C22",
"-  c #875723",
";  c #985D25",
":  c #824E21",
">  c #A05F24",
",  c #8A6528",
"<  c #97672B",
"1  c #9A732D",
"2  c #9C7232",
"3  c #986D32",
"4  c #A76829",
"5  c #BD742E",
"6  c #B7782E",
"7  c #A87935",
"8  c #BB7532",
"9  c #BC7932",
"0  c #B67937",
"q  c #AC6E2F",
"w  c #C57B2E",
"e  c #CA7D2F",
"r  c #C0772F",
"t  c #C57C32",
"y  c #CA7C31",
"u  c #C17530",
"i  c #B47C43",
"p  c #AB8137",
"a  c #BD8A3C",
"s  c #B98338",
"d  c #BB8936",
"f  c #C58333",
"g  c #CD8332",
"h  c #CC8D35",
"j  c #C68A3A",
"k  c #D28533",
"l  c #D38C35",
"z  c #D98F36",
"x  c #D68A39",
"c  c #CC923A",
"v  c #D59136",
"b  c #DA9236",
"n  c #D3943B",
"m  c #DC9539",
"M  c #DC9A3B",
"N  c #D4993B",
"B  c #C8822F",
"V  c #E2963A",
"C  c #E39C3C",
"Z  c #E99D3B",
"A  c #D8A13D",
"S  c #E5A23D",
"D  c #EAA43E",
"F  c #ECA93F",
"G  c #E7A83F",
"H  c #B98647",
"J  c #BD9448",
"K  c #BC8B58",
"L  c #BE945B",
"P  c #BE9060",
"I  c #BCA448",
"U  c #C38B46",
"Y  c #C49443",
"T  c #CA9B47",
"R  c #D49B42",
"E  c #D69947",
"W  c #C69557",
"Q  c #D89C59",
"!  c #CA8D4E",
"~  c #E29B44",
"^  c #CCA24A",
"/  c #CCA84A",
"(  c #DCA343",
")  c #DBA44A",
"_  c #D6A649",
"`  c #D9B24B",
"'  c #C9A855",
"]  c #DAA753",
"[  c #DAB857",
"{  c #CFB456",
"}  c #E5A341",
"|  c #ECA641",
" . c #E4AB44",
".. c #EDAB42",
"X. c #E3AB4D",
"o. c #ECAE49",
"O. c #E1A64B",
"+. c #F0AD43",
"@. c #F2AE48",
"#. c #EEB245",
"$. c #ECB44B",
"%. c #EDBC4B",
"&. c #E6B24B",
"*. c #F1B445",
"=. c #F2B649",
"-. c #F2BA4C",
";. c #F1B847",
":. c #E3AC55",
">. c #E4B452",
",. c #E4BD54",
"<. c #EDBB53",
"1. c #E8B858",
"2. c #F2BD52",
"3. c #F2BC5A",
"4. c #C69867",
"5. c #C89D72",
"6. c #DAA668",
"7. c #D9BB62",
"8. c #CAA579",
"9. c #D9AB76",
"0. c #DEB477",
"q. c #C6A16A",
"w. c #E3B977",
"e. c #E4B465",
"r. c #EEC14B",
"t. c #F1C14E",
"y. c #F2C84F",
"u. c #EDC254",
"i. c #EEC25B",
"p. c #EBC958",
"a. c #F3C454",
"s. c #F4CC54",
"d. c #F3C45A",
"f. c #F3CB5B",
"g. c #F5D554",
"h. c #F6DB55",
"j. c #F8DD56",
"k. c #F5D35B",
"l. c #F6DB5B",
"z. c #F8D356",
"x. c #F6E45B",
"c. c #F8E25A",
"v. c #F9E95E",
"b. c #F7EA5E",
"n. c #DAC064",
"m. c #EAC865",
"M. c #F5CD62",
"N. c #F1CD6C",
"B. c #F6CB61",
"V. c #EDDA68",
"C. c #F5D265",
"Z. c #F5DB64",
"A. c #F5D469",
"S. c #F3DB6C",
"D. c #F8D86D",
"F. c #F5DC73",
"G. c #F4D777",
"H. c #EFD179",
"J. c #FAED62",
"K. c #FAEE6A",
"L. c #F6E667",
"P. c #FAF164",
"I. c #FBF16D",
"U. c #F9E473",
"Y. c #FAED7C",
"T. c #F7E577",
"R. c #FCF273",
"E. c #FBF37B",
"W. c #D1AD88",
"Q. c #DAB789",
"!. c #D9BA95",
"~. c #E4BE8A",
"^. c #DBC399",
"/. c #E8C887",
"(. c #E5C998",
"). c #EED596",
"_. c #F2DA97",
"`. c #EDD38B",
"'. c #F6E382",
"]. c #FAEB8C",
"[. c #F9E888",
"{. c #FCF582",
"}. c #FCF48B",
"|. c #F9EC97",
" X c #FBF593",
".X c #FBF59B",
"XX c #FBF89A",
"oX c #DFC4A9",
"OX c #E7CBA8",
"+X c #EDD4AA",
"@X c #F1DAA6",
"#X c #E2CCB3",
"$X c #EAD6B9",
"%X c #F1DBB9",
"&X c #F5E5A8",
"*X c #FBF6A4",
"=X c #FCF8A3",
"-X c #FCF6AC",
";X c #FEF9AC",
":X c #F4E7B5",
">X c #FCF6B3",
",X c #FEF8B4",
"<X c #FEF7BC",
"1X c #FDF8BC",
"2X c #EEE2BB",
"3X c #EBDBC5",
"4X c #ECDCC7",
"5X c #F0DFCB",
"6X c #F6EDC5",
"7X c #F2E3CD",
"8X c #F3E3C7",
"9X c #FCF7C2",
"0X c #FBF9C4",
"qX c #FBF9CC",
"wX c #F8F2CE",
"eX c #F5ECDC",
"rX c #F5E9D5",
"tX c #FCFAD4",
"yX c #FDFADB",
"uX c #F8F2DC",
"iX c #EFE4D4",
"pX c #F6ECE3",
"aX c #FAF4E4",
"sX c #FDFAE3",
"dX c #F7F2EA",
"fX c #FAF5EB",
"gX c #FCFAEC",
"hX c #F7F2E4",
"jX c #FBF7F3",
"kX c #FCFAF5",
"lX c #FDFDFA",
"zX c #FDFDFD",
"xX c #FCFCFC",
"cX c #FEFEFE",
"vX c white",
"bX c #FFFFFE",
"nX c #FEFEFD",
"mX c #FEFEFE",
/* pixels */
"vXvXvXvXvXvXvXvXvXvXvXvXvXvXvXvXvXvXvXvXvXvXvXvXvXvXvXvXvXvXvXvXvXvXvXvXvXvXvXvXvXvXvXvXvXvXvXvXvXvXvXvXvXvXvXvXvXvXvXvXvXvXvXvX",
"vXvXvXvXvXvXvXvXvXvXvXvXvXvXvXvXvXvXvXvXvXvXvXvXvXvXvXvXvXvXvXvXvXvXvXvXvXvXvXvXvXvXvXvXvXvXvXvXvXvXvXvXvXvXvXvXvXvXvXvXvXvXvXvX",
"vXvXvXvXvXvXvXvXvXvXvXvXvXvXvXvXvXvXvXvXvXvXvXvXvXvXvXvXvXvXvXvXvXvXvXvXvXvXvXvXvXvXvXvXvXvXvXvXvXvXvXvXvXvXvXvXvXvXvXvXvXvXvXvX",
"vXvXvXvXvXvXvXvXvXvXvXvXvXvXvXvXvXvXvXvXvXvXvXvXvXvXvXvXvXvXvXvXvXvXvXvXvXvXvXvXvXvXvXlXvXvXvXvXvXvXvXvXvXvXvXvXvXvXvXvXvXvXvXvX",
"vXvXvXvXvXvXvXvXvXvXvXvXvXvXvXvXvXvXvXvXvXvXvXvXvXvXxXvXvXvXvXvXvXvXvXvXvXvXvXvXvXvXvXvXvXvXvXvXvXvXvXvXvXvXvXvXvXvXvXvXvXvXvXvX",
"vXvXvXvXvXvXvXvXvXvXvXvXvXvXvXvXvXvXvXvXvXvXvXvXvXvXxXvXvXlXlXlXlXvXvXvXvXvXvXvXlXvXvXvXvXvXvXvXvXvXvXvXvXvXvXvXvXvXvXvXvXvXvXxX",
"vXvXvXvXvXvXvXvXvXvXvXvXvXvXvXvXvXvXvXvXvXvXvXvXvXvXvXvXvXvXvXvXlXkXkXfXaXaXuXaXfXkXjXkXvXvXvXvXvXvXvXvXvXvXvXvXvXvXvXvXvXvXvXvX",
"vXvXvXvXvXvXvXvXvXvXvXvXvXvXvXvXvXvXvXvXvXvXvXvXvXvXvXvXvXvXkXfXeX%X+X(./././././.).+X7XfXkXlXvXvXvXvXvXvXvXvXvXvXvXvXvXvXvXvXvX",
"vXvXvXvXvXvXvXvXvXvXvXvXvXvXvXvXvXvXvXvXvXvXvXvXvXvXxXxXjXuX2X/.w.[ 1.,.<.u.u.u.,.1.1.e./.+XrXjXxXxXvXvXvXvXvXvXvXvXvXvXvXvXvXvX",
"vXvXvXvXvXvXvXvXvXvXvXvXvXvXvXvXvXvXvXvXvXvXvXvXvXxXkXeX+X/.[ $.%.y.k.k.Z.Z.S.Z.k.k.s.r.&.>.w.+XrXgXxXvXvXvXvXvXvXvXvXvXvXvXvXvX",
"vXvXvXvXvXvXvXvXvXvXvXvXvXvXvXvXvXvXvXvXvXvXvXvXlXfX8X~.:.$.r.s.Z.T.].|.*X-X-X-X|.].'.D.f.a.%.:.0.+XaXlXvXvXvXvXvXvXvXvXvXvXvXvX",
"vXvXvXvXvXvXvXvXvXvXvXvXvXvXvXvXvXvXvXvXvXvXvXlXhX+Xe. .%.s.A.[.*X9XtXyXyXsXsXsXyXtXqX>X|.G.k.%.#.:.(.rXxXvXvXvXvXvXvXvXlXvXvXvX",
"vXvXvXvXvXvXvXvXvXvXvXvXvXvXvXvXvXvXvXvXvXvXxXhX/.X.#.r.C.[.>XqXtXyXsXsXsXsXgXgXsXsXsXyXtX<X|.S.u.#.O.w.rXxXvXvXvXvXvXvXvXvXvXvX",
"vXvXvXvXvXvXvXvXvXvXvXvXvXvXvXvXvXvXvXvXvXkXrX~.O.#.y.U.-X0XqXtXtXyXyXyXyXyXsXyXyXyXyXtXtXqX0X>X].k.#. .9.7XkXvXvXvXvXvXvXvXvXvX",
"vXvXvXvXvXvXvXvXvXvXvXvXvXvXvXvXvXvXvXvXxXrX0.O.#.p.'.>X0XqXqXqXtXtXtXtXtXyXtXtXtXtXtXqXqX0X0X9X1X.XC.%. .9.8XkXvXvXvXvXvXvXvXvX",
"vXvXvXvXvXvXvXvXvXvXvXvXvXvXvXvXvXvXvXvXdXw.( #.u.'.>X1X<X9X9X0X0XqXtXqXqXqXqXqXqXqXqX0X0X9X9X1X,X>X|.C.#.} 6.rXlXvXvXvXxXxXlXvX",
"vXvXvXvXvXvXvXvXvXvXvXvXvXvXlXvXvXvXxXfXOX~ ..r.T.*X>X,X<X<X1X9X1X9X9X0X0XqXqXqX0X0X9X1X1X1X1X<X,X,X-X].f.*.} Q.hXlXvXxXvXvXvXvX",
"vXvXvXvXvXvXvXvXvXvXvXvXvXvXvXvXvXvXkX%X] | %.S..X*X-X-X,X,X,X1X<X<X1X1X<X9X9X<X1X1X1X,X,X,X,X,X,X,X*X.X'.u...} (.jXvXxXxXvXvXvX",
"vXvXvXvXvXvXvXvXvXvXvXvXvXvXvXxXvXvXhX0.} #.C.[..X*X*X*X=X-X-X-X>X,X,X,X,X<X<X<X,X,X,X-X,X;X;X-X*X*X.X.X|.F.%.D ] 7XxXxXvXvXvXvX",
"vXvXvXvXvXvXvXvXvXvXvXvXvXvXvXvXlXkXOXE ..f.'.|. X.X.X.X.X*X*X=X=X;X;X;X;X;X;X;X;X;X-X*X=X=XXX.X.X.X.X.X|.[.A.#.} Q.dXxXvXvXvXvX",
"vXvXvXvXvXvXvXvXvXvXvXvXvXvXvXvXxXrX6.S %.F.[.].}. X X X X.X.X.X.XXX=X=X=X=X=X=X=XXX.X.X*X.X X X X X X].].[.G.d...E $XlXvXvXlXvX",
"vXvXvXvXvXvXvXvXvXvXvXvXvXvXvXvXkXOX~ ..a.G.[.[.].}.}. X}. X X X X X.X.X.X.X.X.X X X X X X X}. X}.}.}.].[.[.'.N.#.C 0.fXvXvXlXvX",
"vXvXvXvXvXvXvXvXvXvXvXvXvXvXvXvXaX6.Z $.A.G.T.'.[.{.{.}.}.}.}.}.}.}. X X X X X X X}.}.}.}.}.}.}.}.}.].[.'.T.T.F.2.D Q 7XxXlXvXvX",
"vXvXvXvXvXvXvXvXvXvXvXvXvXvXvXkX%X~ D a.A.F.U.U.T.Y.Y.E.{.{.{.{.{.{.{.}.}.}.}.}.}.}.}.{.{.{.{.{.E.Y.Y.Y.T.T.U.F.f...~ ~.jXvXvXvX",
"vXvXvXvXvXvXvXvXvXvXvXvXvXvXvXaXQ.V F f.D.F.U.U.U.U.Y.R.R.E.E.E.E.{.{.{.{.E.{.{.{.{.E.E.E.E.E.E.Y.Y.Y.U.U.F.F.D.M.#.Z 6.eXvXvXvX",
"vXvXvXvXvXvXvXvXvXvXvXvXvXvXlX7XQ Z #.f.C.D.D.N.m.7.m.S.U.R.R.R.E.E.E.E.E.R.R.R.R.R.R.R.R.R.R.Y.S.m.7.m.m.D.D.D.M.-.D E %XkXvXvX",
"vXvXvXvXvXvXvXvXvXvXvXvXvXvXkXOXE D =.f.M.m.^ 2 @ X @ 3 { L.I.I.R.R.R.R.R.R.R.R.R.R.R.R.I.K.U.[ 7 $ X @ < T m.M.M.2.| m Q.fXvXvX",
"vXvXvXvXvXvXvXvXvXvXvXvXvXvXaX9.z D 2.d.1.7 o X $ , $ o # { K.I.K.K.I.I.I.I.I.I.I.R.I.I.K.K.p.- X $ , , o O 7 m.f.2.+.V 6.eXxXvX",
"vXvXvXvXvXvXvXvXvXvXvXvXvXvXeXQ b ..-.1.7   , ' V.S.V.7., I K.K.J.J.P.P.P.P.P.P.P.P.K.K.K.J.[ 1 ' V.L.S.n.3 o 2 <.2.+.V W 3XvXvX",
"vXvXvXvXvXvXvXvXvXvXvXvXvXvX7XE V o.=.U + H m.l.Z.l.L.L.V.V.J.b.v.v.J.J.J.J.J.J.v.v.J.J.J.v.x.Z.L.L.l.l.Z.C.J % 0 <.+.Z E +XvXvX",
"vXvXvXvXvXvXvXvXvXvXvXvXvXlX+Xc  .a.) = 7 f.k.h.z.l.j.x.x.L.v.v.v.b.v.v.v.v.v.v.v.v.v.v.v.v.x.c.x.l.l.l.z.k.C.J : ) @.Z U (.lXvX",
"vXvXvXvXvXvXvXvXvXvXlXvXvXlX^._ d.>.s < ,.s.g.g.g.z.h.c.c.x.x.x.x.v.x.v.v.v.x.x.x.x.x.v.c.x.x.j.j.h.h.z.g.s.s.i.2 0 ..Z x Q.xXvX",
"vXvXvXvXvXvXvXvXvXvXlXlXlXaX/.i.<.Y < T a.a.s.s.g.z.g.h.j.j.j.j.c.c.c.c.c.c.c.x.c.c.c.c.c.j.j.j.h.g.g.g.g.s.t.y.` < ~ Z x 8.jXvX",
"vXvXvXvXvXvXvXvXvXvXlXlXaX_.N.<.R 9 0 <.a.a.a.s.g.g.z.g.h.j.j.j.j.c.c.c.x.x.x.c.c.c.c.c.j.j.h.h.g.g.g.g.s.s.a.t.u.s m Z x 4.fXvX",
"vXvXvXvXvXvXvXvXvXvXlXsX_.N.i.E f }  .A  .t.a.s.s.g.g.g.g.h.h.h.j.c.c.j.j.j.x.x.c.c.j.j.j.j.h.g.g.g.g.s.s.s.t.t.-.$.| Z k W fXvX",
"vXvXvXvXvXvXvXvXxXxXaX@XN.B.O.f g C m N h 2.a.s.s.s.g.g.g.g.h.h.h.j.j.j.j.j.j.j.j.j.j.h.h.h.g.g.g.g.s.s.y.a.a.t.=.*...V k H hXvX",
"vXvXvXvXvXvXvXvXkXwX_.N.d.>.f w b b M M j 2.s.s.s.s.g.g.g.g.g.g.h.j.h.h.j.j.j.j.j.j.h.h.g.g.g.g.g.g.s.s.s.d.a.a.-.*.F Z k K hXxX",
"vXvXvXvXvXvXvXgX:XH.N.M.<.n 6 w l v } R n -.a.a.s.f.s.g.g.g.g.g.h.h.h.h.h.j.j.j.h.g.h.h.g.g.g.g.g.s.s.s.d.a.a.a.=.#.D V g K fXvX",
"vXvXvXvXvXkXuX_.N.f.M.i.R 9 q f h M  .N ( 2.) _ u.s.s.s.k.g.g.g.k.,.` k.h.h.h.h.k.` ,.k.g.g.g.k.g.s.s.a.) ( t.-.;.#.D b g 4.gXvX",
"vXvXvXvXvXuX).M.f.f.i.O.f 4 6 f h  . .n ( <.a - j >.d.f.f.s.f.u._ < < p.z.z.z.z.p.1 < / u.f.f.f.f.a.>.Y - s a.=.*...S z t 8.kXvX",
"lXvXvXvXlX:XN.f.f.u.X.Y q 4 9 f M  .( h #.2.] + @ < U T _ ^ Y 7 -   p z.z.g.g.g.k.p   # 7 J T ^ ^ U 2 + O ^ t.=.*.F C l t !.kXvX",
"vXvXvXvXkX&XM.k.f.>.R 6 ; 6 9 c  . .A h #.=.<.s O O @ + : & @ O O = [ z.z.g.g.z.g.,., O O O + & + @ O O 7 <.=.*.#.D V l 0 oXxXvX",
"vXvXvXvXkX_.M.f.d.) f ; 4 9 s A  . .n b *.#.-.1.2 * & + @ + + # , ^ k.k.k.k.k.k.z.k./ , # + + + + + * 3 >.-.*.*...S m g H 3XxXvX",
"vXvXvXvXkX_.M.M.f.) s ; q 6 n  .#. .h C ..#.=.<.[ p , = * = = 1 ^ k.k.f.k.k.k.k.k.k.k./ 1 = * = = = 7 ` u.=.*.*.| C b t 4.iXvXvX",
"vXvXvXvXkX`.M.f.f.>.j ; 4 d  .#. .( h S ..#.=.-.a.1.^ p 7 7 a ,.f.f.f.s.f.f.f.f.s.s.f.k.u.J 7 7 p T 1.2.-.=.*.#.} M l t W.aXvXvX",
"vXvXvXvXkX_.B.M.M.<.R 6 s ( $.#.&.R h C | ..*.=.-.2.d.d.p.f.f.f.f.s.f.f.f.f.f.f.f.s.f.f.f.m.J 1.p.d.2.2.-.*.*.| C b g 0 #XxXvXvX",
"vXvXvXvXkX_.B.M.M.M.i.1.<.<.%.%.&.h g M } ..#.*.=.-.2.2.a.d.a.d.d.d.f.s.s.f.f.f.f.s.s.d.d.] + ^ a.2.-.-.*.#...} C l e K eXvXvXvX",
"vXvXvXvXlX_.M.C.C.C.C.f.f.a.a.%. .9 f v C S ..*.*.-.-.-.2.a.a.a.d.d.s.s.s.s.s.s.s.d.a.d.3.H . T 2.2.=.*.*...| C m g 9 W.jXvXvXvX",
"vXvXvXvXlX_.N.C.A.A.C.M.f.f.d.%.R 8 w h m S F ..#.*.=.-.2.2.a.d.d.d.d.d.d.a.a.d.d.d.d.3.:.= O T 2.-.*.*.o.| } M l y 0 3XxXvXvXvX",
"vXvXvXvXlX@XA.A.A.A.C.M.M.f.f.$.n U 9 B l C } | ..#.*.;.-.2.-.2.2.2.2.d.d.d.d.d.d.3.3.:.q O + ) =.*.*.+.| D Z v g u 5.jXvXvXvXvX",
"vXvXvXvXlX:XA.C.A.A.C.M.M.B.B.X.j !.U t k m C } ....#.*.=.=.-.2.2.2.2.2.2.2.3.3.3.:.E 4 + + ; o.*.#.#...D C m l g 0 #XxXvXvXvXvX",
"vXvXvXvXlX:XG.C.A.C.C.M.M.M.i.R L eX^.9 e l b C S F ..#.*.*.$.$.$.$.1.1.O.) E a 7 < + O + = j #.*.....G C M l g t 8.dXxXvXvXvXvX",
"vXvXvXvXlX6XH.A.A.C.M.M.M.f.>.J !.kXeX4.r g l b S S ......+.R 0 0 0 q q ; - + O   X @ = 7 R #.#.....D S M v k w H 3XxXlXlXlXlXvX",
"vXvXvXvXvX6XH.C.C.C.M.M.B.i.T q.iXxXkX#XH w g l M C } | +...6 . X   . .   O + - < 7 Y ) $.#.+.+...| S M v l e 9 !.jXvXvXvXvXvXvX",
"vXvXvXvXlX6XH.C.C.C.M.f.i.) W 4XkXxXxXdX!.9 w k v m S D | ..( a s s s a a Y _ ) X.$.$.#.#.....D D S m v l g 8 5.eXxXvXvXvXvXvXvX",
"vXvXvXvXlX6XH.C.C.M.M.f.` W $XkXvXxXvXxXpX4.8 y k v m C } }  .o.o.o.o.o.#.#.#.+.+.+.....+.| D S C M v l g 8 K 3XkXvXvXvXvXvXvXvX",
"vXvXvXvXlX6XH.C.C.C.f.i.T ^.jXvXvXlXlXxXxX4X4.9 e g v m V V S D | ..........+.+...F ..| S S C C m b l g u W $XjXvXvXvXvXvXvXvXvX",
"vXvXvXvXlX6XH.C.M.C.f.>.J 7XxXvXvXvXxXxXxXkX7X8.8 t k l b m M C } } D | D D F D | D D S S C V b z k g 9 K $XjXxXvXvXvXvXvXvXvXvX",
"vXvXvXvXlX:XN.C.C.k.f.) L dXvXvXvXvXvXxXlXlXkXpX8.0 w g l l b m M M C S C S Z Z S C C C V b l l g y 8 4.4XjXxXvXvXvXvXvXvXvXvXvX",
"vXvXvXvXlX:XN.C.B.k.d.c 8.jXlXvXvXvXvXvXvXlXkXkXpX!.i 5 y g x z b b b V V V V V V V m b z x k e 5 0 8.7XjXxXvXvXvXvXvXvXvXvXvXvX",
"vXvXvXvXlX@XN.C.M.M.3.j !.xXvXvXvXvXvXvXvXlXlXvXkXaX#XL 0 r e k k l z b b b b b b z l k k e w 8 H !.aXkXlXvXvXvXvXvXvXvXvXvXvXvX",
"vXvXvXvXkX@Xm.M.f.f.<.s !.vXvXvXvXvXvXvXvXvXvXlXvXkXjXrX!.P 0 5 t y g g k k k g g g e e 5 8 H !.4XjXlXvXvXvXvXvXvXvXvXvXvXvXvXvX",
"vXvXvXvXlX2X`.N.M.B.1.H #XlXvXvXvXvXvXvXvXvXvXvXvXlXvXkXkXeX#X4.i 0 6 6 u u u 5 8 8 0 i K !.iXkXxXxXxXvXvXvXvXvXvXvXvXvXvXvXvXvX",
"vXvXvXvXvXgXuX&X).`./.#XdXxXvXvXvXvXvXvXvXvXvXvXvXvXvXvXvXxXjXhX4XoXQ.5.4.K K P 5.W.!.$XeXjXkXlXlXvXvXvXvXvXvXvXvXvXvXvXvXvXvXvX"
};
