/* XPM */
static char *c5d3d40574e9422eb43b0ab4ab34acb0[] = {
/* columns rows colors chars-per-pixel */
"64 64 241 2 ",
"   c #2B0909",
".  c #290904",
"X  c #3B1809",
"o  c #2E0F09",
"O  c #461A0A",
"+  c #592B12",
"@  c #523420",
"#  c #72461C",
"$  c #775031",
"%  c #735A4C",
"&  c #96560E",
"*  c #965815",
"=  c #865520",
"-  c #9A6E28",
";  c #AC7A2B",
":  c #CD730E",
">  c #D3760C",
",  c #D47B0C",
"<  c #D97E0C",
"1  c #D67F07",
"2  c #C96F13",
"3  c #C66F15",
"4  c #CD7312",
"5  c #C87618",
"6  c #D47C12",
"7  c #D17514",
"8  c #C77729",
"9  c #C87E35",
"0  c #8C715E",
"q  c #83624A",
"w  c #A17747",
"e  c #B48734",
"r  c #DB830B",
"t  c #DA850B",
"y  c #DB8614",
"u  c #CC8617",
"i  c #E38B0C",
"p  c #E6870C",
"a  c #E6910D",
"s  c #EB940D",
"d  c #ED970B",
"f  c #F59A0E",
"g  c #E58D11",
"h  c #E98813",
"j  c #E69212",
"k  c #EA9512",
"l  c #ED9A15",
"z  c #EE9B1A",
"x  c #EA9916",
"c  c #F59413",
"v  c #F39C15",
"b  c #F99D12",
"n  c #F29D1B",
"m  c #F2971E",
"M  c #F18F1A",
"N  c #F8AA0E",
"B  c #EEA019",
"V  c #F4A315",
"C  c #F9A414",
"Z  c #F6A916",
"A  c #FAAD16",
"S  c #F4A31A",
"D  c #FAA51B",
"F  c #F6AA1B",
"G  c #FBAB1B",
"H  c #FDB11D",
"J  c #F8B718",
"K  c #CB843B",
"L  c #D5893B",
"P  c #DA8834",
"I  c #D68734",
"U  c #E98C25",
"Y  c #EB9A23",
"T  c #E79A33",
"R  c #D4A735",
"E  c #EDA627",
"W  c #FBAD22",
"Q  c #F5A926",
"!  c #FCB323",
"~  c #FCBA25",
"^  c #FCB62B",
"/  c #FDBA2D",
"(  c #F6B827",
")  c #E5A238",
"_  c #F2AE3C",
"`  c #FDB733",
"'  c #FEBA32",
"]  c #F2B33A",
"[  c #FCBD3A",
"{  c #F8B935",
"}  c #E9B63B",
"|  c #F7C51C",
" . c #FBC42D",
".. c #FDCB2E",
"X. c #FAC724",
"o. c #FCD42D",
"O. c #FDDA2D",
"+. c #F8D326",
"@. c #FDC334",
"#. c #FDCD33",
"$. c #FCC53A",
"%. c #FDCA3A",
"&. c #F7CB3B",
"*. c #FDD132",
"=. c #FCDE33",
"-. c #FAD73D",
";. c #EFC138",
":. c #FCE136",
">. c #FCE53B",
",. c #FCE93D",
"<. c #B2924E",
"1. c #BFA055",
"2. c #AE9175",
"3. c #CB8846",
"4. c #D78C46",
"5. c #D79457",
"6. c #D2944C",
"7. c #E69747",
"8. c #E59F5D",
"9. c #D5AA5B",
"0. c #D4AB59",
"q. c #EBA64A",
"w. c #F2B746",
"e. c #EAAA58",
"r. c #EAB75A",
"t. c #EDB14D",
"y. c #D79B66",
"u. c #C89E72",
"i. c #CDA769",
"p. c #D6A56C",
"a. c #D9A676",
"s. c #CBAC76",
"d. c #E8A965",
"f. c #ECB269",
"g. c #EBBE79",
"h. c #EAB374",
"j. c #F9CA46",
"k. c #FBD848",
"l. c #F5CE52",
"z. c #FBD859",
"x. c #EACA50",
"c. c #FCEA42",
"v. c #FDEB4D",
"b. c #FBE446",
"n. c #FCEB52",
"m. c #FCED5D",
"M. c #FAE257",
"N. c #FDF15E",
"B. c #DACC6D",
"V. c #D9C775",
"C. c #FBDC63",
"Z. c #FADD6D",
"A. c #ECC47B",
"S. c #F4D56D",
"D. c #FDE465",
"F. c #FDEE64",
"G. c #FCE36C",
"H. c #FCEC6A",
"J. c #FDF162",
"K. c #FDF16C",
"L. c #FDE274",
"P. c #FCE47B",
"I. c #FCEB77",
"U. c #FDF273",
"Y. c #FEF37C",
"T. c #EFE074",
"R. c #BBB096",
"E. c #B19C90",
"W. c #C9B588",
"Q. c #CAB696",
"!. c #D7B18A",
"~. c #E7B588",
"^. c #F0BF8B",
"/. c #E8BC95",
"(. c #E3AD82",
"). c #C8BBA6",
"_. c #D2C391",
"`. c #F2C789",
"'. c #EBC299",
"]. c #F2C998",
"[. c #EFC080",
"{. c #FCEA84",
"}. c #FBE985",
"|. c #FDF584",
" X c #FCF58C",
".X c #FDF88E",
"XX c #FDEE94",
"oX c #FDF693",
"OX c #FEF894",
"+X c #FDF69D",
"@X c #FEF89B",
"#X c #D3C2AC",
"$X c #D8C9B7",
"%X c #CCC5B4",
"&X c #EAC7A7",
"*X c #F1CDA2",
"=X c #F5D3A7",
"-X c #F2D5BB",
";X c #F6DABA",
":X c #ECD3B9",
">X c #FDF5A5",
",X c #FEF8A3",
"<X c #FDF6AC",
"1X c #FEF9AC",
"2X c #FEF7B3",
"3X c #FDF8B4",
"4X c #FEF7BA",
"5X c #FBF9BB",
"6X c #DDD4CC",
"7X c #DAD2C5",
"8X c #DCD8D4",
"9X c #D8CBC1",
"0X c #F4DBC7",
"qX c #E4DDD9",
"wX c #F8E2C9",
"eX c #FBF9C3",
"rX c #FCFACB",
"tX c #FDF7C1",
"yX c #F5EAD5",
"uX c #FAEAD6",
"iX c #FAEBDC",
"pX c #F7E5D6",
"aX c #FEFBD3",
"sX c #FEFBDB",
"dX c #E7DFE2",
"fX c #E6E3E2",
"gX c #EDEAE9",
"hX c #FAEDE3",
"jX c #F1EDEB",
"kX c #FAF2E5",
"lX c #FEFBE3",
"zX c #FCF4EB",
"xX c #FEFCE8",
"cX c #FBF6F2",
"vX c #FCFAF4",
"bX c white",
"nX c #FEFEFE",
"mX c #FDFDFD",
"MX c #FFFFFE",
"NX c #F6F4F7",
"BX c #F0EFF3",
/* pixels */
"bXbXbXbXbXbXbXbXbXbXbXbXbXbXbXbXbXbXbXbXbXbXbXbXbXbXbXbXbXbXbXbXbXbXbXbXbXbXbXbXbXbXbXbXbXbXbXbXbXbXbXbXbXbXbXbXbXbXbXbXbXbXbXbX",
"bXbXbXbXbXbXbXbXbXbXbXbXbXbXbXbXbXbXbXbXbXbXbXbXbXbXbXbXbXbXbXbXbXbXbXbXbXbXbXbXbXbXbXbXbXbXbXbXbXbXbXbXbXbXbXbXbXbXbXbXbXbXbXbX",
"bXbXbXbXbXbXbXbXbXbXbXbXbXbXbXbXbXbXbXbXbXbXbXbXbXbXbXbXmXvXcXzXkXzXkXzXzXvXmXmXmXmXbXbXbXbXbXbXbXbXbXbXbXbXbXbXbXbXbXbXbXbXbXbX",
"bXbXbXbXbXbXbXbXbXbXbXbXbXbXbXbXbXbXbXbXbXbXbXbXbXbXvXzXuX;X=X`.[.A.g.`.].=XwXuXzXvXbXmXbXbXbXbXbXbXbXbXbXbXbXbXbXbXbXbXbXbXbXbX",
"bXbXbXbXbXbXbXbXbXbXbXbXbXbXbXbXbXbXbXbXbXbXbXmXvXiX=X`.r.w.] { { { ` { { ] t.f.`.;XiXcXbXbXbXbXbXbXbXbXbXbXbXbXbXbXbXbXbXbXbXbX",
"bXbXbXbXbXbXbXbXbXbXbXbXbXbXbXbXbXbXbXbXmXmXzXwX`.r.] ( X.X.+.*.-.-.-.-.*.+.| J ( ] r.].uXcXbXbXbXbXbXbXbXbXbXbXbXbXbXbXbXbXbXbX",
"bXbXbXbXbXbXbXbXbXbXbXbXbXbXbXbXbXbXbXbXvXkX=Xr._ ( | X.-.z.D.I. XXXXX XI.D.k.o.X.J ( _ A.;XkXmXbXbXbXbXbXbXbXbXbXbXbXbXbXbXbXbX",
"bXbXbXbXbXbXbXbXbXbXbXbXbXbXbXbXbXbXbXcX;Xg._ J ~ #.z.P.>XtXrXaXsXlXlXlXaXrX4X+X{.z...J F w.[.yXvXbXbXbXbXbXbXbXbXbXbXbXbXbXbXbX",
"bXbXbXbXbXbXbXbXbXbXbXbXbXbXbXbXbXbXcXwXd.E J X.-.P.>XtXaXsXlXlXxXxXlXxXlXxXsXaXeX>XG.&.J H E g.uXmXbXbXbXbXbXbXbXbXbXbXbXbXbXbX",
"bXbXbXbXbXbXbXbXbXbXbXbXbXbXbXbXbXzX=Xt.Z J #.L.>XeXaXaXsXsXsXsXsXsXsXsXsXsXsXaXaXaXtX>XC...J E e.wXvXbXbXbXbXbXbXbXbXbXbXbXbXbX",
"bXbXbXbXbXbXbXbXbXbXbXbXbXbXbXmXcX*X) S J &.{.2XeXeXeXrXaXaXaXsXsXsXsXaXaXaXaXaXrXeXeXtX1XP.&.J S f.wXcXbXbXbXbXbXbXbXbXbXbXbXbX",
"bXbXbXbXbXbXbXbXbXbXbXbXbXbXbXcX;X_ Z J k.}.1X5X5XtXtXtXrXrXrXaXaXaXaXaXaXrXrXrXeXtX5X5X5X1X}.$.J E e.0XvXbXbXbXbXbXbXbXbXbXbXbX",
"bXbXbXbXbXbXbXbXbXbXbXbXbXbXvXwXe.C J j.XX<X2X3X3X5X5X5XtXtXtXrXrXrXeXeXeXtXtXtX5X4X4X3X2X1X<X}.j.G B d.kXmXbXbXbXbXbXbXbXbXbXbX",
"bXbXbXbXbXbXbXbXbXbXbXbXbXmXhXf.n A &.P.>X<X<X1X1X1X2X5X5X5X5X5XtXtXtX5X5X5X5X5X3X2X1X1X1X1X>X+XP.{ N z '.zXbXbXbXbXbXbXbXbXbXbX",
"bXbXbXbXbXbXbXbXbXbXbXbXbXcX].m N @.L.XX@X+X@X,X,X,X1X1X1X1X1X2X4X4X3X3X2X2X1X1X1X1X,X,X,X,X+X@XXXZ./ C T =XvXbXbXbXbXbXbXbXbXbX",
"bXbXbXbXbXbXbXbXbXbXbXbXvXwXq.C J C.{. XoXOX@X@X@X+X,X,X>X>X>X<X1X1X1X1X,X>X,X>X>X,X+X@X@X@X@XoXXX{.l.! v e.uXmXbXbXbXbXbXbXbXbX",
"bXbXbXbXbXbXbXbXbXbXbXbXiXf.n A j.P.{.|. X X.XoXOXOX@X@X@X@X+X,X>X,X,X,X+X+X+X@X@XOXOXOX X X X X{.}.P.j.C m ^.cXbXbXbXbXbXbXbXbX",
"bXbXbXbXbXbXbXbXbXbXbXvX=XT b ( C.P.P.{.|.|.|. X XoXoXOXoXOX@X@X+XOX@X+X@X@XOXOXOXoXoX X X|. X|.{.{.P.C.H b q.pXmXbXbXbXbXbXbXbX",
"bXbXbXbXbXbXbXbXbXbXbXzXe.v Z j.L.L.P.I.Y.Y.Y.Y.|.|.|.|.|. XoXoXoXoXoXoXoX X X X|.|.|.|.Y.Y.Y.Y.P.P.L.G.j.D m ^.zXbXbXbXbXbXbXbX",
"bXbXbXbXbXbXbXbXbXbXvX0XY b ^ z.Z.G.G.H.K.U.U.U.U.U.Y.Y.Y.|.|.|.|.|.|.|.|.Y.|.Y.Y.Y.Y.Y.U.U.K.H.L.L.G.C.z.^ v q.0XvXbXbXbXbXbXbX",
"bXbXbXbXbXbXbXbXbXbXzX~.c Z $.z.C.D.G.G.H.F.K.K.K.K.K.K.K.U.K.U.U.U.U.U.U.U.K.K.K.K.K.K.K.K.H.H.D.D.C.C.z.[ D Y '.cXbXbXbXbXbXbX",
"bXbXbXbXbXbXbXbXbXbXyX7.b F j.z.z.S.A.V.T.m.m.n.m.m.m.N.N.J.m.F.J.F.F.J.J.J.J.J.J.J.J.J.N.m.m.D.D.z.z.z.z.j.W c e.iXbXbXbXbXbXbX",
"bXbXbXbXbXbXbXbXbXmX*XU C ^ j.z.S.W.).).R.B.n.c.v.v.v.v.v.v.v.v.n.n.n.n.v.v.v.v.n.n.n.v.n.n.n.M.M.M.z.z.l.j.^ v T ;XbXbXbXbXbXbX",
"bXbXbXbXbXbXbXbXbXzXd.c D [ j.S.Q.8XBXNXfX%XB.c.c.c.,.c.c.c.,.c.c.c.c.c.c.c.,.c.c.c.c.c.v.v.c.b.b.k.k.k.k.j.{ v M ^.vXbXbXbXbXbX",
"bXbXbXbXbXbXbXbXbXuX7.c G $.j.s.$XNXmXmXmXfX_.M.c.,.,.,.,.,.,.,.,.,.c.c.c.,.,.,.,.c.,.c.c.c.,.,.b.b.k.k.j.j.[ D c d.cXmXbXbXbXbX",
"bXbXbXbXbXbXbXbXmX:XU f W [ x.).jXbXbXbXbXvX7XB.b.c.,.,.,.,.,.,.,.,.c.c.c.,.,.,.,.c.c.,.c.,.,.>.>.k.k.j.%.j.` D c 7.uXmXbXbXbXbX",
"bXbXbXbXbXbXbXbXvX/.h f ! [ r.6XmXbXbXbXbXbXfX_.M.c.,.,.,.,.,.,.,.,.,.,.,.,.,.,.,.,.,.,.,.,.,.,.>.-.k.j.%.$.` W c U ;XmXbXbXbXbX",
"bXbXbXbXbXbXbXbXcXh.g b ! [ s.gXbXbXbXbXbXbXNX%XB.,.,.>.>.>.>.,.,.,.c.c.,.,.,.,.,.,.,.,.,.>.>.>.-.-.%.%.@.@.` W f h '.vXbXbXbXbX",
"bXbXbXbXbXbXbXbXkX8.h b ! ] Q.NXbXbXbXbXbXbXmX8XV.b.>.:.>.>.>.>.>.,.,.>.>.,.,.,.,.>.>.>.>.>.>.>.=.-.#.$.@./ ^ W f h h.cXbXbXbXbX",
"bXbXbXbXbXbXbXbXiX7.h b W t.#XmXbXbXbXbXmXvXcXqXW.k.=.=.=.=.=.=.:.:.:.=.:.>.:.>.:.>.>.:.:.=.=.=.=.*... .@./ ^ F f h d.zXbXbXbXbX",
"bXbXbXbXbXbXbXbXpXL p v W 0.9XmXbXbXbXmXjXE.0 0 <.j.=.O.O.O.O.O.O.O.O.O.O.O.O.=.O.O.O.O.O.O.O.O.o..... . .~ ! Z v h 5.hXbXbXbXbX",
"bXbXbXbXbXbXbXmX0XP p f Q 9.6XmXbXbXmXgX% + + q 2.x.o.+.o.o.o.o.o.o.o.o.o.o.+.o.o.o.o.o.o.o.o.+...#... ./ ~ H C v p 4.hXbXbXbXbX",
"bXbXbXbXbXbXbXbX0XP p f Q i.qXbXbXbXcX2.+ O X R.yXl.o.+.*.*.*.*.*.*.*.*.*.*.+.o.*.*.*.*.*.*.*.*..... . .~ ~ H V k p L pXbXbXbXbX",
"bXbXbXbXbXbXbXmX-XP i d Q s.fXbXbXbXqX$ O .   % #Xl.o.*.*.*.*.*.*.*.*.*.*.*.o.*.*.*.*.*.*.*.*.....X. .X.~ ~ H Z k p L pXbXbXbXbX",
"bXbXbXbXbXbXbXmX-XP p d Q s.fXbXbXbX$X# o   . o @ R o.o.+.*.*.*.*.*.*.*.*.*.*.*.*.*.*.*.*.*.#... .X. .~ ^ ^ G V d p L pXbXbXbXbX",
"bXbXbXbXbXbXbXbX0XI p s Q s.fXbXbXbX).=     . . X R O.O.+.o.*.*.*.*.*.*.*.*.*.*.o.*.*.*.#.#....... . ./ ^ ^ G V d i L pXbXbXbXbX",
"bXbXbXbXbXbXbXbX0XL p s E i.qXbXbXmX$X- X   . . X R +.+.+.o.*.*.*.*.*.*.*.*.*.o.o.+.*.#.#....... .@.' / / ! Z V d p 4.iXbXbXbXbX",
"bXbXbXbXbXbXbXbXpXL r s B 9.6XbXbXbXgX<.; X . . + } *.+.o.o.*.o.+.*.*.*.*.*.o.o.+.o.#.#...#.#.@...@.' ` ! ! F v s < 6.hXbXbXbXbX",
"bXbXbXbXbXbXbXbXiX4.< a l 0.7XbXbXbXvX_.R ; # # - ;.#.*.*.*.*.o.+.o.*.*.*.*.+.+.o.*.#.#.#.#.#.@.@.[ [ ` ! H F v a < 5.zXbXbXbXbX",
"bXbXbXbXbXbXbXbXhX5., i l ) #XmXbXbXbXcX_.1.<.e e $.#.#.#.#.#.#.#.#.#.*.#.#.#.#.#.%.%.%.%.$.@.@.$.[ ` ^ H A D l i 7 a.cXbXbXbXbX",
"bXbXbXbXbXbXbXbXcXy.6 i z ) Q.NXbXbXbXbXcXyX$XQ.r.%.#.#.#.#.#.*.#.#.#.#.#.@.#.#.@.%.%.%.%.@.@.@.[ [ ` ^ H A V k t 7 ~.vXbXbXbXbX",
"bXbXbXbXbXbXbXbXvX(.4 r k Y i.gXvXbXbXbXbXbXvX$Xr.$.@.#...#.%.#.#.#.#.#.#.#.#.#.%.%.%.&.@.@.@.@.[ ` ` ^ A V l a t 8 -XbXbXbXbXbX",
"bXbXbXbXbXbXbXbXvX&X5 < a z 6.8XmXbXbXbXbXbXgXW.w.[ @.@...#.@.@.%.%.%.%.%.%.#.%.$.@.@.@.@.@.@.' ` ^ ^ ! N D k g r K pXbXbXbXbXbX",
"bXbXbXbXbXbXbXbXbX0X9 6 i k T ).BXmXbXbXmXvX6Xp.{ ` ' '  . .@.@.$.$.$.$.$.$.@.@.@.@.@.' / / ` ` ` ^ ! W F v k i 6 5.kXbXbXbXbXbX",
"bXbXbXbXbXbXbXbXbXhX5.: t s z i.6XNXmXbXmXjXQ.t.^ ^ ^ ~ / ~ / ' @.@.@.[ @.@.[ ' ' ` ` ` / / / ` / ! H W V v i r 7 (.vXbXbXbXbXbX",
"bXbXbXbXbXbXbXbXbXcX!.5 t i l T W.dXNXNXgX%X0.{ ` ` ` / / / / ` ` ` ` ` ` [ ' ` ` ` / / ` ` ` / ~ ! ! W n k i < 8 &XmXbXbXbXbXbX",
"bXbXbXbXbXbXbXbXbXmX0X9 , r j z ) s.).%XQ.9.w.{ ` ` ` / ` ` ` ` ` ` ` ` ` ` ` ` ` ` ` ` ` ` / ^ ! G G S z j t > 3.pXbXbXbXbXbXbX",
"bXbXbXbXbXbXbXbXbXmXhXy.7 t i k Y ) 0.i.0.] ` ` ` ` ` ` ` ` ` ` ` ` ` ` ` ` ` / ` ` ` ` ` ` ^ ! H G D S k i 1 7 a.zXbXbXbXbXbXbX",
"bXbXbXbXbXbXbXbXbXmXvX&X5 , t a z V S Q ^ ^ ^ ` ` ` ` ` ` ` ` ` ` ` / / ` ` ` ` ` ` ` / ^ ^ ! H G D S l g t , K -XvXbXbXbXbXbXbX",
"bXbXbXbXbXbXbXbXbXbXmXiXK > 1 i k v V G W ! ! ~ / ` ` ` ` ` ` / / / / / ` ` ` ` ` / / / ! ! H A C V v k i t 4 p.hXbXbXbXbXbXbXbX",
"bXbXbXbXbXbXbXbXbXbXbXvX(.5 > r j k v n D G H ! ! ^ ^ ` ` ` / / / ~ / / ` ` / ^ ^ ^ ^ ! H H A Z V v k g r 7 K -XvXbXbXbXbXbXbXbX",
"bXbXbXbXbXbXbXbXbXbXbXbXwX3.4 < r j l z S G G G ! ! ~ ^ ^ ! ~ ^ / / / / / ^ ^ ^ ^ ~ ! H A A N V v d a t , 2 p.kXbXbXbXbXbXbXbXbX",
"bXbXbXbXbXbXbXbXbXbXbXbXcX&X9 > r i a l v V D G G H H ! ^ ! ! ^ ^ ^ ! ! ! ~ ~ ! H H H A G D V v s i i r : 9 :XvXbXbXbXbXbXbXbXbX",
"bXbXbXbXbXbXbXbXbXbXbXbXbXhXa.2 6 y g k k n V Z G G A A W ! H H ^ ! H H H H H H G A G D D S n k s i r , 5 (.zXmXbXbXbXbXbXbXbXbX",
"bXbXbXbXbXbXbXbXbXbXbXbXbXvX0X9 4 < y g k l l V D F G G W ! H A W W H G G W G G G Z S V n n l s i r , 4 y.iXvXbXbXbXbXbXbXbXbXbX",
"bXbXbXbXbXbXbXbXbXbXbXbXbXbXvX&XK 5 5 5 u j x z V V D S W W W G G G G D G W D D D V S v z k a i t < : K wXvXmXbXbXbXbXbXbXbXbXbX",
"bXbXbXbXbXbXbXbXbXbXbXbXbXbXvXhXu.& & & & u j k l v S S S D D D D D D D D D D V V S n l k j i t < : K /.cXmXbXbXbXbXbXbXbXbXbXbX",
"bXbXbXbXbXbXbXbXbXbXbXbXbXbXbXvXyXw * * & 5 i i s k l B S S S S S S S S V v n B l l l s a i t , 7 3.&XzXmXbXbXbXbXbXbXbXbXbXbXbX",
"bXbXbXbXbXbXbXbXbXbXbXbXbXbXbXbXvX:Xp.; 3 6 r i i s k l z z B B n n n n n v n l l k s i i t < : 8 '.kXmXmXbXbXbXbXbXbXbXbXbXbXbX",
"bXbXbXbXbXbXbXbXbXbXbXbXbXbXbXbXbXmXiX/.8 4 , t r i i a j k k k z l l z x k k j j i i t < , 4 K '.cXmXmXbXbXbXbXbXbXbXbXbXbXbXbX",
"bXbXbXbXbXbXbXbXbXbXbXbXbXbXbXbXbXbXmXzX'.3.3 4 < r t t i j j j j j j j a a i i i t t < : 5 3.-XzXmXbXbXbXbXbXbXbXbXbXbXbXbXbXbX",
"bXbXbXbXbXbXbXbXbXbXbXbXbXbXbXbXbXbXbXmXzX-Xp.8 3 7 , 1 r t y i i i i i i t t r < , : 4 K (.0XvXmXbXbXbXbXbXbXbXbXbXbXbXbXbXbXbX",
"bXbXbXbXbXbXbXbXbXbXbXbXbXbXbXbXbXbXbXbXmXvXhX&Xy.8 2 : > 6 6 t r t r t r 1 > > : 2 8 y.-XzXvXbXbXbXbXbXbXbXbXbXbXbXbXbXbXbXbXbX",
"bXbXbXbXbXbXbXbXbXbXbXbXbXbXbXbXbXbXbXbXbXbXmXcXuX&Xy.9 8 3 3 : : 4 4 4 4 2 3 8 K a.:XiXvXmXbXbXbXbXbXbXbXbXbXbXbXbXbXbXbXbXbXbX"
};
