/* XPM */
static char *_176d19c6f2e400192233080368156ad[] = {
/* columns rows colors chars-per-pixel */
"64 64 237 2 ",
"   c #010001",
".  c #0A0406",
"X  c #030109",
"o  c #0A040A",
"O  c #0D0B0C",
"+  c #0F0A06",
"@  c #120509",
"#  c #140B0B",
"$  c #160B0A",
"%  c #1B110D",
"&  c #16110E",
"*  c #0C0B12",
"=  c #141114",
"-  c #1B1413",
";  c #1C1A1C",
":  c #16151A",
">  c #130F10",
",  c #24150E",
"<  c #2A180F",
"1  c #211D1C",
"2  c #281B16",
"3  c #311F17",
"4  c #200D07",
"5  c #2A241A",
"6  c #372516",
"7  c #3E2B0B",
"8  c #1C1922",
"9  c #211C21",
"0  c #192230",
"q  c #2C292B",
"w  c #282627",
"e  c #352924",
"r  c #252B37",
"t  c #27323E",
"y  c #393534",
"u  c #36332C",
"i  c #4E3B1B",
"p  c #473615",
"a  c #533D18",
"s  c #432F14",
"d  c #473725",
"f  c #553B28",
"g  c #423D36",
"h  c #533C34",
"j  c #54421B",
"k  c #5C4B1B",
"l  c #5B4517",
"z  c #634C1C",
"x  c #664718",
"c  c #744B1B",
"v  c #77571E",
"b  c #6F501C",
"n  c #5A4622",
"m  c #46433A",
"M  c #58473A",
"N  c #5B523A",
"B  c #644E2D",
"V  c #624A25",
"C  c #744D28",
"Z  c #645223",
"A  c #6C5626",
"S  c #7A5322",
"D  c #735C23",
"F  c #7A5A22",
"G  c #775728",
"H  c #685636",
"J  c #755A33",
"K  c #674A37",
"L  c #7B6325",
"P  c #7B622B",
"I  c #75602B",
"U  c #7A663A",
"Y  c #273545",
"T  c #323443",
"R  c #4A4746",
"E  c #564C42",
"W  c #5B5647",
"Q  c #5A5856",
"!  c #4E5158",
"~  c #645A48",
"^  c #665A4F",
"/  c #78694A",
"(  c #6A6557",
")  c #736D55",
"_  c #736C5D",
"`  c #7A6956",
"'  c #7A745C",
"]  c #6C684A",
"[  c #6C6A63",
"{  c #696664",
"}  c #746E62",
"|  c #756E68",
" . c #767469",
".. c #7C766B",
"X. c #7A7467",
"o. c #7A7975",
"O. c #846B2C",
"+. c #866A28",
"@. c #8C7229",
"#. c #977A2D",
"$. c #846B35",
"%. c #936E36",
"&. c #8C7232",
"*. c #8B773D",
"=. c #937632",
"-. c #957B33",
";. c #9C7D32",
":. c #9B7C3C",
">. c #957639",
",. c #A27B3B",
"<. c #90721F",
"1. c #88774B",
"2. c #867C58",
"3. c #8B714D",
"4. c #827C66",
"5. c #827D78",
"6. c #7F827B",
"7. c #9D812E",
"8. c #9E8339",
"9. c #B6952D",
"0. c #A28533",
"q. c #AC8B34",
"w. c #AB8B3C",
"e. c #A78638",
"r. c #B28E34",
"t. c #B38D39",
"y. c #AD9037",
"u. c #B59334",
"i. c #B99634",
"p. c #BC9A35",
"a. c #B4933A",
"s. c #BD9B3A",
"d. c #B89739",
"f. c #B0872F",
"g. c #C39C34",
"h. c #C39D3B",
"j. c #C79A37",
"k. c #CAA336",
"l. c #CBA43A",
"z. c #CDA93B",
"x. c #C6A238",
"c. c #D3A635",
"v. c #D3AB3B",
"b. c #D7AC37",
"n. c #DDB23D",
"m. c #DDB339",
"M. c #E4B53C",
"N. c #ECBC3C",
"B. c #E4B739",
"V. c #F4BE3D",
"C. c #E1AF33",
"Z. c #F5C13C",
"A. c #FDCD3E",
"S. c #FAC63D",
"D. c #FAD13C",
"F. c #F7D33A",
"G. c #9D8345",
"H. c #8A855B",
"J. c #92865C",
"K. c #A68944",
"L. c #B58E41",
"P. c #B59343",
"I. c #BC9C45",
"U. c #B99844",
"Y. c #AB9254",
"T. c #8E8965",
"R. c #8A8568",
"E. c #918D65",
"W. c #918C6B",
"Q. c #97866B",
"!. c #98956D",
"~. c #969469",
"^. c #8E8A74",
"/. c #888477",
"(. c #938D78",
"). c #9A9572",
"_. c #9D9A73",
"`. c #9D967A",
"'. c #979374",
"]. c #A39C77",
"[. c #A0986D",
"{. c #A8A47B",
"}. c #C29D42",
"|. c #C6A143",
" X c #CCA647",
".X c #D4AD44",
"XX c #D8AD45",
"oX c #DBB348",
"OX c #D3AA54",
"+X c #D9B354",
"@X c #C6A25A",
"#X c #E3B543",
"$X c #E5BB43",
"%X c #EBBD42",
"&X c #E6BA4B",
"*X c #F3BE42",
"=X c #EDC145",
"-X c #F4C343",
";X c #FAC643",
":X c #FBCC43",
">X c #FCCA4A",
",X c #F4C44A",
"<X c #FCD144",
"1X c #F3C755",
"2X c #7F8281",
"3X c #898884",
"4X c #938D85",
"5X c #9B9889",
"6X c #9D9B92",
"7X c #999996",
"8X c #8C918B",
"9X c #A29E89",
"0X c #A09D94",
"qX c #9CA19B",
"wX c #AAA688",
"eX c #A4A49D",
"rX c #AAA89A",
"tX c #B4AD90",
"yX c #A9AAA5",
"uX c #B7B5A8",
"iX c #B7B7B2",
"pX c #B0ADA5",
"aX c #C1BEB2",
"sX c #C5BDA2",
"dX c #C8C6B8",
"fX c #D2CDBA",
"gX c #D8D4B6",
"hX c #D1CDA8",
"jX c #E3DEBF",
"kX c #E5E3B9",
"lX c #DAD6C7",
"zX c #E3DEC9",
"xX c #EAE7C7",
"cX c #F4F1CC",
"vX c #EBE9D3",
"bX c #F7F4DA",
"nX c #F2EFCD",
/* pixels */
"                                                                                                                                ",
"                                                                                                                                ",
"                                                                                                                                ",
"                                                                                                                                ",
"                                                                                                                                ",
"                                                                                                                                ",
"                                                                                                                                ",
"                                                                                                                                ",
"                                        X X X X X   . . . .     X X                                                             ",
"                                      X . @ % 6 f A J J J B f 6 % o . X X X X                                                   ",
"                              X X o , B :.}.XXoXn.XXXXOX X}.}.d.t.-.P d , . X                                                   ",
"                          . . , n L.XX%X*XV.*X&X+X/ d 2 5 n 1.|.g.i.r.0.>.H e       .                                           ",
"                        o < >.XX$X-X-X;X;X;X;XOXd o o o @ $ 4 ,.|.h.p.u.q.$.2 . . . X                                           ",
"                      @ J  X*XS.;X:X:X:XA.A.;X@X6 , J I.OX XI.}.x.h.h.s.u.e.>.$.I d #   X                                       ",
"                  X < :.M.Z.;X:X:XD.D.D.D.A.:X1XU.OX&X$X#XXXz.x.s.i.i.s.s.a.q.8.-.O.B - X                                       ",
"                . , L.M.-X;X:X<XD.D.D.D.A.:X:X;X-X%XM.n.m.v.z.g.u.r.u.a.p.p.u.q.0.=.&.H 2 .                                     ",
"                , ;.M.N.;X;X:X<X<XF.D.D.:X;X;X%XM.B.%X-X%XM.v.p.f.0.w.u.s.z.v.v.h.7.+.P B #                                     ",
"              . J v.N.Z.A.A.:X<X<XA.A.:X;X-X=XB.%X;X:X:X;X-X$X Xa.@.@.q.x.%X>X=X#XI.8.L A d # X X X                             ",
"          X X 6 x.C.N.Z.A.A.:X:X:X:X:X;X-X$XM.=X;X:X<X>X;X=X#X XI.0.@.<.l.>X>X;XoXI.w.=.D B e X X X                             ",
"          X # O.c.B.N.Z.;XS.:X:X;X;X-X%X#Xn.M.;X>X>X>X,X&X.X|.U.w.8.:.O.y.1X1X+XU.8.*.$.J A B #                                 ",
"            6 e.v.C.N.V.Z.Z.;X;X-X*X%X#Xv.v.#X=X&X XK.$.J J.Q.Q.Q.2.` H D G.U d W 9X0X/.| f B 5 X X                             ",
"        . X n j.c.C.N.N.N.N.N.N.$X$X#Xv.k.l.+XY.].} w { o.Q uXiXyX7X3XX./ M Q 9 = o.yX3XX.H A d o X X                           ",
"          . P j.c.m.M.M.M.B.B.M.n.n.XXl.g.x.Y.sXdXQ = 8 8 u yXpXqX8Xo.' Q.g = * = 3XeX5.` G.G d o X                             ",
"          . %.j.j.b.M.C.m.b.b.v.v. X Xh.p.p.P.wXuXyXR = : 3XiX7X8Xo. .1.Y.4XQ R 2XyX3X_ 1.&.G e o X                             ",
"        . @ >.i.j.c.b.b.v.c.k.x.h.h.h.h.g.p.d.Y.`.yXiXiXiXpX7X6.o._ / K.8.J.6X7X8Xo._ / >.F G e . X                 y R O       ",
"        . @ %.f.g.k.b.c.l.g.g.g.p.p.s.s.p.i.u.a.K.' o.o.o.o.| { ^ U G.-.#.-.1./ ~ ~ 3.K.+.S C e X X X             w zXzXQ X     ",
"          + O.f.g.j.c.c.l.j.g.p.9.9.9.s.h.p.i.i.u.K.1.H N N H *.G.7.;.;.7.#.;.-.&.&.O.F v v C 3 X X         X X = ^.bXdXy X     ",
"      X R uX].:.r.p.x.l.l.j.g.g.g.u.9.9.i.p.i.i.i.u.y.w.L.P.a.e.q.q.e.w.e.0.;.=.O.F A G F S C - .           X = wXvXlX6X=       ",
"      X 6XlXpXQ.8.u.g.j.l.k.k.l.x.g.p.p.p.s.p.i.p.p.p.u.9.u.s.h.s.a.u.d.u.0.7.#.+.D D F F S K o             - eXbXlX0Xy o > . . ",
"        y /.uXpXQ.1.u.g.k.x.z.z.z.z.l.x.g.g.s.h.s.k.l..Xn.n.oXn.l.u.i.|.a.0.#.@.L v D S F G f .         . . E xXbXxXhXhXgXgXuX5X",
"        . R eXuXeX4X3.e.d.h.h.x.k.v.v.v.v.z.z.l.l.c.n.$X=X$X$XoX Xu.a.d.q.8.@.+.L v v v F C 3 . .         . ^.bXbXcXkXgXgXxXbXxX",
"      . . o w o.7X7X5.` e.u.i.i.i.g.x..X.XXXXX.Xv..X.X+XoXoX XU.w.0.:.-.=.&.O.P F v v v S f #           = ..gXkXkXxXnXcXnXxXgXfX",
"  X X       ;  .rXeXeX4X/ :.q.q.q.r.r.r.u.r.r.t.t.a.P.K.e.@.+.A z x x x x x x z b F F S C 3 .           . ^.gXgXzXzXlXlXfXfXlXvX",
"X O ; y { [ dXaX0X6X3X6././ >.;.;.7.;.;.;.-.#.@.@.+.@.=.e.U.}.U.P.w.w.w.e.,.%.F F c c C f .               w 6X .[ [ Q R y w T ! ",
"{ fXdX6X6XpX4X0X6X6XeXo.o.9XR./ U &.@.@.@.@.O.O.+.L L D A A P &.&.>.>.&.O.S c x c c c f &                   w q o o o X X X   X ",
"dXvXdXrXvXbXdX4Xo.o.X...rXrX0X..~ H P L L L P P P I D Z k i p 7 s p p a a l x x c C V % X                                       ",
"R 5.o.{ aXdXyX/.` ` hXhX6X3X| } ` J A D D D D D A Z k l j i p p s s p a l x x x C f % .                                         ",
". X . X = q y u 2 4.vXlXeXX.` ~ ~ B k z Z Z Z z z l k k k k k k j j j l l x z V f $ .                                           ",
"              . X ; | 5.{ m e e 6 6 p p i n n j j n V Z Z Z Z n n j j l x x f 3 o   .                                           ",
"                    X o o .   . . + % 5 5 6 6 p i i i j j j i i i i i i s , O X                                                 ",
"                                    X . . # % % , , < 3 6 6 6 s 6 3 , @ . X X                                                   ",
"                                      X X X o o o o + + $ # # O o . X o o o o .                                                 ",
"                                                      . . .     . w 1 + & & & = = = *                                           ",
"                                                                . e W E 5 # : r r r q o                                         ",
"                                . o . * O * O O O o .           X 5 ~ ~ W : 0 t t r 8 X                                         ",
"                                  E E w & & - ; w q q 8 X     X X e ) ) ) g 0 Y Y Y w o                                         ",
"                                  M 3.` E & ; r r r r : X     X X g 2.T.R.R.! ! ! { .._ ^ m w . .                               ",
"                                X h K 3._ e 1 t t Y Y * X X X X   E T.)._.].).wXhX`.'.] ~ ~ ~ ~ W R : .                         ",
"                                . M 3.3.4.( w T Y Y Y ; O . X . w ) W._._.!.!._.].{.wXT.T.'.'./. .Q g =                         ",
"                                . ~ R.E.~.).4.( ( } ..) W W W 5 g E.W.~.E.E.E.E.J.~._.].wXwX5X/. .( R q                         ",
"                                o ) E.~.!.!.E.~.tXwXtX4.] ] ] ( ( ( W W._.~.H.H.H.)._.].`.(./. . .[ ( Q =                       ",
"                              . 5 ' T.!.~.J.J.J.2.2.T.'.).'.^.R...{ Q m M ) R.!.E.!.].wXwXwXwX(./.{ m w                         ",
"                              1 ( 2.H.E.H.J.J.J.J.Q.].].5X(./...| { Q m 1 o - g ) W.^./. .W y w : * X                           ",
"                              o m !.].[.J.2.1.2.2.R.W.(.^.4.X._ _ X.} ~ y . . . . O O . o X X                                   ",
"                              . . w W R.)._.{.[.T.H.!.].{.wXwX`.^...( y - .                                                     ",
"                                    . O ; u W R._.`.9X`.R.5.} R u : *                                                           ",
"                                              o : 1 1 ; = O . X     X                                                           ",
"                                                                                                                                ",
"                                                                                                                                ",
"                                                                                                                                ",
".                                                                                                                               ",
"                                                                                                                                ",
"                                                                                                                                ",
"                                                                                                                                "
};
