/* XPM */
static char *_27e2fc655d74b5aad242d9507f4bd02[] = {
/* columns rows colors chars-per-pixel */
"64 64 250 2 ",
"   c #0B0B0B",
".  c #0C1517",
"X  c #121212",
"o  c #14151A",
"O  c #16191E",
"+  c #191A1E",
"@  c #1D1614",
"#  c #0F0E13",
"$  c #0A0D28",
"%  c #0A132A",
"&  c #1B1C22",
"*  c #0A1337",
"=  c #0A0F34",
"-  c #1B2228",
";  c #0B2739",
":  c #0D383A",
">  c #153A34",
",  c #153C3C",
"<  c #1B3C3D",
"1  c #183936",
"2  c #10252D",
"3  c #282829",
"4  c #263C3B",
"5  c #383737",
"6  c #2C2A2C",
"7  c #2A1B1E",
"8  c #6D1C1B",
"9  c #4D3634",
"0  c #76342E",
"q  c #501616",
"w  c #0C4639",
"e  c #14423A",
"r  c #0B583B",
"t  c #0A6E3D",
"y  c #20403B",
"u  c #7D433A",
"i  c #0A1D4A",
"p  c #0A2B42",
"a  c #0B2849",
"s  c #0D3E42",
"d  c #0B374A",
"f  c #143E44",
"g  c #1B3D43",
"h  c #183D49",
"j  c #0A2D54",
"k  c #0A3557",
"l  c #233D44",
"z  c #283C40",
"x  c #0B3A65",
"c  c #0B3564",
"v  c #0A2F63",
"b  c #0D4244",
"n  c #0C444C",
"m  c #0B4B4C",
"M  c #0D4A43",
"N  c #134245",
"B  c #1C4146",
"V  c #13444A",
"C  c #1C434A",
"Z  c #15494D",
"A  c #0B5946",
"S  c #0C4653",
"D  c #0B4B54",
"F  c #0B4C5B",
"G  c #0B465D",
"H  c #144A54",
"J  c #194855",
"K  c #0B525C",
"L  c #0B5458",
"P  c #165459",
"I  c #21424B",
"U  c #234A55",
"Y  c #0A6749",
"T  c #0A7747",
"R  c #0A7757",
"E  c #0A6958",
"W  c #0B4E62",
"Q  c #0A4768",
"!  c #0A5464",
"~  c #0A556A",
"^  c #0B5A6C",
"/  c #0B5B64",
"(  c #145768",
")  c #0B5975",
"_  c #0B4C73",
"`  c #0A6668",
"'  c #0A647B",
"]  c #0B6776",
"[  c #0B737B",
"{  c #146A72",
"}  c #29616E",
"|  c #484848",
" . c #5A5B5D",
".. c #574B49",
"X. c #685350",
"o. c #76655C",
"O. c #547471",
"+. c #686868",
"@. c #767677",
"#. c #756A6B",
"$. c #893631",
"%. c #AC3F3D",
"&. c #8B463B",
"*. c #B9433E",
"=. c #985247",
"-. c #8D5048",
";. c #A9594B",
":. c #B7574A",
">. c #AC504A",
",. c #92675A",
"<. c #A76658",
"1. c #B76859",
"2. c #BB624F",
"3. c #917670",
"4. c #B66E62",
"5. c #A77467",
"6. c #B37568",
"7. c #BA7D71",
"8. c #A6746C",
"9. c #C95958",
"0. c #C46859",
"q. c #C77567",
"w. c #D5796B",
"e. c #D07169",
"r. c #E57271",
"t. c #0A854B",
"y. c #0A8957",
"u. c #09935A",
"i. c #0A9967",
"p. c #0D8A67",
"a. c #0AA065",
"s. c #2E8475",
"d. c #4F8B77",
"f. c #768A7A",
"g. c #B98578",
"h. c #AA887B",
"j. c #8C907F",
"k. c #C88679",
"l. c #D98678",
"z. c #CC8F6C",
"x. c #E2897C",
"c. c #E7B87D",
"v. c #E2AC75",
"b. c #D6A17B",
"n. c #0B5889",
"m. c #0A6689",
"M. c #0A7A88",
"N. c #0A6993",
"B. c #0A7697",
"V. c #197988",
"C. c #0A7BA2",
"Z. c #0977B8",
"A. c #2B7983",
"S. c #7E7F81",
"D. c #E97E81",
"F. c #0A8998",
"G. c #0B8891",
"H. c #319691",
"J. c #0A8AAC",
"K. c #0A87A4",
"L. c #0A98AA",
"P. c #0A99B7",
"I. c #0B8DB4",
"U. c #0AA6B7",
"Y. c #10B1BB",
"T. c #29A7AF",
"R. c #38B198",
"E. c #6C9A96",
"W. c #639AA2",
"Q. c #5DA3AB",
"!. c #0A9CCA",
"~. c #0AA7C5",
"^. c #0AB4CB",
"/. c #0AB7C9",
"(. c #09BCD4",
"). c #0ABAD6",
"_. c #33BAC3",
"`. c #52BBC5",
"'. c #0AC4DB",
"]. c #0ACBDD",
"[. c #0AC2D4",
"{. c #0FCDD9",
"}. c #09CBE3",
"|. c #0AC7E4",
" X c #09D3E4",
".X c #09D4EA",
"XX c #09DBEE",
"oX c #09DAED",
"OX c #09DAEE",
"+X c #08DAE8",
"@X c #16D8EA",
"#X c #09DBF0",
"$X c #07DAF0",
"%X c #28D8E9",
"&X c #08E3EC",
"*X c #32CFDD",
"=X c #49D2DB",
"-X c #66CDD4",
";X c #50D9E4",
":X c #5CC1A1",
">X c #868586",
",X c #969697",
"<X c #8E9291",
"1X c #B3948C",
"2X c #B6A497",
"3X c #AFADAD",
"4X c #91A8AA",
"5X c #D0948A",
"6X c #E79689",
"7X c #EB9593",
"8X c #D3AA97",
"9X c #E7B987",
"0X c #E8A799",
"qX c #E6BB96",
"wX c #CFB1A9",
"eX c #E9B8A8",
"rX c #EDAEAC",
"tX c #F29EA8",
"yX c #EAC494",
"uX c #D9C6BA",
"iX c #EAC6AA",
"pX c #EAC5B7",
"aX c #F1C8B8",
"sX c #ECD6BA",
"dX c #EBD4AF",
"fX c #BDBFC2",
"gX c #F3BDC4",
"hX c #93CFCB",
"jX c #AECFCC",
"kX c #D8D9D7",
"lX c #CDCDCA",
"zX c #EACEC4",
"xX c #EBD6CA",
"cX c #F1D6C8",
"vX c #E8DBD7",
"bX c #F1DCD6",
"nX c #F2C6C7",
"mX c #EDE4D9",
"MX c #F1E3D5",
"NX c #F1E4DB",
"BX c #F2E9DC",
"VX c #F0E3CF",
"CX c #CFE5E6",
"ZX c #EAE8E7",
"AX c #F1EAE3",
"SX c #F2EDEA",
"DX c #F1E7E3",
"FX c #F2F2F1",
"GX c #F2F1EE",
"HX c #DFE0D4",
/* pixels */
"                        5 I         ; (.oXoXoXoXXXXXoXoXoXXXoXoXoXoXoXoXoXoXXXoXoXoXoXXXB.F S S S F F W W K K ! ! K ! K F H F F ",
"                      3 +.@...|   2 [.oXoXoXoXoXXXoXoXoXXXoXoXoXoXoXoXoXoXoXoXoXoXoXoXXXB.F G D F ! ! ~ ^ ^ ^ ^ ^ ^ ~ ~ ~ ~ ~ ~ ",
"                    3 #.<X,X@.@.: [.oXoXoXoXoXoXoXoXoXoXoXoXXXoXoXoXoXoXoXoXoXoXoXoXoX#XB.W F F ! ~ ~ ^ ^ ^ ^ ^ ! F F F W ! ! ~ ",
"                o 6 +.#.>X@. .Z '.oXoXoXoXoXoXoXoXoXoXoXoX#XoXoXoXXXoXoXoXoXoXoXoXoXoXoXB.W W ! ~ ~ ~ ^ ^ ^ ~ F n f f f f S W ~ ",
"                | ,X>X+.>X+ s ].oXoXoXXXoXoXoXoXoXXXXXoXoX#X#XoXoXoXoXoXoXoXoX#X#XoXoXoXN.W W W ~ ~ ~ ~ ^ ~ K n f < g g , f S ! ",
"            6 +.+.,X>X,X| s '.oXoXoXoXoXoXoXoXoXoXXXXXoXoX#XoXoXoX#X#XoX#XXXoXXXoXoXoXoXN.W W ! ~ ~ ~ ~ ~ ! F d g < < l g s n F ",
"          6 @.+.<X,X+.+.D  XoXoXXXoXoXoXoXoXoXoXoX].G./ s 2 O . O 2 ; L G.^.oXoXoXoXoXoXm.W W K ! ~ ~ ~ ~ ! D n < < < < < g V F ",
"            5 | ,X,X| L  XoXoXoXoXXXoXoXoXXXoXoXoXL   X X     X           . L.XXXXoXoXoXm.W W K A.W.W.{ ~ ! L m n s f f g h S K ",
"        5  .3 +.<X .P }.oXoXoXoXoXoXoXoXoXoXoXoX].2                         ` oXoXoXoX.Xm.W W { hXCXCX-X/ K K L D n n b n S K ! ",
"    + +.<X@.#.5 3 /  XoXoXoXoXoXoXoXoXoXoXoXoXXXL.                          : .XoXoXoX}.' ~ W / W.jXhXE.P L ! ! ! K L K ! ~ ] [ ",
"    | +.@.#.,X+ / .XoXoXoXoXoXXXXXXXXXoXoXoXoX.X/                           . /.oXoXoX.X) ~ F L L P P H H D L D D D D D K / [ G.",
"3 #.>X .>X<XE.] .XoXoXXXoXoXoXXXoXoXXXoXXXXXoX/.&                             M.oXoXoX}.) ! W D D L D m n b s b f s b b b n D / ",
"5 @.>X>X>X .[ .XoXoXXXoXoXoXoXoXoXoXXXoX#XoXoX[                               ; [.oX#X}.) W F L D D n s : , < , , , , , , , f N ",
"  o | ,X6 [ oXoXoXoXoXoXoXoXoXoXoXoXXXoXoXoXH..                                 U hX4X,X#.} F F S n f , , , e e w w w w w w w e ",
"      # F.oXXXXXXXXXXXoXoXoXoXoXoXoXoXXX].P                                       9 q.r.r.O.F n s : < < < w r Y Y T T T T Y A w ",
"    . L.oXoXoXoXoXoXoXoXoXoXoXoXoXoXoXoX;   X     X X X X X X X                     X =.w.} D n , , , e w Y y.y.y.y.y.t.t.t.R R ",
"  . L.oXoXoXoXoXoXoXoXoXXXoXoXoXoXoXoXoX/./ O X X X X X X X X X # #                 7 :.q.P n f , , > r R y.y.y.t.t.t t t T t.y.",
". Y.oXoXoXoX#XXXoXXXoXoXXXoXoXoXoXoXoXoXoXoXjX1X3. .5 3 X X       #     X @ 7 9 0 %.:.9.8.D n f , , w Y y.y.y.t.T t r r r r t T ",
"U.oXoXoXoXoXoXoXoXoXoXXXoXoXoXoXoXoXoXoX#X@XCXpXxXAXzXuXvXvXzXwX8Xk.5X5X0X0X6Xx.w.9.%.:.7.C g < , > A R y.y.y.t Y r w w w w w Y ",
"oXoXoXoXoXoXoXoXoXoXoXXXoXoX#XoXoXoXoXoXoX@XCXAXGXvXg.,.uXSXbXaX0Xq.>.0 u 4.x.x.x.9.*.9.3.C g < < w A y.y.y.t.t r w e < , , w r ",
"oXoXoXoXoXoXoXoXoXoXoXoXoXoX#XXXoXoXoXoXoX@XCXAXAXDXNXMXBXbXrX7Xx.w.l.0X0X5Xw.w.x.x.e.e.O.C g 4 < w Y y.y.y.t.t r e y y 4 < 4 w ",
"oXoXoXoX#XoXoX#XoXoXoXoXoXoXoXoXoXoXoXoXoX%XZXNXNXbXBXBXAXrXr.r.r.6X0X0X6Xw.w.0.w.q.w.q.( V g z < w Y y.u.u.y.T r w 1 e 1 < 4 w ",
"oXoXoXoXoXoXoXoXoXoXoXoXoXoXoXXXoXoXXXoXXX%XkXMXNXDXSXSXSXnXr.r.6X6X6Xl.w.w.e.;.=.2.0.3.W C l < < : A y.i.u.u.y.T w w w w e e r ",
"oXoXoXoXoXoXoXoXoXoXoXoXoXoXoXoXXXoXoXoX#X@XkXMXNXDXSXSXbX0X9.r.q.q.q.q.4.1.-.-.-.$.2.O.W V l g l f M E p.i.u.i.y.R Y r r r Y y.",
"oXoXoX#X#XoXoXoXoXoXoX}.~.J.J.(.oX#X#XoXoX@XlXcXcXNXDXxXrX>.$.$.=.=.4.6.<.<.u &.&.>.1.V.W Z B h l g N A R i.i.i.i.u.y.y.y.y.u.i.",
"oXoXoXoX#XoXoXoXoXoX'.B._ _ ) k J.oXoXoXoXoXjXaXzXbXbX5Xe.8 q q 0 0 $.=.<.<.-.&.=.1.>XB.W Z C N f h B M A R p.i.i.i.i.a.a.a.i.i.",
"(.(.'.}..XoXoXoXoXoXK.a k k k _ a J.oXoXoXoX-XaXcXNXSXeX9.>.9.>.$.8 8 $.<.<.<.:.;.6.`.N.W S Z V N f g B b M Y R p.i.i.i.i.i.i.y.",
"k j k Q K.~.}.oXoX.XQ a k x k Q k j '.oXXXoX@XjXcXDXSXNXtXtX7X7X9.$.$.1.6.<.<.1.4.,X@XN.W H Z H C C g N b N M A Y E R R R R Y r ",
"= = = * N.) N.oXoX(.a a k x c c _ * N.oXoXoXoX@XhXvXSXFXbXgX7XtXe.:.1.k.7.6.6.7.4X@XoXN.W H H H J C B B B l B V M M M M w w w e ",
"= % % = B._ _ oX#XU.; j x x c x x k j '.oXoXoXoX#X%XCXGXSXnXtXrX7Xr.k.g.7.6.g.`.oXoX Xm.W D D H H H J J I C B b b b s s w w : b ",
"% $ $ = C.Q ) oX#XL.; k x x x x x _ i P.oXoXoXoXoX@X8XiXSXbXgXtXD.6X5Xg.5.z.9X=XoXoX}.m.W D D H H J J J J H V V n b b N b b b n ",
"= $ $ * K.k m.oXoXL.; k c x c c x _ a B.oXoXoXXXXX@X8Xc.AXNXrX7X6X8Xg.5.<.b.c.`.oXoX}.m.F n m C C I I I I C V n V V V V V V Z Z ",
"= % $ * C.j B.oXoXL.; j v k v k c k d ) oXoXoXoXoX;XiXc.VXGXDXvXlXwXh.6.1.v.b.8.`.oX}.m.F n n , , g < < < < , , , , , g h h h B ",
"= % $ a B.a K.oXoXU.; j k k j j j j k G XXoXoXoXoXlXsX9XdXFXFXFXZXkX2X6.z.9Xz.4.1X@X}.m.W S h , , , 1 1 < , 1 , > 1 > > 1 1 1 1 ",
"= % $ a B.i I.oXoX^.; d k j a a a a k k oXoXoXoX%XHXVXiXyXGXFXFXSXvXwXg.5X9Xw.0.5._.oXP.^ J I h g < < < < < < < 1 > > > > > > 1 ",
"* = $ k N.* ~.oXoX}.d p d k d d p p d d oXoXoXoX;XmXBXxXc.BXFXFXDXzXwX5X9Xc.l.w.6.T.oX#XL.F J C C I B B B B B B B g < < < < < < ",
"P.P.K.B.N.k ^.oXoXoX] ; ; p d d p p d d #XoXoXoXhXBXAXAXyXsXFXGXDXxXeXeXc.qX6Xl.q.H.oXoXL.W S h g g B C C V V N B B C I I I I I ",
"|.&X&X^.C.n.'.oXoXoXP.% ; p p p p p f ! #XoX#X%XkXBXBXSXsXyXGXSXNXxXzXiX9XiX0Xx.w.d.].(.M.W S f f , , f , < l l g l l l l I B B ",
"|.&X X~.B.n..XoXoXoXoX( 2 ; p ; p ( % F.oXoXoX=XxXMXMXBXmXyXVXSXbXxXzX9XyXpX0X6Xl.3.G.K.M.] / K L D m Z V C h h g < < , , , , , ",
"|.}.'.~.B.m.oX#X}.'.oX{.p ; p p p } : '.oXoXoX=XxXMXMXAXSXsXyXdXpXqX9X9XiXeX0Xl.w.5.s.L.F.F.G.G.G.M.M.M.[ [ ] / / K L L L D m b ",
"P.I.~.P.N.N.#X).N.^.oXoXT.; ; p V.( P.oXoXoXoX=XvXBXAXSXSXSXmXzXeX8X8XwXeXeX5Xw.q.1.O.Y.Y.U.U.L.L.L.F.F.F.G.G.M.M.M.M.M.[ [ ` ` ",
"^.P.J.C.n.N.!.n.N..XoXoX@X-XW.Q.T.'.oXoXoXoXoXjXBXAXSXFXZXkXZXlXuXwX1X5X8X8Xk.q.0.0.<.T.oXoX+X X X].'.[./.^.U.U.L.L.L.F.F.G.G.M.",
").J.P.B.x v P.~.J.oXoXoXoX%X{ ^  XoXXXoXoXoX=XmXBXBXSXZX,X,X3X3XwX1XwX1Xg.g.k.6.1.2.1.O. XoXoXXXoXoXoXoXoXoXoXoX+X X X}.'.(./.U.",
").B.P.B.j C.XX|.!.#XoXoXoX X^ K.oXoXXXXXoX%XlXMXMXaXSXSX<X,X@.<X+ ..2X1X5.8.g.4.;.:.:.,.Y.XXoXXXoXoXoXoXoXoXoXoXoXoXoXoXoXoXoXoX",
"~.K.J.N.x I.^.C.B.#XoXoXoXoX] P.oXoXXXXXoXjXMXMXcXpXkX3XZX<X+.| @.+.2Xh.8.8.8.<.;.;.:.<.H.+XoXXXoXoXoXoXoXoXoXoXoXoXoXoXoXoXoXoX",
"~.P.P.K.C.I.I.B.N.oXoXoXoXoXF.U.oXXXXXoX*XzXMXcXpXzX3X,X>X| @.@.@.@.3.3.,.5.5.;.:.0.0.1.d. XoXXXoXoXoXoXoXoXoXoXoXoXoXoXoXoXoXoX",
"_ _ $ $ Q }.oX'.K.oXoXoXoXoXP.U.XXXXXXXX-XVXMXaXeXbXFXFXlX| +.@.+.,XX.X...5.4.1.1.w.w.q.d. XoXoXoXoXoXoXoXoXoXoXoXoXoXoXoXoXoXoX",
"_ W $ $ J.oX#X}.J..XXXoXoXoXU.U.#XXXXXXXhXMXbXeXeXAXFXFX,XlX<X<X@.#.o...,.7.;.=.q.6X6Xw.d. XoXoXoXoXoXoXoXoXoXoXoXoXoXoXoXoXoXoX",
") W $ x I.!.}.}.J.}.oXoXoX#X^.U.oXoXXXoXjXMXcXpXaXSXFXFXkXZX+.3XlXwXwX5X1X7.=.&.l.0X7Xx.f.].XXXXXXXXoXoXoXoXoXoXoXoXoXoXoXoXoXoX",
"_ Q a ^.oX|.!.Z.n.}.oXoX#XoX/.U.oXoXXXoXjXMXcXcXaXlXlXkXkXkXfXlX3X>X3.3.,.X.9 ;.0XeX0X6X>X].XXXXoXoXoXoXoXoXoXoXoXoXoXoXoXoXoXoX",
"I.m.~.oXoXoXoXoX.XoXoXoXoXoX/.P.oXXXoXoXhXxXcXaXwX6 & & & + O O o o o o X . o 5.aXaXeX0XE.oXXXXXoXoXoXoXoXoXoXoXoXoX#XoXoXoXoXoX",
"P.n.}.oX#XoXoX#XoXoXoXoXoXoX^.L.XXoXXXoX-XuXzXpX8X3 + O O o & O o O o O o O + 2XcXaX0X1X/..X.X X X X}.[.).).(.(.'.'.}.}.oXoXoXoX",
"~.m.oX$X#XoXoX#XoXoXoXoXoXoX^.U.oXoXXXXXoXhXuXwX8.+ & + + X & O o + X + o 9 8XcXcXeX5XH.[.].}. X X].^.C.m.' ' ' ' m.m.m.L.oXoX.X",
"B.N.oXXXoXoXoXoXoXoXXXoXoXoXU./.XXoXoXXXXX{.f.1Xo.o & & O o & o & & o ..1XpXcXaXeX8Xf.p.G.L.P.L.L.K.M.' ' ] [ V.[ ] ^ ' m.^.'.P.",
"i C.oXoXoXoXoXoXoXoXoXoXoXXXF. XXXXXXXXXoX/.- 5 3 + & & O o & O & & 9 pXcXaXpXeX0Xh.p.E L ! ~ W G G F ~ ] [ R.:XR.` / ^ ' M.M.m.",
"i ~.oXoXoXoXoXoXoXoXoXoX#X(.m.+X X+X X+X&XL.- 3 + & & & O O & & & & #.cXzXeX0X5Xg.s.` ` L L W G G G F ! ` ` ` R R / ~ ^ ! ! F F ",
"v }.oXoXoXoXoXoXoXoXoXoXoXP.K. X+X&X&X&X&XM.- - & & & + o + & & & & X.zXpX0Xq.5.o.{ ] ' ) ^ ) ~ ~ ~ ~ ~ ^ ) ^ ^ ^ ^ ~ ~ F S s s ",
"n.oX#XoXoXoXoXoXoXXXoX'.[.) ~. X+X&X&X&X&X{ - & & & & + o + & & & & 3 o.h.8.-.9 3 ~ ~ ~ ~ ~ ! ~ ! ~ ! ! ! ! ~ ~ ! ! ! ! F n f , ",
"~.oXoXoXoXoXoXoXoXoX~.P.K.' /.'.+X+X+X+X+Xg - & & & & O # + & & & & & & & + o o 2 F F F F F F F F F D S S S G D F G S D V N g , ",
"oXoXoXoXoXXXoXoXoX XJ.J.m.L.(.[.].]. X].[.2 & & & & & o   O & & & & & & & + o o 2 ! D F S D S S n n n n d f N b V V V f N m m b ",
"oXoXoXoXoXXXoXoXoXoX^.N.N.U.~.^.^././.^.M.- & & & & O X   X O & & & 6 & & O o o 2 ] K D n d h h f f f f f f , b b N b b N K / ~ ",
"oXoXoXoXoXoXoXoXoXoXP.N.J.B.F.F.F.K.K.K.H - & & & & o #     O & +.S. .@. .| +.| - ' ~ F S V h h C C B B C V V M N N N N N / ] ^ ",
"oXoXoXoXoXoXoXoXoX^.N.}. XF.m.' ] ] A.E.6 & O + O o X #     o + @.<X@.>X@.,X>X>X4 ) ~ K D S n n Z Z Z m m m m m m N N N V K / K ",
"#XoXoXoXoX#XoX.XP.C.'.oXoX}.L.^ ( O.2X2X3...9 3 & + o o .   . O  .@. . .+.E.@.@.4 ' ^ W F F D D D D m m m m m m m m n V n K ! L "
};
