/* XPM */
static char *b63358c6b65a40cbbe63eb922c58e53e[] = {
/* columns rows colors chars-per-pixel */
"64 64 256 2 ",
"   c #04060B",
".  c #040A0C",
"X  c #080707",
"o  c #081517",
"O  c #10100E",
"+  c #251C18",
"@  c #251507",
"#  c #142A14",
"$  c #2C2419",
"%  c #0B2527",
"&  c #0D3638",
"*  c #13302F",
"=  c #272626",
"-  c #362C24",
";  c #383726",
":  c #2B3933",
">  c #0F1D24",
",  c #483925",
"<  c #5B3B2B",
"1  c #563827",
"2  c #4F3630",
"3  c #623A2B",
"4  c #663C33",
"5  c #612E28",
"6  c #47311F",
"7  c #38481B",
"8  c #345C1D",
"9  c #34561C",
"0  c #2B4F16",
"q  c #39671C",
"w  c #3C751F",
"e  c #16413D",
"r  c #3B4925",
"t  c #395822",
"y  c #344D33",
"u  c #3B6424",
"i  c #3C6825",
"p  c #3F7423",
"a  c #454F1C",
"s  c #484726",
"d  c #58462A",
"f  c #475728",
"g  c #474A38",
"h  c #5A4534",
"j  c #58573B",
"k  c #4D5635",
"l  c #63422D",
"z  c #634A2D",
"x  c #654432",
"c  c #644B34",
"v  c #6B4A35",
"b  c #6C4C3B",
"n  c #674738",
"m  c #724E3B",
"M  c #724D38",
"N  c #695439",
"B  c #74543B",
"V  c #69592D",
"C  c #456929",
"Z  c #467628",
"A  c #4B7434",
"S  c #56783A",
"D  c #556D2E",
"F  c #7B6739",
"G  c #697837",
"H  c #78763A",
"J  c #676E2D",
"K  c #526D1F",
"L  c #145556",
"P  c #154B4A",
"I  c #2A5450",
"U  c #13635B",
"Y  c #145C62",
"T  c #056665",
"R  c #086668",
"E  c #136265",
"W  c #0B7577",
"Q  c #2F6869",
"!  c #585745",
"~  c #54504D",
"^  c #774B45",
"/  c #695845",
"(  c #775846",
")  c #655958",
"_  c #74544C",
"`  c #567945",
"'  c #556D4B",
"]  c #68664B",
"[  c #78654A",
"{  c #6A6858",
"}  c #766856",
"|  c #73754F",
" . c #7B6B65",
".. c #787767",
"X. c #6C6D6A",
"o. c #517066",
"O. c #866A3E",
"+. c #87713D",
"@. c #845B56",
"#. c #84584F",
"$. c #876B45",
"%. c #8A7546",
"&. c #95794A",
"*. c #876959",
"=. c #877659",
"-. c #947859",
";. c #91685B",
":. c #886B63",
">. c #867667",
",. c #9B7B6A",
"<. c #957766",
"1. c #867B71",
"2. c #97726C",
"3. c #A57E6F",
"4. c #4C8A2A",
"5. c #4D922B",
"6. c #4E9A2E",
"7. c #51932E",
"8. c #55992F",
"9. c #4D8731",
"0. c #548936",
"q. c #549433",
"w. c #5A9534",
"e. c #569A33",
"r. c #5A9B35",
"t. c #5C9D39",
"y. c #58943B",
"u. c #529030",
"i. c #668938",
"p. c #649A3B",
"a. c #72893C",
"s. c #5AA235",
"d. c #5DA33B",
"f. c #5BA739",
"g. c #53A02C",
"h. c #62A33C",
"j. c #62AA3D",
"k. c #64A63A",
"l. c #65B23E",
"z. c #23817C",
"x. c #5C9945",
"c. c #558A47",
"v. c #689845",
"b. c #799956",
"n. c #718D48",
"m. c #5EA242",
"M. c #66A843",
"N. c #6AB447",
"B. c #73B64C",
"V. c #75AE50",
"C. c #7E8F6B",
"Z. c #73C14C",
"A. c #99824D",
"S. c #9C8455",
"D. c #898B57",
"F. c #A78957",
"G. c #AA915C",
"H. c #B1935D",
"J. c #AA8854",
"K. c #998669",
"L. c #898778",
"P. c #988976",
"I. c #8E916D",
"U. c #A6886B",
"Y. c #B29663",
"T. c #B79A68",
"R. c #A78975",
"E. c #A9947B",
"W. c #B89877",
"Q. c #AF8D6C",
"!. c #95A671",
"~. c #BEA36C",
"^. c #B8A268",
"/. c #AFA479",
"(. c #87A05C",
"). c #C1977B",
"_. c #C2A46D",
"`. c #C5A66B",
"'. c #C3A572",
"]. c #C5AA74",
"[. c #C9AC76",
"{. c #CBAE7A",
"}. c #C5A879",
"|. c #CDB17C",
" X c #CAB077",
".X c #D1B37E",
"XX c #0B7B82",
"oX c #0A8485",
"OX c #168D8F",
"+X c #288B8C",
"@X c #19B7B7",
"#X c #13ADAE",
"$X c #27B7B7",
"%X c #2CAFAC",
"&X c #17C3BD",
"*X c #22C1BA",
"=X c #18BEC0",
"-X c #03CCCC",
";X c #0ACACB",
":X c #0ACAC6",
">X c #15C5C5",
",X c #04CBD1",
"<X c #01D1CC",
"1X c #31C5C4",
"2X c #56CECC",
"3X c #66D3D3",
"4X c #419B96",
"5X c #978D83",
"6X c #999586",
"7X c #8F918B",
"8X c #A79A86",
"9X c #B69B88",
"0X c #A59D94",
"qX c #B4928B",
"wX c #AAA687",
"eX c #B8A48B",
"rX c #AAA699",
"tX c #BAA795",
"yX c #B2B692",
"uX c #B4ABA5",
"iX c #B7B3AD",
"pX c #B0AFAC",
"aX c #99B1A5",
"sX c #C59B85",
"dX c #C39C92",
"fX c #CBA68A",
"gX c #D4B783",
"hX c #C6A898",
"jX c #C8B39B",
"kX c #D6B39C",
"lX c #D3AC92",
"zX c #C9B6A6",
"xX c #D5BAA7",
"cX c #C7BAB6",
"vX c #DBBBB3",
"bX c #CAADA7",
"nX c #E3BDAC",
"mX c #B2C1B2",
"MX c #D7C3AD",
"NX c #DAC8B7",
"BX c #D4CCB2",
"VX c #E4CAB8",
"CX c #E5D1BC",
"ZX c #DDC08E",
"AX c #A3ECEC",
"SX c #D5CCCA",
"DX c #E9D7C8",
"FX c #F2DACA",
"GX c #EADBD4",
"HX c #F3DED4",
"JX c #E5CCC4",
"KX c #F8E4D9",
"LX c #EEE2D6",
"PX c #FCEAE3",
"IX c #EBF4F4",
"UX c #D4F2F3",
/* pixels */
"v.v.v.v.0.A C C t 7 0 0 q Z 0.p.M.V.(.!.!./.!.b.v.M.h.M.v.v.p.i.S D D J %.A.H.G.Y.T.Y.Q.Q.).fXdXqXqX:.*.*.K.W.}.[.[.[.[.'.'..X|.",
"C t 9 a a 7 7 7 a a a a a f K i.v.(.!.wXtXzXeXI.b.v.i.S D D K K D J J H A.F.H.T._.'.W.).fXlXhXdXqX3.*.*.:.U.W.'.]. X|.{.[.'.{.|.",
"7 s s s d d d d z V B B V V J G J D.wXtXhXzXzXyXI.] D J H A.A.A.D.G.G.Y.G.G.H.T.T.W.W.W.kXbXhXqX2.;.@.:.<.W.).'.'.{.|.'.[.{.{..X",
"s d d z d d c N B F B B F O.O.%.D.K.eXtXtXzXMXxXxXwXK.U.U.Q.F.F.Y.T.T.T.Y.T.Y.W.W.W.lXkXzXhXhXqX;.#.#.*.,.W.}.'.~.~.|.gXgX|.[.'.",
"z z z v N N B F F $.O.$.$.%.&.-.-.P.tXtXhXhXvXVXVXMX8XR.Q.U.Q.Y.T.'.T.Q.Q.W.W.W.9XdXvXxXhXeXqX@.^ ^ ^ @.,.W.'.[._.].|.gXgX X'.].",
"V V B F $.$.%.%.$.$.$.&.&.+.%.S.K.E.tXzXhXtXbXNXJXDXNX9XU.W.fXfXfXfX).W.sXfXsXfXhXxXNXjX8X3.#.4 4 ^ ^ @.,.W.'.[._.|.|.|.|.|.{.].",
"i.J F [ $.$.$.$.$.&.%.%.%.&.&.S.K.R.eXzXhXeX9XbXJXGXHXNXhXkXkXkXkXlXsX9XfXsX).hXhXxXNXzXeX,.n 5 5 4 ^ *.,.W.W.{. X|.|.gX|.|.[.'.",
"p.i.G | | [ F F O.$.$.O.+.&.S.F.K.U.eXxXzXtX9XtXNXLXLXHXFXVXxXkXlXfXsXsXsXW.Q.fXxXxXMXzXtX,.4 5 5 5 n 2.3.E.W.|. X].|. X X[..X.X",
"h.p.i.a.G H H O.O.O.$.$.%.&.&.-.S.U.eXMXxXtXtXzXSXKXKXKXFXVXxXkXfX).W.).sXQ.R.hXxXxXbXtX9X;.n 5 5 5 3 :.R.W.W.'.[..X|.{.].'.'.|.",
"k.r.r.v.v.a.G J F $.%.&.&.A.&.-.-.U.eXVXbX9XzXGXHXKXKXKXFXVXkXlXsXQ.Q.sXW.3.R.9XhXeX9XE.R.;.( m 4 < 4 :.R.9X~.].[.|.ZXgX{.{.[.].",
"k.e.d.t.p.p.i.J J H H +.%.%.%.&.S.K.9XNXtX8XxXKXPXPXKXKXDXNXjXfX).Q.W.sXQ.Q.Q.R.R.R.R.P.,.;.;.*.4 < n *.R.eX}.'.~.].{.~.'.[.{.[.",
"w.e.d.r.h.M.p.i.a.a.H %.%.$.+.$.-.-.E.MXzXtXJXPXPXPXKXHXDXNXxXfX).).sXsXW.sXR.,.K.,.,.,.<.<.-.*.^ b _ :.E.9XW.~.~.'.{.{.]. X|.|.",
"r.e.7.7.e.d.M.r.p.v.n.a.%.+.+.+.$.-.R.xXzXzXLXPXPXPXKXFXDXCXCXkXsXsXfXsXsXkXE.K.K.,.,.,.<.<.<.-.;.*.*.<.E.W.~.~.~.'.'.].{.|. X{.",
"6.d.h.d.e.q.e.e.t.h.v.i.G H H F $.-.P.zXJXKXPXPXPXPXHXFXDXFXFXVXkXfXkXlXlXhXR.R.E.E.3.<.<.<.<.-.-.*.*.<.E.W.}._.`._._.{.|.|.'.'.",
"r.d.t.d.d.t.r.e.t.s.k.p.i.i.J J H %.<.jXDXPXPXPXPXKXGXFXFXLXKXCXnXxXxXdXE.E.K.E.9XqXR.<.<.<.<.<.-.*.*.<.E.W.}.'.'.[._.T._.{.|.|.",
"d.M.M.d.d.h.d.r.d.s.j.t.w.p.i.G J | =.eXJXPXPXKXKXHXHXDXDXKXKXFXVXxXnXW.,.,.=.[ / _ :.<.;.*.;.;.*.*.[ K.E./.}.{.'.{._.'.'.{.gXgX",
"e.t.t.e.e.t.t.7.q.r.r.w.h.p.w.w.v.n.n./.MXDXHXLXDXuX1.) P.HXKXHXVXxXnXR.,.*.- @ @ + < *.*.( ( *.( ( *.U.E.W.T.{. X'.'.'.'.{.|.gX",
"e.r.r.q.q.e.r.e.e.r.w.r.w.r.h.r.r.p.n.!.yXNXDXFXNX8X .6 ! JXKXHXVXjXkXR.;.b $ @ @ $ _ *.#.M M ( ^ ( =.E./.T.~.`.]._._.~.'.|.gXgX",
"5.t.M.q.r.r.h.r.5.d.r.7.5.5.w.w.d.h.p.(./.zXCXKXDXP., - ! cXKXKXVXjXhXR.;.4 1 1 h _ *.( m b x n n ( <./.~.'.].`.^._.].[.|.{.].{.",
"q.q.q.7.q.e.t.t.e.d.d.r.e.r.e.7.7.7.k.b.!.jXCXDXDXzX5X8XzXNXFXHXVXhXhXR.;.M M *.*.*.( M ( ( M b / *.K.G.T._.`._.~.].gX{.|.gXgXgX",
"d.t.e.q.7.7.7.r.d.h.d.d.d.d.t.r.r.p.p.v.(.yXCXJXNXNXMXNXCXNXDXFXvXhXR.;.*.*.*.;.*.[ ( ( ( m b N [ -./.^.~._.`._.T.~.gX{.{.gXgXgX",
"e.d.h.q.q.q.t.t.t.d.M.t.t.d.r.r.t.M.h.w.v.wXMXNXNXMXMXVXCXDXFXvXqX3.;.*.*.-.<.,.<.*.( / N h b / =.K.T.Y.~.].].gX{.~.{.{.].|.{.'.",
"7.q.q.r.7.q.r.5.4.7.e.7.e.t.t.t.d.h.p.p.v.(.yXzXcXNXDXFXDXHXJXdX@.^ 4 ( -.,.,.<.<.*.[ / b n / [ K.G.Y.'.~._.T.T.T.T._.].|.gX{.{.",
"q.q.5.5.q.q.5.4.5.5.7.q.e.r.7.4.5.7.t.r.p.b.!.yXzXBXGXLXGXHXHXvX;.#.@.,.,.,.,.:.=.*.} [ _ _ *.=.S.G.Y.T.T.T.H.T.~.~._.{.gXgXZXgX",
"h.t.q.7.7.7.7.8.r.q.q.r.t.q.5.5.e.h.r.q.y.v.C.wXyXBXDXGXGXSXNXbX;.^ ;.*.@.*.:.*.>.:. .} } } :.:.S.S.-.J.T.T.T._.'._.~.~.~.~.|.|.",
"q.4.4.7.e.7.r.q.r.q.4.q.r.q.q.t.v.m.q.u.x.S ' ..L.0XrXSXSXcX0X5X5X2._ _ n _ :.>.>...) ) ) ) ) } =.S.S.A.G.T.T._.'.~.~.Y.T.'.'._.",
"0.q.q.7.8.r.r.q.q.y.4.q.t.M.5.5.y.x.q.u.0.0 .     X + cXGXGXSXcXcXuX8X1. .>.1.1.1.) O   . X X 6 %.&.H.H.T.H.H.T.T.G.Y.Y.T.~.'.[.",
"Z 0.q.7.7.h.M.M.x.r.7.q.r.q.q.0.S ` c.c.` y o   X X + cXHXLXLXGXSXiX0X5X5X5XL.>. .) X   o % % : } =.=.-.-.G.T.T.T.F.G.Y.Y.Y.~.'.",
"q 9.w.e.q.t.M.t.t.r.q.q.7.q.y.A # = = # * o.~ . X X + cXHXLXPXIXGXSXcXiXpXrX5X1.:.) O   % +X+XQ = - - - , K.W.Y.Y.G.Y.G.Y.~.T.T.",
"8 C Z q.r.m.t.q.4.4.7.4.7.M.M.` X X . O o * > . . . + bXDXHXPXPXIXIXUXSXSXiX6X7X1.{ o . & $X$Xz.o O X X O =.U.U.F.G.G.G.H.~.Y.T.",
"r f Z Z u.w.t.p.w.t.q.4.7.t.t.S X X * z.+XOXoXW W Q o ~ ) X.X.X.X.X.X.) ) ~ ~ 2 2 : L E W >X>X#Xz.W L & & g h c F.G.G.F.G.G.G.Y.",
"k f A Z q 4.w.w.w.q.4.q.r.t.r.c.O . e $X$X>X>X>X*X4X% o o . .         X X   X     * %X&X>X,X;X>X>X$XOXE Y % X O =.F.J.J.G.H.F.J.",
"d a C A C q Z 9.0.x.y.q.q.r.p.x.O   & +XOX#X:X:X1XaXmXaXpXaXQ L L L L L L L L L L R @X:X:X-X-X:X:X&XOXT L %   O =.S.A.J.Y.T.H.F.",
"b d f S C C Z A y.y.9.4.4.7.e.x.#   o E R oX:X&X2XUXIXIXIXUX3X%X@X@X@X@X@X@X@X@X@X@X:X:X-X<X;X:X:X&XOXT L % X @ *.S.G.J.F.F.J.F.",
"m c d k f f C Z Z 9.9.u.q.q.p.x.# # # P L W :X&X2XIXIXUXAXAX2X:X-X-X:X:X:X;X-X:X:X-X-X-X-X-X;X>X@X$XOXR L % X @ [ &.G.G.J.J.J.F.",
"M v 1 d s s f C C Z Z 4.0.y.u.q.x.c.` # o P &X&X2XIXIXAX$X*X;X<X-X-X-X,X,X-X,X,X-X-X-X-X;X;X>X#XW W R E L % X O } %.%.A.J.J.J.J.",
"B v 1 1 d s f f D i q 9.t.y.u.y.y.c.` O X & %X$X2XAXAX3X>X;X-X-X;X;X-X-X-X-X,X,X-X>X@X@X@X=X$XOXY L U U I # O + [ $.%.&.F.&.&.&.",
"( m x d c d s f D u q Z Z u.u.u.q.c.` O X % W XXOX2X1X>X;X-X<X<X-X-X-X-X-X-X-X<X-X@XoXoXXXoXXXE > > I o.o.] } [ %.&.&.%.&.-.&.&.",
"m ( ( ^ x m d k s f f C Z p 9.q.x.c.` O X o L E oX&X:X-X,X-X-X-X-X-X-X-X-X-X-X,X-X@XW R R R Y P X X 2 ] | n.H H H +.+.$.&.%.&.S.",
"x n v ^ ( z z N s s s f A Z p 0.y.0.A y ..7X* & E >X-X-X-X-X-X-X-X-X-X-X-X,X-X;X;X@XW U L & * : 2 , h ] G v.v.a.G H %.%.&.&.A.S.",
"< < l x ( M M ( N N , f A Z i q 9.0.A | wXcXO . P >X-X:X-X-X-X-X-X-X-X-X,X,X-X;X>X@XW E P .   + ^ h v c J 0.y.i.i.H | $.$.%.F.F.",
"d d 1 l M M B M b B 1 s D A i q p Z A I.MXcXX . P *X-X;X-X-X-X-X-X-X-X-X-X-X>X#X#X%XW R P . X + n c v c j ` V.V.v.a.a.G F F %.S.",
"d v 1 l b b m B v m M d s D t q i Z b.yXBXcXX . P *X:X;X-X-X-X-X-X,X,X-X-X:X@XXXR R R U P . X + b N ( N j S v.j.f.h.p.i.a.G %.A.",
"1 x v x x x v ( v M M z s d s f C S I.jXCXcXX   & %X#X@X:X-X-X-X-X-X,X;X@X#X%XW R R T E P . X + N ( *.[ [ ` 0.q.k.j.j.M.v.n.a.H ",
"1 l b x l l l x x v b < 1 1 s d f ` !.MXCXzXX   % W XX#X>X;X;X;X:X:X;X=XOXW W R R R T E P . X + / *.<.=.=.| 0.q.N.N.M.N.M.M.V.n.",
"< < c l x x v 3 v ( ( < 1 < c d s ] wXBXCXiXO . % U R OX@X>X>X>X>X>X&X$XoXR R R R T T E P . X + [ <.R.U.K.n.i.q.r.7.5.r.j.B.B.h.",
"d 1 l c v l M l l ( ( b ^ n n b h } rXBXCXuXX   % U T W oXoXoXoXoXoXoXW W R T T T T T E P . X + =.R.qXE.K.D.n.t.d.r.r.t.d.N.N.j.",
", , 1 x l < x c l x m b #.^ x b h } yXBXCXtXO   % U U T T T T R T T T T R T T T T R E Y P . X + P.9XhX9XE.I.n.v.h.k.j.M.j.N.N.k.",
"s s 1 < < 3 < v 3 l l x b ^ ^ n h } wXBXNXxX1...X.* * P R R R R R R R R R R T R T L & * : ; $ , 9XjXjXhXwXI.n.V.N.8.s.d.k.N.B.B.",
"f f , 1 1 1 1 x 3 3 < x x n #.m N } wXMXMXxXhXtX6XX . & E E E E E E E R R R E T E P o . + n 1 / bXxXxXtX/.(.v.V.N.s.s.j.N.M.M.j.",
"t r s , , < 1 < 1 x v 1 1 x m M N [ P.jXjXjXjXeX8X! ) I & e e e e P P P P P P P P : - - ; h N R.MXMXjXwXI.n.M.B.j.e.7.e.r.k.d.k.",
"t 9 r s , h 1 b b 1 m 3 1 x m x b /  .8XtXtXeX9X8X8XiX..          . . . . . .   . +  .} / ( E.xXMXxXtX!.(.v.m.M.N.M.8.5.8.s.r.s.",
"8 9 9 7 s d 1 x b 1 n n x 3 x 3 x / } K.8XwX8X8X8X1.5X .= = = = = = = = = + + + + - } *.P.tXxXMXxXhX/.I.b.v.e.8.t.d.r.r.r.k.j.j.",
"8 8 0 9 r r , 2 h 1 l b m 1 < < l v N } P.E.E.P.K.} { 6X0XrXiXiXSXSXpXrX0X6X5XL.>.} P.hXxXxXxXxXjXwX(.b.v.w.7.7.r.h.h.t.r.M.B.B.",
"8 u u u t r ; , < < < x x < v x x d c N =.P.I.K.=.] / P.8XrXiXiXSXcXiXrX0X8X5XP.:.P.MXxXxXxXzXhXwXI.b.v.q.q.7.e.M.B.B.M.r.8.g.d.",
"t i i i u t r s , < 1 h n n m b ( d c N ] D.P.P.I.>.] L.P.6XrXuXiXiXuXrX0X6XP.>.>.zXNXMXxXhXeXE.I.D.v.w.q.e.5.M.B.M.f.f.d.s.f.j.",
"i u u u u t t r ; , 6 1 x 4 x d N c c c N | wXwX8XP.L.L.P.5X6XrXrXuXuX0X0X5XP.>.K.BXSXxXjXE.K.I.| S 0.5.5.5.4.7.6.6.f.f.f.f.s.j.",
"i q 8 0 0 0 0 7 7 s , < < 3 < 4 h b n h / ..6XwX6X6X5XL.L.L.5X0XrXrX0X6X5XL.L...1.BXNXzXeXK. .{ ` 0.x.s.8.e.e.s.d.f.f.e.6.g.g.s.",
"8 u i 8 u u 8 t f f f d , < 1 1 < n h h h ] 6XwX6XP.L.L...1.L.6X0X7XL.L.L.L.L.....6XrX0X5X>./ k A 0.y.j.M.M.N.N.N.N.N.f.f.N.j.f.",
"u i 8 9 u u 8 9 t t r s , , 1 < 1 < 1 x h / L.6XL.L...{ { { ..6X6XL.......1.L.L.L.L.L.L.1.} ! k C 9.y.h.M.h.f.j.f.f.f.M.N.N.N.l.",
"i i 8 t t 8 8 t t t 9 7 ; , 1 h 1 < 1 n h j ..L.C...{ ! ! ! { L.L.....{ { ....L.L.7XL.L.1.} ! k C 4.M.B.N.d.r.e.e.s.f.f.f.s.f.N.",
"i i i i u u t t t t 9 r r s h h 1 4 b h h j { ..{ ] ! g g ; g { ....! j g g ' C.6X6X6XL.>.] j C Z u.x.M.r.s.r.5.e.f.M.f.f.f.N.Z.",
"i i u i u u u 8 8 8 9 t r r s s 1 x ^ h 2 j ] { { ! g , ; ; ; r ! ! , , ; r k { L.6XL.>.} / k C Z q.m.r.r.N.B.d.f.N.M.f.f.l.N.l.",
"Z i u A A C u 8 8 8 9 0 9 t f s , < n 2 , g ] } { ! g ; ; ; - - s h , , , ; y ! ..L.1.} ] ! k f Z q.m.5.e.N.f.s.s.s.e.s.j.N.l.s."
};
