/* XPM */
static char *a73a45b12fd64121a8426354ad98deeb[] = {
/* columns rows colors chars-per-pixel */
"64 64 247 2 ",
"   c #36353A",
".  c #513D39",
"X  c #59423E",
"o  c #3A3C46",
"O  c #413F45",
"+  c #484548",
"@  c #534949",
"#  c #5B5654",
"$  c #4B4C55",
"%  c #6D554A",
"&  c #76584B",
"*  c #665B54",
"=  c #735C51",
"-  c #6C4C45",
";  c #676358",
":  c #786657",
">  c #796552",
",  c #575C67",
"<  c #4D5668",
"1  c #5B6474",
"2  c #5D6365",
"3  c #696664",
"4  c #746B64",
"5  c #7A7567",
"6  c #676B77",
"7  c #717378",
"8  c #3C414C",
"9  c #8A5E50",
"0  c #876855",
"q  c #946A56",
"w  c #89735A",
"e  c #97765B",
"r  c #85654E",
"t  c #A3765C",
"y  c #867A65",
"u  c #977C64",
"i  c #87796C",
"p  c #7F8075",
"a  c #A8825E",
"s  c #88846A",
"d  c #968569",
"f  c #898576",
"g  c #988D76",
"h  c #9A9378",
"j  c #A98965",
"k  c #A79479",
"l  c #B3946C",
"z  c #BAA377",
"x  c #96815D",
"c  c #C8A779",
"v  c #D4AB78",
"b  c #DAB37C",
"n  c #767B87",
"m  c #6E7888",
"M  c #4C72CC",
"N  c #527ACE",
"B  c #547CD3",
"V  c #597ED3",
"C  c #7B8495",
"Z  c #7B8288",
"A  c #6F85B5",
"S  c #5E81BD",
"D  c #5B85D5",
"F  c #5E89DA",
"G  c #5B85D8",
"H  c #5F83C3",
"J  c #768CC6",
"K  c #7D93CA",
"L  c #7B94C6",
"P  c #628DDC",
"I  c #658AD6",
"U  c #6B94DE",
"Y  c #6993DD",
"T  c #799BDA",
"R  c #6882C0",
"E  c #6691E1",
"W  c #6B96E1",
"Q  c #6D99E2",
"!  c #729DE3",
"~  c #779BE0",
"^  c #75A1E5",
"/  c #7AA5E5",
"(  c #7BA5E9",
")  c #7EAAE9",
"_  c #7CA8E7",
"`  c #7DA1DF",
"'  c #878988",
"]  c #9B9585",
"[  c #838B98",
"{  c #919698",
"}  c #A79B86",
"|  c #B19F8F",
" . c #B9A88A",
".. c #ABA699",
"X. c #B7AA94",
"o. c #B1A88F",
"O. c #8C95A3",
"+. c #949BA7",
"@. c #8392AB",
"#. c #9DA4B3",
"$. c #9BA1AD",
"%. c #A7A8A8",
"&. c #B3ADA5",
"*. c #A6ABB6",
"=. c #ADB2BD",
"-. c #B6B7B9",
";. c #B9B6A7",
":. c #A09DA0",
">. c #C5AA88",
",. c #D7B588",
"<. c #CBB798",
"1. c #D5BB98",
"2. c #C9B18E",
"3. c #E2BE8D",
"4. c #C7BBAC",
"5. c #BFC0BB",
"6. c #D6C29C",
"7. c #DEC08F",
"8. c #E4C699",
"9. c #D6C4A6",
"0. c #C8C3BA",
"q. c #D6CAB6",
"w. c #D0C5AF",
"e. c #E9D2B2",
"r. c #849ACD",
"t. c #8499CC",
"y. c #869BD1",
"u. c #8BA2D4",
"i. c #93A5D3",
"p. c #9CADD9",
"a. c #97ABD6",
"s. c #9DB2D6",
"d. c #92A6CA",
"f. c #A6B3CA",
"g. c #B5BAC4",
"h. c #B7BBC7",
"j. c #A4B4DC",
"k. c #ACBBDE",
"l. c #A7B7DB",
"z. c #B1BEDF",
"x. c #A2AECF",
"c. c #82ADEB",
"v. c #87AAE5",
"b. c #86B1ED",
"n. c #8BB4ED",
"m. c #8FB9EE",
"M. c #93BBEF",
"N. c #97B7E9",
"B. c #8CB5F0",
"V. c #93BBF1",
"C. c #98BDF1",
"Z. c #ACBCE2",
"A. c #A3BAE5",
"S. c #B1BEE1",
"D. c #B2BFE8",
"F. c #BCC1CB",
"G. c #B7C4D9",
"H. c #ACC3DE",
"J. c #9AC1EE",
"K. c #9CC2F2",
"L. c #97C0F3",
"P. c #A7C4EB",
"I. c #B4C3E4",
"U. c #B9C6E3",
"Y. c #BCCAE5",
"T. c #BCCBEA",
"R. c #B5C8EA",
"E. c #A3C5F3",
"W. c #A6C9F4",
"Q. c #ABCDF4",
"!. c #ACC6F1",
"~. c #B3CDF3",
"^. c #AED0F5",
"/. c #B4D3F5",
"(. c #BAD6F5",
"). c #BDD9F6",
"_. c #BAD9F8",
"`. c #B9D2EE",
"'. c #C6C6CA",
"]. c #DAD5C8",
"[. c #CBCCD4",
"{. c #C4CAD6",
"}. c #CDD2DB",
"|. c #D3D5DD",
" X c #D8DADC",
".X c #CFCFC9",
"XX c #E6DBC8",
"oX c #E2DDD4",
"OX c #DEE1DB",
"+X c #EBE2CA",
"@X c #F6E6CB",
"#X c #EDE4D4",
"$X c #E8E5D9",
"%X c #F6EAD7",
"&X c #FDF2DC",
"*X c #C2CDE5",
"=X c #C1CEEA",
"-X c #CBD3E4",
";X c #C4D2EB",
":X c #CAD5EB",
">X c #CED9EC",
",X c #C5D4E7",
"<X c #D5D7E1",
"1X c #D5D9E3",
"2X c #DBDCE3",
"3X c #D3DCED",
"4X c #D9DEEB",
"5X c #D0D7E8",
"6X c #C4D5F1",
"7X c #C3DDF6",
"8X c #CBDBF3",
"9X c #C2DEF9",
"0X c #C9D6F1",
"qX c #D3DDF1",
"wX c #D9DEF1",
"eX c #DEE0E5",
"rX c #DDE2ED",
"tX c #D6E1EC",
"yX c #C6E1F9",
"uX c #CBE3FA",
"iX c #CAE2F6",
"pX c #D4E3F4",
"aX c #DCE4F3",
"sX c #D3E5F9",
"dX c #DBE9F9",
"fX c #E1E2E7",
"gX c #E4E5EB",
"hX c #E6E8EC",
"jX c #E9EAEE",
"kX c #EBE9E4",
"lX c #F4EDE3",
"zX c #FBEDE4",
"xX c #FDF3E3",
"cX c #FBF6EB",
"vX c #E2E6F3",
"bX c #E5EAF4",
"nX c #ECEDF2",
"mX c #E3EBF9",
"MX c #EBEEF9",
"NX c #E0E6F9",
"BX c #F0EFF8",
"VX c #EDF1F4",
"CX c #EEF1FA",
"ZX c #F2F2F5",
"AX c #F4F4FA",
"SX c #F9F8FA",
"DX c #EFF1EC",
/* pixels */
"B N N N N D G G F P P P P P Y / U P F D D F F G F P I Y W W W W W U ~ ^ ~ U I F F F F P Y Y W Q ! U W E Y P P P D V B B B N M M ",
"B B B B G G G G P U E Q v.v.P.~.T W P F G F F G F F P E W W Q W W Q ! ^ ! Q P F G F F P W W Q ! Q Q W E E P P F G B B B B M M M ",
"B G G G F F I P v.N.~ N.N.~.8X6Xv./ ~ U Y P P F P P Y W Q ! ! ~ ! ! ^ / / Q P F S H P W Q Q ! ^ ! ! Q W U Y P F F I I V B M M M ",
"G F P P ~ A.A.N.v.N.v.6XT.`.8XqXT.A.N.N./ T U Y Y Y W Q ! ! ^ ^ ^ ^ ( ) _ ! U L %.@.U ! ! ^ ( ( ( ^ ! ! Q E P Y U Z.p.a.I B B M ",
"F P E W v.4X-X5XA.Z.c.!.A.A.(.8X6XP.n.v.T L T U U W Q ! ^ / / / / ) c.c.c.~ t.&.%.@.! ^ ( ( ) ) / / ^ ! Q W W N.a.4X-X1XT D B B ",
"F E W v.I.4X4X4XY.*Xv.c.v.b.N.~.(.P.c._ U =.F.u.W U ! ^ / / ) _ c.c.c.b.c.` =.4.] C ^ ( ) c.c.) _ / ( ^ ! Q v.-XU.2X4X4Xl.T B B ",
"F E W P.fX4X2X2X<X<XN./ c.b.B.K.M.b.c.c.T '.].{.^ ! ^ / _ c.c.c.c.b.b.c.s.'.w. .u C ) c.c.b.b.c.c.) ) / ^ ! Z.<X5X2X4X<XgXa.D B ",
"F P W T.hX|.2X2X2X<X*Xc.) c.b.m.n.b.b.B.d.0.q.oXP./ ^ / u.a.f.x.x.p.f.4.q.9.2.u 0 n c.b.m.m.m.b.b.c.) / ^ _ -X|.2X<X2X|.hXp.G B ",
"F E ! A.jX2X<X<XeX<X1XN.c.c.b.m.m.m.m.m.d.0.4.q.$X1X0.0.q.q.1.<.2.2.6.e.e.2.t & & n n.m.M.V.V.m.n.b.c._ _ N.<X<X2X4X}.4X4XT I B ",
"P E v.*XhXgX|.4X2X2X<XA.c.b.n.m.M.M.M.M.d..X4.w.#XxX%XXXe.e.1.,.v v 8.e.e.>.q - & n M.M.C.C.M.V.m.b.c.c.c.I.|.2X<X2X|.gX3XA.T B ",
"Y W v.gXhXjX4X<X2X2X|.Y.n.n.B.M.C.L.K.C.s.].9.q.%XxXxX@Xe.1.v v v v 7.7.,.l 9 - - 7 M.K.E.K.C.C.V.B.b.b.m.-X<X2X2X|.eXjXhX3XT D ",
"W Q / 4XjXhXhX<XeX2X<X}.N.V.V.V.L.K.E.K.l.q.9.XXxXxX&X@Xe.,.v v v c v c l j q - - 4 K.W.W.E.E.K.C.V.V.m.P.|.2X2X2X2XjXhXnXI.I P ",
"W Q ! T.nXhXjXfX2XfX2X|.Y.L.L.K.K.E.E.W.l..Xq.%XxXxX&X@Xe.3.b b b v z l l j e 9 - 4 P.Q.W.Q.W.E.J.M.C.V.Y.|.2XfX<XfXjXhXnXA.v.E ",
"Q ! n.aXnXnXgXjX2X2X2X<X|.P.K.K.K.E.Q.Q.H.oX#XxXxXxX&X%Xe.8.3.3.,.c z l j j j t r 5 P.~./.Q.Q.W.K.K.K.P.-X2X2X4XeXjXgXnXnXrXP.W ",
"! ^ b.vXjXnXnXfXjXeX2X X X-XW.E.E.W.Q./.I.lXxXxXxXxXxX%X@Xe.8.8.,.c c c j j j a e i R./././.Q.W.E.E.E.-X<X2X2X4XjXfXnXnXjX3Xv.W ",
"^ / ( T.nXhXnXhXfXgX2X2X2X|.;XQ.Q.Q.^./.R.lXxXxXxX%X#X%X&X@Xe.,.l j x j j j j a e i ~._.(./.Q.Q.Q.W.;X|.<X2XfXhXfXnXnXhXnXA.~ U ",
"^ ( ) P.vXjXhXnXgXfXgX2X2X|.}./.^.^.^./.`.$XxXxX#Xo.g XX&X@Xe.,.t - . X e e e e w f `.9X(././.Q.^./.}.|.2X2XgXfXjXnXhXnX4XN./ ~ ",
"( ) c.;XhXjXnXgXnXjXfXfX2X X}.-X(._._._._.[.lXlXq.w + X.&X@Xe.c r .   . w 0 r r 0 ' 7X7X(._././.(.}.}.|.2XfXfXjXjXhXnXjXjXT._ ~ ",
") c.c.P.bXjXjXnXgXgXhXfXeX2X|.{.}.)._.).).,X$X%XXX} g 9.@Xe.8.c r - = 0 0 > & = 5 *.yXyX7X(._.).{.[.|.2XfXfXjXgXhXnXjXjXgXN.( / ",
"c.b.b.m.6XnXjXhXnXjXfXgXfX X X{.h.}.yXyXyX6X$X#X+Xe.e.+X@Xe.c j e q u q r r & = ' ;XuXyX9X9X7X{.h.{.2X XfXgXfXjXnXgXnXnXR.c._ _ ",
"b.n.m.P.3XhXVXnXgXjXjXfXfXfX|.{.g.=.{.uXyXyX}.XXXX+X@X@Xe.c t t a j j e r & & 4 F.sXsXyXyXuXF.g.g.[.|.fXfXgXnXjXgXnXnXhX>Xn.c._ ",
"m.V.M.P.aXnXhXnXnXhXgXjXhXeX X{.g.*.#.h.3XsXiX[.XX#X%X%Xe.j 9 t j j j w r = : *.sXsXuXsX5Xg.#.=.g.[.2XfXhXhXgXhXnXnXhXjX>Xn.c.c.",
"K.K.K.E.6XnXnXjXjXnXnXgXfXfXfX{.h.=.#.$.+.'.aXpX X$X%X%Xe.j q q t t t 0 > > +.pXdXsXtXg.+.+.#.=.h.[.fXfXfXhXnXnXjXhXnXbXP.n.b.b.",
"W.W.W.Q.~.8XnXnXjXjXjXnXjXfX2X[.h.=.#.+.O.C $.F.<X X#XXX1.z t q 9 q e 0 = ; F.dX5XF.+.[ O.+.*.=.h.|.2XgXjXnXjXjXjXnXnX;XM.M.m.m.",
"E.Q.^././.7XvXjXnXnXjXgXgXgXfX2X[.g.#.+.O.C 6 6 Z :.XX%XXXe.>.j e e e > > 3 *.+.n 6 6 [ O.+.*.g.[.2XfXgXgXgXjXnXnXjXrX`.K.K.K.K.",
"W.W.Q./._.7XnXnXnXnXnXnXjXgXfX2X|.F.=.$.O.O.m 1 6 &.#XxXxX%Xw.>.k d w > = * , < , 1 n O.O.#.=.'.|.2XgXhXjXnXnXjXnXnXvX(.W.W.W.W.",
"Q.Q.Q.^./.(.pXZXZXnXjXgXgXgXfXfX2X|.h.*.O.[ C 7 &.XX%XxXxXcXlXXX4.} u > = = # < , 6 [ [ O.*.F.|.2XfXgXgXgXgXjXnXZXnX6X/./.^.^.Q.",
"_./././././._.aXnXnXVXnXjXgXfX2X X{.g.#.O.C n 7 q.+X@X%XcXcXcXlXq.o.d w > : # , 6 m C C O.#.g.[.2X2XfXhXjXnXnXnXnXtX(._._././.Q.",
"sX9X9X7X7X7X8XnXnXnXjXhXgXfXeX2X}.'.g.#.+.[ m ' +X@X@X%XxXcXcXlX].X.k j d d : 1 m m C [ +.*.h.{.|. XfXgXgXjXnXnXnXbXiX7X9X(._./.",
"iX(.(.9XyXuXuXbXnXnXnXjXgXgXgXfX|.'.h.g.*.O.n ..%X@X@X&XxXcXcX%X].w.<.>.>.l u 6 m Z [ +.=.g.F.[.|.fXgXgXgXjXnXnXnXaXiX9X7X(._./.",
"Q.Q./.).7XyXuXuXaXnXnXjXhXgXfXeX2X[.'.h.=.$.' 4.%X@X@X&XxXcXcX$X].q.9.1.1.>.l 5 n C O.#.-.h.'.}.2X2XfXgXjXnXnXnXaXuXyXyX9X(././.",
"W.Q.Q._.7X7X9XyXaXbXnXnXjXjXhXgXfX|.[.'.F.=.{ .X%X@X@X%X&XcXlX#XXXq.9.6.1.>.j y n O.*.-.F.'.[. XfXgXhXjXjXnXnXMXaXuXyX7X(._.(.~.",
"Q.^././.(.(.9XyXyXsXbXnXnXnXnXjXgX2X|.[.[.'.%.].+X+X@X%X&XzX%X+Xe.9.9.1.2.z j w 5 { h.'.[.}. XeXgXjXnXnXnXnXbXaXsXuXyX7X(.(./.~.",
"Q././._._.9X9XyXyXsXMXnXnXnXnXnXjXfX2X X X[.-.oX%X#X@X%X%XlX%XXXq.9.<.>.c l x > : ' {.|. X XeXfXjXnXnXnXnXnXnXaXuXyX7X7X_.(._./.",
"^././._.7X9X9XyXuXuXpXbXnXZXnXnXjXjXgXgX X[..XlX%X%XlXlXlXlX$X].w.o.d j l j w > = : '.|.2XgXhXjXjXnXnXZXVXbXaXsXuXyX9X(._./.Q.W.",
"/._.(.9X9X9XyXuXsXsXdXbXnXnXnXnXnXnXnXjXnX'.kXlX%XlXcXcXcXlX$X].4.} d w w w w & % * %.gXnXjXnXnXnXnXnXnXnXMXsXyX7X(.(._./.Q.Q.W.",
"_.(.(.7X7XyXuXsXsXsXdXmXMXVXnXnXnXjXnXZXgX0.lX$Xq.XXcXSXSXDXkX X0...g : = > > & - % f hXnXZXnXnXnXnXnXZXZXSXCXyXyX7X(._././.Q.Q.",
"/./._.7X7X9X9XyXuXsXdXbXaXbXnXnXjXnXZXnX'.].#XXX<.XXSXSXSXVXhXOX.X&.h : = % & % % % i gXnXZXZXnXjXnXnXnXAXSXSXdX7X_._./.^.Q.Q.E.",
"mXaXaXmXpX8X(.7XiXsXdXbXpX8X3XjXnXnXVXnX-.$X+Xq.X.XXSXSXSXVXhXOX.X&.] 0 > = % - & > y 2XnXnXnXnXnXbXMXnXAXSXSXmX(._./.Q.W.W.W.K.",
"SXAXCXMXMXdX)._.7XuXsXbXaX0X=XtX3XnXnXnX-.#Xe.<. .#XSXSXSXVXhX X'.&.] y : % - - 0 e d  XVXVXnXnXbXbXbXAXSXSXSXmX/.~.Q.W.E.E.W.P.",
"nXBXAXAXAXCXpX_._._.7XdXpXqX;XT.:XrXaXnX-.+X9. .<.%XcXSXAXVXhX X'.&.g y w = @ - e k k |.MXnXaXaX5XMXAXSXAXAXMXqX7X/.Q.P.K.~.dXmX",
"bXnXVXAXSXAXmX(./.(.7X8XpXdX8X;X;X;X>X3X-.+X9.>.9.%XcXZXZXVXgX X'.&.] s w = X % l >.| }.aXaXqX;X:XMXAXSXSXAXCXaXmX6XQ.W.E.uXAXSX",
"MXMXMXAXAXZXCXsX7X8XsXmXAXCXaX:X;X;X:X:X-.XX9.<.9.#XlXDXZXVXfX X0...} y w & X > <.1.o.-XpXqX8X8X0XMXAXAXSXSXSXSXAXAXpX(.(.wXAXAX",
"gXgXbXVXMXbXbXbXCXAXAXAXSXAXpX`.;X8XwXqX{.w.1.<.1.q.$XkXjXjXeX|.5.&.} u w & - u 9.9.o.*XpX8X6X;X:XwXbXAXSXSXSXZXMXSXAXbXaXaXZXAX",
"gXgXgXvXtXtXaXvXMXMXMXAXAXAXaX;XT.T.:X>X3X-.X.2. .X.q.$X$XgXeX.X-.&.} u w > 0 >.q.9...;X8X6X;XT.T.aX:XaXCXAXAXnXBXSXrXaX4X3XbXvX",
"3X3X:X*X*X:X3XaXaXvXbXMXBXSXmX:XT.T.;X:XqX}.} } k d X.q.].OX].0.&...k y w d  .9.9.<...;X=XT.R.I.I.=X;X3XbXAXVXnXAXBX-X;X;X*X:XU.",
"S.I.S.z.I.;X:X>X3X3XaXaXvXMXSXmXqX;X;X0XqXaX] h s : g ;.w..X0.;...} g u  .<.6.9. .| h.;XT.R.D.I.I.I.T.=X3XbXMXAXnXrX:X;X;X*XU.j.",
"k.l.l.k.I.;X:X;X>X3XaXvXaXbXCXMXaX>X8XqXaXaX%.] g y s } X.;.;...} g d z 6.1.2. ...4.3X0X=XT.I.I.I.I.I.U.U.*X5XvXhX4X5X:X:X=XI.j.",
"Z.l.j.k.k.I.;X;X:X>XaXmXbXMXCXMXaX3XqXqXaXaXh.| } h g h } X.X.} h d y >.6.2.z g -.fXaX8X6XT.T.R.I.I.S.S.I.U.:XaXvX3X>X,XY.I.S.l.",
"l.Z.l.l.j.Z.U.;X;X=X;XqXvXMXnXAXmXaXqXqXwXaX[...} h f s h } ] h s y y  .<.z y 4 {.mXaX6X6X;XT.T.R.I.Z.I.I.*XaXvX4X:X:XY.I.Y.U.U.",
"j.s.p.j.j.j.S.Y.Y.T.;X>XaXbXnXAXAXmXaX3XaXaX'.] g y ; ; 5 h s s s y y d g d ; 6 -XbXbX8X6XT.;XqXpXaX:X-X3X4X4X3X:X,X*XY.Y.G.I.S.",
"i.i.i.p.j.p.j.I.Y.Y.T.=X3XvXAXSXAXCXbXvXbXvX-.5 5 ; @ + # s 5 5 5 5 s d d w # 6 -XCXMXaXwXT.;XpXaXvXMXnXbX3X*XU.U.Y.U.U.I.U.S.S.",
"p.a.p.p.j.l.I.I.I.I.I.Z.I.:XvXAXAXAXMXMXMXbX%.3 * + O   + ; ; 7 [ Z 5 g d : # , {.bXmXaXaX=X=X:XqXqXaX3X3X;X*XY.Z.Z.Z.U.z.S.I.I.",
"T.I.=XU.Z.I.T.U.I.Z.j.A.j.S.*X-XbXSXAXAXAXeX6 # # +     8 1 C x.z.f.2 f 5 * + $ g.bXMXmXaX;XT.aX3X3X3X>XY.U.Y.Y.Z.Z.z.S.j.a.a.a.",
"3XY.=XY.Y.T.T.Y.I.l.j.l.l.I.:X-XMXnXCXhX[.%.3 4 ; + o $ *.-XrXwXwX5X7 5 * @ + + +.4XSXAXaX0XI.=XaX3X:X;XU.I.I.I.I.k.Z.l.i.y.t.t.",
">X=XT.Y.U.U.*XU.k.l.A.l.S.>XaXMXnXMXgXg.:.] f i ; + + n bXAXSXSXAXAX{ 3 # @ + + C }.AXAXdX8XR.T.aX:X;X;XY.I.I.I.I.S.l.j.u.t.K J ",
"U.k.l.j.a.l.H.l.l.l.Z.I.*X4XnXSXAXnX'.{ ' g i : # @ 2 g.wX3XaXvXvXaX#.3 # @ + 8 1 f.vXbXmXqXR.0XmXaX:X;XT.Y.U.I.I.l.p.i.r.J J R ",
"l.p.a.a.u.a.i.y.a.l.S.U.*X3XbXAXAXVX-.' f f 4 # $ 6 #.G.Y.Y.=XqX3X>Xf., # @ @ $ < @.:XaXMXmX;X3XbXrX3X>X:X=XU.G.k.l.p.i.K J J S ",
"i.i.u.u.r.t.t.y.u.u.p.l.l.k.*XbXnXjX'.{ ' ' Z ' =.-XtXwXwXwXaXbXCXSXnX7 * * # # $ m G.aXMXAXmXwX3X>XwXwX3X:XU.H.k.j.p.i.t.J J J ",
"t.r.K r.t.J K r.K t.y.a.p.j.G.VXAXnX|.-.=.-.[.2XvXbXMXbXbXbXCXCXCXAXAX' 4 : : 3 < 1 x.aXMXMXaX>X;XY.:X3X:X;XU.I.k.l.p.i.r.K J J ",
"J K J K K J K K K K u.l.j.a.l.-X4XnXnXjXnXaXaXaXpXaXaX>X:X:X;X;X3X3X3XO.5 y y 5 # < x.mXCXMXwX=XR.T.;X:X;X*XI.S.k.l.j.i.u.y.y.r.",
"J J J K t.r.t.J K r.i.I.p.a.l.k.Y.4XnXAXSXaX:X3X>X:X:X=XT.S.k.I.Y.l.U.#.p s s s 2 < f.qXaXmXaX;XU.T.;X:X;XY.U.z.l.j.p.p.i.i.i.u.",
"K J K t.r.u.L J r.u.a.l.a.u.l.I.*X>XvXMXSXVX=X>X>X:X;XY.I.I.I.Z.I.A.I.d.' f f f 2 1 f.;X8XNXbXqX*X=X:X:X;X=XY.I.k.l.j.j.p.p.p.i.",
"A J K t.y.r.t.K J J L i.u.u.l.G.3X3X5XwXnXSXMXCXCXCXMXMXaXmXaXaXqX:X:X5XO.{ ' Z 6 C I.T.qXdXvXpX:X:X:X3X3X=XY.I.k.l.l.k.l.l.l.a."
};
