/* XPM */
static char *_c2fa93952e243b2a74960ef3552f2ec[] = {
/* columns rows colors chars-per-pixel */
"64 64 254 2 ",
"   c #3D2504",
".  c #432807",
"X  c #59462B",
"o  c #574C33",
"O  c #695637",
"+  c #735E3A",
"@  c #685136",
"#  c #78633D",
"$  c #685B43",
"%  c #765A49",
"&  c #614D41",
"*  c #6B644A",
"=  c #776749",
"-  c #766A54",
";  c #7A735A",
":  c #7F6F67",
">  c #825C4E",
",  c #836D4C",
"<  c #856A46",
"1  c #8A734E",
"2  c #876957",
"3  c #887656",
"4  c #947A5B",
"5  c #936E4B",
"6  c #897967",
"7  c #937B64",
"8  c #887774",
"9  c #987B7A",
"0  c #876B67",
"q  c #A17F5B",
"w  c #98845C",
"e  c #8C856B",
"r  c #998669",
"t  c #8D8575",
"y  c #988A78",
"u  c #9C947D",
"i  c #9B937B",
"p  c #A18964",
"a  c #A3947B",
"s  c #A99778",
"d  c #B29B74",
"f  c #A78E71",
"g  c #B5A17C",
"h  c #C3A97D",
"j  c #967C85",
"k  c #9A8984",
"l  c #989487",
"z  c #9B9992",
"x  c #908E8C",
"c  c #A49B84",
"v  c #A79888",
"b  c #A49D93",
"n  c #A89996",
"m  c #B79697",
"M  c #AE8B8A",
"N  c #ABA48C",
"B  c #B9A78A",
"V  c #ACA492",
"C  c #ACA696",
"Z  c #B6A998",
"A  c #B8B19A",
"S  c #9C96B7",
"D  c #B99BA4",
"F  c #B898B9",
"G  c #AE93AD",
"H  c #B9A9A7",
"J  c #BDB3AC",
"K  c #B9B6A7",
"L  c #BAA8B8",
"P  c #BAB8B4",
"I  c #ABA7A2",
"U  c #C79199",
"Y  c #C8AE88",
"T  c #CCB089",
"R  c #C8A69E",
"E  c #C4B595",
"W  c #C8B79B",
"Q  c #D6BC96",
"!  c #D6B68A",
"~  c #C899A3",
"^  c #D598A8",
"/  c #C69ABA",
"(  c #DB9CB4",
")  c #EC9CBD",
"_  c #E69CBB",
"`  c #F497BE",
"'  c #F498BF",
"]  c #F89ABF",
"[  c #C8A6AA",
"{  c #C3B5A2",
"}  c #C6B9AA",
"|  c #C4ACB4",
" . c #C8A8B8",
".. c #D8A7BA",
"X. c #C3BBB4",
"o. c #C7B7BA",
"O. c #D5B7BA",
"+. c #D6B0A9",
"@. c #E8A2BB",
"#. c #D4C09C",
"$. c #CFC19D",
"%. c #CBC3AE",
"&. c #D5C6A7",
"*. c #CAC5BA",
"=. c #D5C9BA",
"-. c #DED0B6",
";. c #E1CCA6",
":. c #E5D6BC",
">. c #F0DCBD",
",. c #E3C9BE",
"<. c #F1E0BD",
"1. c #969ED4",
"2. c #9D98C9",
"3. c #AC9DCC",
"4. c #A398C7",
"5. c #BC9CC4",
"6. c #B79CC8",
"7. c #A89CD3",
"8. c #BF9FD0",
"9. c #9CA6D6",
"0. c #9AADD7",
"q. c #ACA1CB",
"w. c #A8A4CB",
"e. c #B3A2CC",
"r. c #BCA4CC",
"t. c #B8A6C9",
"y. c #A4A3D4",
"u. c #ABA4D3",
"i. c #A3A6DB",
"p. c #A3ABDD",
"a. c #AAACDB",
"s. c #A9A9D5",
"d. c #B4A4D2",
"f. c #B3AAD4",
"g. c #BCABD4",
"h. c #BBADDA",
"j. c #B6A7D7",
"k. c #AAB3DC",
"l. c #BDB3DB",
"z. c #B8B4D7",
"x. c #B3B6C3",
"c. c #9EADE0",
"v. c #9CBBE3",
"b. c #A4AAE2",
"n. c #A7ACE2",
"m. c #B6AEE0",
"M. c #ACB4E4",
"N. c #A7B5E5",
"B. c #B5B9E5",
"V. c #B6BFF1",
"C. c #C69BC6",
"Z. c #D49DCC",
"A. c #ED9EC5",
"S. c #F996C1",
"D. c #F59BC3",
"F. c #F89BC3",
"G. c #F49EC9",
"H. c #F799C3",
"J. c #E69ED0",
"K. c #C3A4C4",
"L. c #C3A3CC",
"P. c #CDA4CB",
"I. c #C3ABCC",
"U. c #CAABCC",
"Y. c #C9A8C5",
"T. c #D2A4CC",
"R. c #D3AACD",
"E. c #D9A7C8",
"W. c #CAB6C5",
"Q. c #D8B7C8",
"!. c #C3ACD3",
"~. c #CCADD4",
"^. c #C8A6D5",
"/. c #D2ACD2",
"(. c #DCACD4",
"). c #D8A6D5",
"_. c #CCB3D5",
"`. c #CBB4DB",
"'. c #C6B4D9",
"]. c #D4B4D3",
"[. c #DBBBDA",
"{. c #D6B7D8",
"}. c #E4A4C3",
"|. c #ECA5CD",
" X c #ECAACD",
".X c #E6A7C8",
"XX c #F4A1C5",
"oX c #F4A3CB",
"OX c #F8A3CC",
"+X c #F4ABCE",
"@X c #F8A9CB",
"#X c #E5BCC9",
"$X c #E5A5D1",
"%X c #EAACD3",
"&X c #E8A7D3",
"*X c #F5ADD2",
"=X c #F8AFD3",
"-X c #F2A6D1",
";X c #E5B2D9",
":X c #ECB4DA",
">X c #EEBADB",
",X c #E4B9D8",
"<X c #F6B3D6",
"1X c #F8B1D5",
"2X c #F4BAD6",
"3X c #F5B6D8",
"4X c #F4BCDB",
"5X c #F8BBDC",
"6X c #F8B4D8",
"7X c #F3B0CE",
"8X c #CCBBE3",
"9X c #C3BAE3",
"0X c #D4BAE2",
"qX c #EDB9E1",
"wX c #B7C3EB",
"eX c #BDC5F1",
"rX c #CAC8C4",
"tX c #D2CBC4",
"yX c #D4C9C4",
"uX c #D4D3CB",
"iX c #DAD5C8",
"pX c #DEDCD5",
"aX c #D7DAD8",
"sX c #D6C7D5",
"dX c #E6C3CC",
"fX c #E4DAC5",
"gX c #EADECB",
"hX c #E5DAC8",
"jX c #EECADD",
"kX c #E8C6D8",
"lX c #F6C2DE",
"zX c #F8C2DF",
"xX c #F1C7DA",
"cX c #E6DECE",
"vX c #DEE1DA",
"bX c #E8E1CC",
"nX c #F2E2C8",
"mX c #E8E5D8",
"MX c #F3E8D5",
"NX c #CBC6EA",
"BX c #D9C4E7",
"VX c #CAD1EE",
"CX c #E7C6E3",
"ZX c #F6C4E2",
"AX c #F8C4E2",
"SX c #F5CAE5",
"DX c #F6CDE8",
"FX c #F4D0E1",
"GX c #E5EAE6",
"HX c #EEF1EC",
"JX c #F4F3E8",
"KX c #EDF4F4",
"LX c #F5F7F3",
"PX c #EBEDE9",
/* pixels */
"S.S.H.` ` ` H.' H.H.H.H.H.H.' ] ] S.H.H.S.S.` ' S.S.H.S.H.' ` S.S.S.H.' ' ' ' H.D.) D.S.' ' S.` H.H.H.' ' H.H.H.H.H.H.' ' H.S.S.",
"H.H.H.' ' ' H.H.H.H.H.H.H.H.' ' ' H.D.H.S.S.D.D.H.S.H.S.' ) A.H.S.H.' D.D.D.D.) ( ~ _ H.] ' ` ' H.H.H.H.' ' H.H.H.H.' ' ' ' H.S.",
"' ' ' ' ' ' ` ` ` ` ' ' ' ' ' ' ' ' ' ` ` ) _  X*XA.' ` ) +X.X) H.) ) D.H.D.) ^ R m ^ ` ` ' ' ' ` ` ` ' ' ' ` ` ' ' ' ' ` ` ` ` ",
"H.H.H.H.H.H.' ' ' ' ' H.' ' ' H.H.H.D.' ) ( / ..#X.X@.@.}.E.E.) D..X}.|.G.) ^ R Z f ^ ) H.H.' ' ' ' ' H.H.H.' ' H.H.H.H.' ' ' H.",
"D.D.D.D.H.H.H.H.D.D.D.D.D.D.D.H.H.H.H.' @.~ O.yX| O....X........}...kXSX}.~ [ W s 7 ^ D.D.D.H.H.D.D.H.D.D.H.H.H.D.D.D.D.H.H.H.H.",
"H.H.H.H.H.H.H.H.H.D.D.D.H.H.D.D.F.H.H.' @.[ X.uXPXo.O.....W.o. .[  .| | | O.} E 7 2 ^ H.H.H.H.' H.H.H.D.D.H.H.H.D.D.D.D.H.H.H.H.",
"F.F.F.D.G.F.D.D.D.D.D.D.D.D.F.D.D.D.A.A..XO.J rXmXuXo.o.| o.| H | | W.o.o.} { a , 2 @.D.F.D.H.H.F.D.D.D.D.D.D.D.D.F.F.F.F.F.D.D.",
"D.D.D.D.G.F.D.D.D.D.D.D.D.D.D.D.D.+X+X X..J rX*.rXpXtXo.o.*.J H H } o.yXX.X.K y y 0 ( D.F.D.D.D.D.D.D.D.D.D.D.D.D.D.D.D.D.D.D.D.",
"G.G.D.G.G.G.D.D.D.D.D.D.D.D.D.G.XX5X XE.O.rXo.X.*.rX*.rXiXyXJ Z H H } } X.X.I b k 8 ..G.D.D.D.D.D.D.D.D.D.D.D.D.D.D.D.D.D.D.D.D.",
"G.G.G.A.A.G.G.D.D.D.D.D.D.D.G.D.G.+XoX}.W.o.o.P tXtXpX=.*.} } { } { { { =.*.pXX.C H ..G.D.D.D.D.D.D.D.G.G.D.D.G.G.G.G.G.G.G.G.D.",
"D.D.G.|.$XJ.G.G.D.D.G.D.G.G.G.G.G.XXD.}.R.W.X.X.iXhXcXhX=.&.Y Y B B N B N } *.Z V 8 ^ G.D.D.D.D.D.D.D.D.D.G.G.G.G.A..X|.A.G.G.D.",
"XXG.-XP.G T.|.XXXXoXoXoXD.D.G.G.oXXXXXoX}.Q.X.iXMXMXMXgX:.#.T T T T d f r s r a y % U XXG.D.D.XXD.oXD.XXG.G.oXoXoXE.F P.$XG.XXF.",
"XXG.J.5.f.L.(.|.oX|.XXXXXXD.XXXXXXXXXXXX( | hXnXMXMXnXnX>.;.Q ! ! T d d p p r p 7 7 M XXG.G.D.XXoXoXXXXXXXXXoX|.$X!.u.j.Z.oXXXF.",
"oXoX$X5.l.B.y.j.~.(.$X|.|.oXoXXXF.XXXXXX}.O.MXMXMXMXnXnXnX>.;.Q h d d g f w p p B s U XXoXoXXXoXoXoXoXoX|.$X(.P.r.f.B.3.T.oXXXXX",
"oXoX|.T.e.k.0.N.M.f.g.^.).(.$X|.oXoXOXXXXX..MXMXMXfX&.-.nX<.;.#.d w < < 1 w w r f 4 U oXoXoXoX X X$XE.).^.j.k.k.9.k.u.r.$XoXXXXX",
"oXoXoX|.T.3.a.N.c.c.M.i.7.7.d.L.).&X-XOXoX( ,.nXgXA = = :.nX&.E p O .   @ 4 1 1 1 2 M oXXX|.(.P.g.d.7.i.p.n.c.v.0.w.C.&XoXXXoXoX",
"oXoXoXoX$X5.z.p.9.M.B.p.9.i.i.2.7.8.).-XoX..O.gXfXA $ - %.fX&.W a = o X - 3 < # = > ^ |.$X^.j.3.y.n.b.b.N.wX9.y.B.e.Z.oXXXoXoXoX",
"oXoXoX-X%XP.e.B.k.a.9.9.p.B.eX9.9.2.3.Z.(..XO.J z z x z z Z %.{ b b b C b c , # % 0 .X).6.7.1.9.B.NXp.i.9.n.a.B.w.5.&XOXOXoXoXoX",
"oXoXoXoX-X&X).j.y.n.b.b.n.9.B.eXB.y.y.7.8.(. .z x x x x l A Z a k k x z x b 3 + > [ L.7.7.y.k.wXVX9.9.p.p.9.a.u.!.$X-XoXoXoXoXoX",
"+XoXoXoXoX-X).j.M.n.p.9.V.N.p.M.B.VXB.7.7.^.Y.D n b C J fX} 4 , r a u i y e % % D I.u.7.a.NXNXB.p.N.M.p.9.p.a.h.^.%XoX X|.oXoXoX",
"oXoX+XoXoX XP.f.a.p.M.wXwX1.1.i.y.w.9X^.^.g.r.Y.| =.hXnXnXQ 4 5 q p r 4 , = % 9 t.r.3.h.'.f.y.i.9.1.N.V.M.9.i.h.L.$X X+X+XoXoX@X",
"OXoX@X+XoX XC.d.m.a.M.M.wXn.c.B.a.q.d.`.BX`.~.L.F o.iXhX&.B 4 5 < 1 3 1 = % j K.L._.8X8Xg.q.q.m.i.9.wXB.B.p.a.h.5.%X*X@X+X+X*X*X",
"oX@X+X@X@X-X(.5.h.m.s.w.u.i.n.k.9X8XBX`.g._.0X5.t.L P hX=.{ B p , 1 4 3 - 8 L 5.].[.~.'.NX'.9XB.a.i.a.y.u.k.z.6.T.-XOXoX+X+X@XoX",
"@X@X@X@X@X*X%XR.!.!.`.!.`.h.f.u.f.w.f.'.j.6.L.CX_.W.P cXMXgX%.B a f 7 ; t o.F CX~.F 5.'.z.f.q.f.u.m.B.g.`.r.I.P.%X-X*X@X@X*X@X@X",
"*X+X@X+X@X*X%XK.U.kX].!.'.j.e.l.z.z.j.g.e.r.5.[.W.W.tXcXMXMXfX%.Z c e t } b z BXr.r.r.j.g.g.q.l.f.j.l.!._.BX/.K.$X*X*X*X*X*X*X*X",
"+X@X@X@X@X+X&XC./.,X,X!.h.f.8X9Xf.NXg.!.`.r.K. .L yX*.tXpXMXJXmX=.K H *.} ; 6  .K.6.'.!.g.NXh.h.NXf.l.g.{.[.].C.E.*X*X*X*X*X*X*X",
"+X+X+X+X+X+X%XC.P.,XU.4.f.9X9Xf.u.u.q.r.{.[.R./ [ fX=.tXuXuXpXpXuX*.H P V e 6 D T.[.BXg.e.u.f.d.8Xh.9X4.6.kX].F E.*X*X*X*X*X*X*X",
"1X1X1X*X*X+X7XT.C.Q.{.d.4.h.8Xe.d.S 3.`.L.F E.[ O.fX:.iXuXpXmXpXuX*.P X.N f 7 m E./ 5.`.e.2.j.q.'.9X3.3.'.[. ./ %X1X1X*X*X*X*X*X",
"=X=X=X=X=X+X7X X(.Y./.BX`.e.!.8X8X`.!.{.U.Y.Q.[ yXnXnXfXiXpXuXuXtX*.%.{ E B s f ..T./.{.U.'.8X8X'.e.g.BX{.Y.E.%X<X*X*X*X*X*X=X*X",
"*X*X*X*X*X=X+X*X%X(.P.U.{.^.'.'.!.g.g._.{.kXxX| iXfX>.gXcXpXpXpXuXrX} { E Y s r [ kX{._.U.!.r.g.!.!.0X~.K.(.%X%X*X*X*X*X*X*X1X*X",
"*X*X*X1X*X1X+X*X*X*X3X;X(.T.T././.~.L.~._.].sXL iX:.:.:.bXbXiXuXtXX.} W E B s 7 6 W.{._.L.^.~.~.U.P./.;X:X3X*X*X1X1X1X1X1X1X*X*X",
"1X1X1X1X1X1X1X1X1X1X1X<X<X3X:X:X;X;X(.~.'.l.z.P iXfX:.:.fXbXbXtX=.X.} E B B f 4 2 n !.`.{.(.(.;X;X:X3X3X<X1X1X1X1X1X1X1X1X1X1X1X",
"1X1X1X1X1X1X1X1X1X1X1X1X1X1X3X:X:X{.~.g.j.i.z.rXcXgXfXgXbXbXpXtX%.A c a s s w 1 = 8 t.h._.].,X:X<X1X1X1X1X1X6X6X1X1X1X1X1X1X1X1X",
"1X1X1X1X1X6X1X1X1X<X<X1X1X<X:X;XR._.0Xh.m.B.x.vXmXbXbXMXJXmXpXtXK V y 6 r r 4 < = - L h.9X].P.;X:X<X1X1X1X1X1X<X<X1X1X1X1X1X1X1X",
"6X6X6X6X6X6X1X1X1X1X1X3X6X3X:XP.{.].I.l.9Xz.x.mXfX=.bXJXJXPXvXuX*.Z u 6 - , 1 < + $ n '.g._.].U.(.3X3X1X3X6X6X6X6X6X6X1X1X1X1X1X",
"6X6X6X6X6X6X1X1X<X1X<X6X6X:XT.P.CXY.K.!.f.S uXfX%.A bXJXHXPXGXaXrXK v e - = = # # $ 8 !.I.K.CXR./ :X3X1X3X6X6X6X6X6X6X1X1X1X1X1X",
"3X3X3X3X3X6X6X6X1X1X1X6X2X:XC./.,X].Y._.'.L hX:.W V mXLXLXHXGXaXtXX.N t - = # + + = : K.U.Y.,X[./ (.>X3X3X6X6X6X6X3X3X6X6X6X6X6X",
"3X3X3X3X3X3X3X3X3X3X3X3X2X>X)./ R.[.,X[.I.o.fX&.B A MXLXLXKXGXaXrXP b t 6 - # + + 3 6 W.CX,X,X/ / :X4X3X3X3X3X3X3X3X3X3X3X3X3X3X",
"3X3X3X3X3X3X3X3X3X3X3X3X2X4X4X;X(./.R.].W.yX:.W N } JXLXLXKXGXaXrXP z t e 3 O @ = w y D R.T.T.(.:X3X6X3X3X3X3X3X3X3X3X3X3X3X3X3X",
"3X3X3X3X3X3X3X3X3X3X3X3X2X2X4X4X4X>X4X>XQ.yX:.E B =.JXLXLXKXPXaXrXP z y e 3 O X 1 s s ~ >X>X4X4X3X3X3X3X3X3X3X3X3X3X3X3X3X3X3X3X",
"3X3X3X3X3X3X3X3X3X3X3X3X3X3X3X3X3X3X2X4XQ.*.-.E B -.MXJXKXKXPXaXrXP b y 7 1 O X w E B ~ 2X3X3X5X3X3X3X3X3X3X3X3X3X3X3X3X3X3X3X3X",
"4X4X4X4X3X3X3X4X3X3X4X4X4X4X4X4X3X2X5XqXK.J =.W W &.hXGXHXHXGXaXrXP V i r 3 # O g &.W [ 2X3X3X3X4X4X4X4X4X4X4X4X3X3X4X4X4X4X3X3X",
"3X3X4X4X4X4X3X3X3X3X4X4X4X4X3X4X3X2X5XqXL.o.J W E E %.pXmXGXGXaXrXJ N i r 3 = , Q &.W [ 2X5X3X4X4X4X3X3X4X4X4X4X3X3X4X4X4X4X4X4X",
"4X4X4X4X4X4X4X4X4X4X4X4X4X4X4X4X4X4X4XqXC.F L Z B a N =.iXvXvXuXP K N a 7 4 r Y ;.&.m ..2X4X3X3X3X3X3X3X4X4X4X4X4X4X4X4X4X4X3X4X",
"4X4X4X4X4X4X4X4X4X4X4X4X4X4X4X4X4X4X3X>X,X[.Q.n c e e K *.iXuXrXJ I N y 7 d Q &.&.E M #XlX4X4X4X3X3X4X4X4X4X4X4X4X4X4X4X4X4X3X4X",
"4X4X4XlXlX4X4X4X4XlXlX4X4X4X4X4X4X4X4X4X4X4XxXH c e 6 c A %.*.P C b a r B &.&.$.E M O.lX4X4X4X4X4X4X4X4X4X4X4X4X4X4X4X4X4X4X4X4X",
"4X4X4XlX4X4XlX4X4X4X4X4X4X4X4X4X4X4X4X4X4X4XxXH C c i c N A K K V c r s &.&.E B M [ lX4X4X4X4X4X4X4X4XlX4X4X4X4X4X4X4X4X4X4X4X4X",
"4XlXlXlXlXlXZX4X4X4XlXlX4X4X4X4X4XlX5XzX5XlXlXD A V v c l V A V c u r a &.$.g a O.xX4X5X5XzXlXlXlXlXlXzXlXlXlXlXlXlXlXlX4X4X4X4X",
"4X4X4X4X4X4X4X4X4X4X4X4X4X4X4X4X4X4X4X4X4X4XlXD C N u e e c N u y y y a B B r M xXlX5X5X4X4X4X4X4X4X4X4X4X4X4X4X4X4X4X4X4X4X4X4X",
"AXAXAXAXAXAXAXAXAXAXlXAXAXAXAXAXAX4XlXlXAXlXlXO.k e ; * * e l t 8 y y a s f 6 M lXlXzXZXZXlXzXzXzXzXzXzXzXzXzXzXzXAXAXAXAXAXAXAX",
"ZXZXlXlXlXZXAXZXAXAXAXZXlXlXAXAXZXlXlXlXZXlXlXdXt ; $ o o - 6 8 | yXn c s y 3 9 xXlXAXlXZXZXlXlXlXlXlXlXlXlXzXAXZXlXlXlXlXlXlXlX",
"ZXZXZXZXZXZXZXZXZXZXZXZXZXZXlXlXZXZXZXZXZXlXlXdX8 * o X y v [ #XxXxXQ.n c e * 9 xXZXZXlXZXZXlXZXZXZXZXZXZXZXZXZXZXZXZXZXZXZXZXZX",
"ZXZXZXZXZXZXZXZXZXAXAXZXZXZXZXZXZXZXlXlXxXxXxXO.e - o @ dXlXZXAXAXAXxXD y ; $ 2 xXZXZXlXZXZXlXZXZXZXZXZXZXZXAXAXZXZXZXZXZXZXZXZX",
"ZXZXZXZXZXZXZXZXZXZXZXZXAXZXZXZXZXAXlXjXO.m m v y ; O 0 xXAXAXAXAXAXlX| 8 - O $ #XZXAXZXZXZXAXZXZXZXZXZXZXZXZXZXZXZXZXZXZXZXAXAX",
"AXAXAXAXAXAXAXAXAXAXAXAXZXZXZXZXAXZXxXH n b b y 6 - & M ZXAXAXAXlXlXZXQ.0 - O @ [ SXAXAXAXAXZXZXAXAXAXAXAXAXZXZXAXAXAXAXAXAXAXAX",
"AXAXAXAXAXAXAXAXAXAXAXAXAXAXZXZXZXZXkXz l l i 6 * & k kXZXAXAXAXAXAXZXkX8 - $ O 9 SXAXAXAXAXAXAXAXAXAXAXAXAXZXZXAXAXAXAXAXAXAXAX",
"ZXZXZXZXZXZXAXAXAXAXAXZXZXZXZXZXZXZXxXO.D k k k [ dXxXSXZXAXAXAXAXAXlXjX8 - * - 0 jXZXAXZXZXZXZXZXZXZXAXZXZXZXZXZXZXZXAXZXZXZXZX",
"ZXZXZXZXZXZXZXZXZXZXZXZXZXZXZXZXZXSXlXlXSXjXjXjXxXxXZXZXZXZXZXZXZXZXSXjXk 6 e 6 6 kXSXZXSXSXSXSXSXSXSXZXZXZXZXZXZXZXZXZXZXZXZXZX",
"SXSXSXSXSXSXSXSXSXSXSXSXSXSXSXSXSXZXZXZXZXSXlXZXSXSXSXSXSXSXSXSXSXSXZXSXH i u u t Q.SXZXSXSXSXSXSXSXSXSXZXSXSXSXSXSXSXSXSXSXSXSX",
"SXSXSXSXSXSXSXSXSXSXSXSXSXSXSXSXSXSXZXZXZXZXZXZXZXZXSXSXSXSXSXSXSXSXSXSXH v N c v Q.SXZXSXSXSXSXSXSXSXSXSXSXSXSXSXSXSXSXSXSXSXSX",
"SXSXSXSXSXSXSXSXSXSXSXSXSXSXSXSXSXSXSXSXSXSXSXSXSXSXSXSXSXSXSXSXSXSXSXDX| b V V b Q.SXSXSXSXSXSXSXSXSXSXSXSXSXSXSXSXSXSXSXSXSXSX",
"SXSXSXSXSXSXSXSXSXSXSXSXSXSXSXSXSXDXDXDXDXDXDXDXDXDXDXDXSXSXSXSXSXDXDXSXkXZ Z V n kXDXSXDXDXDXDXDXDXDXSXSXSXSXSXSXSXSXSXSXSXSXSX",
"DXDXSXDXDXDXDXDXDXDXSXDXDXDXDXDXDXDXDXDXDXDXDXDXDXDXDXDXDXDXDXDXDXDXDXSXFXdXQ.dXjXDXDXDXDXDXDXDXDXSXSXSXDXDXDXDXDXDXSXDXDXDXDXDX",
"DXDXSXSXDXDXDXDXDXDXSXDXDXDXDXDXDXDXDXDXDXDXDXDXDXDXDXDXDXDXDXDXDXDXDXDXDXSXSXFXDXDXDXDXDXDXDXDXDXDXSXSXDXDXDXDXDXDXDXDXDXDXDXDX"
};
