/* XPM */
static char *a06b620e73594ba89f66817d1d5247c5[] = {
/* columns rows colors chars-per-pixel */
"64 64 242 2 ",
"   c #040202",
".  c #0B0404",
"X  c #0D0909",
"o  c #130406",
"O  c #140C0B",
"+  c #1B0C0B",
"@  c #180608",
"#  c #19110E",
"$  c #160D11",
"%  c #1C1413",
"&  c #1B1717",
"*  c #24090C",
"=  c #231413",
"-  c #231916",
";  c #231C1B",
":  c #2B1D1B",
">  c #2B1815",
",  c #351817",
"<  c #2A0D10",
"1  c #2B211D",
"2  c #28221C",
"3  c #34231D",
"4  c #38251D",
"5  c #281D21",
"6  c #2D2322",
"7  c #2D2728",
"8  c #332623",
"9  c #3A2623",
"0  c #342925",
"q  c #3C2B24",
"w  c #342C2A",
"e  c #3C2D2B",
"r  c #34272A",
"t  c #3C322D",
"y  c #38322B",
"u  c #3D3432",
"i  c #3D3935",
"p  c #393537",
"a  c #3A2F32",
"s  c #45181B",
"d  c #5A1C1E",
"f  c #470B1A",
"g  c #44241E",
"h  c #551923",
"j  c #6D182C",
"k  c #442C24",
"l  c #472B27",
"z  c #582928",
"x  c #423226",
"c  c #44342B",
"v  c #4A342B",
"b  c #4B3A2D",
"n  c #48392B",
"m  c #54362D",
"M  c #433433",
"N  c #4A3533",
"B  c #443A33",
"V  c #4D3C33",
"C  c #453C3A",
"Z  c #4B3D3B",
"A  c #443738",
"S  c #523C34",
"D  c #523E3A",
"F  c #593935",
"G  c #512F31",
"H  c #662A2B",
"J  c #643A37",
"K  c #713C3C",
"L  c #3D403D",
"P  c #4C423D",
"I  c #474237",
"U  c #534234",
"Y  c #55433B",
"T  c #5B443C",
"R  c #5B4B3E",
"E  c #584738",
"W  c #524630",
"Q  c #65453D",
"!  c #6C493F",
"~  c #4B3E43",
"^  c #5B3D41",
"/  c #783E40",
"(  c #4D4442",
")  c #4B4846",
"_  c #544442",
"`  c #5C4543",
"'  c #544A45",
"]  c #5B4B44",
"[  c #534C4A",
"{  c #5C4C4B",
"}  c #52474E",
"|  c #5C524D",
" . c #585247",
".. c #594D56",
"X. c #5C5452",
"o. c #5C5757",
"O. c #4E514A",
"+. c #634D44",
"@. c #634E4B",
"#. c #694945",
"$. c #754745",
"%. c #635244",
"&. c #64524B",
"*. c #6B594D",
"=. c #6A5549",
"-. c #76544D",
";. c #635553",
":. c #6A5552",
">. c #645B55",
",. c #6C5A54",
"<. c #655C5B",
"1. c #6B5C5B",
"2. c #65565B",
"3. c #735C53",
"4. c #7B5B53",
"5. c #735E5B",
"6. c #795653",
"7. c #72634C",
"8. c #6B625D",
"9. c #676458",
"0. c #74635C",
"q. c #7A635C",
"w. c #786759",
"e. c #6C6144",
"r. c #685B63",
"t. c #6B6764",
"y. c #736463",
"u. c #736A64",
"i. c #7C6B64",
"p. c #746B6A",
"a. c #7B6D6A",
"s. c #7B6562",
"d. c #7B716B",
"f. c #76736A",
"g. c #7B7573",
"h. c #7D7A75",
"j. c #797978",
"k. c #7E6F70",
"l. c #5D5E60",
"z. c #855956",
"x. c #86534F",
"c. c #84635C",
"v. c #86665B",
"b. c #896F5D",
"n. c #8C6B63",
"m. c #836B65",
"M. c #956A65",
"N. c #85736B",
"B. c #8C756B",
"V. c #887769",
"C. c #94766B",
"Z. c #827473",
"A. c #837B74",
"S. c #857D7B",
"D. c #8B7D7C",
"F. c #8A7874",
"G. c #947B73",
"H. c #977B75",
"J. c #886F70",
"K. c #A77270",
"L. c #822139",
"P. c #7E817C",
"I. c #8B837C",
"U. c #878277",
"Y. c #94837C",
"T. c #97877A",
"R. c #948870",
"E. c #A68476",
"W. c #887B82",
"Q. c #7F8386",
"!. c #8C8482",
"~. c #8A8785",
"^. c #928684",
"/. c #938B83",
"(. c #948C8B",
"). c #9A8C87",
"_. c #9C938C",
"`. c #989288",
"'. c #9C9492",
"]. c #9A9897",
"[. c #968E93",
"{. c #A38A86",
"}. c #A59789",
"|. c #A39B94",
" X c #A49C9A",
".X c #A79995",
"XX c #B39893",
"oX c #ACA29C",
"OX c #A6A19B",
"+X c #B4A69A",
"@X c #A79EA2",
"#X c #ABA4A3",
"$X c #ABA7AA",
"%X c #B3ACAA",
"&X c #B5AAA6",
"*X c #BBB3AD",
"=X c #BBB3AA",
"-X c #B4ADB3",
";X c #BCB5B4",
":X c #B9B5B8",
">X c #ADAFB5",
",X c #C4BBB5",
"<X c #C4BCBB",
"1X c #C6BAB9",
"2X c #C0B4A7",
"3X c #CAC2BD",
"4X c #BEBCC1",
"5X c #C3BDC2",
"6X c #BDC6D0",
"7X c #CBC5C3",
"8X c #CAC5CA",
"9X c #C7C4C8",
"0X c #D4CDCC",
"qX c #D4C9C6",
"wX c #D6D1CE",
"eX c #C7CCD7",
"rX c #D2CDD2",
"tX c #CCD2DB",
"yX c #DBD3D4",
"uX c #DDD9DC",
"iX c #D7D5D9",
"pX c #E2DCDB",
"aX c #CCD3E3",
"sX c #DADDE4",
"dX c #D6D9E4",
"fX c #E2DCE3",
"gX c #DEE1E6",
"hX c #DEE1E9",
"jX c #E3E2E4",
"kX c #E3E5EB",
"lX c #E6E9ED",
"zX c #EAEAED",
"xX c #EBE6E9",
"cX c #EAEDF1",
"vX c #EEF1F4",
"bX c #F2F3F5",
"nX c #F4F6FA",
"mX c #F6F9FC",
"MX c #FAFAFC",
"NX c #F9F6F9",
"BX c #F3EDEE",
"VX c #E8E0DA",
/* pixels */
"eXeXeXeXeXtXeXeX6X6X>X[.f.f.-X4X6XeXtXaXaXaXaXsXsXsXlXlXnXkX8XrXrXiXiXgXkXkXsXdXdX0X}.T.`.].#X#XOX#X#X:X$X].~.U.U.I.|.|.I.A.d.I.",
"tXtXtXtXtXtXtXeXeXeXeX9X4X].>XeXtXaXaXaXaXdXsXiX9X9XtXcXMXcX9X<X7XrXkXkXsXsXdXiXiX,X}.T.T.|. X_.~./.`.$XOX~.h.f.A.^.;X=X|./.U./.",
"dXdXdXdXdXdXdXdXdXdXdXaXtXtXtXdXdXsXhXhXkXkX9X:X:X6XtXlXNXMXjXwXpXjXrXsXsXsXdXdXyX=X_.U.U.T.`.`.I.h.f./.OXg.t.u.U.'.*X;X*X&XoX&X",
"hXhXsXsXsXsXsXdXsXsXsXdXdXdXsXsXhXkXkXkXkXiX-X-X:X:X9XsXlXkXBXxXxXjXgXgXgXhXsXsXuX*XU.i.A.T./.`.I.h.u.g.U.f.f.A./.|.%X<X7XqXqX0X",
"hXkXkXhXhXhXkXgXkXkXkXkXkXgXkXkXkXkXkXkXsXrX:X-X:X9XrXuXuXiXjXjXkXkXkXhXgXdXgXhXjXqXF.9.i.U./._._./.(.OX#X(.I.OX;X<X<X3X0XyXuXuX",
"kXzXzXkXkXlXlXlXlXlXlXlXzXlXkXlXlXlXlXsX8X5X:X:X:X9XrXiXiXuXjXkXkXkXkXsX~.j.:XgXkXpX}.w.u.A.`. XOX'.(.].;X*XOX0XyX3XS.!.|.:XiXsX",
"kXlXcXcXcXvXvXvXvXvXvXvXvXvXvXbXnXvXbXjXrX9X5X4X:X5X8X0XiXuXkXkXhXkXhX4X( _ t.$XrXpX,XT.f.U.OX%X;X*X|.'.#X%XOX7X8X'.X.a.0.S.eXdX",
"vXvXnXnXnXnXmXmXnXnXnXnXnXnXnXnXmXMXbXjXyX9X5X5X9X7XyXuXsXkXkXkXkXkXhX~.[ { { ~ p ~ <.).`. X;XqX0XwX;X].].$X#X#X&XI.8.i.i.).#X-X",
"nXnXnXnXmXmXmXnXnXnXnXmXmXmXnXNXMXMXNXfX0X9X5X5X9XrXjXxXkXlXzXcXcXlX8Xt.y.;._ _ u M C ' /..X%X%X;X3X7X%X].#X(. X%Xp.1.0.0.Y.I.).",
"mXmXmXmXmXmXmXmXmXnXnXmXmXmXMXMXMXNXiX8XrX9X4X9XrXxXbXNXbXvXvXbXcXkX%Xy.N.s.;.;.A Z D C d.).T.A.I.[.:X:X'.'.~./.p.u | _ :.1.,.a.",
"MXMXMXmXMXmXnXnXnXnXnXmXMXMXMXMXbXjXyXiXuXrX4X8XuXBXnXNXnXnXnXnXnX-X>.{ a.Z.t.X.;.0.,.| 2.0.i.N.f.g.].#X/.~.>.M 9 , % _ _ ;.Z ;.",
"MXmXNXNXMXMXNXnXNXnXnXmXMXNXMXNXfXiX8XrXiXuXrX4XsXiX>.Z.0XbXrX-XsXg.{ @.&.1.>.,.0.;.,.1.y.y.1.d._.(./.(.!.t.6 = > > . u _ ' ~ X.",
"mXnXnXnXNXbXNXNXNXmXMXnXMXnXNXbX0X<X:X-X-X5XxXbX9XW.V T ;.S.p.y.r.;.{ &.&.:.{ &.,.=.=.,.,.&.@.;.,.8.A.^.^.A + > 9 % . 7 X.{ A X.",
"nXnXnXmXzXxXbXNXNXNXbXbXBXjXuXyXyX%Xk.1...g.-XxXnXh.Y m l D 0.&._ ] +.+.] ] %.{ &.=.*.&.,.@.&.` ] _ { d.[ = , 4 0 - . } Z M M 2.",
"NXmXmXnXpXpXjXNXbXuXyXwX7X&XoX,X3X^.Y.y.~ i.Y.<XnXh.Y T k v _ Y Y R R R +.R %. .%.*.%.=.R ] T ]  ._ _ _ M , 9 c B 6 . } } 7 u 2.",
"zXNXMXMXcXiXjXNXxX7X*X+X}.`.|.oX XD.F.:.,.3.m.S.uX'.Y Y D V V V Y Y E U E E +.R R %.%.R ] R Y Y Y V Z Z _ A M P i & . <.h.p C 0.",
"0XuXjXvXkX5X9X9X1X2XoX}.}.+X3XwX Xi.s.&.@.q.,.{ 1.2._ ' B c V S V S U E E E E R +.=.*.] R Y Y Y V n V B Z C P C a ; X t.d.| ] N.",
"qX7X7X8X9X-X-XOX_.|.}.1X3XqXxX7XZ.i.3.&.q.=.Y _ A _ { P t N V U S S U Y E E E Q +.R R R U U U V U n n t t i ( [ A 7 # u.u.Y *.*.",
"3X,X,X:X-X-X@X)./.+X2X2X3XpXBX).q.m.0.s.7.q.` ` _ { _ C B D S U U b b V U Y U *.*.Y *.,.U S V V n c n x t w t w ; - O u.*.R 0.N.",
"3X,X,X;X%X$X'./.|.=X.X}.+X1X1XZ.:.q.Z.5.w.w.T D { A w i B V b W S U V D S V S +.] U =.,.Z B c c c V c c c e y 0 ; - - i.T D Z a.",
"3X,X1X,X~.(.!.U.`.`.T.}.T.m.5.,.m.F.0.{ m.*.Y +.1.@.t i B v v v b S v v b V V +.T V ] %.V V B n n c n b q 0 y i A i t w.D n A y.",
"7X<X:X%XA.S.U.A.d.1.}.}.:.m.s.B.H.{.N.,.5.q.=.q.q.@.u u t x b b k c v b b v b ,.` N ,.0.V V V n n V n c x 8 0 C ( a B *.U Y &.0.",
"uX8X9X4X-X$XOXT.A.1.0.,.:.G.G.T.H.B.{.).C.w.3.3.m.{ w t c e q c n b b b D Y Y { { ` { ;.' Y U V b n c x q t w M M 8 &.3.R ] &.F.",
"-X5X8XrXfXxXxX*XT._.^.2.J.B.N.H.T.{.G.R.v.=.*.3.B.1.t 0 t w t n V E ] ] ;.] ;.;.;.| 8.>.>.| &.]  .R c q e t u Z e M s.s.&.] &.F.",
"W.9XiXfXxXNXMXiXoX<X;X..G.B.i.H.H.G.T.C.n.n.B.B.C.N.[ y y B Z P ] ] | ] X.X.X.X.>.>.<.>.t.<.<.;.X.| ' _ A u e M A Z 1.2.{ V &.i.",
"W.iXfX9X9XfXxXuXrXpXyX#XoX}.a.^.H.}.T.v.v.C.n.q.N.>.P i i u u w y w w 0 e u i u C u i y ( y i a w w i u u e C ( M { 1.` c e k ,.",
"D.5X5X$X%X<X7XxXNXbXpXwX1X@Xs.F.}.}.v.c.n.B.B.H.0.w y 6 ; & # # % 8 ` @.5._ X.<.X.( [ ) P C [ [ y ; X . O % ; 6 8 ;.1._ B Z Z &.",
"N.W.'._._._. XqXBXMXxXyX7X).D..X.XD.a.N.G.G.n.n.5.i 0 l : & $ % . O S n.H.,.| 8.X.X.[ [ P ) g.S.X.2 % X % O - u e 2.1.1.0.,.,.i.",
"m.a.D.Z.I.I.!.$XyXxXzXfX<X*XqX%X^.S.Z.Z.G.q.s.#.#.6 1 , + . . . O $ . T {.J.2.X.[ ( X.X.[ 8./.<.O           O 8 1 a.F.Y.G.G.w.V.",
"(.Z.a.p.I.D.A.D.,XwXyXpXyXyXyX<X#X'.(.(.^.{.N.5.s.Z C s.M 3 o     X . + H.H.&.&.M e B [ [ U.U.6 O X % .   O ; Z 0 0.}.oX=X=X&X+X",
"-X&X|. X&X+X).D. X&X7XqXwXwXqX1X;X X_.|..X.X{.D.F.B ( Y.;.q :       - o q.B.0.,.V 3 e X.X./.>.1 8       . e A ^.C _ &X1X7X7X7X1X",
"1X%X#X,X7X,X^.S.}.&XqXqXwXqX1X;X%X@X'..X.X.X).).5.q e q.F._ 8 O . - : . @.6.=.=.+.T Y ;.>.a.) O M X     % 6 p.(._ t S.1X3X3X7XoX",
"|.^.S..X1X#Xp.p.).%X8XrXuXuX1X%X X'.(.|.}.).^.D.q e q D T q.F.B.m.v.T O > m ! $.z.c.c.#.` B % . 9 v e 0 Z u.!.X.w : - !.,XqX|.&X",
"U.<.r.Z.S.r.o.r.D. X$X:X9XiX,X#X'.(.S.^.^.^.I.>.> c 8 S S D =.C.{.E.F = e G $.z.z.M.v.-.F 8 . # #.C.H.G.N.1.( u 2 ; % I.&X7X.X&X",
"t.} ..r.r.r.2.r.p.S.[.~.@X5X-X#X'.~.!.I.!.!.d.V N ` 9 S S k c V 3.+.= l 9 l $.x.x.z.z.6.Q - = o 3 c.q.] Y C t ; ; 6 & A.(.*XU./.",
"..2...} o...} <.p.p.g.~.$X:X-X$X(.S.~.S.).D.8.Y Q F 4 k , l 9 k Y N > N l s F z ! $.$.J F > q 0 # M t w 0 1 6 # & 6 7 f.^.oX X^.",
"~ a o...2.o...p.(.j.].$X$X@X$X@X[.~.'.(.'.I.y.S Q v q l < l ` N v +.6.$.J < * f h d h , + : @.@.Y B ' i 8 & % 6 P ; i f.).&X X_.",
"I C 1.t.2.8.<.A.|.#X].$X5Xg.<.'.~.h.d.S.(.(._ g l k 1 3 , G G F #.-.M.M.z o < h j L.j f * o +.c.q.>.[ u u & # ; & % ( y /.|.I.`.",
"I  .R R E V  .u.I.$X@X[.].h.i A.!.!.'.!.d.g._ l F c l g s J G k N #.M.K.M.9 . * h j f @ O M C.M.q. .C w ) 2 X ; ; ; 6 % p.oXu.U.",
"E %.R E W n Y w.A.@X#XS.&.c 6 A <.) C ' >.S.;.m #.N +.J d s s F #.$.M.K.XX+X>.@ < < + & h. X}.H.T B 6 1 y & w X.X.B X w S.y.d. X",
"=.e.R W W W Y w.A. X&XA.0.P M u P ;.!.(.(.I.1.T F q ` Q z z 6.c.$.z.M.K.XX&X'.6 . . X l.$X$XoXY.0.0.&.( 0 C ) >.X.e - w (.{ ^.oX",
"c 0 2 t I E %.w.U.|.oXN.>.C t ;._._.|.(.(.D.y.@.=.q D #.$.$.x.z.z.M.K.{..X.XOXt..   p ].].OX]./.a.@.] D  .[ ( u w w 0 <.|.1.OXI.",
"[ ) [ C Z _ P e u ] Y P u.( <.'. XU.`.`._.~.a.&.q.Y ` 4.6.$.J ! $.z.n.H.Y.^.S.p.$ $ t.j.U.(.~.~.a.5.,.;.B P ( u C [ 0 S.'.u.=XA.",
"C 1.8.w.R  .( w C ;.B t (.~.(._.g.A.T./.Y.A.Z.,.w.*.C i.c.z.v.c.c.c.J.!.S.D.!.t.7 w r.j.I.j.!.h.p.1.>.9.t.o.X.t.f.o.& f.^.d.oXg.",
"w 0 M 2.E P ( 0 ( d.| Z [.) 8.A.( ( Z.A.a.a.D.] V &.u 8.{.H.-.K H J #.1.p.p.X.C % O p [ f.f.p.o.{ [ X.f.h.g.f.j.f.o.& A.A.u.).a.",
"C P ( { ,.' | [ [ ;.' ' p.[ X.>. . .>.| 2.;.F.` +.=.P Y F.C.x.H d z z F D M C } ) ( C A u P Z e 9 P t.S.!.~.~.j.p.i & d.y.0./.p.",
"B e w 8 1 ; - - : 6 1 6 6 7 0 w w t 0 u u Z i.0.&.D @.D ^ K K H H d z J #.:.5.p.j.f.p.p.o.[ C r ' p.h.h.h.g.p.8.t.i # f.;.i.F.Z.",
"q 3 8 8 8 2 1 8 : : 8 8 8 8 w 6 6 6 ; 1 6 _ ,.q.=.D +.:.:.#.J H d d d z z F @.,.<.<.t.<._ ( Z [ 8.u.8.>.>. .>.[ ( C 7 u.;.G.1.^.",
"n k x q q q 8 c 9 3 k x V V V c e 8 & ; & C 0.s.&.Y =.4.5.z.x./ H H H H z g g l c e B e C P [ 8.t.p.u.8.8.>.>.>.I ; ; M ;.m.&.U.",
"c x c c t c n b c q n n U b b U B w w 7 7 ( 5.s.5.@.=.-.4.z.z.z.x.-.$.K m z l l , = M : X.t.t.f.h.g.p.u.u.u.8.>.B o . % ;.*.] d.",
"c q B V M C _ n n q n W U %. .t & $ ; ; & e :.5.3.F k F 6.n.n.n.n.c.c.c.6.-.#.@.{ y u.O.j.Q.j.j.h.g.f.u.8.8.>.P 6 o . O _ &.C y.",
"e t y M t Z ( Z U n V Y Y V 2 - ; & 5 7 p ~ ] ,.3.F , k 6.c.n.n.n.C.C.H.H.B.N.A.(.p.t.t.P.~.!.S.A.d.i.0.8.8.' 0 - + > @ C 1.M ;.",
"6 1 : 8 0 0 e 9 9 8 0 8 1 : ; : 5 & 7 6 u _ A Y =.-.F F F -.c.n.C.C.C.T.T.Y.a.y.'.~.| h.!.Y.A.d.F.N.i.w.0.&.q = @ = 3 + i 1.Z 2.",
"4 3 3 9 q 4 q 9 9 4 4 1 : : : ; 5 ; 6 2 0 A e 9 =.q.q.4.T J -.4.M.n.B.H.T.G.D 0.).Y.%.B.Y.C.C.q.N.B.N.0.Y D = + < 3 9 + i 0.i.N.",
"c x x k x q x S %.x 3 1 : 3 - : 7 6 7 6 w _ _ e D &.m.n.-.v F Q c.4.m.C.G.q.k n.Y.H.#.n.H.C.B.m.4.4.3.R 9 = @ < 9 k , + ; ( Z 0.",
"n c q q q q V Y c.%.4 3 9 9 : : 6 & 5 5 w ] Y = : A 3.q.4.-.J s l F #.c.4.g F n.B.n.Q 4.v.v.q.-.Q k k > @ + * 9 Y D : . X r a ( ",
"c q q q e c n c v.}.V.*.e 0 8 8 0 & 0 7 u e V 8 + = N #.-.6.Q , < , 4 F m g #.4.c.6.m J 6.Q Q k 4 = @ * < , k T T b # . . ; a } ",
"q 4 9 q 0 q e ` M.C.C.R.}.R 8 8 r 5 w 7 u = > , o . . @ 4 F z z , s , k F F Q T 4.#.m J m g , @ @ o @ , m +.Q +.D : .   . ; 7 p ",
"9 q n x c 4 q Y C.E.v.7.}.w.x c e 5 7 6 7 O + , < o     @ > , , s z G v l T Q Q +.+.k T m v , + < , g k m =.T b 3 +   . . - t C ",
"t E w.=.=.U %.U.v.x.%.I V.R.4 n ] M 7 X.[ . . * < o         . @ , , , , k l m b q V , c S S v v m m F Q F +.S 9 # . . > # u 8.U.",
"+.,.7.7.%.7.R.%.-.K.%.B b.T.Y %.M  .d.9.) .     o * @ o       . o o . @ @ > 9 > 3 q , = N 9 V k m l m v g Y 9 - o . . @ . $  .o.",
"&.*.7.Y A *.T.w.7.3.V V.R.G.&.' O.9.9.O.) X       o * * o .           . . = = = e c > + > e q q 3 = q - # - O . o % + o   $ I 9.",
",.R *.] M 3.}.b.R.%.G.V.V. .O.i L I O.p y X         o * * * @ . .   . . . o + - 8 t - X   X O $ O O O O . . . . # % o     $ u | ",
",.*.=.{ { C.E.C.R 7.E.U d.i >.y p p ) i I X           o @ @ * @ @ * * . . @ + : w u ; O                   . % % 6 O       $ 7 I "
};
