/* XPM */
static char *_8d91f7be2724bf69a25dd31c87633c5[] = {
/* columns rows colors chars-per-pixel */
"64 64 225 2 ",
"   c #1D1512",
".  c #221A17",
"X  c #282119",
"o  c #2E2924",
"O  c #322B26",
"+  c #352D2B",
"@  c #382F2B",
"#  c #35312D",
"$  c #3B332D",
"%  c #3A3127",
"&  c #3C3532",
"*  c #3D3A35",
"=  c #3F3D39",
"-  c #433C35",
";  c #443D3A",
":  c #483E3C",
">  c #403734",
",  c #46423D",
"<  c #4A433D",
"1  c #4A4537",
"2  c #534C3E",
"3  c #594F3D",
"4  c #58523D",
"5  c #4B4642",
"6  c #4E4A45",
"7  c #494746",
"8  c #534C45",
"9  c #534D49",
"0  c #565046",
"q  c #5A5246",
"w  c #55524C",
"e  c #5A534C",
"r  c #5D594D",
"t  c #575652",
"y  c #5B5652",
"u  c #5D5A55",
"i  c #5E5E5A",
"p  c #575853",
"a  c #625A4F",
"s  c #655B4E",
"d  c #625C54",
"f  c #635E5A",
"g  c #6A5D52",
"h  c #5F605B",
"j  c #656055",
"k  c #6A6354",
"l  c #65625D",
"z  c #6B645D",
"x  c #6C695D",
"c  c #6C6B57",
"v  c #716A5D",
"b  c #716256",
"n  c #7B735E",
"m  c #666662",
"M  c #6A6661",
"N  c #676863",
"B  c #6D6A65",
"V  c #6D6D69",
"C  c #726B64",
"Z  c #726E69",
"A  c #786C60",
"S  c #6F706B",
"D  c #767165",
"F  c #797365",
"G  c #74726D",
"H  c #7B746C",
"J  c #7E796D",
"K  c #7E7866",
"L  c #757572",
"P  c #797671",
"I  c #777874",
"U  c #7C7A75",
"Y  c #757A7B",
"T  c #7C7D79",
"R  c #6F7474",
"E  c #86775B",
"W  c #847B65",
"Q  c #837C6C",
"!  c #857B66",
"~  c #837C73",
"^  c #817E79",
"/  c #7F807C",
"(  c #7F8176",
")  c #8B836B",
"_  c #928A6E",
"`  c #9A8C6E",
"'  c #858275",
"]  c #8C8474",
"[  c #8D8974",
"{  c #84827C",
"}  c #8A847C",
"|  c #8C8A7D",
" . c #878A7E",
".. c #938D74",
"X. c #948D7D",
"o. c #978B75",
"O. c #959273",
"+. c #9A9375",
"@. c #9C957C",
"#. c #98957C",
"$. c #A29A7D",
"%. c #A39675",
"&. c #A4916F",
"*. c #B1A27D",
"=. c #787E81",
"-. c #7F8283",
";. c #858682",
":. c #898581",
">. c #878982",
",. c #8B8B84",
"<. c #8D8E8A",
"1. c #928C83",
"2. c #918E89",
"3. c #988F85",
"4. c #8E928C",
"5. c #8E9284",
"6. c #939285",
"7. c #9A9384",
"8. c #9D9983",
"9. c #94938C",
"0. c #9A948A",
"q. c #9B9A8C",
"w. c #959A8B",
"e. c #959692",
"r. c #969993",
"t. c #9B9B94",
"y. c #9D9E9A",
"u. c #979A98",
"i. c #8B9190",
"p. c #A39D82",
"a. c #A19D8B",
"s. c #A29E96",
"d. c #9DA19B",
"f. c #9FA196",
"g. c #A7A285",
"h. c #ABA285",
"j. c #ABA489",
"k. c #AAA88A",
"l. c #B5AC8E",
"z. c #B7AA8B",
"x. c #AAA592",
"c. c #A3A39D",
"v. c #A8A796",
"b. c #B3AD92",
"n. c #B4AD9C",
"m. c #B4A790",
"M. c #BBB394",
"N. c #B5B39C",
"B. c #BAB59A",
"V. c #BDB99D",
"C. c #B9B493",
"Z. c #B8B48F",
"A. c #9BA3A3",
"S. c #9DA7A8",
"D. c #A4A6A1",
"F. c #A6A9A3",
"G. c #AAABA5",
"H. c #A4ACAB",
"J. c #ACADAA",
"K. c #A9A7A2",
"L. c #B0AFAA",
"P. c #AEB1AB",
"I. c #AAB1AB",
"U. c #B5B2A3",
"Y. c #BBB5A3",
"T. c #BCBAA4",
"R. c #B2B4AC",
"E. c #BDBAAB",
"W. c #B6B9AD",
"Q. c #A7B0B2",
"!. c #ACB4B4",
"~. c #ADB7B9",
"^. c #AFB9BB",
"/. c #B3B6B2",
"(. c #B4B9B4",
"). c #BBBCB4",
"_. c #B4BBBB",
"`. c #B9BEBB",
"'. c #B2B7BA",
"]. c #A5AFB0",
"[. c #C3BC9E",
"{. c #C5B998",
"}. c #C3BDA2",
"|. c #C2BDAC",
" X c #CBBDA1",
".X c #C1BEB2",
"XX c #BDC2BC",
"oX c #BEC0B2",
"OX c #CBC39E",
"+X c #C7C19D",
"@X c #D0C39F",
"#X c #C5C2A3",
"$X c #CBC3A4",
"%X c #C5C2AB",
"&X c #CAC6AB",
"*X c #CDC9AC",
"=X c #C5C9AD",
"-X c #D3C9A8",
";X c #C4C2B4",
":X c #CAC5B2",
">X c #CDCBB3",
",X c #C3C4BC",
"<X c #C9C6BB",
"1X c #CCCBBC",
"2X c #C7C8B8",
"3X c #D1CDB5",
"4X c #D5D1B5",
"5X c #B5BEC1",
"6X c #B8BDC0",
"7X c #B7C0C1",
"8X c #BCC4C4",
"9X c #BDC6CB",
"0X c #C3C6C1",
"qX c #C5CAC3",
"wX c #C9CBC5",
"eX c #CCCFC9",
"rX c #C0C9CE",
"tX c #CDD1CB",
"yX c #D1D3CE",
"uX c #D4D6D1",
"iX c #D5D9D3",
"pX c #DADDD8",
"aX c #D0CDC5",
"sX c #DCE1DA",
"dX c #E1E6DF",
/* pixels */
"sXwXD.4.u.D.F.F.D.y.e.d.d.u.<.e.9.<.U V G G B Z G M l l Z Z V G G L L L V G G G G U U P P G P ^ { ^ { { U ,.I <.t.y.c.c.c.y.y.c.",
"yX0X/.P.d.9.4.r.y.A.y.e.y.u.9.,.{ { I V Z G Z Z Z M l M G Z B G G V L G G G G G G ^ U G P G U U ^ U ^ G m T V ;.t.F.J.F.c.c.c.D.",
"iX0X/.P./.I.F.c.u.<.<.e.y.u.<.<.{ L V N B Z Z Z V l l N Z M B Z Z m S G L G G G G U L G G G G P P U U l B T G 9.c.F.D.c.D.D.D.c.",
"uX,X(.I.P.P.F.G.J.D.u.e.y.e.>.{ ^ G M l B Z V B B l l B B l B C Z l V G { { P G G G G G G C C G G U Z y P ,.G 9.y.c.c.c.D.K.D.F.",
"yXR.P.J.F.F.F.F.F.J.J.J.y.<.;.T U Z m f N B B B B f M V N l B B C l N S L ^ ^ U G G Z P Z B Z G G P u u { ,.N <.t.t.,.;.9.F.F.K.",
"qXG.c.R.P.J.G.G.R.G.J.J.c.<./ U G N l i l N M P V f N B B l M M B l l V Z Z Z ~ H G G U B B Z G G l 6 Z { U f ,.r.y.c.c.,.T ,.t.",
").c.<.d.G.P.R.P.J.J.J.D.y.<.U G V N M f l M N G B l M M B M l M B l l V C Z Z D H Z G U N B B B M , w U { P u ^ 9.y.y.c.G.D.y.e.",
").c.,.y.y.D.G.L.G.D.y.y.9.,.T G B f l l l M B M l l B B M M l B M l l B B B Z Z D Z Z G N B N B y * B ^ { Z e ~ ,.9.r.c.G.G.G.J.",
").y.,.s.s.t.9.9.r.y.r.y.2.{ U B f w i Z f M M M l N B B M M M B B l M V B M Z Z G G Z V B Z P B , 6 G U ^ l w { 2.0.t.y.K.G.G.J.",
"/.c.2.s.9.2.,.2.,.,.<.9.{ Z M M M l N P f l M B l N B B l M M Z B l l Z N l V Z G Z B Z Z P :.w & f G U G 6 0 } 9.w.q.t.G.G.F.G.",
"K.c.} 9.9.,.| } } ~ P B z C C D H B l Z M M B N l N B M f M M V B f l Z B M B Z G Z C C C Z B # , M G D y - x | 0.q.0.q.c.R.G.G.",
"G.t.D ,.} ' ' ~ F A C D H Z M M C Z l Z G G V M l M f l f M N V B f l Z B M V Z G C Z C C Z 6 # i Z H M < < U 1.7.0.0.0.y.G.G.G.",
"G.2.y ~ ' ) Q ) ) Q K D D D D C C C C B G Z Z M f l u f f M B B B l M Z C B B V B C Z H C N + 5 i f z w - 2 C F F J 6.0.w.c.F.c.",
"K.,.0 K ..+.+.%.%.+.) W D D H F D C D B Z B V M l l u u i M Z B B l Z Z Z Z B B M C C H M w o & & - - - - 1 2 4 4 k ' [ | 0.f.r.",
"2.U 0 J ! E E &.%.%.%._ W W J J J H D G Z N Z l f l f y f M Z B N N P V Z Z B Z l C C Z z * & 6 6 e 6 1 1 s v E ! ..#...[ | 9.T ",
"T G u ~ ) ` *.z.{.{.z.*.+._ Q D z v Z H H C C f f f y w f l B B ^ B Z B V Z B Z l z B z d < r Z Z D r 1 3 ..h.l.M.l.g.@.7.] | T ",
"t.{ d 7.b.z.{.{.$X$XOX[.l.$.] Q Q x 8 d Z C B f M l w w f M N B B l M M Z Z Z Z l C C C z 8 C z e z 2 1 ! M.}.$X*X XB.h.@.X.| 9.",
"e.L j a.}.M.{.+X&X>X*X-X-X$Xm.o.' ~ H z w 8 l l M l 6 w f l l M l l M B G Z B M B z C C 6 w C 0 < r k n Z.&X*X>X4X*X$XB.p.@.6.e.",
"9.L j 7.M.C.+X#X%XU.v.T.$X$X Xm.] J ' H Z d e e y w , w u l l M f f B Z G C B z z z C e $ e u u d s W +.&X>X>X>X>X>X&X[.j.@.,.,.",
",.G d ] g.Z.OX+XN.,.U 6.V.$X[.M.j.Q } ~ H H C j , & , 6 y l l B f f B Z Z C C z z z z $ - d e B x n _ h.>X1X1X:X:X>X&X#XM.p.,.,.",
"c.G u Q $.l.OX#Xv.{ I L ,.}.OX[.}.n.J ' P H C w , # i M M l l M l B B V M B M z d z 8 @ d y l G A ) ` b.=X1X,XW.:X*X&X#XB.8.,.>.",
"(.I u F +.%.C.$Xv./ I L G a.OX@X[.B.| ~ U H d 6 * * l B N B M M M B B B N l l f d d $ < j d D B W _ O.B.=X2XP.c.%X&X&X&XV.8.} 4.",
"/.{ u j _ %.h.[.N.>.Y L R ( [.OX$X[.x.{ { z e < # , f l l B M M M l B M N z d z d < & 0 e z H D [ O.$.#XT.F.F.d.E.:X&XB.p.F C ,.",
"G.{ u r ) +.Z.#XN. .Y Y Y T v.$X-X}.n.,.{ u , $ o # u f l M l l l l M M z z d d e % < r d H D Q ..O.p.#Xv.r.d.t.W.:X#Xg...v V U ",
"F.;.y r n $.[.$X#Xq.-.Y =.-.q.#X-X$XY.r.:.l $ o o * y u B l M l M B M C M z d d - % e d z J H _ +.O.$.N.5.5.w.w.T.%XV.g.[ J D U ",
"R./ u y k l.}.&X&XT.e.Y Y Y { }.4X*X}.c.<.x $ O , y y u l l M l M N z C M z d e % - e a v D F _ +.+.+.x.{ ,.6.7.T.k.g.j.) G I ;.",
"tXt.l l ~ g.}.&X*X%Xn.,.T I ' V.-X-X[.X.;.} j u d u y u l M M B B B M C M z d < - 8 8 8 v C J ..@.O._ [ ' 9.w.x.V.g.k.g.H T / <.",
"pXtXc.<.9.X.V.*X*X>X%Xa.~ U X.[.-X-XM.[ { 2.J M l u y y f M M B M B M C z z d 8 e 8 < g d w v ..@.O...) ' r.v.E.}.k.@.Q D U 4.r.",
"sXuXP.4.5.5.a.&X4X4X*XY.a.X.b.$X[. X{.X.T ,.' C l u u u l l M M M M M C z z z j j 0 - g z w c _ @.O.O.O.8.x.T.&X&XN.X.C l G <.t.",
"dXsX,Xt.9.,.| x.*X&X}.[.}.V.&X&X$X$XM.] T | 3.H l u u u l l l l M M B C z z z z v r 8 g a w c _ +.O.+.k.g.N.%X>X>XB.J z l M ,.y.",
"sXpXyXG.e.,.U G 8.T.B.C.C.B.}.[.$X+Xj.C M D 0.~ z l y u l l i l l M M Z C z z z C d e k 8 u k [ O.8.B.V.k.%X:X3X%Xq.' Z B B ;.v.",
"yXtXwXR.e.{ G V C ] b.B.M.C.M.M.l.h.] e r v 6.J d d w u f l l f l M M C Z z z z C d d b 2 u d ) ..N.%XN.E.:X3X%Xa.' ~ { { ,.q.n.",
"tXwXyX`.e.U L V C z Q 8.j.l.l.h.@.) s 2 r ~ ' M r e e y u i f i M B Z C D z z z C 8 d A 0 0 e K X.b.}.N.1X:XY.q.~ J { ;.,.2.s.}.",
"tXwXwX,Xy.T U G Z l j k n W K F k q 0 d C J H l < 6 8 9 w y f f B Z G Z Z M l z z < d F j 2 < j 7.x.a.N.N.q.~ D G { <.,.,.9.n.}.",
"eXwXqX,XD.{ U P H Z B d e 0 8 0 8 e y k F Z M e 5 , 5 6 6 w y y l B V V M B l d e < r A D k d B Z x x G x x D ~ { { >.,.,.0.n.}.",
"wXwXwXwX(.t.{ P G Z C z d d y d e e e d C B f 6 5 5 6 5 6 6 9 9 u B V V V M f d e 8 z 1.1.~ C B Z Z Z m V T { ;.{ T ^ ;.,.t.n.|.",
"wXqXqXtX0XJ.,.U G M l l B C l d e w 8 y l f u 5 , 6 9 6 8 6 6 8 w m G G B l i d e < C 3.} ' C B G U U G S T I U I U { ,.,.6.x.U.",
"qX0XqXwXqX`.t.{ G B u u f y y y e w e r d d e 5 5 9 y 8 8 6 5 8 9 m G G m f i d r 5 z ~ ~ U C B L T B h m L ;.G B G :.,.2.,.r.y.",
"0XqXwX0XwX,XG.,.L V m u y y 9 w w 9 w e d u y 5 6 9 w 8 9 8 5 6 9 u G S i y i l u e f B Z C Z B B B u i i l L V G G { ,.c.D.H.J.",
"qXqX0XXXqXXX/.t.;.G m i y w 9 5 6 5 9 9 d f f 9 6 9 9 9 < 5 6 y w l G N w 9 i f d y f l B M B Z G B u p i l B V V B Z ;.H.!.Q.!.",
"wXqXqX0XqX,X).G.,.U V f f u w 6 6 6 9 w f l l w 9 6 9 8 * * 5 u u V U m 6 9 y y e y f l i i l m m h u p h l m B B B L i.Q.^.Q.!.",
"qXqXqX,X,X,X).P.9.^ P Z B i w w 9 6 5 w l l l w 9 6 8 < & * 5 u m I / N 6 9 t 9 9 9 f i t w u l l i u t i l M Z Z Z ;.S.!.^.5X~.",
"0XqX0XXX,X,X).(.c.:.{ P l u y w w w , , y y u 9 9 5 5 : - = 6 m L I T V 6 9 y 9 y i M u t w u l m m l l M M G U P / A.^.8X5X~.8X",
"wXwX0XXXXXXX).XXR.4.U Z l f u y y w 6 5 , * w w 6 6 6 6 5 , t V I L { Y p 9 w y y M 9 = , 7 i G N u u t B B Z B V 4.H.!.9X5X8X7X",
"wXwXqXqXqXwX,X(.G.,.B l B Z l f i y w u w * 5 y y 6 9 w w 9 y V I U { ;.B 9 6 u d L f m i 7 9 V B u y t N l l i N d.].~.rX_._.Q.",
"wXtXyXuXyXyX0XP.c.>.l u Z G V B B M f l w 9 w u u 8 5 6 9 9 i V L Y ;.;.l 7 ; w w G Z G l u p T Z u f f B w w u Y Q.^._.!.H.~.~.",
"qXwXyXuXyXyX0X(.G.T f f B M l l G P B l 9 6 , i f 8 , 5 9 9 f m V I ;.,.N 5 * 9 i U U / { L V 2.{ Z B l u ; 9 V u.7X8X'.S.A.A.A.",
"wX,XwXyXeXwX0XR.c.{ f l u y u M N G N l u w 5 w y 9 < 5 6 y f m m N L G m 5 5 w N ;.T T T / N G U U B l 5 * 6 L A.7X5X^.~.~.A.H.",
"wX,XwXwXqX0X0X,X/.e.l f u y w w u B V Z M y 5 9 y f 9 8 9 f f f M l h m m 9 M f Z { T G U { N V S B H H e w u U F.7X8X9X~.].H.H.",
"eXwXeXuXiXiXyXeX0Xc.U M f y y y u B G B l i w f l f d f B C C Z Z B f B { U G G G { ;.V L ;.S V m Z H u 9 d l B H.9X7X5X_._.Q.S.",
"iXuXiXpXpXpXiXyXwX/.t.} U Z M l M B { G l l M M f d C H Z C M B B M y l ^ 2.' P :.Z ^ f V ;.L G l y < 5 9 Z Z I !.8X8X8X8X7X^.Q.",
"tXtXiXiXuXuXuXyXyX,XL.2.U G V B M l G { B l l f l d M ~ P Z l l B B M C } q.,.:.c.G G y l ;.U M l 8 ; - < M G <.`.XX0X9X8X_._.7X",
"tXtXtXtXeXeXeXyXeXqXR.t.^ P B d y w u ^ P G N i z r d ^ } Z f d B C Z C | 1.J 9.2.U M 9 u { V y 6 M B 8 5 w M e._._.`.~.8X'._._.",
"wXtXtXwXqXeXeXeXqX,XR.t.~ z f f d d 9 C ^ Z B l M l y B ~ C d a z B Z J ' ~ D ^ f ~ H 9 y l B 6 * - 5 f B B T u.!.!.I.`.(._.'.'.",
"tXeXqX,XwXqX0XXX0X0X,XG.1.H C l y y 8 e Z U N B M x d y e z z z v Z H ' H z ~ :.l r 8 8 9 f 9 9 w y 8 y l { 4.A.(.(.(.`._.`.8X6X",
"wX0X0XXXqXwX,X,XqXwX,XE.a.~ G l y e w 8 e G H Z C M z d e a z J ~ Q ~ J a d :.2.H z e 8 w 9 $ O 5 f l d Z 9.d.H.!.`.8X`.8X8X'._.",
"wX0XwXqXwXtXeXwXqX<X;X;Xn.0.H M f f d w d l H H H Z M z z a k J F J J z 0 C 1.1.Z Z Z r 8 - > o @ d B B :.J.P.(.(.`.8X_.XX_.'._.",
",X0XeX0XwXwXqXeXwX1X2X1X.Xx.} Z C C e d d w y r M z J J Z A z v v z Q F k ~ 0.0.~ d 8 8 < 5 e : $ ; l ^ r./.`.`.8X0X8X`._.(.'.7X",
"XX,XqX,X,X).<XaX1X1X:X:X;XU.q.' H l y f 8 e 9 8 5 5 z z d 0 0 8 e a v D d ' 0.3.' < O ; < d 8 l 9 < f :.F./.(.`.0X8X`.`.`.(.!.Q.",
",X0X2XoXoXW.E.;X;X.XY.U.U.U.n.X.J B d 9 8 8 < 6 5 5 9 < < % % $ $ $ < 8 $ e d H 8 X $ : 9 < 5 6 f f l 2./.(.(.(.`.`.`._.`.(.!.J.",
",X,X.X)..X)..X.X.X|.E.Y.N.n.n.a.} z d < 8 < , 8 < : < - : + o $ @ @ > $ O > < y O   $ - e 5 : 5 B H ~ } K./.).R.W.(.P.L.P.K.G.c.",
",X<X.XE..X;X;X.X.XE.|.E.U.Y.Y.x.7.J d 8 < - - 8 : - - & : $ @ & + & & $ $ & : O .   O - e d 5 f B ~ ^ H ,.G.;XE.).E.W.W.U.U.U.U.",
",X,X1X,X.X;X2X;X;X|.|.E.T.|.|.Y.x.' d r 8 < 8 - < ; : : 5 - - - O @ & + $ @ - & $ . o - < ; 6 B H ~ } ~ P } |.:X:X|.E.|.Y.T.E.T.",
",X,X,X2X2X,X2X;X.X|.:X|.|.|.|.Y.n.8.z z 8 8 r - < < 5 6 ; ; , ; O @ - - ; ; 5 - 8 & O < 9 9 d J J ' } ~ Z J v.:X3X;X|.|.%XT.|.%X"
};
