/* XPM */
static char *_9a6b4ade8934a46a275ac1664d729d5[] = {
/* columns rows colors chars-per-pixel */
"64 64 244 2 ",
"   c #1A0E0B",
".  c #140C08",
"X  c #1D110D",
"o  c #17100D",
"O  c #171519",
"+  c #0A090B",
"@  c #24130C",
"#  c #2B140C",
"$  c #2B190C",
"%  c #33160C",
"&  c #3B1B0C",
"*  c #37180B",
"=  c #2C1B14",
"-  c #261814",
";  c #341C13",
":  c #3C1D12",
">  c #391816",
",  c #2A0E08",
"<  c #2B211A",
"1  c #3B251B",
"2  c #3C2A1C",
"3  c #372318",
"4  c #1B1C24",
"5  c #1D2125",
"6  c #272528",
"7  c #3C2B23",
"8  c #372824",
"9  c #3D322A",
"0  c #2A2D36",
"q  c #353338",
"w  c #2F3038",
"e  c #201F24",
"r  c #411E0B",
"t  c #4C1E0A",
"y  c #471C07",
"u  c #551B16",
"i  c #53130D",
"p  c #691916",
"a  c #7B1A1A",
"s  c #761817",
"d  c #4C210D",
"f  c #44220E",
"g  c #52250D",
"h  c #442413",
"j  c #4B2B15",
"k  c #42251B",
"l  c #432B1C",
"z  c #4C2D1B",
"x  c #492616",
"c  c #562A17",
"v  c #4A321D",
"b  c #53321D",
"n  c #583719",
"m  c #68271A",
"M  c #74241C",
"N  c #432D23",
"B  c #4C2D25",
"V  c #552922",
"C  c #463325",
"Z  c #4C3325",
"A  c #4B352A",
"S  c #4C3A2D",
"D  c #46362A",
"F  c #543324",
"G  c #53352B",
"H  c #533B2C",
"J  c #5A3D2C",
"K  c #593923",
"L  c #4D3C32",
"P  c #463735",
"I  c #533D31",
"U  c #5B3D33",
"Y  c #513F3A",
"T  c #653A2A",
"R  c #643B33",
"E  c #723128",
"W  c #5C422D",
"Q  c #56432F",
"!  c #4E4234",
"~  c #554234",
"^  c #5A4335",
"/  c #5D4936",
"(  c #55443A",
")  c #5B4639",
"_  c #554A3B",
"`  c #5C4A3C",
"'  c #63442D",
"]  c #66452A",
"[  c #624433",
"{  c #634A35",
"}  c #6B4C35",
"|  c #62453A",
" . c #644B3C",
".. c #694C3D",
"X. c #6A4537",
"o. c #754836",
"O. c #6C523C",
"+. c #64513E",
"@. c #75543C",
"#. c #323642",
"$. c #3F434C",
"%. c #5D4C42",
"&. c #574845",
"*. c #5C5146",
"=. c #5A5757",
"-. c #474342",
";. c #634D41",
":. c #6A4C42",
">. c #645243",
",. c #6B5443",
"<. c #62554B",
"1. c #6C5A4C",
"2. c #6A584A",
"3. c #725443",
"4. c #745C4A",
"5. c #7B5C4C",
"6. c #765846",
"7. c #6D5D52",
"8. c #665A56",
"9. c #765E51",
"0. c #754D46",
"q. c #7C624B",
"w. c #6D625B",
"e. c #736355",
"r. c #7A665B",
"t. c #7B6D63",
"y. c #746965",
"u. c #79736A",
"i. c #7B7775",
"p. c #6C6B6B",
"a. c #831D1B",
"s. c #8C1B1B",
"d. c #861819",
"f. c #911D1D",
"g. c #85231D",
"h. c #882823",
"j. c #8B3730",
"k. c #874935",
"l. c #8B4E3B",
"z. c #855847",
"x. c #865C54",
"c. c #83634B",
"v. c #836554",
"b. c #8C6C5B",
"n. c #886957",
"m. c #946B5B",
"M. c #95745D",
"N. c #876C63",
"B. c #857166",
"V. c #827266",
"C. c #86756A",
"Z. c #8A766B",
"A. c #8B776A",
"S. c #9D7B65",
"D. c #987766",
"F. c #8A7A71",
"G. c #837A76",
"H. c #987B73",
"J. c #916F65",
"K. c #A27D6A",
"L. c #7F807E",
"P. c #9E816C",
"I. c #8C8179",
"U. c #9A8478",
"Y. c #A5836B",
"T. c #A8856C",
"R. c #A78876",
"E. c #AE927A",
"W. c #B29079",
"Q. c #7E8089",
"!. c #8B8888",
"~. c #958A85",
"^. c #97928D",
"/. c #949494",
"(. c #9B9A95",
"). c #9C9B9B",
"_. c #969698",
"`. c #8D8F93",
"'. c #AB9589",
"]. c #B1988A",
"[. c #A69C98",
"{. c #B49D92",
"}. c #B89C91",
"|. c #AA8D85",
" X c #9EA19C",
".X c #A2A29E",
"XX c #ADA49E",
"oX c #B5A396",
"OX c #BAA59A",
"+X c #BDAB9D",
"@X c #B8A596",
"#X c #B3A18E",
"$X c #9A9CA2",
"%X c #9DA3A8",
"&X c #A4A4A4",
"*X c #ABA6A3",
"=X c #ABAAA6",
"-X c #A3A6AA",
";X c #A6A9AB",
":X c #ABACAB",
">X c #A7A8A9",
",X c #B7ADA6",
"<X c #ADB1AD",
"1X c #B5B2AC",
"2X c #ABADB3",
"3X c #A4ABB3",
"4X c #ACB3BB",
"5X c #ADB3B9",
"6X c #B4B4B5",
"7X c #B3B5BC",
"8X c #BBBABD",
"9X c #B9B6B8",
"0X c #B4AFB3",
"qX c #A09DA0",
"wX c #C0AD9F",
"eX c #C1AEA0",
"rX c #C2B6AC",
"tX c #C3C0BF",
"yX c #B4BBC3",
"uX c #BCBDC3",
"iX c #B6BBC5",
"pX c #ADB9C3",
"aX c #C0BFC4",
"sX c #BCC3CB",
"dX c #BAC2C7",
"fX c #BBC7D3",
"gX c #C3C3C5",
"hX c #C2C5CC",
"jX c #C5CACD",
"kX c #CAC9CC",
"lX c #C4CBD3",
"zX c #CACED3",
"xX c #CACEDA",
"cX c #C5CCD6",
"vX c #CDD0D6",
"bX c #CED3DC",
"nX c #C6D3DA",
"mX c #D1D5DD",
"MX c #D3D9DE",
"NX c #D2D1D3",
"BX c #CFD6E1",
"VX c #D2D6E1",
"CX c #D4DAE2",
"ZX c #D9E1E7",
/* pixels */
"| | |  . . .| ) | | |  . . . . . . .....} }  . .7.t.t.t.t.t.t.t.V.V.C.B.B.B.B.B.A.A.A.B.A.A.A.A.A.A.A.A.A.A.C.F.F.F.F.A.A.A.A.A.",
":. .|  . . . .) | | |  ......... .......} } }  .2.r.y.r.y.t.t.t.V.V.B.B.B.V.B.B.B.B.B.A.B.B.C.C.A.A.A.A.C.F.A.F.F.F.F.F.A.A.A.A.",
"{  . . . . . .`  . . ....... . . ......... .| ~ ( w.y.t.y.t.t.t.t.N.V.V.B.B.B.B.B.B.B.A.B.C.B.B.A.C.A.A.A.F.F.F.F.F.F.A.A.A.F.F.",
"' }  . .:. .;. .;............. . .......} { C ( ! _ 1.7.7.7.7.7.e.r.9.e.e.9.1.1.4.e.r.n.r.t.V.r.t.n.r.r.r.t.t.t.r.r.r.n.V.V.V.V.",
"] }  . .:...:.:.:............. ... ... .| ^ ) L ! C C S ~ ) ) I L ) ;.~ 1 = * & h j b [ .. .U H ` ` ^ H S I ~ ~ ~ H H ` ` ` ) ) ",
"} } .. ....................... ... .| | H ! ` Z A ~ ~ ~ I )  . .^ H Z ; # @ # & r f z b ] } W Q ~ L I G G A S A I S S ~ ! ~ ) ~ ",
"] } .... . ......... ....... . . . ./ G ~ C I A I I ) ` ^ ~ ~ H H 2 # % : & & & f h z K ^  .{ ^ ^ `  . .~ ) ^ G G ^ ^ ~ S S A D ",
"] ] .... ................... .| / Q ^ Z I S ~ ~ ^ ^ ` ^ ~ ) U G N $ $ # & f h f h z G | ;.>.+.{ ) ) ^ ` ~ S I G H ^ ^ ~ ~ I S ~ ",
"n ] .. . ............... . .{ / H C H I H ~ I ^ | ^ ) ~ S ~ U G = @ % & r f h j z B H ^ >.<.>.{ | ^ ~ ~ ~ S H ^ ~ ~ ^ ~ H I ^ ~ ",
"n n } .. . ... ... .| / U J H ^ ^ ~ ~ ^ | ^ ) | | ~ ~ ~ I I ^ N @ @ % & x j j z K ^ I ` >.1.2. .| | ( S S I H ~ ` ) ~ I I ) ~ ) ",
"g n { .. . . .^ J J J / ) ^ ^ ^ ^ )  .^ U I ) [ ) ) ^ ^ | | ~ ; @ $ & r d b K ' O.1.>.>.( L ;.,.W / U ^ S S H ) %.^ ^ U U ~ I H ",
"[ J J J J | / ^ ^ I ^ ) ,.,.U R U | ` ) ) ) ^ ;.:.;.) ^ ^ I C $ $ % & h j b K } 6.n.4.H C 3 A ,.J J J ^ W ^ | | I I ~ ` ;.^ ^ ^ ",
" .A H ~ ` >.>.` ) ` ` ( %.) ^ ^ / { ;.>.;.) ) ) ) >.1. .| U k % ; & : h j K ] } 6.q.v.6.{ H H 3.T F z f f b W  .| )  .| ^ U ^ ^ ",
"~ ~ ! ! ) / 2.e.e.1.~ ( %.;.^ ` ` / / :.4.,.4. .~ ~ ` U U U 3 % % : h h z F ] } c.n.v.{ ] K ' o.E f & & h z F { O...| | | |  .) ",
") I ) ` ) ) ;.|  .) ~ ` *.;.) >.` / ) U R B  .~ ~ ) >.) ) ^ : % % & h j j K } @.c.n.q.O.] n T o.m r r f z K { W { } ..) 2.9.1.2.",
"` ( ` ~ ` ( G G Z ~  .) _ ` _ %.%.~ ;.U G G ~ %.^ ` >.>.` H h : & 3 j j z K } @.6.v.q.O.W F z c c x f b ' {  .O.W ' 6.'.XXXX[.I.",
"_ _ ( ` L ` ) I ) ! ` ) ( ;.` >.*.~ ` 1.9.7.~ _ >.` >.1.>.^ z h : h R ' F J } 6.5.c.q.4./ G z z b K J } O.W / { O.K J ~.9X6X*X.X",
"~ ) ~ ` ` L 2.e.7.! ~ >._ ( ~ ` _ ) S 1.e.e.( ~ >.` %.%.~ A l B 1 3 0.K.z.' ' ' O.3.O.S N A Z H { O.6.5.[ [ O.{ 6.W v I.=X6X9X:X",
"~ S ~ ! _ D <.e.e.<.7.e.;.` ` ~ _ <.` <.2.e.7.1.e.<.` ) U ~ 2 | U B G q.K.x.z.x.,.,.` N Z  .[ F / Q W 3.J } q. .6.W ^ (.2X2X6X8X",
"%.) ( S <.` _ ( >.7.r.1.^ I ;.` 1.2.%.( ~ >.7.e.e.2.,. .>.~ 2 4.4.:.G 6.S.m.c.m.v.5.5.| ,.J.D.;.) _ ^ { } 4.4.^ 3.,.~.6XuX8X:X9X",
"N Z >.` >.) ~ ) ` ` ,.,.+.O.,.,.1.>.>.,.,.>.,.2.,.U U H 1.>.` J 6.v.4.r.J.n.z.b.5.c.v.n.A.1XkXkXgX<X[.C.t.G.C.u.I.[.9X8X8XsX8X:X",
"k k C S I ~ ` `  .+.+.>.,.,.,.,.,.3.6.4.4.4.4.4.4.5.5.5.4.4.4.: z 5.6.U  .n.x.n.n.S.S.P.,XtX8X8X8XaXgXgXgX8X0X9X6X<X8XgXuXuXaX8X",
"l h k C 2 1 1 3 ; ; 3 1 7 C D ~ ^ / +.+.>.O.,.>.,.2.4.4.6.4.4.h & 6.m.O.G N.Y.S.M.P.R.|.,X:X=X:X:X0X9X9X9XaXaX9X8X8X9X8XgXgXgXuX",
"v j b { / / `  .;.` ) ~ I S D C N 2 2 2 2 1 1 N C H ~ ) ` ` +.^ 3 J D.b.^ 9.P.R.R.U.'.*X*X=X=X:X6X9X8XuXuXuXuX8X7X8XgX8X8XuXuXaX",
"l j b { ` / `  . . .;.;. . .;.;.>.;.;. .` ` H I S C N 2 2 2 2 l z z n.J.) S r.P.~.[.XX:X0X9X8X8X8XsXuXaXgXgXgXgXdX8X8XgXaX7X9X8X",
"v v b W / / ` ` `  .;. . . . . . . . .+.>.>.>.>.>.>.>.>.>.>. .z.b.n.3.5. .7 ( I.[.*X6XdXgXkXzXkXkXkXkXhXgXhXhXjXjXkXuX7X7X9X9X8X",
"2 D K W / ^ ~  .1.| | { e.C.<. .+.` ;.;.;.;.;.>.>.+.>.>.>.<.3.S.T.T.m.@. .Y ~.*X6XgXkXvXvXvXvXvXxXzXzXkXjXjXhXhXhXjXzXjXuX8X8X8X",
"9 D ! ~ ( 8 - S t.7.` ( t.U.1.) ` ` ` ` ` ` ;.>.>.+.>.>.>.,.5.T.m.m.S.n.N.[.1X8XhXkXxXmXmXvXvXmXvXvXzXzXzXzXzXzXjXhXjXvXzXzXhX8X",
"8 ! 7 1 @   X 9 i.G.w.8.w.u.<.< = < < 8 9 P L ( ( ` ` %. . .n.Y.} @.S.R.XX6XgXkXkXzXvXmXmXvXmXmXmXmXvXvXxXvXzXzXxXxXlXjXlXzXjXuX",
"@ = = @   @ = <.^.^.!.i.!.>X).=.-   o X   X X X @ - < 8 8 D J.S.z.D.U.[.6XgXkXzXvXmXmXmXbXbXmXmXmXmXmXvXvXvXvXzXxXvXvXzXlXlXjXsX",
"@ @ @ @ @ @ 9 G.(.*X*X=X=X%X>X[.9 o     X - @ X X         @ %.v.m.N.~.<XdXjXxXbXmXmXMXCXmXVXmXmXmXmXmXmXmXmXbXvXxXxXvXvXzXlXzXjX",
"3 2 3 ; $ @ &.!.(.*X1X1X:Xi.Q.&X8 X X = = @ @ X X X @ = 3 =   P 1.<.:XgXzXvXbXbXbXmXMXMXmXCXVXmXmXMXMXMXmXmXmXbXvXxXxXvXvXxXzXzX",
"% ; $ @ $ = 8.^.[.:X<X<X<X<X:X*X9 6 < X X X X X   X   # 3 3 . + + i.~.[.NXCXMXMXMXBXCXMXVXVXVXVXMXmXmXmXmXMXmXbXmXvXvXvXmXvXvXvX",
"% % # , @ @ y.[.&X:X<X<X<X<X:X^.&.9 8 8 < - @ # 1 Z [ 3.b.7 o + + 6 F.|.XXkXZXCXMXBXCXmXVXmXVXVXbXbXmXmXmXMXmXbXmXmXbXvXmXbXbXvX",
"% % % # # - i..X=X:X:X:X<X=X).u.P D 3 $ @ = A D.K.M.M.S.M.7 - = X @ b.'.oX+XgXCXCXbXVXbXBXbXmXxXzXvXmXmXmXMXmXmXbXmXmXbXbXbXbXbX",
"% % % # # 8 !.&X:X1X:X=X:X=X.X(.I.~.e.; @ $ 6.T.R.Y.S.].H.1 = 3 3 = H.].@X+X,XgXMXCXMXBXbXbXvXjXxXxXmXmXmXmXmXmXmXmXmXmXbXbXmXmX",
"; % % % % 8 !.=X:X:X*X=X=X>X.X(.^.(.(.L $ N b.Y.E.E.R.].A.3 # $ = $ U.{.OX+XeX,XrXCXCXBXMXbXlXxXxXxXVXbXmXmXmXmXmXmXmXmXbXbXmXmX",
"h h h & % 1 !.=X=X[.*X:X:X&X/./.).!.^.( ; | b.T.E.E.E.].r.= $ # $ = U.{.+X+XeXeX,XrXCXCXbXlXlXvXxXlXbXVXbXmXmXMXmXmXmXmXbXbXbXbX",
"f r r r h S ^.*X).).[.).(././.`.`.P 9 = ; 3.v.Y.W.W.].|.) @ @ $ # = H.{.+X+X+X,XeX+X9XMXbXsXlXlXlXlXbXbXbXbXmXmXmXmXmXmXmXmXbXbX",
"& & & & & A ~.(.[.).^.!.(..X X!.=.  . @ % 6.5.S.T.T.W.P.7 $ % # # # B.{.+X+X+X+X+X+XoX=XbXlXlXlXhXlXxXbXbXvXvXbXmXmXmXmXVXmXvXbX",
"r r r r & k G.(.&X).!./.).>X$X!.=.= # % : B 4.M.Y.T.Y.v.$ 1 x k k ; e.].OX+X+X+X+XOX#Xt.>XxXlXhXsXsXlXxXbXvXvXbXmXmXmXmXmXvXbXVX",
"f d d t t h y.).>X X X X>X;X$X!.i.( x z z # I v.S.W.T.v.3 N C v l 1 ;.'.oX+X+X+X+X+X#Xt.L.8XlXsXsXiXhXxXxXxXvXbXVXVXmXmXbXbXmXVX",
"r y y d x x 7.(.*X=X.X.X&X>X%X`.!.8.L Z Z 2 $ 4.D.Y.R.M.v 1 N Z A A H U.oX+X+X+X+XeX{.^.:X-XiXsXiXyXyXhXxXxXxXbXbXbXbXmXmXmXmXmX",
"g t t t t f %.I./.(.*X=X&X).)._.`.u.( B B 7 = U D.S.T.T.6.J Z Z ; N k A.{.OX+XeXeX,XoX^.2XsX5X2XiXyX5XyXlXlXxXbXbXVXbXVXmXmXmXmX",
"c c c c c c I G./.(.&X>X&X).).$X$Xi.&.S 1 1 1 Z n.D.D.T.K.X.F z H H k n.{.OX+XwXeX+XoXy.-X-X;X;X2X7X7X2XyXsXjXcXbXBXBXBXVXCXmXmX",
"g d g g g g B w.`./.).&X&X.X).&X&X!.=.D Z [ H l :.b.M.T.W.n.' K W Z v v.].OXwXeXeX+XoX&.p.dX3X$X_._.2X2X5XyXsXlXcXbXBXbXVXCXCXmX",
"t t t d d d V ( i./.).&X X.X X&X%X_.p.( F b v 1 k 5.M.T.W.T.O.K { { W J.].OX+X+X+X+XoX( 6 `.sXsXyX%X`.-X7X5X5XsXlXlXbXbXbXVXCXCX",
"g t t t t t x S w.`.).&X*X.X*X>X>X%XI.*.^ v z W z G n.S.T.W.D.J x F O.U.{.OX+X,X,XOX].%.= P 3XfXdX5X$X/.7XyX2X7XiXsXlXxXxXbXVXCX",
"c g c c g g g F *.G./.&X>X>X=X=X>X%X`.8.S v b W F : 5.D.Y.T.T.M.T T 5.R.{.OXOX,X,XOX'.:.A ; *.iXsXyX3X_.$XsX7X4XyXyXiXlXlXxXbXmX",
"g c c n c c g x N =.!.).&X>X=X>X&X%X).!.<.+.[ H J z J b.S.T.T.T.M.} v.R.{.OXOX+X+XoX~.B G : - i.iXiXpX-X_.yXiX7XyXyXiXsXlXlXxXbX",
"y t t g c c k 7 D 8.p./.&X=X=X=X-X&X;X-X!.<.I 7 N B 3 5.D.Y.T.T.T.b.b.R.{.OXOXOXOX{.N.; A B ; 6 $XiXyX5X$X3XyXyXyX7XyXhXhXlXcXbX",
"g g g g b k 8 9 -.i.i./.&X&X>X=X>X>X7X5X&Xu.D 3 ~ J k U b.S.Y.T.T.S.J.R.{.oXOXOX}.|.:.B R R V > Y 7XyX4X%X%XiX7XyXyX7XiXsXsXlXvX",
"m m m b z x N P -.!..X>X&X&X>X:X>X=X6X7X<X^.<.L ;./ Z 3 3.M.T.T.W.D.D.R.].oXOX{.].R.x p M p p p % u.yX4X3X%X4X4X5XyX4XyXiXsXhXlX",
"m T b c c F S 8 P ).;X2X;X;X;X:X<X:X2X2X;X&X8.1 < %.` N F x.S.S.W.S.P.U.'.{.{.].|.N.i s s s s s i > !.4X3X3X4X4X4X2XhXyX4XiXsXhX",
"T j K R R Z l N %.).;X;X;X2X2X:X<X:X:X-X;X>XG.S D 1 N Z : R b.D.W.T.R.R.'.{.].'.|.0.p a s s a s p y P $X3X4XsXdX4X4X2XlXiXyXdXiX",
"K ' J A z F c K :./.>X-X%X-X&X&X).qX&X$X%X).i.( ,.{ ' o.E u 0.n.T.E.E.R.].{.].'.R.E s s a a s m T R : &.;X%XsXlXfXiX5XiXlXdXdXsX",
"} { H C B K T T :.!.).)._././.`.!.!.`.!._.)./.i.1.} o.M M i u 5.J.R.E.'.}.{.].|.H.u a s s s m T 3.@.R > p.3X4XlXlXfXiX3XfXlXlXlX",
"J k l F F F F F ( !./././.`.!.w.8.y.p.p.i.!..X.X^.I.z.h.d.s i T n.H.|.].{.}.].R.n.p a s a s m T X.:.R k - $X3XlXcXlXfXyXpXnXlXlX",
"k l k h : 7 3 S i.[._.i.p.w.<.~ ` | ` %.( <.7.~.{.|.E a.d.d.s i 6.J.R.].}.}.|.H.5.s a.a.a s s m T G &.9 0 $.%XyXcXcXlXlX4XyXlXlX",
"[ @.} F N 1 D r.^.).u.) ( H O. .H ,./ C ` } l.z.m.j.a.d.s.d.d.p u x.H.|.].|.H.N.R a a a a s s p V 8 6 w #.0 =.4XlXcXcXcXfX4X4XdX",
"} 6.' { Z J >.'.XX~.L U H H Q 8 9 ;.4. .@.l.k.g.g.s.f.s.s.s.s.a.i u x.H.R.H.J.:.u M M M s M V > 8 q #.w 0 4 4 p.dXnXnXnXnXlXpX-X",
"K X.F H O.@.1.H.F.1.S 2 <. . .I ^ 3.z.k.k.k.l.h.g.f.s.f.s.s.s.s.a i x 0.N.N.:.V T o.T R B 8 8 q q w 0 6 O O 6 0 `.lXnXnXnXnXnXsX",
"H F W q.6.2.Z R U 7  .4...z.z.E j.j.h.g.g.g.s.f.f.f.s.f.s.s.g.h.j.E u * > > * R ..S P 8 0 0 w 0 6 6 e O O 6 O O 0 %XnXnXnXnXfXnX",
"Z Q q.q.~ 8 ~ 3.O.O.3.o.z.k.k.k.g.g.g.g.h.g.g.h.h.g.a.a.a.a.g.k.l.@.] [ A Z  .U 8 - 6 6 6 6 6 5 e e O O e O O 5 5 #.pXfXiXiXiXfX"
};
