/* XPM */
static char *_740461405da4c7399ab2b7108914f15[] = {
/* columns rows colors chars-per-pixel */
"64 64 236 2 ",
"   c #2D2B2B",
".  c #292725",
"X  c #312E2C",
"o  c #362B26",
"O  c #36312E",
"+  c #3B3737",
"@  c #322F34",
"#  c #423D3B",
"$  c #443833",
"%  c #553C34",
"&  c #4F382E",
"*  c #45413E",
"=  c #49413F",
"-  c #59433A",
";  c #66493B",
":  c #73513E",
">  c #464343",
",  c #494643",
"<  c #4D4A46",
"1  c #4D4B4A",
"2  c #48474B",
"3  c #514D4B",
"4  c #5D4843",
"5  c #54514E",
"6  c #59534D",
"7  c #4D4D51",
"8  c #524D53",
"9  c #555353",
"0  c #595554",
"q  c #5B5A56",
"w  c #5C5B5A",
"e  c #565559",
"r  c #4F504B",
"t  c #6B4E43",
"y  c #644B42",
"u  c #6D5144",
"i  c #6D534B",
"p  c #72554A",
"a  c #75594D",
"s  c #7B5B4C",
"d  c #785644",
"f  c #615D5A",
"g  c #665C55",
"h  c #765B52",
"j  c #7A5D52",
"k  c #775B59",
"l  c #63625D",
"z  c #6D645B",
"x  c #7D6154",
"c  c #7A645B",
"v  c #5D5C62",
"b  c #646464",
"n  c #6A6664",
"m  c #666865",
"M  c #6B6A65",
"N  c #63646B",
"B  c #6C6D6A",
"V  c #696869",
"C  c #726D6B",
"Z  c #786863",
"A  c #6F706C",
"S  c #73726D",
"D  c #7D7B6D",
"F  c #6B6C72",
"G  c #747572",
"H  c #797671",
"J  c #767874",
"K  c #7A7B75",
"L  c #76797B",
"P  c #7C7C7B",
"I  c #75777A",
"U  c #717073",
"Y  c #5F6060",
"T  c #815E52",
"R  c #825B48",
"E  c #86614D",
"W  c #846353",
"Q  c #8B6955",
"!  c #81655A",
"~  c #84695C",
"^  c #8A6B5C",
"/  c #896554",
"(  c #916E5B",
")  c #936C56",
"_  c #97735B",
"`  c #916B55",
"'  c #8A6D63",
"]  c #856C64",
"[  c #8D7264",
"{  c #8D746B",
"}  c #877669",
"|  c #927464",
" . c #957A6A",
".. c #9B7D6C",
"X. c #977867",
"o. c #857C78",
"O. c #947A74",
"+. c #946E66",
"@. c #A77A67",
"#. c #7F807C",
"$. c #7E8077",
"%. c #9D826C",
"&. c #92826D",
"*. c #83837D",
"=. c #8C847E",
"-. c #9B8679",
";. c #99917F",
":. c #A8866B",
">. c #B28A6D",
",. c #A58975",
"<. c #A58976",
"1. c #A4927E",
"2. c #AD917C",
"3. c #B59276",
"4. c #BD9B7B",
"5. c #B69579",
"6. c #B58E71",
"7. c #C3A07F",
"8. c #7B7D82",
"9. c #767C82",
"0. c #7E8184",
"q. c #7E8288",
"w. c #838484",
"e. c #8B8B85",
"r. c #838589",
"t. c #858A8C",
"y. c #8B8C8C",
"u. c #878783",
"i. c #948D88",
"p. c #8E908C",
"a. c #8F9082",
"s. c #93938C",
"d. c #9A9A8E",
"f. c #999388",
"g. c #8A8E92",
"h. c #868C92",
"j. c #8E9294",
"k. c #939493",
"l. c #999692",
"z. c #969894",
"x. c #9B9B94",
"c. c #929699",
"v. c #95999C",
"b. c #9C9C9B",
"n. c #A49381",
"m. c #AA9584",
"M. c #A8998A",
"N. c #BB9C84",
"B. c #BB9D89",
"V. c #B59986",
"C. c #A39C94",
"Z. c #A29E9A",
"A. c #A99D95",
"S. c #AB9389",
"D. c #9FA097",
"F. c #A9A18E",
"G. c #BCA18E",
"H. c #A4A394",
"J. c #AAA594",
"K. c #AAA997",
"L. c #A3A39C",
"P. c #ACAC9B",
"I. c #A8A79B",
"U. c #BCA494",
"Y. c #B3AD9C",
"T. c #BBAB9B",
"R. c #B6A598",
"E. c #B3B19E",
"W. c #BAB09F",
"Q. c #9B9EA0",
"!. c #9DA1A4",
"~. c #A3A4A4",
"^. c #ABACA3",
"/. c #A2A6AB",
"(. c #A5AAAD",
"). c #ACADAA",
"_. c #A8A8A3",
"`. c #B4ACA5",
"'. c #AEB1A8",
"]. c #B4B3A3",
"[. c #B9B6A3",
"{. c #BBB9A6",
"}. c #B3B4AA",
"|. c #B6B8AD",
" X c #BDBCAB",
".X c #B9B7AA",
"XX c #A9ADB2",
"oX c #A7AAB1",
"OX c #ACB0B3",
"+X c #BCBCB1",
"@X c #B4B6B6",
"#X c #C5A383",
"$X c #CAA684",
"%X c #C4A48B",
"&X c #C9A78B",
"*X c #CBAA8C",
"=X c #C7A88C",
"-X c #CDAC94",
";X c #C3AC9B",
":X c #C4A894",
">X c #D1AF93",
",X c #CDB19B",
"<X c #CDB096",
"1X c #D1B19C",
"2X c #D2B094",
"3X c #D0AD8D",
"4X c #C2BEAC",
"5X c #CAB6A6",
"6X c #C2BDB3",
"7X c #D3BAA6",
"8X c #C19F84",
"9X c #BEC0B1",
"0X c #C4C1AE",
"qX c #C5C4B3",
"wX c #CAC6B4",
"eX c #CCC9B6",
"rX c #CDCBB9",
"tX c #C6C7B9",
"yX c #D2CDBA",
"uX c #DBCBB7",
"iX c #D5CFBA",
"pX c #C7C9C5",
"aX c #CFD1C4",
"sX c #D7D6C8",
"dX c #DADBD4",
"fX c #E2DBCC",
"gX c #E1DFD0",
"hX c #E5E7D9",
"jX c #EDEEE5",
"kX c #EDEEE8",
"lX c #E6E7E2",
"zX c #EFF0EA",
"xX c #EFF0EA",
"cX c #EFF0E7",
"vX c #F0F1EB",
"bX c #F2EFEA",
/* pixels */
"A. ...>.3.5.4.N.N.N.N.B.%X#X%X=X=X=X*X*X&X-XhXcXjXjXxXxXxXvXvXxXcXfXrX4XE.M.1.1.1.n.n.n.n.1.1.n.m.m.m.n.n.;.J.P.Y.Y.]. X9X4XqXqX",
"M. ...>.3.4.4.N.N.N.N.%X%X%X%X&X%X&X&X-X&X<XhXjXkXxXxXxXvXvXvXxXcXgXrX4XE.M.1.1.n.n.n.n.n.1.n.n.m.m.m.n.n.f.K.P.Y.].[. XqXqXqXqX",
"f.| :.>.3.4.4.#X#X%X%X%X%X%X&X*X*X*X$X>X&X,XhXjXkXxXxXxXxXxXxXxXcXfXyX4X[.M.1.1.n.n.1.n.n.n.n.n.m.m.m.n.n.M.K.Y.E.[. XqXqXtXqXqX",
";. .:.>.3.4.#X#X&X&X%X=X%X%X&X*X*X*X$X>X&X5XhXjXkXxXxXxXxXxXxXxXcXfXyX4X[.F.1.1.n.n.1.1.1.n.n.n.m.m.m.n.n.F.P.E.]. X4XqXqXtXeXqX",
"-.%.:.>.3.4.#X$X&X&X*X&X%X%X&X3X3X*X*X>X&X7XjXjXxXxXxXxXxXxXxXxXjXfXyX4X[.J.;.;.n.n.n.n.n.n.n.1.1.1.1.n.n.J.Y.E.{. X0XqXqXeXeXqX",
"&.%.:.>.3.4.#X$X&X&X=X&X%X%X*X>X*X*X*X>X&XwXjXjXxXxXxXxXxXxXxXvXjXfXyX4X[.W.T.W.[.[.W.W.T.T.R.R.J.F.M.M.J.Y.Y.E.{. XqXqXqXwXwXqX",
"} %.:.>.5.4.$X$X&X&X*X&X%X%X*X>X-X>X*X>X&XwXjXcXxXkXkXxXxXxXxXxXjXdXyX0X{.[.4X4X4X4X4X4X4X4X4X4X4X0X4X4X{.Y.Y.[.{. XqXqXqXqXqXqX",
"} %.:.>.5.4.$X$X&X%X*X&X&X%X*X>X>X>X-X>X&XuXjXxXxXxXxXxXxXxXxXxXjXfXyX0X{.[.4X4X4X0X0X4X4XqX0X0X0X0X0X0X4XE.E.].{. XqXwXqXqXqXqX",
"} ,.>.6.5.4.$X$X&X&X*X-X%X%X-X>X2X>X-X-X*XuXjXvXxXxXxXxXxXxXxXxXjXfXyXwX{.{.4X4X4X0X0XqXqXqXqX0X0XqXwXwX4XE.E.[. X0XqXwXqXqXqX0X",
"[ :.>.6.5.4.$X$X$X#X#X#X%X%X-X2X>X>X-X-X-XuXkXkXxXxXxXxXvXbXvXxXjXfXyX0X4X4X0X0X0X0XqXwXqX0X0X0X0XwXwXwX0X[.[.{. X0XqXwXeXwXqXqX",
"[ %.>.3.5.4.$X$X$X4.5.3.5.%X-X>X>X>X-X-X,XuXkXkXxXxXxXxXvXbXvXxXjXfXyX0X4X4X0XqXqXqXwXwXwXwXqXwXwXwXwXwX0X[.[.{. X0XqXwXeXwXqXqX",
"[ %.>.3.5.4.#X#X7.3.3.:.:.B.-X>X-X>X-X-X,XfXjXkXkXkXkXkXvXvXxXxXjXsXyX4X{.4XwXwXwXwXwXwXwXwXwXeXwXeXeXeX0X[.[. X X0XqXqXwXeXwXqX",
"[ %.:._ _ 5.#X#X3.>.6.| { f.R.;X-X>X-X-X,XfXkXkXkXkXkXkXkXkXxXkXjXsXyX4X4X4XwXwXwXwXwXwXwXwXwXeXeXeXrXrXqX[.[. X X0XqXqXqXeXwXwX",
"[ %._ E ) ) :.:._ ` :.( ] i.b.C.G.;X:X-X1XfXkXkXkXkXkXkXkXjXjXjXhXsXyX4X4X4XwXwXwXwXeXwXwXwXeXeXeXeXeXrXqX[.{. X X0XqXqXqXwXwXqX",
"! Q d d Q E Q ( Q ` Q Q { f.~.Z.C.A.R.;X5XgXjXkXkXjXkXkXjXlXdXdXsXaXwX.X|. X6XqXwXwXwXwXwXwXeXeXeXeXeXrX0X[.{. X X0XqXqXqXwXwXqX",
"- u : d Q ) ( Q / @.( W ~ n._.~.~.Q.b.C.^.tXdXdXaXpXaXsXaXpX@XXX^.'.^.).).).).@X}.^.`.qXwXeXrXeXeXrXrXyX0X[.[. X X0XqXqXqXwXqXqX",
"% ; : ) ( _ ( / _ >.@.( ~ m.R.~.~.~.~.~.~.).@X@X).^.^.'.OXOXOXXX(.~./.(.XX/.oXXX(.~.b.'.rXrXrXrXeXrXrXrX0X[.[. X4X0XqXqXwXwXwXqX",
"& d _ ) X._ _ W _ X.@.( | N.R.x.s.v.~.~.~.~.~.b.z.s.z.z.!.(.(.oX(.(.XXOXOXXXoXXX(.(.~.L.+XeXrXrXeXrXrXrX0X[.{. X4X0XqXwXwXwXwXwX",
"- E ` Q ( Q ( / Q | +.^ X.:.2.f.i.l.~.~.l.l.s.e.u.*.e.z.!.(.(./.!.!./.(.XXXXXX/.~./././.OXqXrXrXeXeXrXyX0X[.[. X X0XqXwXeXrXrXrX",
"y R R E s Q / W W +.O.~  ...%.=.o.=.C.Z.e.i.e.*.*.*.e.z.!.(./.!.!.Q.~./.XX(.oX/.Q.c.!././.|.qXrXeXrXrXyX0X].[.{. X0XqXqXeXwXrXrX",
"y d d s s Q Q W W { O.' | X...O.o.H =.f.l.l.l.e.*.u.p.z.!./.!.!.!.!.~././.!.(.oXv.h.c.Q.!.^.|.qXwXeXrXyX0X].[.{. X0XqXqXeXeXrXrX",
"y d d T s W ( W W { O.{ | X...O.i.=.=.e.Z.Z.Z.Z.k.p.v.Q.!././././.).~.v.v.v.v./.c.h.h.h.v.Q.x.f.;.[.rXrX0X].[.{. X0XqXqXeXeXtXtX",
"y d : a s E / j ^ O.n.B.V.:X;XT.R.J.`.l.x.l.s.k.k.k.b.~./.(./.~.~.~.k.e.j.j.h.h.g.q.r.0.k.v.z.s.-.Y.rXrX4X].[.{. X4XqXqXwXeXeXtX",
"- d d p p W T j ^ O.-.B.G.-X,X,X;XT..XC.s.l.k.e.s.x.b.~.~.~.v.v.b.l.u.P w.w.r.t.g.t.9.G P j.c.i.i.Y.eXrX XE.].{.{. XqXqXqXwXeXtX",
"% d d j p W s s Q O.O.U.%X-X1X1X,XT.`.C.s.s.b.s.z.b.b.b.b.x.l.l.z.y.o.H S G w.t.h.h.8.F M 8.k.i.i.Y.eXrX{.P.E.]. X0X0XqXqXwXwXtX",
"% d d j p j a j ! O.-.:X=X-X1X1X<XT.`.Z.z.s.z.z.z.x.b.b.z.l.x.Z.l.s.*.K J A #.w.w.t.q.B M P j.e.e.K.0XqX[.P.E.].{. X4XqXqXqXqXeX",
"; E s ^ x p a p x { V.:X%X-X1X1X,XT.4Xx.p.z.L.z.z.z.z.z.l.x.L._.C.a.o.K S A G L P r.q.M M u.x.x.i.H. X0X].P.E.].{. X4XqXqXqXqXqX",
"- d / ( W p p i x S.:XU.G.%X:X:X%XU.6Xl.*.y.v.z.v.b.z.s.l.Z.^.^.K.H.=.D S S J G J 0.0.B V p.}.qXH.D. X0X].P.E.].{. X XqXqXqXqXqX",
"- s p p T j p p ! V.U.U.G.=X:X:X:XT.Y.e.P y.v.v.v.b.k.s.b.).}. XiXiXqXf.D P J J G P 8.A J _.aXsXqXd. X0X].K.P.].[.{. X4XqXqXqXqX",
"% : t p / +.T h c 2.:X;X:X-X,X1X-X;XC.y.u.g.v.Q.z.k.s.s.b.pX+XhXhXhXsXrXa.P K P G 9.8.S *.tXsXaXaXd.}.0X].K.P.E.[.{. X4X4XqXqXqX",
"% ; t p / @.@./ ' 2.B.,X,X1X1X1X1X,XZ.k.k.Q.Q.z.k.k.e.e.~.pXaXhXlXsXsXaXP.w.y.w.K 9.9.J i.tXrXtXaXd.H. XE.K.K.E.].{. X4X4X0XqXqX",
"- ; t i W _ @.( W | <.-X<X-X1X1X-X;XZ.k.c.Q.v.c.k.k.s.y.b.+XsXhXhX9XaXaX}.k.k.r.0.q.0.o.e.tXrXqXrXs.d.{.P.K.K.E.].{.{. X0X0XqXqX",
"- y t t W ` X._ a W ..N.G.B.%X%X%XU.Z.j.c.v.v.c.j.c.k.z.k.~.pXhXhXtXrXsX}.z.~.t.q.j.g.w.=.9XrXeX9X=.f.].K.K.P.].].{. X X0XqXqXtX",
"4 i t t | Q W ^ h j X.V.N.B.B.N.N.R.b.j.c.v.v.j.h.k.j.j.y.s.}.dXhXaXtXaXI.k./.h.t.c.j.*.*.I.eXrXP.*.i.].K.K.P.].].[.{.4X0XqXqXtX",
"9 g i t %.2.%.~ k ] { U.U.U.;XU.B.R.b.j.c.c.k.y.u.u.e.y.e.u.s.6XdXaXaXqXe.k.Q.h.v.v.c.u.*.e.b.D.e.*.s.].K.K.P.].].].{.4X4X6XqXqX",
"w f i p | V.V.^ k k { T.T.R.;X;XU.R.b.c.c.c.j.t.u.P *.e.u.*.*.i.].tX|.f.o.w.u.w.y.j.p.y.*.K e.e.#.K f.].K.K.P.E.].].{. X4X6XqXqX",
"e 6 t i ~ ,...j ] { ] S.U.T.;XU.U.Y.b.j.j.j.y.w.*.K K w.w.w.u.u.=.e.*.H S S J S J *.u.u.*.P *.e.K K d.E.K.K.P.E.}.].{. X X+X6XqX",
"f z h p x | x j -.S.] -.U.T.;XU.U.`.Q.g.h.h.t.w.*.K K #.w.w.u.u.*.J S B n n n l b J u.o.*.#.*.e.P $.x.E.K.K.P.E.].]..X X X+X6X6X",
"C } ! a j j p  .V.V.-.{ V.U.T.U.U.`.b.j.h.h.t.w.*.J H P u.t.r.r.w.J C M l w q q w B *.e.u.y.y.u.P $.H.].H.H.P.P.`.]..X{. X+X+X+X",
"S { s p p a j ,.V.V.{ ] -.U.U.U.G.Y.z.j.h.h.y.w.P H H S P w.0.r.r.*.S M f q 0 5 0 B k.Q.j.y.y.u.#.*.I.].H.H.K.P.].].}..X|.+X+X+X",
"z ] ^ x p p j [ 2.,.! Z [ 1.B.G.B.J.k.j.h.j.h.r.#.J J S K w.u.r.w.J M l f l w 9 9 B k.c.y.r.u.*.*.u.P.].H.H.K.^.].}.}..X.X|.+X+X",
"g ~ ! W a p a ^ 2.| h j x ! ,.V.m.A.k.j.j.j.y.w.K J J S J J P P G B m f f M B w 9 M G G P K K *.#.s.^.}.H.H.K.P.^.'.}.}.|.|.|.+X",
"; d W W s p a Q | x j j x W ..N.V.C.y.h.y.t.r.0.J J S S S S J J S B M l f B S m 0 w B P u.K P *.P s.P.^.C.H.K.P.^.'.}.}.|.|.|.|.",
"; s | W T p ! ( ..X.| ' ' [ <.%XU.C.y.r.0.r.r.0.P J J J S S S S S S C n B J S S w w M *.#.#.w.K K s.}.'.x.x.H.I.^.^.}.}.|.|.|.|.",
"; s W Q W p W | 2.2.<.[ ] ' <.%XU.M.t.r.0.0.r.0.J J J S S B S J S H C n B S S A w q B J J *.*.J H s.'.^.x.D.H.I.^.^.'.}.}.|.|.|.",
"u E E ( / t a ! ,.2.2.%.c ~ -.G.G.i.u.u.w.w.r.0.K J H S S C S S J H K B b J S M 0 9 B J P u.P J S f.}.P.d.D.D.L.P.^.'.}.}.}.|.|.",
"; E _ Q a i h k ..,.,.1.c c { m.n.u.w.P P P w.w.P H S S S S J J J H C l M M M l 0 9 B K P *.P J K d.'.P.x.x.D.H.I.^.^.'.'.}.}.}.",
"; d ) s h p p h <.%.,.,.{ Z -.n.i.o.P G J P K J P H S S C S J J H S n B S M M l 5 q B J S J J S H b.L.L.d.d.x.H.L.I._.^.^.'.}.}.",
": d Q s x j a x <.%.%.,.,.,.2.n.e.P G S J P G G J A V B B S G K J B l n M M m Y 9 q G P S S J S S z._.L.f.d.x.D.L.I._.^.^.).'.'.",
"; s s a j j a ] 1. .%.%.<.2.2.n.u.P G M B G G G A A B B M M G P L B m B M M V l w w C P M M S C C z.L.L.s.s.s.x.D.L._._.^.^.).).",
"; a d p h h h { 1. .....,.,.,.-.P C M n n M S G B S B M M B S L B V m B m m B b e e V B M n C z z l.L.L.s.s.s.l.b.L.~.~.^.^.^.).",
"d W u i p a x  .-.{ .. ...%.%.o.C v f q w w b M B B M b b b V G S b m Y b m M b 7 8 e b b l f z z l.L.b.y.p.s.s.z.b.L.~._.^.^.^.",
": s u p i p c { O.[ { { .... .o.b q 9 0 0 0 l M V V V V V N N M V b M b b b b b 9 8 0 V f 0 f z M z.~.z.e.e.y.p.s.z.D.L.~.~.~.~.",
"; p u p i i !  .O.[ | | X.X.{ C q 9 3 3 9 0 l l b N N U U F N w e 9 b b b b b b 9 9 w w 3 1 5 f M z.b.z.e.u.y.p.s.s.z.D.D.D.L.~.",
"% ; t a i i j O. .' [ [ X.| { C 0 3 3 3 3 0 q q w b N F N F N v 2 2 9 q q q b q 9 0 3 3 < 1 1 0 n k.Q.z.u.u.t.p.s.s.k.z.v.b.L.~.",
"& - u a p p h { [ ' ' ^ | | { C 0 3 3 3 5 5 5 5 q b N N N N N e 7 2 1 9 5 r 1 1 1 3 , > , , , 0 n k.v.k.w.w.u.e.y.p.k.k.k.l.v.b.",
"; ; p j u u h { ~ ' ' ' [ [ { n 9 5 3 < 1 3 < 1 3 e v N N N N v e 7 2 1 1 , < 1 > , , # # # > 8 n j.v.k.w.w.w.u.t.t.y.y.y.k.k.c.",
"; ; p p u t h [ ~ ] ~ ~ |  .} B e 5 3 3 3 3 3 < 1 3 9 e e v b v v q < 1 3 , < 3 , , , , > * , 9 b g.c.k.w.*.w.w.u.r.r.y.y.h.j.j.",
"% ; a a u t h ! j c c ~ | | } F w 0 5 3 5 < < 1 < 1 1 1 1 e q q e 9 < 1 3 > , < * > * # + * , 9 b y.c.y.K P P P P w.w.t.h.h.t.h.",
"& y p p t t p ] ! ! ~ ^ [ ' S F w e 0 5 3 < 1 < 1 < 5 1 1 3 9 < 9 3 < < 1 * > 1 = * , * # * > 7 v r.j.t.I I P I P 8.0.r.r.t.t.t.",
"& y p p t t p x j ! ~ ! ^ ] C F N w 0 5 3 3 1 , < 3 < , < < < 3 9 1 # # , # * < = # * # # * > 2 8 G y.r.I I I I P 8.0.r.0.r.r.w.",
"- h ~ j p i i h p h ! Q Q ] C F N v 9 3 , < < < < , * , , < , 3 3 , * * 1 * # , , # # + + # > 2 8 v r.w.I L L I P 8.8.0.r.q.0.w.",
"g =.f.o.} c i i ; u x s j c n N N v 9 3 , > , < 3 < , , < 3 < 1 5 < , < 5 , * * > # # + + # > 2 8 e B w.*.L P I P 8.8.8.w.0.0.0.",
"o + $ O o o o O o O $ $ $ $ # + + + @ X     X X O X X X X     X O X X X X     .   . . . . .     @ @ + 2 1 2 > > > 2 2 2 2 2 2 2 "
};
